<?xml version="1.0" standalone="no"?><!DOCTYPE svg PUBLIC "-//W3C//DTD SVG 1.1//EN" "http://www.w3.org/Graphics/SVG/1.1/DTD/svg11.dtd" ><svg xmlns="http://www.w3.org/2000/svg"><metadata></metadata><defs><font id="Founder:FZYouHeiS-EL-GB	Regular" horiz-adv-x="1000"><font-face font-family="FZYouHeiS-EL-GB" font-weight="400" font-stretch="normal" units-per-em="1000" panose-1="2 0 0 0 0 0 0 0 0 0" ascent="879" descent="-255" x-height="0" bbox="-56 -226 992 832" underline-thickness="50" underline-position="-205" unicode-range="U+0021-ff1b" /><missing-glyph horiz-adv-x="1000"  /><glyph glyph-name="" unicode="!" d="M108 717 l70 0 l-15 -536 l-43 0 l-12 536 ZM176 65 l0 -81 l-66 0 l0 81 l66 0 Z" /><glyph glyph-name="" unicode="&quot;" d="M48 722 l70 0 l-13 -259 l-42 0 l-15 259 ZM193 722 l71 0 l-14 -259 l-41 0 l-16 259 Z" /><glyph glyph-name="" unicode="%" d="M229 -40 l50 0 l402 770 l-51 0 l-401 -770 ZM216 387 q49 0 80 37 q31 38 32 117 q-3 149 -110 150 q-52 0 -81 -38 q-30 -38 -31 -116 q1 -72 33 -111 q31 -39 77 -39 ZM218 732 q75 -1 114 -54 q39 -54 39 -142 q-1 -93 -43 -141 q-42 -49 -116 -49 q-66 1 -107 51 q-41 50 -42 139 q1 94 42 145 q40 50 113 51 ZM691 2 q49 0 81 37 q31 37 32 116 q-3 149 -111 150 q-52 0 -81 -38 q-30 -38 -31 -116 q1 -72 33 -110 q31 -39 77 -39 ZM693 346 q75 -1 114 -54 q40 -53 40 -142 q-1 -93 -43 -140 q-43 -47 -116 -47 q-66 1 -108 49 q-42 49 -43 138 q1 95 42 145 q42 51 114 51 Z" /><glyph glyph-name="" unicode="&amp;" d="M270 18 q150 3 233 117 q-65 59 -130 119 q-64 60 -112 107 q-88 -33 -128 -82 q-39 -49 -38 -104 q1 -76 48 -116 q47 -41 127 -41 ZM304 685 q-49 -1 -82 -37 q-34 -36 -35 -88 q0 -32 20 -68 q21 -36 67 -83 q91 31 124 69 q32 38 30 89 q2 115 -124 118 ZM716 19 l-36 -41 q-20 18 -57 49 q-37 32 -84 75 q-43 -59 -111 -94 q-68 -34 -164 -35 q-101 1 -160 54 q-60 53 -61 140 q1 157 185 227 q-52 53 -71 93 q-20 41 -19 77 q1 65 45 113 q44 48 120 50 q84 -2 130 -46 q46 -44 47 -111 q1 -64 -39 -115 q-40 -51 -133 -80 q36 -35 96 -88 q59 -54 126 -111 q46 85 52 200 l52 -9 q-8 -115 -67 -223 q93 -81 149 -125 Z" /><glyph glyph-name="" unicode="(" d="M304 -226 l-45 0 q-92 82 -143 209 q-51 125 -52 270 q1 146 52 272 q51 127 143 208 l45 0 q-103 -112 -146 -229 q-43 -116 -42 -251 q-1 -134 42 -250 q43 -115 146 -229 Z" /><glyph glyph-name="" unicode=")" d="M82 -226 l-46 0 q103 113 147 228 q43 116 42 251 q1 134 -42 251 q-44 117 -147 229 l46 0 q92 -82 143 -208 q51 -127 52 -272 q-1 -145 -52 -270 q-51 -127 -143 -209 Z" /><glyph glyph-name="" unicode="*" d="M368 636 l16 -55 l-152 -29 l110 -120 l-47 -34 l-85 138 l-84 -136 l-46 35 l106 117 l-152 28 l17 58 l142 -58 l-13 155 l61 0 l-17 -156 l144 57 Z" /><glyph glyph-name="" unicode="+" d="M551 372 l0 -48 l-220 0 l0 -221 l-47 0 l0 221 l-220 0 l0 48 l220 0 l0 219 l47 0 l0 -219 l220 0 Z" /><glyph glyph-name="" unicode="," d="M181 83 l0 -81 q0 -64 -21 -109 q-21 -45 -67 -78 l-24 22 q40 34 58 68 q17 35 17 84 l-52 -1 l0 95 l89 0 Z" /><glyph glyph-name="" unicode="-" d="M493 374 l0 -49 l-435 0 l0 49 l435 0 Z" /><glyph glyph-name="" unicode="." d="M179 82 l0 -95 l-89 0 l0 95 l89 0 Z" /><glyph glyph-name="" unicode="/" d="M45 -26 l-45 0 l230 754 l46 0 l-231 -754 Z" /><glyph glyph-name="" unicode="0" d="M286 17 q84 -2 132 73 q49 75 50 258 q-1 180 -50 258 q-49 77 -137 75 q-79 1 -129 -78 q-49 -79 -51 -255 q1 -180 50 -257 q49 -76 135 -74 ZM284 725 q115 1 177 -91 q62 -92 63 -286 q-1 -189 -64 -282 q-63 -93 -173 -93 q-106 -2 -173 86 q-67 88 -69 289 q2 191 66 284 q65 93 173 93 Z" /><glyph glyph-name="" unicode="1" d="M298 -17 l-53 0 l0 636 q-22 -35 -76 -76 q-55 -40 -139 -79 l0 49 q195 103 229 214 l39 0 l0 -744 Z" /><glyph glyph-name="" unicode="2" d="M510 31 l0 -46 l-477 0 l0 36 q42 84 96 147 q55 63 144 129 q111 82 146 132 q34 49 31 94 q1 69 -42 112 q-42 43 -134 44 q-136 -2 -176 -153 l-50 28 q63 177 242 173 q105 -2 161 -57 q56 -56 56 -139 q3 -65 -37 -123 q-39 -58 -155 -142 q-81 -59 -131 -113 q-49 -54 -87 -122 l413 0 Z" /><glyph glyph-name="" unicode="3" d="M359 372 l0 -2 q85 -17 124 -68 q39 -51 38 -113 q-2 -101 -66 -158 q-65 -56 -175 -57 q-98 0 -161 49 q-64 49 -84 147 l55 15 q15 -89 63 -127 q48 -39 121 -38 q95 1 143 48 q47 46 47 129 q1 63 -44 104 q-44 41 -149 42 l-67 0 l0 44 l39 0 q104 1 148 43 q44 42 43 108 q0 67 -37 105 q-38 37 -117 38 q-79 0 -120 -38 q-41 -37 -52 -116 l-56 17 q18 85 74 134 q55 48 152 49 q108 -2 161 -55 q53 -53 53 -136 q-1 -58 -36 -104 q-35 -45 -97 -60 Z" /><glyph glyph-name="" unicode="4" d="M77 212 l296 0 l0 434 q-5 -13 -18 -33 l-278 -401 ZM526 165 l-102 0 l0 -183 l-51 0 l0 183 l-358 0 l0 31 l369 531 l40 0 l0 -515 l102 0 l0 -47 Z" /><glyph glyph-name="" unicode="5" d="M157 665 l-31 -270 q64 77 172 75 q107 -2 167 -67 q60 -66 61 -171 q-1 -121 -64 -190 q-62 -68 -173 -69 q-205 -1 -249 201 l50 12 q16 -89 66 -128 q50 -40 124 -39 q91 1 141 57 q49 55 50 149 q-1 92 -50 144 q-49 52 -137 53 q-116 3 -176 -97 l-38 6 l43 381 l375 0 l0 -47 l-331 0 Z" /><glyph glyph-name="" unicode="6" d="M95 246 q1 -104 52 -166 q51 -62 143 -64 q90 2 135 58 q44 56 44 144 q0 89 -44 144 q-43 54 -129 56 q-94 -2 -147 -52 q-53 -50 -54 -120 ZM511 563 l-50 -18 q-40 141 -163 136 q-97 1 -151 -80 q-55 -81 -56 -263 q68 126 217 126 q99 -2 158 -69 q59 -67 60 -171 q-1 -110 -63 -180 q-62 -69 -168 -71 q-255 -3 -256 351 q2 406 265 402 q82 -2 136 -47 q54 -46 71 -116 Z" /><glyph glyph-name="" unicode="7" d="M523 712 l0 -33 q-126 -178 -200 -354 q-74 -177 -92 -342 l-60 -1 q41 315 284 683 l-406 0 l0 47 l474 0 Z" /><glyph glyph-name="" unicode="8" d="M288 345 q-96 -2 -141 -48 q-46 -47 -46 -118 q1 -78 52 -121 q51 -43 138 -44 q90 1 139 45 q49 43 50 113 q-1 78 -51 125 q-50 47 -141 48 ZM290 683 q-74 -1 -116 -41 q-42 -40 -43 -108 q1 -74 43 -111 q42 -38 116 -38 q77 1 117 43 q40 41 40 105 q-1 69 -43 109 q-42 40 -114 41 ZM190 366 l0 1 q-52 18 -84 63 q-32 45 -33 100 q1 84 59 139 q58 55 158 57 q97 -3 156 -60 q58 -57 60 -138 q-1 -53 -31 -98 q-31 -46 -83 -63 q1 0 1 -1 q66 -20 104 -73 q38 -53 39 -121 q-1 -91 -64 -145 q-63 -54 -182 -55 q-117 2 -181 57 q-64 57 -65 150 q1 60 39 115 q38 54 107 72 Z" /><glyph glyph-name="" unicode="9" d="M473 450 q-1 104 -52 167 q-51 62 -142 64 q-91 -2 -135 -57 q-45 -56 -45 -144 q0 -89 44 -144 q44 -55 128 -57 q95 2 148 53 q53 50 54 118 ZM57 135 l51 17 q19 -72 60 -104 q42 -33 102 -32 q96 -1 150 81 q55 81 56 263 q-66 -126 -217 -126 q-98 2 -156 69 q-59 67 -60 171 q1 110 62 180 q61 70 168 72 q256 3 256 -353 q-2 -404 -265 -401 q-82 2 -136 47 q-54 46 -71 116 Z" /><glyph glyph-name="" unicode=":" d="M179 509 l0 -96 l-89 0 l0 96 l89 0 ZM179 96 l0 -96 l-89 0 l0 96 l89 0 Z" /><glyph glyph-name="" unicode=";" d="M181 509 l0 -96 l-90 0 l0 96 l90 0 ZM181 93 l0 -80 q2 -126 -89 -186 l-23 21 q39 34 57 68 q18 34 18 84 l-53 -1 l0 94 l90 0 Z" /><glyph glyph-name="" unicode="=" d="M540 262 l0 -48 l-483 0 l0 48 l483 0 ZM540 484 l0 -49 l-483 0 l0 49 l483 0 Z" /><glyph glyph-name="" unicode="?" d="M303 -13 l0 79 l-67 0 l0 -79 l67 0 ZM296 208 l0 -32 l-50 0 l0 36 q-1 49 21 90 q22 42 75 79 q68 47 91 84 q23 36 21 80 q-1 58 -42 98 q-41 40 -112 42 q-83 0 -131 -40 q-48 -40 -68 -124 l-57 18 q29 105 90 149 q62 44 174 43 q101 -3 154 -57 q52 -55 52 -130 q2 -57 -27 -102 q-29 -46 -113 -97 q-80 -49 -78 -137 Z" /><glyph glyph-name="" unicode="A" d="M179 270 l326 0 l-161 388 l-3 0 l-162 -388 ZM625 -17 l-100 239 l-366 0 l-100 -239 l-59 0 l310 735 l60 0 l315 -735 l-60 0 Z" /><glyph glyph-name="" unicode="B" d="M353 343 l-224 0 l0 -310 l239 0 q104 0 151 43 q47 42 46 121 q1 56 -50 100 q-51 44 -162 46 ZM345 669 l-216 0 l0 -278 l215 0 q104 2 147 44 q43 42 42 104 q1 54 -43 91 q-43 37 -145 39 ZM379 -16 l-304 0 l0 733 l284 0 q104 -2 167 -52 q62 -49 64 -124 q1 -66 -37 -111 q-37 -45 -118 -59 l0 -2 q98 -18 144 -68 q45 -49 44 -116 q0 -90 -59 -145 q-60 -54 -185 -56 Z" /><glyph glyph-name="" unicode="C" d="M633 234 l64 -17 q-29 -122 -110 -184 q-82 -61 -207 -61 q-141 2 -233 98 q-92 97 -95 272 q2 172 91 276 q90 104 247 107 q107 -2 182 -59 q76 -57 110 -150 l-60 -15 q-24 73 -84 123 q-61 51 -154 53 q-118 -2 -194 -90 q-76 -89 -79 -238 q3 -158 80 -243 q76 -86 186 -87 q208 1 256 215 Z" /><glyph glyph-name="" unicode="D" d="M339 667 l-206 0 l0 -637 l203 0 q143 -1 216 77 q74 78 74 242 q-1 152 -77 235 q-76 82 -210 83 ZM336 -17 l-259 0 l0 733 l265 0 q158 -1 248 -96 q90 -95 92 -269 q0 -192 -86 -281 q-86 -87 -260 -87 Z" /><glyph glyph-name="" unicode="E" d="M137 31 l488 0 l0 -48 l-543 0 l0 733 l523 0 l0 -49 l-468 0 l0 -280 l442 0 l0 -47 l-442 0 l0 -309 Z" /><glyph glyph-name="" unicode="F" d="M576 666 l-439 0 l0 -279 l384 0 l0 -47 l-384 0 l0 -357 l-56 0 l0 733 l495 0 l0 -50 Z" /><glyph glyph-name="" unicode="G" d="M414 365 l312 0 l0 -266 q-38 -56 -115 -91 q-78 -34 -194 -35 q-158 1 -259 98 q-100 98 -103 276 q2 177 96 277 q93 99 251 101 q137 -3 217 -64 q79 -61 105 -148 l-60 -15 q-28 91 -97 135 q-69 44 -171 44 q-125 -2 -202 -91 q-78 -90 -80 -241 q3 -154 88 -239 q84 -86 208 -87 q91 1 160 29 q69 28 102 75 l0 194 l-258 0 l0 48 Z" /><glyph glyph-name="" unicode="H" d="M597 717 l55 0 l0 -733 l-55 0 l0 357 l-459 0 l0 -357 l-55 0 l0 733 l55 0 l0 -329 l459 0 l0 329 Z" /><glyph glyph-name="" unicode="I" d="M147 -16 l-57 0 l0 732 l57 0 l0 -732 Z" /><glyph glyph-name="" unicode="J" d="M434 717 l0 -516 q1 -119 -47 -174 q-47 -55 -155 -54 q-97 0 -145 53 q-48 54 -56 159 l55 12 q3 -96 39 -136 q36 -41 111 -40 q74 -1 109 40 q34 41 34 135 l0 521 l55 0 Z" /><glyph glyph-name="" unicode="K" d="M602 -16 l-293 392 l-179 -171 l0 -221 l-56 0 l0 732 l56 0 l0 -441 l453 441 l78 0 l-316 -305 l332 -427 l-75 0 Z" /><glyph glyph-name="" unicode="L" d="M531 30 l0 -48 l-459 0 l0 733 l57 0 l0 -685 l402 0 Z" /><glyph glyph-name="" unicode="M" d="M685 715 l93 0 l0 -734 l-52 0 l0 691 l-6 0 l-269 -687 l-46 0 l-268 687 l-7 0 l0 -691 l-52 0 l0 734 l94 0 l255 -667 l3 0 l255 667 Z" /><glyph glyph-name="" unicode="N" d="M568 -18 l-427 692 l-4 0 l0 -692 l-56 0 l0 733 l88 0 l427 -694 l5 0 l0 694 l56 0 l0 -733 l-89 0 Z" /><glyph glyph-name="" unicode="O" d="M398 676 q-123 -2 -205 -90 q-82 -89 -85 -240 q3 -156 84 -242 q81 -85 200 -86 q135 2 215 89 q79 87 81 239 q-3 155 -85 242 q-83 87 -205 88 ZM396 -28 q-158 2 -251 101 q-94 99 -96 272 q2 177 99 277 q96 101 257 103 q157 -4 250 -110 q93 -106 95 -269 q-1 -172 -94 -273 q-93 -99 -260 -101 Z" /><glyph glyph-name="" unicode="P" d="M372 666 l-237 0 l0 -334 l237 0 q105 1 156 47 q50 46 50 129 q0 70 -53 113 q-53 44 -153 45 ZM387 283 l-252 0 l0 -300 l-56 0 l0 733 l314 0 q110 -3 176 -63 q65 -61 67 -148 q0 -103 -63 -162 q-63 -59 -186 -60 Z" /><glyph glyph-name="" unicode="Q" d="M474 -14 l168 -166 l-61 -21 l-168 179 l-24 0 q-156 2 -250 98 q-95 97 -98 272 q2 174 97 274 q94 101 259 103 q150 -3 247 -105 q97 -103 100 -270 q-1 -146 -73 -241 q-71 -96 -197 -123 ZM386 25 q133 1 213 83 q80 83 82 241 q-4 156 -87 242 q-84 86 -202 87 q-122 -1 -205 -87 q-84 -87 -87 -241 q3 -154 82 -239 q79 -85 204 -86 Z" /><glyph glyph-name="" unicode="R" d="M138 666 l0 -301 l262 0 q105 -1 156 36 q50 36 50 118 q4 144 -206 147 l-262 0 ZM722 -17 l-76 0 l-269 334 l-239 0 l0 -334 l-55 0 l0 733 l337 0 q122 -2 183 -58 q61 -55 61 -142 q3 -184 -224 -199 l282 -334 Z" /><glyph glyph-name="" unicode="S" d="M608 531 l-62 -17 q-27 158 -212 162 q-98 -2 -150 -45 q-52 -43 -53 -99 q-2 -51 47 -87 q48 -36 173 -57 q166 -27 224 -80 q57 -54 53 -130 q0 -82 -68 -143 q-68 -60 -203 -63 q-129 -1 -206 50 q-78 53 -106 176 l61 20 q17 -104 78 -151 q62 -47 168 -46 q113 2 165 50 q52 48 51 111 q4 54 -43 95 q-46 41 -188 63 q-137 21 -200 67 q-64 47 -63 125 q0 85 65 138 q65 53 191 55 q124 -1 193 -52 q68 -52 85 -142 Z" /><glyph glyph-name="" unicode="T" d="M604 667 l-262 0 l0 -684 l-55 0 l0 684 l-263 0 l0 48 l580 0 l0 -48 Z" /><glyph glyph-name="" unicode="U" d="M604 293 l0 423 l56 0 l0 -424 q5 -320 -293 -320 q-137 -1 -210 74 q-73 76 -74 246 l0 424 l56 0 l0 -423 q0 -145 57 -209 q57 -64 172 -63 q239 -2 236 272 Z" /><glyph glyph-name="" unicode="V" d="M622 716 l61 0 l-310 -733 l-56 0 l-307 733 l60 0 l276 -685 l2 0 l274 685 Z" /><glyph glyph-name="" unicode="W" d="M894 716 l61 0 l-224 -733 l-54 0 l-181 639 q-2 9 -5 26 q-3 16 -4 25 l-3 0 q-4 -21 -11 -46 l-192 -644 l-54 0 l-214 733 l58 0 l171 -629 q8 -28 13 -60 l2 0 q2 12 6 30 q4 17 7 32 l182 627 l64 0 l173 -626 q7 -31 13 -63 l3 0 q4 29 13 63 l176 626 Z" /><glyph glyph-name="" unicode="X" d="M381 364 l298 -380 l-70 0 l-261 348 l-270 -348 l-68 0 l301 380 l-268 352 l66 0 l239 -326 l238 326 l69 0 l-274 -352 Z" /><glyph glyph-name="" unicode="Y" d="M676 716 l-313 -416 l0 -316 l-54 0 l0 317 l-301 415 l62 0 l267 -375 l275 375 l64 0 Z" /><glyph glyph-name="" unicode="Z" d="M585 716 l0 -35 l-491 -651 l506 0 l0 -46 l-579 0 l0 29 l490 654 l-447 0 l0 49 l521 0 Z" /><glyph glyph-name="" unicode="[" d="M267 -176 l0 -38 l-197 0 l0 935 l195 0 l0 -37 l-149 0 l0 -860 l151 0 Z" /><glyph glyph-name="" unicode="]" d="M14 -214 l0 38 l151 0 l0 860 l-149 0 l0 37 l195 0 l0 -935 l-197 0 Z" /><glyph glyph-name="" unicode="_" d="M605 -117 l0 -40 l-605 0 l0 40 l605 0 Z" /><glyph glyph-name="" unicode="a" d="M447 202 l0 103 q-14 -20 -54 -34 q-41 -15 -124 -25 q-102 -10 -139 -41 q-36 -31 -34 -83 q-1 -54 31 -78 q32 -24 108 -23 q106 2 159 55 q53 52 53 126 ZM109 364 l-52 14 q19 80 74 118 q55 37 162 37 q119 0 163 -46 q45 -47 43 -142 l0 -240 q0 -45 7 -70 q7 -24 24 -48 l-56 -1 q-26 24 -28 106 q-25 -54 -84 -86 q-60 -31 -150 -32 q-79 0 -124 37 q-45 38 -46 112 q-1 66 45 110 q46 44 148 55 q112 13 155 27 q42 14 55 32 q2 73 -30 107 q-33 34 -125 34 q-82 1 -125 -29 q-43 -29 -56 -95 Z" /><glyph glyph-name="" unicode="b" d="M118 306 l0 -84 q1 -94 47 -149 q46 -56 129 -57 q84 0 130 57 q46 57 47 175 q-1 115 -49 177 q-47 62 -130 63 q-59 -1 -115 -51 q-55 -50 -59 -131 ZM118 -15 l-51 0 l0 733 l51 0 l0 -302 q28 59 77 88 q48 29 108 29 q100 -1 160 -74 q59 -73 61 -210 q-2 -142 -61 -209 q-60 -67 -149 -66 q-66 -1 -116 26 q-50 26 -80 92 l0 -107 Z" /><glyph glyph-name="" unicode="c" d="M492 373 l-53 -15 q-10 47 -51 87 q-40 39 -108 41 q-85 0 -133 -58 q-49 -59 -50 -176 q1 -118 51 -176 q50 -57 132 -57 q68 0 113 39 q44 38 53 115 l54 -14 q-20 -98 -74 -142 q-54 -44 -149 -43 q-103 -1 -169 66 q-66 68 -68 211 q1 132 64 207 q63 74 169 75 q88 -1 145 -45 q57 -45 74 -115 Z" /><glyph glyph-name="" unicode="d" d="M441 222 l0 84 q-4 81 -59 131 q-56 50 -115 51 q-83 -1 -130 -63 q-48 -62 -49 -177 q1 -118 47 -175 q46 -57 130 -57 q83 1 129 57 q46 55 47 149 ZM492 -15 l-51 0 l0 107 q-30 -66 -80 -92 q-50 -27 -116 -26 q-89 -1 -148 66 q-60 67 -62 209 q2 137 61 210 q60 73 160 74 q60 0 108 -29 q49 -29 77 -88 l0 302 l51 0 l0 -733 Z" /><glyph glyph-name="" unicode="e" d="M469 149 l56 -13 q-46 -162 -234 -162 q-109 0 -180 68 q-70 69 -73 205 q2 133 68 209 q67 76 181 77 q121 -2 182 -79 q60 -77 60 -209 l0 -11 l-434 0 q2 -105 54 -160 q53 -55 138 -55 q153 3 182 130 ZM97 279 l373 0 q1 91 -43 148 q-44 56 -139 58 q-89 -2 -140 -59 q-50 -57 -51 -147 Z" /><glyph glyph-name="" unicode="f" d="M150 588 l0 -67 l120 0 l0 -46 l-120 0 l0 -489 l-54 0 l0 489 l-96 0 l0 46 l96 0 l0 70 q0 73 27 105 q28 32 90 31 q28 0 57 -7 q29 -7 43 -15 l-12 -38 q-21 16 -68 16 q-50 1 -67 -20 q-17 -22 -16 -75 Z" /><glyph glyph-name="" unicode="g" d="M450 236 l0 81 q-1 71 -47 121 q-47 50 -125 52 q-91 -1 -140 -61 q-50 -60 -51 -167 q2 -121 54 -171 q52 -50 129 -48 q82 0 131 48 q48 48 49 145 ZM503 521 l0 -461 q2 -138 -54 -199 q-56 -60 -194 -59 q-64 0 -116 21 q-52 22 -83 58 l27 30 q29 -30 75 -47 q46 -18 96 -18 q108 0 153 47 q44 47 43 142 l0 71 q-44 -102 -194 -106 q-102 0 -161 65 q-60 65 -61 198 q2 124 64 196 q62 72 166 74 q73 -1 120 -30 q47 -30 66 -73 l0 91 l53 0 Z" /><glyph glyph-name="" unicode="h" d="M496 329 l0 -344 l-52 0 l0 337 q1 87 -33 127 q-34 41 -113 40 q-80 0 -128 -50 q-47 -51 -50 -147 l0 -307 l-52 0 l0 732 l52 0 l0 -303 q26 57 77 88 q51 31 112 31 q102 0 145 -51 q43 -51 42 -153 Z" /><glyph glyph-name="" unicode="i" d="M119 -15 l-52 0 l0 537 l52 0 l0 -537 ZM119 640 l-52 0 l0 79 l52 0 l0 -79 Z" /><glyph glyph-name="" unicode="j" d="M133 639 l-54 0 l0 79 l54 0 l0 -79 ZM133 522 l0 -599 q0 -65 -23 -93 q-24 -29 -78 -28 q-48 0 -88 21 l8 29 q28 -11 61 -11 q35 -1 51 17 q15 19 15 69 l0 595 l54 0 Z" /><glyph glyph-name="" unicode="l" d="M118 -15 l-51 0 l0 732 l51 0 l0 -732 Z" /><glyph glyph-name="" unicode="m" d="M782 329 l0 -344 l-53 0 l0 337 q1 87 -28 127 q-30 40 -98 40 q-58 0 -102 -41 q-43 -42 -51 -129 l0 -334 l-53 0 l0 337 q1 87 -28 127 q-29 40 -98 40 q-63 1 -105 -41 q-42 -42 -48 -135 l0 -328 l-50 0 l0 536 l50 0 l0 -103 q23 56 66 85 q43 29 97 29 q144 0 163 -129 q18 65 63 98 q45 32 105 32 q91 0 131 -51 q40 -51 39 -153 Z" /><glyph glyph-name="" unicode="n" d="M500 327 l0 -343 l-52 0 l0 337 q0 88 -37 128 q-37 40 -111 39 q-69 -1 -119 -46 q-51 -44 -60 -124 l0 -335 l-51 0 l0 536 l51 0 l0 -110 q24 54 76 88 q51 34 114 35 q100 0 145 -51 q45 -51 44 -154 Z" /><glyph glyph-name="" unicode="o" d="M284 487 q-92 -1 -142 -64 q-51 -63 -52 -177 q2 -112 57 -172 q55 -60 137 -61 q85 1 137 61 q51 61 52 175 q-1 111 -53 174 q-51 63 -136 64 ZM280 -28 q-111 2 -178 74 q-66 73 -68 198 q-1 123 61 204 q62 80 195 83 q111 -2 175 -77 q64 -75 65 -202 q0 -134 -64 -207 q-63 -72 -186 -73 Z" /><glyph glyph-name="" unicode="p" d="M119 305 l0 -84 q0 -96 46 -151 q45 -55 130 -56 q173 1 175 232 q-1 115 -49 177 q-48 62 -137 63 q-75 -2 -119 -54 q-45 -53 -46 -127 ZM119 -201 l-52 0 l0 721 l52 0 l0 -101 q45 112 179 112 q106 -2 166 -78 q59 -77 60 -206 q0 -124 -54 -199 q-53 -74 -153 -76 q-70 0 -121 27 q-52 27 -77 86 l0 -286 Z" /><glyph glyph-name="" unicode="r" d="M355 505 l-24 -53 q-29 28 -80 27 q-60 -1 -96 -52 q-37 -52 -38 -149 l0 -294 l-52 0 l0 536 l52 0 l0 -101 l1 0 q21 55 58 84 q38 29 81 29 q34 0 56 -6 q21 -6 42 -21 Z" /><glyph glyph-name="" unicode="s" d="M450 393 l-53 -16 q-22 107 -145 109 q-73 -1 -109 -28 q-35 -28 -35 -75 q-3 -40 31 -63 q35 -24 139 -41 q109 -19 153 -57 q43 -37 41 -93 q0 -71 -53 -113 q-53 -42 -161 -43 q-94 -1 -148 38 q-53 39 -77 125 l51 14 q17 -74 60 -104 q43 -31 113 -30 q84 1 123 32 q39 31 38 77 q2 41 -30 67 q-32 27 -128 43 q-116 20 -162 55 q-45 34 -43 93 q0 63 49 105 q48 42 142 44 q173 -3 204 -139 Z" /><glyph glyph-name="" unicode="t" d="M261 24 l10 -29 q-30 -22 -79 -21 q-48 -1 -72 24 q-25 24 -25 90 l0 388 l-84 0 l0 44 l84 0 l0 156 l54 27 l0 -183 l109 0 l0 -44 l-109 0 l0 -386 q0 -46 14 -63 q15 -17 47 -16 q34 1 51 13 Z" /><glyph glyph-name="" unicode="u" d="M443 519 l52 0 l0 -534 l-52 0 l0 108 q-24 -53 -75 -86 q-51 -33 -114 -34 q-100 0 -144 49 q-45 50 -44 153 l0 346 l51 0 l0 -337 q0 -89 37 -130 q37 -41 111 -40 q71 1 122 48 q50 48 56 134 l0 323 Z" /><glyph glyph-name="" unicode="v" d="M441 521 l58 0 l-218 -536 l-58 0 l-211 536 l58 0 l180 -493 l4 0 l187 493 Z" /><glyph glyph-name="" unicode="w" d="M677 521 l56 0 l-188 -536 l-55 0 l-119 490 l-2 0 l-127 -490 l-56 0 l-182 536 l56 0 l150 -492 l4 0 l128 492 l55 0 l121 -492 l4 0 l155 492 Z" /><glyph glyph-name="" unicode="x" d="M426 521 l64 0 l-200 -264 l213 -272 l-65 0 l-179 246 l-188 -246 l-62 0 l219 272 l-198 264 l61 0 l167 -239 l168 239 Z" /><glyph glyph-name="" unicode="y" d="M443 521 l59 0 l-238 -568 q-39 -96 -71 -125 q-32 -29 -71 -26 q-23 0 -48 6 q-25 6 -39 15 l10 30 q28 -9 65 -8 q30 -3 56 22 q25 25 58 110 q3 9 11 26 l-220 518 l56 0 l188 -463 l184 463 Z" /><glyph glyph-name="" unicode="z" d="M489 30 l0 -44 l-469 0 l0 28 l376 461 l-352 0 l0 46 l430 0 l0 -27 l-381 -464 l396 0 Z" /><glyph glyph-name="" unicode="{" d="M96 252 l1 -2 q52 -13 73 -43 q21 -29 20 -70 l0 -240 q-1 -36 26 -59 q27 -23 99 -24 l0 -40 q-93 1 -131 31 q-39 31 -38 90 l0 238 q1 47 -26 74 q-28 26 -93 29 l0 32 q65 2 93 29 q27 27 26 75 l0 242 q-1 59 38 90 q38 30 131 30 l0 -38 q-72 -1 -99 -24 q-27 -24 -26 -61 l0 -243 q1 -42 -20 -72 q-22 -31 -74 -44 Z" /><glyph glyph-name="" unicode="|" d="M140 -214 l-46 0 l0 943 l46 0 l0 -943 Z" /><glyph glyph-name="" unicode="}" d="M242 250 l0 2 q-52 13 -73 44 q-20 30 -19 72 l0 243 q1 37 -27 61 q-28 23 -100 24 l0 38 q93 0 132 -30 q39 -31 38 -90 l0 -242 q-1 -48 26 -75 q28 -27 92 -29 l0 -32 q-64 -3 -92 -29 q-27 -27 -26 -74 l0 -239 q1 -58 -38 -89 q-39 -30 -132 -30 l0 38 q72 2 100 25 q28 23 27 60 l0 239 q-1 41 19 70 q21 30 73 43 Z" /><glyph glyph-name="" unicode="°" d="M250 712 q-40 -1 -67 -31 q-28 -30 -29 -70 q1 -40 29 -70 q27 -30 67 -31 q40 1 68 31 q27 30 28 70 q-1 40 -28 70 q-28 30 -68 31 ZM393 611 q-1 -62 -41 -102 q-40 -40 -102 -41 q-62 1 -102 41 q-40 40 -41 102 q1 62 41 102 q40 40 102 41 q62 -1 102 -41 q40 -40 41 -102 Z" /><glyph glyph-name="" unicode="±" d="M756 456 l0 -52 l-230 0 l0 -196 l-51 0 l0 196 l-231 0 l0 52 l231 0 l0 196 l51 0 l0 -196 l230 0 ZM756 87 l0 53 l-512 0 l0 -53 l512 0 Z" /><glyph glyph-name="" unicode="&#x2026;" d="M219 301 l-93 0 l0 101 l93 0 l0 -101 ZM546 301 l-94 0 l0 101 l94 0 l0 -101 ZM873 301 l-94 0 l0 101 l94 0 l0 -101 Z" /><glyph glyph-name="" unicode="&#x2103;" d="M833 162 l58 -34 q-41 -98 -103 -136 q-62 -39 -178 -38 q-133 1 -213 102 q-81 102 -83 293 q3 182 83 288 q80 106 207 108 q99 1 167 -33 q68 -35 110 -119 l-57 -29 q-31 65 -79 97 q-48 32 -135 32 q-98 -1 -164 -89 q-65 -88 -68 -248 q2 -180 69 -266 q67 -87 169 -86 q171 -1 217 158 ZM146 662 q1 -33 23 -55 q22 -22 54 -23 q32 1 54 23 q21 22 22 55 q-1 32 -22 54 q-22 21 -54 22 q-32 -1 -54 -22 q-22 -22 -23 -54 ZM109 662 q1 48 33 81 q33 32 81 33 q48 -1 80 -33 q32 -33 33 -81 q-1 -49 -33 -81 q-32 -33 -80 -34 q-48 1 -81 34 q-32 32 -33 81 Z" /><glyph glyph-name="" unicode="&#x3001;" d="M134 144 l38 32 l193 -217 l-42 -37 l-189 222 Z" /><glyph glyph-name="" unicode="&#x3002;" d="M156 50 q1 -39 28 -65 q26 -26 66 -27 q40 1 67 27 q26 26 27 65 q-1 40 -27 67 q-27 26 -67 27 q-40 -1 -66 -27 q-27 -27 -28 -67 ZM121 50 q1 55 38 92 q36 37 91 38 q55 -1 92 -38 q36 -37 37 -92 q-1 -54 -37 -90 q-37 -36 -92 -37 q-55 1 -91 37 q-37 36 -38 90 Z" /><glyph glyph-name="" unicode="&#x300a;" d="M668 832 l-212 -482 l213 -478 l-53 0 l-210 479 l208 481 l54 0 ZM806 832 l-211 -482 l213 -478 l-54 0 l-210 479 l209 481 l53 0 Z" /><glyph glyph-name="" unicode="&#x300b;" d="M332 832 l54 0 l208 -481 l-210 -479 l-53 0 l213 478 l-212 482 ZM194 832 l53 0 l209 -481 l-210 -479 l-54 0 l213 478 l-211 482 Z" /><glyph glyph-name="" unicode="&#x4e00;" d="M49 401 l902 0 l0 -48 l-902 0 l0 48 Z" /><glyph glyph-name="" unicode="&#x4e07;" d="M54 718 l882 0 l0 -44 l-536 0 q-1 -43 -3 -107 q-2 -64 -6 -112 l419 0 l-19 -396 q-4 -137 -139 -138 q-25 0 -56 3 q-30 2 -45 4 q1 20 -14 49 q22 -3 54 -7 q33 -4 60 -4 q94 1 94 98 l17 349 l-374 0 q-16 -174 -79 -294 q-63 -119 -195 -212 q-23 18 -50 25 q140 92 204 217 q64 124 75 303 q4 50 6 108 q2 58 3 114 l-298 0 l0 44 Z" /><glyph glyph-name="" unicode="&#x4e09;" d="M128 707 l745 0 l0 -46 l-745 0 l0 46 ZM51 4 l898 0 l0 -45 l-898 0 l0 45 ZM198 379 l600 0 l0 -46 l-600 0 l0 46 Z" /><glyph glyph-name="" unicode="&#x4e0a;" d="M52 -19 l390 0 l0 821 l48 0 l0 -323 l369 0 l0 -44 l-369 0 l0 -454 l457 0 l0 -44 l-895 0 l0 44 Z" /><glyph glyph-name="" unicode="&#x4e0b;" d="M58 721 l884 0 l0 -44 l-437 0 l0 -781 l-48 0 l0 781 l-399 0 l0 44 ZM559 436 l37 29 q36 -24 88 -64 q52 -40 103 -82 q50 -41 81 -70 l-24 -42 q-57 53 -138 118 q-81 65 -147 111 Z" /><glyph glyph-name="" unicode="&#x4e0d;" d="M82 720 l848 0 l0 -44 l-345 0 q-38 -102 -99 -191 l37 0 l0 -589 l-48 0 l0 572 q-78 -111 -180 -197 q-101 -87 -210 -143 q-19 21 -48 31 q113 54 213 137 q100 84 174 182 q74 98 109 198 l-451 0 l0 44 ZM599 404 l37 26 q43 -32 103 -82 q59 -49 116 -100 q57 -51 92 -87 l-29 -42 q-68 70 -157 150 q-90 79 -162 135 Z" /><glyph glyph-name="" unicode="&#x4e0e;" d="M262 802 l46 -3 l-13 -146 l604 0 l0 -42 l-607 0 l-17 -202 l598 0 l-21 -359 q-12 -147 -157 -144 q-47 1 -96 8 q-1 28 -14 49 q25 -4 56 -8 q32 -4 56 -4 q101 -4 109 103 l18 313 l-599 0 l37 435 ZM68 177 l646 0 l0 -42 l-646 0 l0 42 Z" /><glyph glyph-name="" unicode="&#x4e13;" d="M55 459 l305 0 q28 72 52 152 l-282 0 l0 44 l295 0 q23 82 37 158 l48 -19 q-14 -64 -36 -139 l393 0 l0 -44 l-407 0 q-24 -79 -52 -152 l534 0 l0 -44 l-551 0 q-35 -89 -63 -140 l461 0 l0 -37 q-35 -63 -83 -127 q-48 -63 -100 -113 q87 -37 141 -64 l-17 -44 q-54 28 -138 64 q-85 36 -169 68 q-85 32 -140 49 l24 37 q49 -16 117 -41 q68 -25 138 -53 q55 57 100 116 q44 58 70 103 l-457 0 l0 40 q28 45 68 142 l-288 0 l0 44 Z" /><glyph glyph-name="" unicode="&#x4e14;" d="M236 744 l527 0 l0 -763 l193 0 l0 -44 l-912 0 l0 44 l192 0 l0 763 ZM284 194 l0 -213 l431 0 l0 213 l-431 0 ZM284 447 l0 -211 l431 0 l0 211 l-431 0 ZM284 700 l0 -211 l431 0 l0 211 l-431 0 Z" /><glyph glyph-name="" unicode="&#x4e16;" d="M460 797 l48 0 l0 -297 l217 0 l0 297 l48 0 l0 -297 l181 0 l0 -44 l-181 0 l0 -316 l-313 0 l0 316 l-215 0 l0 -475 l660 0 l0 -44 l-708 0 l0 519 l-152 0 l0 44 l152 0 l0 279 l48 0 l0 -279 l215 0 l0 297 ZM508 182 l217 0 l0 274 l-217 0 l0 -274 Z" /><glyph glyph-name="" unicode="&#x4e1a;" d="M364 796 l46 0 l0 -799 l180 0 l0 799 l46 0 l0 -799 l316 0 l0 -44 l-904 0 l0 44 l316 0 l0 799 ZM841 570 l44 -18 q-32 -97 -72 -187 q-41 -90 -85 -167 q-21 13 -47 14 q51 87 92 179 q41 91 68 179 ZM105 555 l48 10 q29 -57 70 -149 q41 -93 73 -176 l-42 -30 q-35 96 -75 187 q-39 91 -74 158 Z" /><glyph glyph-name="" unicode="&#x4e1c;" d="M74 646 l287 0 q47 91 80 169 l42 -24 q-31 -72 -69 -145 l512 0 l0 -42 l-534 0 q-76 -142 -158 -257 l278 0 l0 181 l46 0 l0 -181 l291 0 l0 -42 l-291 0 l0 -298 q0 -108 -102 -105 q-43 1 -99 10 q-1 24 -16 48 q29 -5 59 -9 q31 -4 53 -4 q61 -4 59 68 l0 290 l-338 0 l0 39 q37 43 80 112 q42 69 85 148 l-265 0 l0 42 ZM295 211 l41 -22 q-40 -67 -103 -134 q-63 -67 -131 -116 q-23 18 -47 24 q74 50 137 116 q62 66 103 132 ZM681 179 l41 23 q62 -56 124 -116 q62 -61 104 -106 l-31 -40 q-52 58 -117 123 q-65 66 -121 116 Z" /><glyph glyph-name="" unicode="&#x4e1d;" d="M862 598 l40 -21 q-125 -201 -285 -386 l259 28 l15 -40 l-266 -30 q-48 -5 -78 -17 l-25 43 q15 5 30 15 q15 10 35 33 q35 38 77 90 q42 53 84 111 l-165 -16 q-35 -3 -62 -12 l-21 41 q24 11 47 39 q47 61 102 153 q55 91 90 168 l43 -23 q-25 -50 -63 -113 q-37 -64 -75 -122 q-38 -58 -66 -90 l199 17 q48 68 85 132 ZM451 598 l40 -21 q-38 -69 -90 -147 q-52 -78 -101 -143 q-49 -65 -78 -96 l249 38 l15 -39 l-260 -41 q-42 -7 -72 -18 l-28 43 q17 6 32 17 q15 11 35 33 q72 81 153 201 l-166 -16 q-35 -3 -62 -12 l-21 41 q24 11 47 39 q47 61 102 152 q55 91 90 168 l43 -23 q-25 -50 -63 -113 q-37 -64 -75 -121 q-38 -58 -66 -90 l198 16 q41 65 78 132 ZM44 -8 l912 0 l0 -44 l-912 0 l0 44 Z" /><glyph glyph-name="" unicode="&#x4e2a;" d="M496 810 l41 -26 q-8 -19 -17 -37 q46 -71 119 -143 q74 -71 162 -130 q88 -59 180 -92 q-29 -14 -48 -41 q-133 61 -249 160 q-116 98 -186 207 q-74 -126 -187 -226 q-112 -100 -241 -160 q-17 19 -45 35 q96 41 189 110 q94 69 168 156 q75 88 114 187 ZM476 493 l48 0 l0 -597 l-48 0 l0 597 Z" /><glyph glyph-name="" unicode="&#x4e2d;" d="M475 805 l48 0 l0 -200 l361 0 l0 -426 l-46 0 l0 66 l-315 0 l0 -349 l-48 0 l0 349 l-314 0 l0 -66 l-46 0 l0 426 l360 0 l0 200 ZM838 561 l-315 0 l0 -272 l315 0 l0 272 ZM161 561 l0 -272 l314 0 l0 272 l-314 0 Z" /><glyph glyph-name="" unicode="&#x4e32;" d="M477 805 l46 0 l0 -120 l306 0 l0 -229 l-306 0 l0 -118 l350 0 l0 -310 l-44 0 l0 64 l-306 0 l0 -196 l-46 0 l0 196 l-305 0 l0 -64 l-44 0 l0 310 l349 0 l0 118 l-305 0 l0 229 l305 0 l0 120 ZM829 296 l-306 0 l0 -162 l306 0 l0 162 ZM172 296 l0 -162 l305 0 l0 162 l-305 0 ZM785 643 l-262 0 l0 -145 l262 0 l0 145 ZM216 643 l0 -145 l261 0 l0 145 l-261 0 Z" /><glyph glyph-name="" unicode="&#x4e3a;" d="M118 538 l319 0 q14 117 19 267 l47 -6 q-4 -72 -8 -139 q-5 -68 -12 -122 l396 0 l-25 -471 q-11 -144 -158 -144 q-48 0 -91 7 q-2 27 -18 51 q24 -4 54 -7 q29 -3 55 -3 q108 -2 113 103 l22 420 l-354 0 q-60 -410 -369 -593 q-20 20 -47 28 q164 96 253 237 q90 141 117 328 l-313 0 l0 44 ZM514 333 l39 21 q35 -38 74 -90 q40 -53 65 -92 l-34 -35 q-29 48 -69 104 q-41 55 -75 92 ZM193 727 l35 25 q36 -30 73 -68 q37 -39 61 -70 l-27 -35 q-26 32 -65 73 q-39 41 -77 75 Z" /><glyph glyph-name="" unicode="&#x4e3b;" d="M165 309 l311 0 l0 254 l-372 0 l0 44 l791 0 l0 -44 l-371 0 l0 -254 l311 0 l0 -44 l-311 0 l0 -273 l416 0 l0 -44 l-882 0 l0 44 l418 0 l0 273 l-311 0 l0 44 ZM375 785 l42 25 q39 -27 90 -71 q52 -44 83 -78 l-28 -39 q-39 40 -93 88 q-54 47 -94 75 Z" /><glyph glyph-name="" unicode="&#x4e49;" d="M804 679 q-69 -283 -267 -487 q170 -155 425 -229 q-34 -24 -50 -52 q-243 95 -409 247 q-167 -155 -416 -250 q-16 27 -49 45 q256 80 429 240 q-193 196 -283 464 l42 28 q84 -265 276 -459 q198 203 254 475 l48 -22 ZM385 777 l38 21 q41 -37 84 -83 q43 -47 76 -91 l-33 -31 q-35 46 -81 98 q-46 51 -84 86 Z" /><glyph glyph-name="" unicode="&#x4e4b;" d="M194 121 q5 1 12 -2 q87 48 202 128 q116 79 220 162 q104 83 156 141 l-657 0 l0 44 l731 0 l0 -37 q-63 -71 -165 -156 q-102 -85 -219 -166 q-116 -82 -223 -143 q62 -52 147 -77 q85 -25 211 -28 q91 -2 184 0 q92 2 168 9 q-13 -17 -17 -28 q-4 -11 -7 -28 q-67 -2 -145 -2 q-78 0 -151 2 q-158 3 -253 31 q-94 28 -163 86 q-21 18 -31 18 q-8 1 -28 -23 q-21 -26 -44 -59 q-24 -34 -41 -63 l-37 31 q23 35 50 70 q27 36 49 61 q27 30 51 29 ZM366 783 l35 30 q44 -31 92 -73 q49 -42 88 -83 l-29 -34 q-42 41 -90 83 q-49 42 -96 77 Z" /><glyph glyph-name="" unicode="&#x4e50;" d="M497 610 l46 0 l0 -240 l348 0 l0 -42 l-348 0 l0 -315 q3 -112 -109 -109 q-40 1 -93 9 q-1 24 -16 49 q27 -5 56 -9 q29 -4 51 -4 q36 0 51 16 q15 17 14 55 l0 308 l-343 0 l43 384 q101 0 220 8 q119 8 224 20 q105 13 163 26 l31 -42 q-86 -15 -193 -27 q-106 -11 -213 -18 q-106 -7 -191 -8 l-34 -301 l293 0 l0 240 ZM285 234 l44 -20 q-43 -73 -106 -141 q-64 -68 -122 -111 q-20 16 -44 23 q68 50 130 116 q62 66 98 133 ZM685 212 l42 20 q28 -26 70 -71 q42 -44 81 -89 q40 -44 61 -71 l-32 -37 q-42 55 -106 126 q-63 71 -116 122 Z" /><glyph glyph-name="" unicode="&#x4e5f;" d="M506 805 l46 0 l0 -258 l280 67 l-9 -345 q-3 -99 -100 -99 q-33 1 -63 4 q-1 24 -12 46 q40 -6 73 -7 q58 -3 58 65 l8 282 l-235 -56 l0 -418 l-46 0 l0 407 l-236 -56 l0 -385 q4 -67 75 -70 l451 -1 q82 -2 103 82 q8 33 15 71 q19 -24 40 -34 q-6 -33 -14 -60 q-17 -56 -51 -79 q-34 -24 -93 -23 l-454 -1 q-116 1 -118 111 l0 378 l-168 -40 l-15 39 l183 43 l0 265 l46 0 l0 -254 l236 57 l0 269 Z" /><glyph glyph-name="" unicode="&#x4e60;" d="M119 705 l747 0 l-21 -631 q-2 -161 -162 -158 q-24 0 -54 3 q-29 3 -48 5 q-1 28 -15 50 q70 -10 115 -11 q112 -3 116 117 l20 581 l-698 0 l0 44 ZM81 57 q83 30 200 82 q116 53 225 109 q110 55 170 92 l30 -35 q-62 -37 -174 -94 q-111 -57 -226 -111 q-115 -54 -189 -82 l-36 39 ZM239 543 l36 28 q29 -22 70 -57 q41 -35 80 -72 q39 -37 63 -64 l-30 -38 q-36 43 -101 104 q-65 60 -118 99 Z" /><glyph glyph-name="" unicode="&#x4e70;" d="M565 652 l47 -5 q-3 -147 -16 -238 q-13 -91 -41 -166 l381 0 l0 -42 l-399 0 q-50 -110 -152 -183 q-102 -73 -261 -118 q-15 24 -42 38 q161 43 261 107 q99 66 146 156 l-424 0 l0 42 l443 0 q0 2 2 5 q29 73 40 160 q12 87 15 244 ZM104 745 l786 0 l0 -38 l-67 -175 q-24 7 -47 6 l64 165 l-736 0 l0 42 ZM594 115 l34 31 q62 -40 135 -94 q74 -54 132 -101 l-25 -43 q-67 57 -141 113 q-74 56 -135 94 ZM139 429 l31 34 q50 -26 104 -57 q54 -31 94 -59 l-19 -40 q-49 33 -104 65 q-55 32 -106 57 ZM238 582 l30 31 q40 -23 95 -59 q55 -36 92 -66 l-20 -38 q-43 32 -99 70 q-57 37 -98 62 Z" /><glyph glyph-name="" unicode="&#x4e8e;" d="M44 404 l440 0 l0 290 l-345 0 l0 44 l721 0 l0 -44 l-328 0 l0 -290 l423 0 l0 -44 l-423 0 l0 -341 q-2 -107 -110 -109 q-44 1 -93 9 q-2 23 -17 50 q66 -12 104 -12 q69 -2 68 70 l0 333 l-440 0 l0 44 Z" /><glyph glyph-name="" unicode="&#x4e91;" d="M598 200 l39 20 q28 -28 73 -76 q46 -49 90 -100 q45 -49 71 -82 l-25 -41 q-24 33 -58 71 l-536 -23 q-37 -2 -76 -12 l-23 40 q32 8 58 39 q60 72 127 166 q67 94 119 180 l-397 0 l0 42 l879 0 l0 -42 l-428 0 q-27 -47 -75 -119 q-49 -72 -100 -142 q-51 -70 -86 -111 l505 18 q-42 48 -83 93 q-41 45 -74 79 ZM191 708 l616 0 l0 -42 l-616 0 l0 42 Z" /><glyph glyph-name="" unicode="&#x4e94;" d="M180 399 l211 0 l47 284 l-326 0 l0 44 l774 0 l0 -44 l-399 0 l-47 -284 l342 0 l0 -418 l170 0 l0 -44 l-903 0 l0 44 l273 0 l62 376 l-204 0 l0 42 ZM736 357 l-303 0 l-63 -376 l366 0 l0 376 Z" /><glyph glyph-name="" unicode="&#x4e9b;" d="M48 299 l96 22 l0 374 l44 0 l0 -363 l142 33 l0 436 l44 0 l0 -177 l148 0 l0 -40 l-148 0 l0 -209 l137 32 l22 -34 l-459 -112 l-26 38 ZM591 803 l44 0 l0 -221 q64 26 129 58 q65 33 117 66 l34 -31 q-123 -73 -280 -133 l0 -160 q-2 -49 49 -48 l121 0 q37 0 57 13 q19 13 29 45 q7 23 16 57 q16 -20 37 -32 q-3 -11 -8 -27 q-6 -16 -9 -25 q-24 -75 -122 -73 l-122 0 q-95 -2 -92 89 l0 422 ZM56 -20 l887 0 l0 -42 l-887 0 l0 42 ZM174 177 l651 0 l0 -42 l-651 0 l0 42 Z" /><glyph glyph-name="" unicode="&#x4ea4;" d="M296 361 l37 30 q63 -137 173 -235 q97 103 142 245 l40 -29 q-50 -141 -147 -246 q167 -132 417 -171 q-27 -18 -43 -50 q-241 55 -408 188 q-143 -133 -408 -198 q-18 24 -46 40 q143 33 246 79 q102 47 173 110 q-107 98 -176 237 ZM85 636 l831 0 l0 -44 l-831 0 l0 44 ZM348 545 l39 -24 q-46 -61 -108 -116 q-61 -56 -129 -97 q-18 17 -45 31 q71 39 137 96 q66 56 106 110 ZM602 519 l37 27 q58 -39 121 -89 q64 -50 115 -98 l-25 -43 q-56 52 -120 106 q-65 53 -128 97 ZM394 782 l40 25 q35 -26 71 -57 q36 -31 66 -63 l-29 -38 q-28 31 -70 68 q-42 37 -78 65 Z" /><glyph glyph-name="" unicode="&#x4ea7;" d="M707 599 l45 -21 q-25 -44 -62 -93 q-37 -50 -70 -85 l308 0 l0 -44 l-744 0 q5 -178 -20 -284 q-25 -104 -88 -179 q-21 14 -49 18 q47 55 72 114 q26 59 34 146 q8 88 2 229 l425 0 q33 31 77 90 q44 59 70 109 ZM406 783 l44 25 q36 -27 70 -60 q35 -33 56 -57 l-21 -20 l367 0 l0 -44 l-837 0 l0 44 l444 0 q-26 27 -61 59 q-36 32 -62 53 ZM285 570 l43 19 q28 -28 59 -68 q31 -39 52 -73 l-34 -31 q-26 41 -58 83 q-33 41 -62 70 Z" /><glyph glyph-name="" unicode="&#x4eab;" d="M220 586 l560 0 l0 -191 l-560 0 l0 191 ZM186 319 l614 0 l0 -35 q-97 -56 -270 -110 l0 -29 l413 0 l0 -40 l-413 0 l0 -108 q1 -95 -97 -94 q-44 0 -83 5 q-3 24 -16 49 q49 -10 96 -10 q53 1 54 53 l0 105 l-427 0 l0 40 l427 0 l0 57 q139 41 218 77 l-516 0 l0 40 ZM736 546 l-472 0 l0 -111 l472 0 l0 111 ZM400 790 l36 28 q71 -46 128 -94 l-16 -24 l366 0 l0 -40 l-826 0 l0 40 l438 0 q-28 23 -62 47 q-34 24 -64 43 Z" /><glyph glyph-name="" unicode="&#x4eae;" d="M245 586 l510 0 l0 -182 l-510 0 l0 182 ZM329 214 l331 0 l0 -179 q-1 -38 15 -53 q15 -15 53 -14 l91 -1 q60 1 71 57 q7 32 10 63 q19 -22 40 -30 q-4 -26 -9 -47 q-12 -45 -36 -65 q-25 -20 -73 -19 l-99 -1 q-108 -4 -107 102 l0 147 l-243 0 l0 -34 q3 -93 -49 -150 q-51 -57 -196 -92 q-14 23 -41 38 q141 24 193 73 q52 49 49 136 l0 69 ZM711 546 l-422 0 l0 -102 l422 0 l0 102 ZM102 334 l798 0 l0 -159 l-44 0 l0 119 l-710 0 l0 -120 l-44 0 l0 160 ZM97 696 l431 0 q-25 23 -57 49 q-32 26 -62 47 l36 24 q29 -19 60 -43 q30 -25 53 -47 l-23 -30 l368 0 l0 -40 l-806 0 l0 40 Z" /><glyph glyph-name="" unicode="&#x4eba;" d="M477 803 l50 -5 q-1 -113 -12 -216 q63 -224 187 -392 q125 -168 279 -229 q-29 -16 -51 -43 q-152 82 -264 233 q-113 153 -166 336 q-41 -192 -150 -344 q-109 -152 -272 -236 q-23 25 -51 35 q192 92 305 265 q112 172 137 389 q5 49 7 98 q2 49 1 109 Z" /><glyph glyph-name="" unicode="&#x4ec5;" d="M359 705 l520 0 l0 -37 q-46 -304 -200 -502 q114 -135 291 -213 q-29 -15 -50 -40 q-164 91 -273 215 q-115 -132 -288 -222 q-21 20 -48 28 q174 84 305 233 q-159 207 -192 494 l-65 0 l0 44 ZM831 661 l-361 0 q35 -263 177 -455 q135 174 184 455 ZM289 807 l43 -20 q-38 -124 -92 -225 l0 -666 l-46 0 l0 587 q-65 -102 -121 -157 q-21 16 -46 19 q81 83 154 207 q73 123 108 255 Z" /><glyph glyph-name="" unicode="&#x4ecb;" d="M491 812 l41 -23 l-15 -30 q68 -102 193 -197 q125 -95 268 -143 q-33 -19 -48 -44 q-133 57 -250 151 q-118 95 -184 196 q-70 -110 -184 -205 q-113 -95 -246 -155 q-15 20 -42 32 q163 72 284 179 q121 108 183 239 ZM312 416 l48 0 l0 -113 q2 -128 -45 -223 q-47 -95 -173 -187 q-18 16 -49 27 q126 81 174 169 q47 87 45 215 l0 112 ZM654 417 l48 0 l0 -522 l-48 0 l0 522 Z" /><glyph glyph-name="" unicode="&#x4ecd;" d="M369 716 l454 0 l0 -32 l-64 -272 l156 0 l-27 -354 q-11 -148 -148 -145 q-37 0 -74 7 q-4 25 -18 49 q50 -11 93 -11 q46 -1 72 25 q25 25 29 85 l24 302 l-112 0 q-15 0 -25 -1 q-11 -1 -26 -3 l-15 32 q13 7 21 17 q7 9 12 32 l53 227 l-219 0 q-3 -209 -23 -347 q-21 -139 -68 -239 q-46 -98 -129 -190 q-22 14 -49 20 q84 91 132 185 q47 95 67 229 q20 133 23 342 l-139 0 l0 42 ZM302 805 l44 -28 q-40 -100 -100 -202 l0 -678 l-46 0 l0 605 q-68 -102 -131 -159 q-20 17 -47 25 q56 48 111 122 q56 73 101 155 q45 83 68 160 Z" /><glyph glyph-name="" unicode="&#x4ece;" d="M664 797 l48 -5 q0 -61 -2 -122 q-2 -61 -6 -112 q26 -218 100 -375 q75 -157 181 -234 q-31 -11 -51 -33 q-93 87 -157 216 q-63 130 -89 291 q-54 -341 -279 -517 q-22 21 -49 28 q145 103 215 264 q71 161 85 378 q6 88 4 221 ZM293 797 l48 -5 q0 -71 -3 -137 q-2 -67 -7 -120 q-4 -49 -12 -96 q108 -115 201 -240 l-34 -36 q-38 54 -84 112 q-46 57 -93 109 q-61 -302 -244 -465 q-18 18 -49 27 q121 102 188 255 q67 152 83 369 q7 91 6 227 Z" /><glyph glyph-name="" unicode="&#x4ed4;" d="M419 717 l483 0 l0 -37 q-44 -54 -100 -109 q-57 -56 -109 -98 l0 -94 l270 0 l0 -42 l-270 0 l0 -327 q0 -55 -24 -80 q-25 -25 -81 -24 q-19 0 -40 2 q-22 3 -39 6 q-1 21 -14 48 q19 -4 45 -7 q25 -4 49 -4 q59 -4 58 67 l0 319 l-301 0 l0 42 l301 0 l0 114 q53 41 108 93 q55 52 85 89 l-421 0 l0 42 ZM301 803 l43 -27 q-43 -106 -95 -196 l0 -684 l-46 0 l0 611 q-58 -85 -134 -161 q-19 14 -45 21 q92 89 164 201 q72 112 113 235 Z" /><glyph glyph-name="" unicode="&#x4ed6;" d="M631 801 l44 0 l0 -254 l219 62 l-10 -345 q-3 -92 -87 -92 q-29 1 -59 4 q-3 22 -17 42 q38 -5 73 -6 q46 -1 48 54 l8 289 l-175 -49 l0 -404 l-44 0 l0 392 l-168 -47 l0 -403 q0 -65 67 -64 l279 -1 q72 -1 89 54 q11 32 21 81 q15 -22 38 -33 q-8 -34 -20 -70 q-27 -77 -124 -73 l-285 -1 q-111 -1 -109 112 l0 385 l-120 -33 l-18 36 l138 38 l0 265 l44 0 l0 -252 l168 47 l0 266 ZM293 808 l42 -28 q-39 -103 -97 -207 l0 -676 l-46 0 l0 600 q-63 -97 -123 -151 q-20 17 -47 25 q85 74 159 195 q75 120 112 242 Z" /><glyph glyph-name="" unicode="&#x4ee3;" d="M520 797 l50 9 q7 -185 35 -352 l320 54 l9 -42 l-321 -54 q26 -138 61 -241 q36 -99 86 -154 q50 -53 84 -54 q22 -1 35 31 q11 24 18 56 q8 32 12 61 q18 -25 40 -36 q-9 -52 -26 -98 q-26 -68 -74 -66 q-54 1 -115 63 q-60 61 -103 175 q-40 110 -67 255 l-232 -39 l-10 41 l235 40 q-26 162 -37 351 ZM310 798 l45 -28 q-42 -110 -98 -206 l0 -668 l-48 0 l0 591 q-79 -115 -143 -173 q-19 14 -45 20 q85 80 166 207 q81 127 123 257 ZM675 712 l40 23 q35 -34 74 -77 q38 -43 64 -80 l-33 -30 q-31 41 -71 86 q-39 45 -74 78 Z" /><glyph glyph-name="" unicode="&#x4ee5;" d="M790 779 l50 -6 q-7 -201 -30 -337 q-22 -122 -72 -221 q55 -52 124 -125 q68 -74 114 -128 l-31 -40 q-51 64 -111 131 q-60 68 -117 124 q-107 -181 -336 -278 q-14 20 -44 34 q176 67 282 191 q107 124 143 314 q12 61 19 151 q8 90 9 190 ZM144 733 l48 0 l0 -692 l244 189 l33 -28 l-290 -226 q-19 -14 -36 -33 l-26 40 q14 12 21 27 q6 16 6 44 l0 679 ZM336 752 l40 24 q27 -24 65 -63 q39 -40 76 -80 q37 -40 60 -68 l-29 -39 q-47 57 -103 116 q-56 60 -109 110 Z" /><glyph glyph-name="" unicode="&#x4eec;" d="M622 705 l286 0 l0 -691 q-2 -109 -114 -109 q-37 0 -80 5 q-4 25 -17 48 q44 -7 93 -8 q74 -1 72 70 l0 643 l-240 0 l0 42 ZM288 804 l42 -25 q-37 -97 -96 -195 l0 -688 l-46 0 l0 615 q-58 -84 -113 -139 q-20 15 -47 20 q76 74 150 188 q73 114 110 224 ZM387 595 l46 0 l0 -697 l-46 0 l0 697 ZM401 761 l40 24 q32 -31 67 -69 q34 -38 64 -75 l-33 -34 q-27 35 -66 79 q-40 44 -72 75 Z" /><glyph glyph-name="" unicode="&#x4ef6;" d="M307 275 l321 0 l0 256 l-171 0 q-29 -76 -77 -154 q-22 10 -49 8 q53 79 84 159 q31 79 47 174 l43 -16 q-13 -67 -33 -129 l156 0 l0 230 l48 0 l0 -230 l231 0 l0 -42 l-231 0 l0 -256 l285 0 l0 -42 l-285 0 l0 -338 l-48 0 l0 338 l-321 0 l0 42 ZM270 809 l43 -26 q-31 -97 -81 -195 l0 -691 l-46 0 l0 608 q-59 -98 -116 -158 q-21 17 -48 23 q54 51 103 126 q50 75 88 158 q38 82 57 155 Z" /><glyph glyph-name="" unicode="&#x4ef7;" d="M305 802 l43 -30 q-49 -113 -112 -209 l0 -666 l-46 0 l0 602 q-66 -84 -124 -129 q-17 16 -44 23 q55 42 111 110 q55 68 101 147 q45 78 71 152 ZM619 806 l41 -22 q-6 -18 -13 -36 q59 -109 143 -187 q83 -78 187 -118 q-26 -13 -44 -39 q-202 107 -307 299 q-49 -99 -127 -181 q-78 -83 -166 -136 q-18 18 -46 27 q121 70 209 172 q88 102 123 221 ZM469 417 l46 0 l0 -172 q-1 -131 -46 -215 q-46 -84 -131 -131 q-13 14 -44 25 q82 42 128 118 q46 76 47 200 l0 175 ZM738 417 l46 0 l0 -513 l-46 0 l0 513 Z" /><glyph glyph-name="" unicode="&#x4efb;" d="M360 -8 l255 0 l0 343 l-295 0 l0 42 l295 0 l0 292 q-109 -14 -212 -19 q-8 21 -26 41 q81 4 171 13 q90 9 171 23 q81 14 134 31 l33 -39 q-87 -24 -223 -44 l0 -298 l297 0 l0 -42 l-297 0 l0 -343 l259 0 l0 -42 l-562 0 l0 42 ZM282 807 l42 -25 q-36 -97 -83 -184 l0 -702 l-46 0 l0 624 q-60 -93 -130 -166 q-21 15 -46 19 q90 95 159 209 q68 114 104 225 Z" /><glyph glyph-name="" unicode="&#x4efd;" d="M408 390 l416 0 l-12 -361 q-3 -51 -35 -82 q-32 -30 -89 -31 q-17 0 -38 2 q-21 1 -37 3 q-1 24 -18 47 q25 -3 49 -6 q25 -2 42 -2 q74 3 80 72 l11 316 l-216 0 q-2 -170 -53 -274 q-51 -104 -165 -177 q-16 17 -48 24 q118 71 169 165 q50 96 51 262 l-107 0 l0 42 ZM287 806 l45 -27 q-40 -115 -96 -214 l0 -668 l-46 0 l0 592 q-57 -83 -111 -131 q-18 15 -45 20 q52 46 104 118 q51 71 91 153 q40 82 58 157 ZM685 786 l41 18 q26 -135 91 -246 q65 -110 157 -175 q-31 -8 -52 -26 q-176 146 -237 429 ZM496 760 l44 -18 q-28 -118 -81 -222 q-52 -103 -124 -175 q-18 13 -49 20 q76 68 132 174 q56 107 78 221 Z" /><glyph glyph-name="" unicode="&#x4f01;" d="M251 374 l46 0 l0 -395 l202 0 l0 512 l46 0 l0 -205 l255 0 l0 -42 l-255 0 l0 -265 l383 0 l0 -42 l-863 0 l0 42 l186 0 l0 395 ZM490 805 l40 -23 l-15 -30 q68 -102 192 -196 q123 -95 264 -143 q-33 -19 -47 -44 q-131 57 -248 151 q-116 94 -182 195 q-69 -111 -180 -206 q-112 -96 -244 -153 q-15 20 -42 32 q159 73 280 179 q120 107 182 238 Z" /><glyph glyph-name="" unicode="&#x4f18;" d="M556 802 l46 0 l0 -276 l333 0 l0 -42 l-333 0 q-2 -178 -65 -321 q-63 -142 -205 -264 q-20 17 -50 23 q141 113 206 248 q65 136 68 314 l-233 0 l0 42 l233 0 l0 276 ZM293 806 l42 -25 q-38 -103 -89 -195 l0 -690 l-46 0 l0 614 q-57 -89 -124 -157 q-21 15 -46 19 q90 95 159 209 q68 114 104 225 ZM643 432 l46 0 l0 -410 q-2 -55 58 -53 l77 -1 q32 0 50 16 q18 15 27 53 q8 36 12 73 q20 -24 39 -31 q-1 -12 -4 -29 q-3 -16 -6 -29 q-25 -100 -112 -96 l-84 -1 q-104 -1 -103 98 l0 410 ZM697 726 l39 22 q35 -31 70 -67 q35 -36 65 -70 l-30 -36 q-64 76 -144 151 Z" /><glyph glyph-name="" unicode="&#x4f1a;" d="M590 123 l39 22 q46 -41 110 -106 q63 -63 104 -113 l-32 -33 q-26 33 -56 66 l-497 -31 q-36 -1 -70 -9 l-19 41 q39 12 80 47 q37 33 91 94 q54 61 95 117 l-329 0 l0 42 l781 0 l0 -42 l-415 0 l13 -13 q-40 -55 -103 -123 q-62 -68 -111 -110 l447 25 q-66 68 -128 126 ZM500 817 l37 -27 q-7 -14 -16 -29 q91 -109 211 -192 q120 -83 251 -117 q-30 -17 -44 -43 q-122 42 -239 128 q-118 85 -201 190 q-72 -100 -190 -193 q-118 -93 -241 -143 q-14 20 -44 35 q97 34 194 98 q97 65 172 143 q76 77 110 150 ZM270 447 l458 0 l0 -42 l-458 0 l0 42 Z" /><glyph glyph-name="" unicode="&#x4f20;" d="M370 654 l207 0 q18 74 30 150 l45 -14 q-12 -67 -28 -136 l284 0 l0 -42 l-295 0 q-21 -78 -46 -152 l385 0 l0 -42 l-400 0 q-29 -79 -59 -144 l370 0 l0 -36 q-57 -109 -177 -234 q67 -37 121 -74 l-19 -42 q-72 49 -156 97 q-84 47 -163 87 l31 33 q73 -38 148 -79 q49 49 92 104 q42 55 70 102 l-368 0 l0 39 q33 68 63 147 l-189 0 l0 42 l204 0 q26 72 47 152 l-197 0 l0 42 ZM295 808 l43 -23 q-39 -124 -94 -225 l0 -664 l-46 0 l0 586 q-65 -98 -119 -152 q-20 15 -47 18 q81 82 154 206 q73 123 109 254 Z" /><glyph glyph-name="" unicode="&#x4f2a;" d="M325 537 l238 0 q14 132 15 263 l48 -5 q-5 -130 -17 -258 l298 0 l-18 -478 q-3 -134 -140 -134 q-45 0 -79 4 q-1 29 -14 52 q50 -10 91 -10 q95 -1 96 93 l16 431 l-255 0 q-21 -190 -93 -339 q-73 -149 -198 -247 q-20 15 -48 22 q248 186 294 564 l-234 0 l0 42 ZM287 804 l44 -28 q-37 -102 -94 -203 l0 -676 l-46 0 l0 601 q-62 -94 -122 -148 q-20 17 -47 25 q56 48 108 121 q52 74 93 155 q41 81 64 153 ZM596 312 l40 19 q31 -38 63 -88 q33 -50 54 -89 l-36 -32 q-24 48 -58 101 q-33 53 -63 89 ZM351 715 l36 24 q32 -30 64 -65 q32 -34 54 -65 l-29 -34 q-24 31 -56 68 q-33 37 -69 72 Z" /><glyph glyph-name="" unicode="&#x4f4d;" d="M286 805 l42 -23 q-31 -94 -86 -196 l0 -690 l-46 0 l0 611 q-63 -98 -123 -153 q-19 19 -46 24 q55 48 107 122 q51 73 91 153 q40 81 61 152 ZM776 466 l47 -18 q-61 -235 -147 -460 l278 -1 l0 -42 l-649 0 l0 42 l320 0 q91 232 151 479 ZM349 592 l572 0 l0 -42 l-572 0 l0 42 ZM402 437 l48 7 q70 -168 115 -342 l-43 -19 q-47 181 -120 354 ZM536 796 l44 12 q62 -81 108 -171 l-37 -29 q-49 97 -115 188 Z" /><glyph glyph-name="" unicode="&#x4f4e;" d="M848 761 l36 -41 q-78 -20 -195 -34 q3 -151 14 -265 l231 0 l0 -42 l-226 0 q16 -121 44 -208 q28 -86 69 -149 q28 -39 52 -40 q23 1 34 44 q8 29 14 69 q19 -23 38 -32 q-5 -29 -14 -62 q-21 -68 -71 -67 q-48 0 -84 54 q-48 69 -80 164 q-32 96 -48 227 l-223 0 l0 -343 l164 115 l33 -29 l-190 -139 q-23 -15 -48 -45 l-26 34 q12 16 17 29 q4 13 4 40 l0 667 q121 1 249 16 q128 15 206 37 ZM293 805 l42 -28 q-39 -104 -97 -205 l0 -677 l-46 0 l0 604 q-59 -87 -117 -139 q-20 15 -46 20 q176 171 264 425 ZM439 668 l0 -247 l218 0 q-12 114 -13 260 q-59 -6 -113 -9 q-53 -3 -92 -4 ZM558 20 l35 23 q39 -30 69 -57 q30 -27 63 -61 l-24 -37 q-35 37 -68 67 q-32 31 -75 65 Z" /><glyph glyph-name="" unicode="&#x4f53;" d="M393 124 l188 0 l0 417 q-73 -295 -303 -495 q-18 17 -46 25 q233 201 319 479 l-238 0 l0 42 l268 0 l0 210 l46 0 l0 -210 l284 0 l0 -42 l-255 0 q47 -145 125 -261 q79 -116 199 -200 q-33 -15 -48 -35 q-117 91 -192 216 q-75 124 -113 272 l0 -418 l189 0 l0 -40 l-189 0 l0 -188 l-46 0 l0 188 l-188 0 l0 40 ZM294 803 l39 -26 q-41 -103 -102 -201 l0 -680 l-46 0 l0 612 q-64 -89 -133 -148 q-16 15 -43 25 q91 79 169 195 q78 116 116 223 Z" /><glyph glyph-name="" unicode="&#x4f59;" d="M115 286 l377 0 l0 143 l-230 0 l0 42 l488 0 l0 -42 l-212 0 l0 -143 l358 0 l0 -42 l-358 0 l0 -247 q1 -93 -94 -91 q-32 0 -74 5 q-3 25 -16 45 q20 -2 45 -5 q24 -2 43 -2 q51 -4 50 52 l0 243 l-377 0 l0 42 ZM498 810 l37 -27 q-7 -13 -15 -26 q90 -107 209 -189 q119 -82 248 -115 q-30 -17 -44 -43 q-121 41 -237 125 q-116 85 -199 188 q-71 -97 -186 -186 q-115 -90 -237 -139 q-14 20 -44 35 q97 34 192 96 q94 61 168 135 q73 74 108 146 ZM310 174 l37 -27 q-41 -54 -103 -109 q-63 -54 -120 -89 q-17 15 -47 26 q53 28 121 85 q68 56 112 114 ZM653 142 l38 27 q53 -37 118 -89 q66 -53 114 -95 l-27 -41 q-115 105 -243 198 Z" /><glyph glyph-name="" unicode="&#x4f5c;" d="M558 810 l45 -25 q-23 -76 -62 -156 l409 0 l0 -42 l-337 0 l0 -197 l280 0 l0 -42 l-280 0 l0 -195 l305 0 l0 -42 l-305 0 l0 -215 l-46 0 l0 691 l-47 0 q-36 -67 -77 -127 q-41 -59 -83 -102 q-20 14 -47 20 q85 87 148 198 q63 111 97 234 ZM284 806 l46 -26 q-35 -94 -83 -186 l0 -698 l-46 0 l0 616 q-63 -104 -127 -174 q-21 14 -48 21 q85 92 156 216 q71 123 102 231 Z" /><glyph glyph-name="" unicode="&#x4f60;" d="M288 805 l42 -23 q-31 -94 -86 -196 l0 -690 l-46 0 l0 611 q-63 -98 -123 -153 q-19 19 -46 24 q55 48 107 122 q51 73 91 153 q40 81 61 152 ZM519 804 l43 -23 q-22 -85 -57 -162 l427 0 l0 -36 l-73 -168 q-19 9 -46 6 l69 156 l-398 0 q-44 -84 -108 -153 q-19 17 -45 19 q144 159 188 361 ZM612 472 l46 0 l0 -463 q-1 -108 -105 -108 q-40 0 -73 4 q5 28 -14 50 q48 -8 84 -8 q33 -1 48 15 q14 15 14 52 l0 458 ZM763 286 l45 13 q77 -117 139 -241 l-37 -32 q-66 134 -147 260 ZM445 309 l44 -15 q-43 -141 -136 -256 q-23 13 -49 13 q98 112 141 258 Z" /><glyph glyph-name="" unicode="&#x4f7f;" d="M371 200 l30 32 q62 -99 142 -152 q54 69 59 181 l-230 0 l0 242 l232 0 l0 121 l-279 0 l0 42 l279 0 l0 137 l46 0 l0 -137 l277 0 l0 -42 l-277 0 l0 -121 l232 0 l0 -242 l-235 0 q-8 -124 -65 -204 q50 -27 108 -43 q110 -30 282 -44 q-18 -22 -26 -49 q-97 14 -156 25 q-58 12 -105 25 q-73 19 -133 51 q-76 -74 -236 -125 q-16 19 -42 33 q165 50 239 117 q-82 59 -142 153 ZM268 804 l44 -25 q-31 -90 -80 -187 l0 -696 l-46 0 l0 612 q-55 -92 -109 -152 q-20 13 -49 20 q81 87 145 203 q64 116 95 225 ZM838 463 l-188 0 l0 -134 q0 -15 -1 -28 l189 0 l0 162 ZM416 463 l0 -162 l188 0 l0 10 l0 152 l-188 0 Z" /><glyph glyph-name="" unicode="&#x4f9b;" d="M317 277 l176 0 l0 260 l-141 0 l0 42 l141 0 l0 220 l46 0 l0 -220 l196 0 l0 220 l46 0 l0 -220 l142 0 l0 -42 l-142 0 l0 -260 l177 0 l0 -42 l-641 0 l0 42 ZM286 805 l42 -23 q-33 -100 -92 -207 l0 -679 l-46 0 l0 602 q-60 -91 -117 -144 q-19 19 -46 24 q55 48 107 122 q51 73 91 153 q40 81 61 152 ZM539 537 l0 -260 l196 0 l0 260 l-196 0 ZM515 177 l43 -20 q-67 -150 -188 -262 q-20 18 -48 20 q125 110 193 262 ZM701 154 l40 22 q103 -117 191 -240 l-32 -37 q-90 133 -199 255 Z" /><glyph glyph-name="" unicode="&#x4fbf;" d="M366 169 l28 34 q70 -95 145 -143 q57 64 69 166 l-221 0 l0 365 l226 0 l0 119 l-254 0 l0 40 l571 0 l0 -40 l-271 0 l0 -119 l226 0 l0 -365 l-231 0 q-12 -115 -74 -189 q54 -26 116 -38 q48 -11 124 -21 q76 -9 154 -12 q-21 -19 -29 -46 q-155 12 -257 36 q-76 17 -141 49 q-76 -64 -228 -109 q-14 24 -40 34 q152 42 227 99 q-74 51 -140 140 ZM288 807 l42 -23 q-33 -99 -91 -207 l0 -681 l-46 0 l0 605 q-51 -78 -118 -145 q-19 18 -46 20 q103 105 164 213 q60 108 95 218 ZM657 266 l184 0 l0 124 l-182 0 l0 -70 q0 -28 -2 -54 ZM611 266 q2 23 2 49 l0 75 l-182 0 l0 -124 l180 0 ZM431 551 l0 -123 l182 0 l0 123 l-182 0 ZM841 551 l-182 0 l0 -123 l182 0 l0 123 Z" /><glyph glyph-name="" unicode="&#x4fdd;" d="M328 340 l286 0 l0 131 l-202 0 l0 279 l450 0 l0 -279 l-202 0 l0 -131 l285 0 l0 -42 l-252 0 q51 -86 124 -158 q74 -72 162 -121 q-13 -3 -27 -12 q-14 -7 -23 -15 q-78 47 -148 123 q-71 76 -121 167 l0 -386 l-46 0 l0 386 q-48 -87 -124 -166 q-76 -79 -161 -126 q-16 16 -44 26 q93 53 170 126 q76 73 125 156 l-252 0 l0 42 ZM816 708 l-358 0 l0 -195 l358 0 l0 195 ZM287 806 l43 -25 q-38 -104 -89 -196 l0 -689 l-46 0 l0 613 q-57 -88 -124 -156 q-21 15 -46 19 q93 95 161 209 q67 114 101 225 Z" /><glyph glyph-name="" unicode="&#x4fe1;" d="M408 211 l466 0 l0 -315 l-46 0 l0 65 l-374 0 l0 -65 l-46 0 l0 315 ZM454 169 l0 -167 l374 0 l0 167 l-374 0 ZM282 806 l43 -26 q-35 -98 -79 -187 l0 -698 l-46 0 l0 615 q-56 -94 -122 -165 q-19 15 -46 20 q170 185 250 441 ZM548 782 l36 26 q72 -49 134 -111 l-24 -34 l264 0 l0 -42 l-630 0 l0 42 l358 0 q-65 63 -138 119 ZM402 364 l478 0 l0 -42 l-478 0 l0 42 ZM402 514 l478 0 l0 -42 l-478 0 l0 42 Z" /><glyph glyph-name="" unicode="&#x4fee;" d="M593 805 l39 -26 q-15 -39 -40 -79 l285 0 l0 -33 q-56 -103 -162 -182 q111 -59 263 -92 q-25 -17 -41 -41 q-154 43 -261 106 q-112 -74 -258 -116 q-13 22 -40 34 q148 42 257 107 q-69 48 -121 108 q-42 -49 -81 -81 q-17 16 -41 22 q65 53 119 126 q54 73 82 147 ZM260 805 l40 -29 q-32 -91 -83 -192 l0 -688 l-44 0 l0 609 q-57 -96 -106 -145 q-20 16 -44 21 q50 51 97 124 q47 73 84 153 q37 79 56 147 ZM821 660 l-255 0 q-12 -19 -27 -37 q56 -64 135 -114 q101 70 147 151 ZM893 138 l38 -25 q-92 -83 -229 -140 q-138 -58 -271 -81 q-14 23 -36 39 q89 13 184 44 q95 29 178 72 q83 43 136 91 ZM316 597 l44 0 l0 -525 l-44 0 l0 525 ZM804 258 l37 -27 q-151 -120 -366 -175 q-13 20 -38 35 q106 23 205 68 q99 45 162 99 ZM729 374 l38 -28 q-58 -44 -134 -79 q-76 -36 -164 -58 q-11 20 -35 35 q211 55 295 130 Z" /><glyph glyph-name="" unicode="&#x500d;" d="M402 247 l458 0 l0 -350 l-46 0 l0 66 l-366 0 l0 -66 l-46 0 l0 350 ZM448 205 l0 -201 l366 0 l0 201 l-366 0 ZM280 806 l42 -25 q-35 -102 -81 -193 l0 -692 l-46 0 l0 610 q-55 -90 -119 -161 q-19 15 -46 20 q170 183 250 441 ZM300 397 l363 0 q77 99 123 192 l41 -19 q-22 -41 -51 -87 q-29 -46 -60 -86 l244 0 l0 -42 l-660 0 l0 42 ZM354 661 l299 0 q-30 31 -65 63 q-35 33 -69 59 l41 25 q32 -26 68 -59 q36 -33 59 -58 l-28 -30 l247 0 l0 -42 l-552 0 l0 42 ZM424 562 l43 17 q27 -31 58 -71 q32 -40 54 -74 l-35 -30 q-62 96 -120 158 Z" /><glyph glyph-name="" unicode="&#x503c;" d="M603 804 l46 0 l-14 -118 l287 0 l0 -40 l-292 0 l-13 -102 l229 0 l0 -571 l114 0 l0 -40 l-668 0 l0 40 l110 0 l0 571 l169 0 l13 102 l-247 0 l0 40 l252 0 l14 118 ZM267 802 l41 -24 q-29 -86 -74 -176 l0 -706 l-46 0 l0 623 q-58 -97 -115 -161 q-17 16 -47 21 q81 85 145 200 q63 114 96 223 ZM448 77 l0 -104 l352 0 l0 104 l-352 0 ZM448 361 l0 -104 l352 0 l0 104 l-352 0 ZM448 504 l0 -104 l352 0 l0 104 l-352 0 ZM448 219 l0 -104 l352 0 l0 104 l-352 0 Z" /><glyph glyph-name="" unicode="&#x505c;" d="M410 590 l404 0 l0 -178 l-404 0 l0 178 ZM259 805 l41 -25 q-32 -107 -84 -207 l0 -677 l-44 0 l0 598 q-48 -79 -101 -137 q-19 16 -45 21 q76 77 140 194 q63 117 93 233 ZM295 345 l634 0 l0 -159 l-44 0 l0 119 l-546 0 l0 -120 l-44 0 l0 160 ZM398 207 l427 0 l0 -40 l-172 0 l0 -169 q-1 -45 -28 -68 q-28 -22 -73 -22 q-34 0 -66 3 q-3 26 -16 49 q49 -9 77 -8 q61 0 62 49 l0 166 l-211 0 l0 40 ZM770 550 l-316 0 l0 -98 l316 0 l0 98 ZM328 695 l313 0 q-25 23 -56 49 q-31 25 -61 46 l36 24 q29 -19 60 -43 q30 -25 53 -47 l-22 -29 l246 0 l0 -40 l-569 0 l0 40 Z" /><glyph glyph-name="" unicode="&#x50cf;" d="M872 364 l34 -28 q-60 -49 -128 -83 q27 -76 76 -141 q48 -65 120 -104 q-27 -7 -46 -26 q-66 45 -112 111 q-47 66 -75 142 q-28 -13 -58 -25 q22 -62 22 -135 q0 -94 -36 -135 q-36 -40 -114 -39 q-24 0 -46 2 q1 1 -2 15 q-4 15 -18 31 q14 -2 32 -4 q18 -2 31 -2 q58 -1 84 27 q26 29 25 104 q0 38 -7 74 q-61 -68 -159 -126 q-98 -57 -180 -83 q-16 24 -44 34 q111 29 211 92 q99 62 159 129 q-13 36 -36 68 q-59 -59 -134 -100 q-75 -41 -154 -69 q-15 25 -42 34 q86 22 164 64 q79 41 141 103 q-21 24 -47 43 q-94 -71 -211 -112 q0 1 -9 12 q-9 11 -29 20 q67 20 129 53 q63 33 114 77 l-139 0 l0 170 q-27 -21 -55 -40 q-19 18 -44 24 q160 100 248 265 l37 -26 q-19 -36 -43 -69 l275 0 l0 -31 l-104 -103 l188 0 l0 -190 l-302 0 q-12 -13 -25 -25 q71 -49 105 -118 q113 44 204 120 ZM281 806 l42 -24 q-32 -99 -95 -214 l0 -672 l-44 0 l0 596 q-57 -93 -108 -146 q-22 16 -50 16 q56 56 107 134 q50 78 89 160 q38 82 59 150 ZM503 673 q-42 -52 -92 -96 l232 0 l95 96 l-235 0 ZM846 539 l-169 0 q-18 -63 -57 -114 l226 0 l0 114 ZM432 539 l0 -114 l133 0 q46 51 66 114 l-199 0 Z" /><glyph glyph-name="" unicode="&#x5143;" d="M68 454 l865 0 l0 -42 l-302 0 l0 -364 q-1 -81 73 -77 l123 -1 q72 -3 83 65 q7 35 10 70 q20 -22 42 -30 q-4 -30 -9 -54 q-17 -98 -122 -94 l-132 -1 q-58 0 -86 28 q-28 27 -28 92 l0 366 l-176 0 q-2 -149 -34 -244 q-32 -95 -104 -156 q-71 -61 -192 -108 q-13 21 -38 39 q119 42 189 97 q70 57 101 146 q31 88 32 226 l-295 0 l0 42 ZM177 725 l645 0 l0 -42 l-645 0 l0 42 Z" /><glyph glyph-name="" unicode="&#x5145;" d="M76 669 l465 0 q-71 61 -150 115 l37 26 q74 -46 139 -103 l-19 -38 l376 0 l0 -42 l-458 0 l25 -14 q-47 -54 -115 -122 q-68 -68 -118 -111 l468 17 q-69 64 -135 121 l40 23 q121 -101 232 -213 l-26 -40 q-31 32 -69 69 l-142 -5 l0 -330 q2 -53 55 -55 l141 -1 q57 1 71 60 q7 27 12 65 q20 -22 41 -31 q-6 -32 -11 -51 q-22 -88 -108 -86 l-145 -1 q-100 3 -102 99 l0 329 l-160 -6 l-3 -84 q-11 -137 -86 -226 q-75 -87 -235 -134 q-13 24 -38 38 q162 44 232 121 q70 78 81 209 l3 74 l-114 -4 q-32 -1 -51 -4 q-19 -3 -33 -7 l-26 45 q23 5 41 14 q18 9 39 26 q25 20 63 58 q39 38 80 80 q40 43 69 77 l-366 0 l0 42 Z" /><glyph glyph-name="" unicode="&#x5148;" d="M485 805 l46 0 l0 -193 l319 0 l0 -42 l-319 0 l0 -184 l412 0 l0 -42 l-306 0 l0 -315 q1 -58 64 -59 l103 -1 q62 -1 81 59 q4 16 9 40 q5 25 8 43 q18 -21 38 -31 q-3 -14 -8 -36 q-5 -22 -8 -33 q-25 -88 -117 -85 l-104 -1 q-117 1 -112 97 l0 322 l-192 0 q1 -174 -73 -280 q-73 -105 -244 -167 q-14 23 -40 42 q170 50 241 144 q71 96 70 261 l-297 0 l0 42 l429 0 l0 184 l-223 0 q-55 -86 -114 -131 q-22 16 -49 20 q146 111 198 305 l44 -26 q-23 -69 -54 -126 l198 0 l0 193 Z" /><glyph glyph-name="" unicode="&#x5149;" d="M485 805 l46 0 l0 -384 l408 0 l0 -42 l-302 0 l0 -349 q-1 -60 66 -60 l104 -1 q61 -1 78 59 q4 16 9 40 q5 25 8 43 q18 -21 38 -31 q-3 -14 -8 -36 q-5 -22 -8 -33 q-24 -88 -115 -85 l-107 -1 q-113 1 -111 97 l0 357 l-190 0 q1 -186 -73 -300 q-74 -114 -244 -182 q-15 19 -43 34 q166 57 240 162 q75 106 74 286 l-295 0 l0 42 l425 0 l0 384 ZM812 746 l42 -21 q-35 -58 -85 -123 q-49 -65 -102 -118 q-16 14 -43 20 q56 56 106 121 q50 65 82 121 ZM147 718 l42 20 q44 -45 98 -106 q54 -62 91 -110 l-32 -35 q-40 54 -98 122 q-58 67 -101 109 Z" /><glyph glyph-name="" unicode="&#x515c;" d="M358 683 l83 0 q19 30 35 66 q17 37 24 67 l42 -21 q-22 -62 -51 -112 l148 0 l0 -397 l-281 0 l0 397 ZM308 738 l31 -32 q-30 -16 -75 -30 q-46 -13 -89 -22 l0 -352 l130 51 l19 -33 l-142 -62 q-23 -10 -47 -33 l-29 31 q15 11 20 26 q5 15 5 51 l0 354 q46 6 95 20 q48 13 82 31 ZM566 239 l44 0 l0 -224 q-1 -48 48 -47 l184 -1 q33 0 50 14 q16 15 24 49 q6 28 11 61 q16 -20 38 -31 q-5 -27 -10 -49 q-11 -46 -36 -66 q-25 -20 -74 -19 l-186 -1 q-96 -2 -93 91 l0 223 ZM689 706 l184 0 l0 -432 l-184 0 l0 40 l140 0 l0 352 l-140 0 l0 40 ZM402 326 l193 0 l0 139 l-193 0 l0 -139 ZM595 643 l-193 0 l0 -138 l193 0 l0 138 ZM394 245 l46 -9 q-9 -152 -88 -229 q-80 -76 -261 -111 q-16 21 -46 37 q195 32 272 103 q76 72 77 209 Z" /><glyph glyph-name="" unicode="&#x5165;" d="M322 727 l27 41 q80 -20 122 -58 q42 -38 60 -102 q63 -215 173 -384 q110 -169 273 -253 q-40 -17 -57 -40 q-138 86 -242 242 q-104 157 -167 354 q-32 -124 -96 -242 q-63 -117 -149 -213 q-85 -95 -182 -152 q-19 18 -51 31 q107 57 199 159 q93 102 159 231 q66 129 95 269 q-17 45 -55 72 q-37 27 -109 45 Z" /><glyph glyph-name="" unicode="&#x5168;" d="M218 209 l258 0 l0 190 l-261 0 l0 42 l569 0 l0 -42 l-262 0 l0 -190 l259 0 l0 -42 l-259 0 l0 -199 l379 0 l0 -42 l-803 0 l0 42 l378 0 l0 199 l-258 0 l0 42 ZM499 814 l37 -27 q-7 -13 -16 -27 q85 -108 205 -194 q120 -87 257 -131 q-30 -23 -44 -43 q-149 62 -262 153 q-112 91 -178 181 q-77 -110 -189 -202 q-112 -91 -242 -145 q-14 20 -43 35 q155 62 283 171 q127 110 192 229 Z" /><glyph glyph-name="" unicode="&#x516b;" d="M340 738 l47 -12 q-10 -306 -93 -511 q-82 -206 -223 -304 q-21 18 -51 24 q152 101 233 305 q80 205 87 498 ZM593 766 l47 10 q10 -269 95 -487 q84 -218 253 -339 q-30 -11 -53 -33 q-168 146 -249 364 q-80 218 -93 485 Z" /><glyph glyph-name="" unicode="&#x516c;" d="M576 211 l43 21 q26 -32 67 -87 q42 -56 83 -116 q42 -58 69 -102 l-37 -35 q-22 37 -59 92 l-474 -40 q-41 -2 -77 -13 l-22 40 q34 10 70 51 q34 41 80 113 q47 71 91 153 q44 82 70 152 l45 -31 q-30 -66 -73 -144 q-43 -79 -91 -152 q-47 -73 -88 -122 l442 30 q-39 56 -77 108 q-37 51 -62 82 ZM581 768 l43 17 q52 -174 151 -296 q99 -122 209 -168 q-33 -12 -55 -36 q-113 71 -201 186 q-88 114 -147 297 ZM360 766 l47 -22 q-51 -156 -138 -279 q-87 -124 -189 -190 q-17 17 -48 26 q73 42 140 117 q67 75 117 166 q50 91 71 182 Z" /><glyph glyph-name="" unicode="&#x5173;" d="M139 582 l390 0 q54 49 108 109 q54 60 92 112 l43 -26 q-33 -44 -83 -97 q-51 -54 -99 -98 l270 0 l0 -44 l-335 0 q0 -53 -1 -104 q-1 -52 -3 -90 l392 0 l0 -44 l-388 0 q110 -275 422 -350 q-27 -20 -40 -48 q-148 45 -251 133 q-103 88 -154 217 q-39 -129 -141 -218 q-103 -88 -262 -139 q-14 23 -41 41 q163 44 272 136 q109 94 137 228 l-381 0 l0 44 l387 0 l0 1 q3 38 4 89 q0 50 0 104 l-338 0 l0 44 ZM217 773 l40 25 q34 -26 84 -72 q51 -47 81 -79 l-29 -39 q-33 38 -86 87 q-52 48 -90 78 Z" /><glyph glyph-name="" unicode="&#x5174;" d="M832 738 l42 -27 q-27 -56 -66 -124 q-40 -67 -83 -132 q-42 -65 -78 -112 l299 0 l0 -44 l-891 0 l0 44 l537 0 q58 73 125 183 q68 110 115 212 ZM352 214 l43 -25 q-47 -77 -126 -159 q-79 -81 -148 -129 q-19 17 -49 29 q78 52 153 127 q76 77 127 157 ZM599 188 l41 25 q42 -36 96 -88 q54 -51 102 -102 q49 -49 77 -81 l-32 -42 q-64 74 -143 154 q-79 80 -141 134 ZM117 672 l42 21 q25 -27 60 -71 q35 -44 68 -91 q33 -46 53 -79 l-33 -31 q-34 52 -89 126 q-56 73 -101 125 ZM384 766 l46 13 q31 -47 72 -126 q41 -78 66 -136 l-39 -27 q-30 68 -70 144 q-39 76 -75 132 Z" /><glyph glyph-name="" unicode="&#x5176;" d="M673 805 l46 0 l0 -123 l152 0 l0 -42 l-152 0 l0 -463 l233 0 l0 -42 l-906 0 l0 42 l242 0 l0 463 l-158 0 l0 42 l158 0 l0 123 l46 0 l0 -123 l339 0 l0 123 ZM334 305 l0 -128 l339 0 l0 128 l-339 0 ZM334 473 l0 -128 l339 0 l0 128 l-339 0 ZM334 640 l0 -127 l339 0 l0 127 l-339 0 ZM384 103 l37 -30 q-36 -33 -89 -69 q-53 -34 -107 -63 q-54 -30 -94 -45 q-18 23 -44 36 q68 23 154 71 q86 49 143 100 ZM584 71 l34 30 q143 -69 275 -156 l-17 -47 q-141 96 -292 173 Z" /><glyph glyph-name="" unicode="&#x5178;" d="M44 194 l130 0 l0 469 l201 0 l0 142 l46 0 l0 -142 l157 0 l0 142 l46 0 l0 -142 l202 0 l0 -469 l130 0 l0 -42 l-912 0 l0 42 ZM624 388 l0 -194 l158 0 l0 194 l-158 0 ZM782 621 l-158 0 l0 -193 l158 0 l0 193 ZM218 388 l0 -194 l157 0 l0 194 l-157 0 ZM421 388 l0 -194 l157 0 l0 194 l-157 0 ZM421 621 l0 -193 l157 0 l0 193 l-157 0 ZM218 621 l0 -193 l157 0 l0 193 l-157 0 ZM585 86 l35 29 q61 -35 140 -88 q80 -51 135 -94 l-23 -43 q-64 50 -147 106 q-83 56 -140 90 ZM361 114 l38 -27 q-56 -58 -133 -111 q-77 -53 -140 -84 q-18 21 -43 31 q65 29 145 82 q79 53 133 109 Z" /><glyph glyph-name="" unicode="&#x5185;" d="M483 807 l47 -5 q0 -42 -1 -91 q-1 -48 -3 -91 l339 0 l0 -606 q-1 -108 -117 -110 q-43 0 -85 5 q-1 22 -16 49 q55 -8 100 -9 q75 -2 72 68 l0 561 l-295 0 q-1 -29 -3 -44 q-7 -74 -23 -135 l26 12 q33 -33 79 -84 q45 -50 90 -103 q44 -53 74 -91 l-32 -38 q-63 80 -126 155 q-63 74 -116 130 q-29 -97 -86 -167 q-57 -71 -145 -127 q-17 19 -42 28 q122 79 183 175 q60 97 72 248 q2 18 3 41 l-295 0 l0 -682 l-46 0 l0 724 l343 0 q3 74 3 187 Z" /><glyph glyph-name="" unicode="&#x518c;" d="M564 752 l279 0 l0 -351 l111 0 l0 -42 l-111 0 l0 -356 q1 -50 -21 -72 q-23 -22 -76 -21 q-19 0 -51 3 q-3 24 -16 47 q18 -2 37 -4 q20 -1 31 -1 q28 -1 39 11 q11 12 11 42 l0 351 l-187 0 l0 -80 q0 -252 -88 -383 q-23 13 -49 16 q48 66 70 154 q21 88 21 223 l0 70 l-126 0 l0 -356 q1 -50 -21 -72 q-23 -22 -76 -21 q-19 0 -50 3 q-3 24 -16 47 q18 -2 37 -4 q19 -1 30 -1 q28 -1 39 11 q11 12 11 42 l0 351 l-174 0 l0 -62 q0 -127 -27 -230 q-26 -102 -76 -171 q-19 12 -49 18 q106 138 106 384 l0 61 l-126 0 l0 42 l126 0 l0 351 l266 0 l0 -351 l126 0 l0 351 ZM610 710 l0 -309 l187 0 l0 309 l-187 0 ZM218 710 l0 -309 l174 0 l0 309 l-174 0 Z" /><glyph glyph-name="" unicode="&#x518d;" d="M45 181 l143 0 l0 384 l288 0 l0 138 l-392 0 l0 42 l832 0 l0 -42 l-394 0 l0 -138 l289 0 l0 -384 l143 0 l0 -42 l-143 0 l0 -126 q-1 -105 -105 -105 q-38 0 -71 6 q-2 25 -16 48 q19 -4 42 -6 q24 -3 39 -3 q66 -1 65 66 l0 120 l-531 0 l0 -243 l-46 0 l0 243 l-143 0 l0 42 ZM522 334 l0 -153 l243 0 l0 153 l-243 0 ZM234 334 l0 -153 l242 0 l0 153 l-242 0 ZM765 525 l-243 0 l0 -151 l243 0 l0 151 ZM234 525 l0 -151 l242 0 l0 151 l-242 0 Z" /><glyph glyph-name="" unicode="&#x519b;" d="M490 440 l46 0 l0 -137 l293 0 l0 -42 l-293 0 l0 -141 l415 0 l0 -42 l-415 0 l0 -182 l-46 0 l0 182 l-439 0 l0 42 l439 0 l0 141 l-291 0 l0 40 q66 80 131 192 l-182 0 l0 42 l206 0 q39 71 67 141 l44 -17 q-26 -60 -61 -124 l451 0 l0 -42 l-474 0 q-31 -55 -63 -104 q-32 -49 -59 -86 l231 0 l0 137 ZM107 750 l785 0 l0 -185 l-46 0 l0 143 l-693 0 l0 -143 l-46 0 l0 185 Z" /><glyph glyph-name="" unicode="&#x51b2;" d="M608 804 l46 0 l0 -212 l248 0 l0 -466 l-44 0 l0 72 l-204 0 l0 -302 l-46 0 l0 302 l-203 0 l0 -72 l-44 0 l0 466 l247 0 l0 212 ZM858 550 l-204 0 l0 -310 l204 0 l0 310 ZM405 550 l0 -310 l203 0 l0 310 l-203 0 ZM47 29 q49 64 99 150 q50 86 93 179 l33 -33 q-39 -82 -90 -173 q-51 -91 -95 -156 l-40 33 ZM55 686 l43 21 q37 -37 88 -95 q50 -58 82 -104 l-30 -39 q-34 51 -87 113 q-52 61 -96 104 Z" /><glyph glyph-name="" unicode="&#x51b5;" d="M356 741 l482 0 l0 -394 l-134 0 l0 -321 q-3 -56 60 -54 l68 -1 q62 -3 73 60 q8 33 12 70 q19 -26 41 -33 q-4 -26 -9 -50 q-11 -51 -37 -71 q-25 -20 -72 -19 l-83 -1 q-100 -1 -99 95 l0 325 l-132 0 q0 -186 -68 -287 q-68 -101 -228 -161 q-13 20 -41 35 q160 52 226 143 q67 92 66 270 l-125 0 l0 394 ZM792 699 l-390 0 l0 -310 l390 0 l0 310 ZM47 58 q49 68 99 152 q50 84 93 177 l33 -33 q-36 -84 -88 -174 q-52 -91 -97 -157 l-40 35 ZM55 682 l43 21 q37 -37 88 -95 q50 -58 82 -104 l-30 -39 q-34 51 -87 113 q-52 61 -96 104 Z" /><glyph glyph-name="" unicode="&#x51b7;" d="M352 303 l523 0 l0 -35 q-105 -148 -238 -268 q43 -31 86 -64 l-24 -42 q-129 103 -269 188 l37 29 q68 -41 132 -86 q121 109 214 238 l-461 0 l0 40 ZM601 809 l41 -24 q-5 -13 -10 -26 q57 -111 149 -199 q92 -88 189 -129 q-27 -11 -44 -35 q-95 53 -180 135 q-86 82 -135 181 q-48 -100 -121 -184 q-73 -84 -164 -145 q-21 20 -49 26 q114 67 197 172 q83 104 127 228 ZM98 -5 l-47 23 q112 154 197 324 l36 -28 q-83 -166 -186 -319 ZM71 690 l40 23 q91 -80 172 -173 l-30 -38 q-83 100 -182 188 ZM523 486 l42 18 q60 -62 111 -130 l-33 -34 q-58 81 -120 146 Z" /><glyph glyph-name="" unicode="&#x51c0;" d="M296 363 l281 0 l0 132 l-199 0 l0 40 l225 0 l98 131 l-247 0 q-51 -69 -91 -110 q-41 -42 -43 -43 q-16 16 -42 18 q5 4 42 43 q38 39 85 100 q48 61 84 132 l36 -26 q-20 -39 -43 -74 l279 0 l0 -33 l-105 -138 l197 0 l0 -172 l106 0 l0 -40 l-106 0 l0 -222 l-44 0 l0 49 l-186 0 l0 -141 q0 -107 -113 -108 q-36 0 -86 6 q-1 26 -15 47 q22 -3 49 -6 q28 -2 49 -2 q39 0 55 15 q16 16 15 53 l0 136 l-229 0 l0 40 l229 0 l0 133 l-281 0 l0 40 ZM623 323 l0 -133 l186 0 l0 133 l-186 0 ZM809 495 l-186 0 l0 -132 l186 0 l0 132 ZM219 388 l31 -35 q-36 -91 -81 -180 q-45 -89 -94 -161 l-34 39 q107 160 178 337 ZM57 687 l42 20 q35 -40 70 -86 q35 -46 64 -92 l-34 -34 q-30 49 -67 99 q-36 50 -75 93 Z" /><glyph glyph-name="" unicode="&#x51c6;" d="M477 798 l40 -28 q-29 -75 -76 -161 l486 0 l0 -40 l-219 0 l0 -155 l200 0 l0 -40 l-200 0 l0 -157 l201 0 l0 -40 l-201 0 l0 -163 l242 0 l0 -39 l-520 0 l0 -79 l-46 0 l0 618 q-53 -81 -109 -140 q-18 16 -44 22 q77 76 144 186 q66 111 102 216 ZM430 177 l0 -163 l232 0 l0 163 l-232 0 ZM430 374 l0 -157 l232 0 l0 157 l-232 0 ZM430 569 l0 -155 l232 0 l0 155 l-232 0 ZM223 345 l33 -33 q-31 -85 -78 -179 q-47 -94 -91 -162 l-37 35 q99 146 173 339 ZM72 700 l44 19 q31 -40 68 -93 q36 -53 59 -95 l-35 -32 q-23 45 -64 105 q-41 60 -72 96 ZM589 765 l37 20 q25 -23 57 -57 q33 -35 53 -61 l-28 -34 q-23 31 -55 66 q-32 36 -64 66 Z" /><glyph glyph-name="" unicode="&#x51cf;" d="M864 458 l39 -25 q-42 -174 -133 -310 q25 -88 52 -126 q28 -39 52 -38 q21 -2 37 41 q11 34 21 76 q17 -24 36 -33 q-8 -33 -19 -63 q-27 -72 -71 -69 q-87 1 -141 166 q-80 -104 -182 -175 q-23 17 -49 23 q128 85 216 207 q-38 164 -52 458 l-328 0 l0 -212 q1 -172 -29 -283 q-29 -110 -99 -196 q-20 12 -46 16 q69 81 100 187 q31 106 30 275 l0 253 l371 0 q-3 81 -4 171 l46 5 q0 -90 2 -176 l218 0 l0 -40 l-216 0 q5 -125 16 -228 q11 -104 25 -178 q79 129 108 274 ZM404 322 l202 0 l0 -262 l-202 0 l0 262 ZM564 284 l-118 0 l0 -186 l118 0 l0 186 ZM189 378 l34 -30 q-24 -86 -61 -177 q-37 -91 -77 -162 l-39 34 q42 76 79 163 q37 88 64 172 ZM70 686 l45 17 q29 -40 58 -91 q30 -50 50 -93 l-37 -30 q-20 46 -54 103 q-34 57 -62 94 ZM383 471 l239 0 l0 -38 l-239 0 l0 38 ZM761 763 l37 21 q42 -39 88 -98 l-30 -30 q-48 65 -95 107 Z" /><glyph glyph-name="" unicode="&#x51dd;" d="M620 610 l34 24 q40 -31 76 -66 q35 34 69 73 q34 38 55 69 l-269 0 l0 40 l325 0 l0 -33 q-27 -43 -67 -90 q-39 -48 -83 -88 q27 -27 52 -54 l-21 -28 l153 0 l0 -35 l-50 -117 q-19 9 -43 6 l46 106 l-129 0 l0 -180 l147 0 l0 -40 l-147 0 l0 -209 q26 -10 57 -15 q65 -10 153 -7 q-20 -19 -20 -46 q-80 0 -146 11 q-137 21 -192 169 q-13 -62 -41 -110 q-27 -49 -72 -94 q-15 19 -40 22 q82 74 107 171 q25 98 21 247 l42 -5 q0 -79 -4 -140 q29 -130 93 -180 l0 406 l-170 0 l0 40 l224 0 q-75 83 -160 153 ZM297 459 l37 -18 q-8 -30 -18 -57 l224 0 l0 -40 l-121 0 q0 -65 -7 -118 l141 0 l0 -40 l-148 0 q-6 -30 -15 -56 q69 -49 128 -112 l-24 -33 q-54 57 -118 107 q-25 -56 -66 -101 q-42 -46 -103 -89 q-15 21 -40 26 q83 53 131 112 q47 61 65 146 l-147 0 l0 40 l153 0 q8 52 8 118 l-78 0 q-18 -40 -42 -76 q-18 15 -40 14 q57 81 80 177 ZM277 797 l42 0 l0 -141 q111 40 204 97 l28 -31 q-108 -66 -232 -108 l0 -56 q0 -46 37 -44 l101 0 q22 -1 35 10 q13 10 20 40 q6 23 10 51 q12 -21 34 -31 q-3 -20 -8 -39 q-17 -74 -89 -71 l-101 0 q-82 -2 -81 86 l0 237 ZM177 394 l32 -30 q-46 -185 -129 -355 l-36 34 q83 169 133 351 ZM60 685 l42 14 q60 -84 106 -175 l-36 -29 q-49 100 -112 190 Z" /><glyph glyph-name="" unicode="&#x51fa;" d="M818 255 l46 0 l0 -359 l-46 0 l0 41 l-683 0 l0 323 l46 0 l0 -279 l294 0 l0 387 l-319 0 l0 339 l46 0 l0 -295 l273 0 l0 393 l48 0 l0 -393 l274 0 l0 294 l46 0 l0 -338 l-320 0 l0 -387 l295 0 l0 274 Z" /><glyph glyph-name="" unicode="&#x5206;" d="M239 390 l528 0 l-21 -363 q-9 -110 -122 -112 q-19 0 -44 2 q-25 3 -47 6 q-1 22 -12 45 q25 -3 52 -6 q27 -2 47 -2 q76 -2 80 72 l19 316 l-270 0 q-17 -171 -93 -280 q-77 -109 -229 -171 q-13 17 -43 33 q156 57 230 159 q74 103 89 259 l-164 0 l0 42 ZM600 775 l41 16 q47 -163 144 -274 q96 -110 206 -148 q-33 -13 -52 -38 q-117 63 -204 173 q-86 110 -135 271 ZM371 774 l44 -25 q-48 -138 -135 -250 q-86 -112 -189 -172 q-16 19 -47 28 q110 63 197 170 q86 107 130 249 Z" /><glyph glyph-name="" unicode="&#x5207;" d="M424 694 l488 0 l-24 -609 q-3 -84 -38 -119 q-35 -36 -107 -35 q-37 0 -81 5 q-3 26 -16 50 q19 -3 48 -7 q29 -3 51 -3 q47 -1 71 24 q24 25 26 86 l22 566 l-235 0 q-1 -106 -6 -190 q-10 -153 -42 -254 q-31 -101 -92 -175 q-61 -72 -159 -141 q-19 17 -49 29 q100 66 162 137 q62 71 93 168 q32 97 41 239 q6 83 5 187 l-158 0 l0 42 ZM36 536 l157 18 l0 246 l46 0 l0 -241 l183 21 l5 -42 l-188 -22 l0 -378 l168 141 l34 -30 l-197 -169 q-23 -20 -43 -48 l-29 39 q13 18 17 35 q4 17 4 45 l0 360 l-152 -17 l-5 42 Z" /><glyph glyph-name="" unicode="&#x5217;" d="M201 265 l34 29 q35 -19 76 -46 q41 -27 79 -55 q70 120 94 268 l-216 0 q-60 -136 -160 -231 q-18 13 -46 19 q97 92 151 200 q53 108 76 237 l-206 0 l0 42 l500 0 l0 -42 l-247 0 q-19 -101 -50 -183 l244 0 l0 -38 q-57 -391 -391 -575 q-17 18 -47 28 q180 97 274 236 q-74 59 -165 111 ZM854 804 l46 0 l0 -787 q-1 -58 -32 -84 q-31 -26 -83 -26 q-40 0 -82 4 q-3 24 -15 49 q53 -9 94 -9 q73 -2 72 69 l0 784 ZM656 655 l44 0 l0 -518 l-44 0 l0 518 Z" /><glyph glyph-name="" unicode="&#x521d;" d="M435 712 l475 0 l-24 -635 q-3 -82 -37 -119 q-34 -36 -105 -35 q-18 0 -41 2 q-23 2 -41 4 q-3 26 -17 50 q56 -10 100 -10 q50 -1 73 24 q22 24 24 85 l22 592 l-227 0 q1 -73 -2 -136 q-5 -171 -34 -286 q-29 -115 -90 -197 q-60 -82 -161 -155 q-18 18 -43 28 q103 70 164 149 q60 80 88 190 q27 111 32 273 q3 62 2 134 l-158 0 l0 42 ZM394 448 l36 -19 q-35 -67 -89 -124 q54 -46 89 -83 l-24 -35 q-27 29 -67 65 q-40 37 -81 70 l0 -426 l-44 0 l0 444 q-68 -72 -145 -128 q-17 16 -40 22 q103 74 184 168 q80 95 113 170 l-261 0 l0 40 l313 0 l0 -33 q-46 -98 -120 -189 l0 -21 q25 -16 52 -39 q52 53 84 118 ZM163 782 l36 25 q66 -51 128 -120 l-26 -38 q-67 76 -138 133 Z" /><glyph glyph-name="" unicode="&#x5229;" d="M72 511 l234 0 l0 191 q-87 -14 -165 -19 q-7 20 -27 40 q111 8 210 24 q98 16 166 39 l30 -36 q-67 -23 -168 -41 l0 -198 l204 0 l0 -42 l-204 0 l0 -103 l23 11 q40 -38 87 -88 q47 -50 82 -91 l-26 -35 q-34 40 -79 90 q-45 49 -87 92 l0 -448 l-46 0 l0 484 q-37 -85 -99 -168 q-62 -83 -116 -131 q-20 15 -49 19 q41 34 90 93 q50 59 95 131 q44 72 71 144 l-226 0 l0 42 ZM830 790 l46 0 l0 -772 q0 -113 -115 -113 q-33 0 -77 4 q-3 25 -16 49 q50 -8 93 -8 q71 -3 69 74 l0 766 ZM637 672 l44 0 l0 -555 l-44 0 l0 555 Z" /><glyph glyph-name="" unicode="&#x522b;" d="M147 750 l387 0 l0 -278 l-387 0 l0 278 ZM285 425 l44 -5 q0 -18 -1 -45 q-1 -28 -3 -56 l217 0 l-16 -289 q-9 -114 -118 -112 q-28 0 -69 3 q-2 22 -13 47 q46 -7 81 -7 q71 0 76 76 l13 242 l-175 0 q-31 -243 -228 -382 q-19 16 -44 24 q98 66 155 153 q56 88 72 205 l-194 0 l0 40 l199 0 q4 62 4 106 ZM490 710 l-299 0 l0 -198 l299 0 l0 198 ZM850 802 l46 0 l0 -788 q1 -108 -112 -109 q-39 1 -80 6 q-1 24 -14 48 q51 -8 93 -9 q70 -3 67 69 l0 783 ZM664 665 l44 0 l0 -519 l-44 0 l0 519 Z" /><glyph glyph-name="" unicode="&#x5230;" d="M367 580 l40 14 q79 -93 144 -193 l-31 -33 q-19 29 -39 58 l-300 -24 q-40 -3 -73 -12 l-23 43 q31 10 63 48 q33 38 73 96 q41 58 74 117 l-219 0 l0 42 l480 0 l0 -42 l-244 0 l29 -13 q-76 -126 -170 -239 l284 22 q-42 60 -88 116 ZM53 -22 l246 50 l0 187 l-202 0 l0 42 l202 0 l0 119 l46 0 l0 -119 l192 0 l0 -42 l-192 0 l0 -178 l210 44 l20 -35 l-496 -111 l-26 43 ZM849 804 l46 0 l0 -786 q1 -108 -111 -111 q-40 0 -81 5 q-1 27 -16 50 q58 -9 92 -9 q73 -1 70 70 l0 781 ZM647 680 l46 0 l0 -535 l-46 0 l0 535 Z" /><glyph glyph-name="" unicode="&#x5236;" d="M346 804 l46 0 l0 -162 l205 0 l0 -42 l-205 0 l0 -138 l232 0 l0 -42 l-232 0 l0 -124 l198 0 l0 -225 q0 -92 -86 -94 q-32 0 -61 5 q0 21 -12 44 q42 -8 71 -8 q44 -2 44 54 l0 182 l-154 0 l0 -358 l-46 0 l0 358 l-152 0 l0 -287 l-44 0 l0 329 l196 0 l0 124 l-273 0 l0 42 l273 0 l0 138 l-147 0 q-30 -59 -68 -104 q-18 12 -48 16 q97 113 131 257 l43 -21 q-16 -55 -38 -106 l127 0 l0 162 ZM849 804 l46 0 l0 -789 q0 -108 -112 -108 q-38 0 -79 6 q-2 24 -14 48 q21 -4 47 -7 q25 -3 42 -3 q70 0 70 69 l0 784 ZM690 672 l44 0 l0 -552 l-44 0 l0 552 Z" /><glyph glyph-name="" unicode="&#x5237;" d="M144 751 l434 0 l0 -228 l-390 0 l0 -52 q0 -167 -27 -292 q-27 -124 -85 -217 q-24 12 -48 14 q63 98 90 214 q27 116 26 292 l0 269 ZM240 385 l151 0 l0 105 l44 0 l0 -105 l155 0 l0 -278 q2 -88 -76 -87 q-15 -1 -41 3 q-4 22 -16 45 q22 -6 52 -6 q37 -2 37 45 l0 238 l-111 0 l0 -449 l-44 0 l0 449 l-107 0 l0 -334 l-44 0 l0 374 ZM188 711 l0 -148 l346 0 l0 148 l-346 0 ZM845 802 l46 0 l0 -787 q0 -108 -112 -108 q-38 0 -79 6 q-2 24 -14 48 q21 -4 47 -7 q25 -3 42 -3 q70 0 70 69 l0 782 ZM689 672 l44 0 l0 -552 l-44 0 l0 552 Z" /><glyph glyph-name="" unicode="&#x523b;" d="M55 649 l534 0 l0 -41 l-259 0 q-32 -54 -74 -110 q-42 -56 -82 -98 l199 5 q46 63 80 130 l36 -28 q-129 -254 -404 -398 q-15 20 -43 33 q184 83 299 223 l-159 -6 q-42 -2 -74 -12 l-22 46 q36 11 71 50 q33 36 63 79 q31 43 57 86 l-222 0 l0 41 ZM846 800 l46 0 l0 -789 q3 -109 -116 -106 q-39 -1 -76 6 q-2 23 -14 46 q43 -6 86 -7 q41 0 58 16 q17 15 16 48 l0 786 ZM537 372 l34 -30 q-66 -111 -154 -202 q89 -75 174 -167 l-25 -41 q-87 95 -178 178 q-144 -135 -294 -199 q-13 18 -42 34 q151 60 276 173 q126 112 209 254 ZM668 665 l44 0 l0 -530 l-44 0 l0 530 ZM214 779 l35 27 q35 -24 73 -55 q38 -31 67 -62 l-23 -38 q-35 34 -75 69 q-40 34 -77 59 Z" /><glyph glyph-name="" unicode="&#x524d;" d="M144 504 l336 0 l0 -509 q2 -91 -84 -88 q-14 0 -33 2 q-19 1 -34 3 q-3 24 -16 46 q17 -3 39 -6 q22 -3 39 -3 q44 -3 43 51 l0 102 l-244 0 l0 -204 l-46 0 l0 606 ZM697 807 l43 -22 q-21 -33 -53 -72 q-32 -40 -64 -73 l310 0 l0 -42 l-877 0 l0 42 l335 0 q-36 38 -75 73 q-39 36 -73 63 l39 26 q36 -30 75 -66 q38 -35 69 -70 l-22 -26 l160 0 q34 33 71 80 q38 46 62 87 ZM190 462 l0 -140 l244 0 l0 140 l-244 0 ZM190 282 l0 -140 l244 0 l0 140 l-244 0 ZM801 515 l46 0 l0 -521 q1 -91 -92 -89 q-16 0 -39 2 q-24 2 -40 4 q-2 25 -17 48 q21 -3 48 -7 q27 -3 44 -3 q51 -1 50 52 l0 514 ZM615 454 l44 0 l0 -375 l-44 0 l0 375 Z" /><glyph glyph-name="" unicode="&#x527f;" d="M125 544 l452 0 l0 -283 l-204 0 l0 -77 l242 0 l0 -40 l-242 0 l0 -62 l21 24 q49 -21 116 -56 q66 -34 103 -58 l-13 -43 q-42 29 -111 66 q-69 38 -116 60 l0 -179 l-44 0 l0 211 q-95 -111 -245 -177 q-11 18 -38 35 q79 30 147 75 q69 46 120 104 l-249 0 l0 40 l265 0 l0 77 l-204 0 l0 283 ZM846 800 l46 0 l0 -789 q1 -109 -103 -106 q-38 -1 -74 6 q-2 23 -14 46 q42 -6 84 -7 q64 -1 61 64 l0 786 ZM689 669 l44 0 l0 -519 l-44 0 l0 519 ZM373 299 l162 0 l0 86 l-162 0 l0 -86 ZM167 385 l0 -86 l162 0 l0 86 l-162 0 ZM535 506 l-162 0 l0 -85 l162 0 l0 85 ZM167 506 l0 -85 l162 0 l0 85 l-162 0 ZM550 803 l32 -30 q-23 -28 -48 -53 q-25 -26 -44 -42 q32 -21 59 -43 q27 -22 45 -38 l-24 -36 q-31 30 -68 59 q-37 30 -74 54 q34 28 68 65 q34 36 54 64 ZM209 803 l33 -30 q-23 -30 -49 -58 q-26 -28 -43 -42 q17 -12 45 -33 q28 -22 49 -42 l-22 -38 q-28 28 -64 58 q-36 29 -69 52 q34 25 69 65 q34 40 51 68 ZM374 801 l32 -30 q-23 -30 -49 -58 q-26 -28 -42 -42 q19 -11 47 -32 q29 -22 53 -43 l-22 -38 q-29 28 -66 59 q-37 30 -72 52 q33 25 68 65 q34 39 51 67 Z" /><glyph glyph-name="" unicode="&#x529b;" d="M130 592 l318 0 q4 98 3 213 l50 -3 q-1 -114 -6 -210 l370 0 l-25 -521 q-11 -144 -158 -144 q-48 0 -91 7 q-2 27 -18 51 q24 -4 54 -7 q29 -3 55 -3 q108 -2 113 103 l22 470 l-325 0 q-34 -459 -370 -647 q-21 20 -49 28 q180 102 269 256 q89 154 103 363 l-315 0 l0 44 Z" /><glyph glyph-name="" unicode="&#x529f;" d="M444 572 l167 0 q4 124 4 235 l47 -5 q0 -121 -4 -230 l252 0 l-13 -495 q-2 -79 -36 -115 q-34 -36 -98 -35 q-40 1 -81 6 q-2 29 -19 50 q61 -10 99 -10 q84 -5 89 104 l12 453 l-207 0 q-1 -27 -2 -53 q-7 -149 -35 -253 q-28 -105 -83 -183 q-56 -77 -145 -146 q-12 9 -23 14 q-12 6 -29 11 q94 69 151 143 q57 76 84 176 q28 99 33 238 q2 26 2 53 l-165 0 l0 42 ZM69 683 l371 0 l0 -42 l-160 0 l0 -482 l171 52 l20 -35 l-406 -131 l-31 40 l198 60 l0 496 l-163 0 l0 42 Z" /><glyph glyph-name="" unicode="&#x52a0;" d="M579 694 l316 0 l0 -757 l-46 0 l0 77 l-224 0 l0 -77 l-46 0 l0 757 ZM625 652 l0 -596 l224 0 l0 596 l-224 0 ZM221 806 l46 -5 q0 -79 -1 -165 l205 0 l-10 -576 q1 -120 -125 -120 q-38 0 -81 5 q-2 24 -17 48 q21 -3 48 -6 q28 -3 51 -3 q43 -1 61 17 q19 19 19 64 l9 529 l-161 0 q0 -24 -1 -47 q-5 -215 -46 -366 q-42 -152 -131 -264 q-22 16 -50 20 q97 113 136 255 q39 142 45 360 q1 20 1 42 l-156 0 l0 42 l157 0 q1 90 1 170 Z" /><glyph glyph-name="" unicode="&#x52a1;" d="M380 813 l41 -27 q-21 -41 -49 -80 l406 0 l0 -37 q-86 -126 -226 -215 q166 -88 418 -117 q-26 -22 -38 -48 q-131 23 -235 58 q-104 34 -188 81 q-195 -108 -444 -154 q-10 22 -36 42 q245 37 435 139 q-95 61 -175 144 q-59 -65 -127 -117 q-19 16 -45 25 q89 67 153 141 q64 74 110 165 ZM167 236 l254 0 q6 28 8 56 q2 29 3 68 l47 -6 q-3 -62 -12 -118 l338 0 l-15 -205 q-7 -127 -135 -122 q-38 0 -79 6 q-1 24 -16 47 q51 -8 92 -9 q86 -1 92 82 l12 159 l-298 0 q-47 -211 -315 -302 q-16 21 -46 36 q134 41 210 105 q76 65 104 161 l-244 0 l0 42 ZM342 664 q-13 -16 -26 -33 q86 -89 192 -152 q136 81 210 185 l-376 0 Z" /><glyph glyph-name="" unicode="&#x52a8;" d="M653 805 l46 -5 q0 -43 -1 -99 q0 -56 -2 -111 l223 0 l-17 -541 q-4 -129 -126 -128 q-41 1 -83 6 q-1 23 -14 48 q53 -8 96 -9 q79 -4 81 87 l16 495 l-177 0 q0 -18 -1 -33 q-7 -175 -30 -287 q-22 -112 -67 -189 q-46 -75 -122 -143 q-18 16 -46 24 q79 66 125 141 q46 75 67 184 q22 109 27 273 q0 15 1 30 l-149 0 l0 42 l150 0 q3 108 3 215 ZM329 321 l44 6 q30 -57 64 -134 q34 -77 60 -145 l-38 -26 q-9 23 -22 56 l-271 -45 q-33 -5 -68 -20 l-29 40 q23 12 35 27 q12 15 22 37 q28 56 61 139 q33 83 57 157 l-198 0 l0 42 l458 0 l0 -42 l-212 0 q-28 -83 -66 -178 q-38 -96 -69 -158 l264 40 q-24 58 -49 114 q-26 57 -43 90 ZM107 705 l360 0 l0 -42 l-360 0 l0 42 Z" /><glyph glyph-name="" unicode="&#x52a9;" d="M34 27 l95 22 l0 687 l309 0 l0 -616 l63 15 l18 -34 l-456 -114 l-29 40 ZM492 589 l147 0 q4 120 4 218 l47 -5 q0 -46 -1 -101 q-1 -56 -3 -112 l214 0 l-13 -533 q-6 -132 -134 -129 q-40 1 -81 6 q-2 29 -19 50 q57 -10 99 -10 q85 -1 89 87 l12 487 l-169 0 q-1 -38 -3 -70 q-11 -211 -72 -351 q-61 -140 -173 -231 q-12 9 -23 14 q-12 6 -29 11 q121 89 181 223 q60 133 70 334 q2 34 3 70 l-146 0 l0 42 ZM175 267 l0 -208 l217 51 l0 157 l-217 0 ZM175 481 l0 -174 l217 0 l0 174 l-217 0 ZM175 694 l0 -173 l217 0 l0 173 l-217 0 Z" /><glyph glyph-name="" unicode="&#x5316;" d="M885 651 l42 -24 q-68 -85 -152 -163 q-83 -78 -170 -144 l0 -273 q-1 -79 69 -76 l153 -1 q35 1 53 20 q18 19 28 61 q8 32 14 71 q19 -24 39 -32 q-4 -29 -12 -59 q-25 -108 -121 -104 l-153 -1 q-115 0 -116 122 l0 237 q-107 -77 -194 -124 q-15 20 -38 30 q113 63 232 151 l0 462 l46 0 l0 -426 q83 66 155 136 q73 70 125 137 ZM317 807 l43 -27 q-42 -111 -97 -202 l0 -681 l-46 0 l0 609 q-78 -109 -142 -168 q-21 15 -45 19 q55 52 112 127 q57 76 103 160 q47 84 72 163 Z" /><glyph glyph-name="" unicode="&#x5339;" d="M133 723 l743 0 l0 -42 l-229 0 l0 -435 q0 -35 11 -48 q12 -14 41 -13 l64 0 q49 -3 61 59 q7 34 10 64 q19 -21 39 -31 q-3 -25 -8 -47 q-16 -90 -99 -87 l-64 0 q-102 -3 -99 100 l0 438 l-160 0 l0 -207 q0 -126 -40 -213 q-41 -87 -127 -156 q-20 19 -46 24 q89 70 130 152 q40 82 39 195 l0 205 l-220 0 l0 -713 l730 0 l0 -42 l-776 0 l0 797 Z" /><glyph glyph-name="" unicode="&#x533a;" d="M137 737 l726 0 l0 -44 l-678 0 l0 -712 l718 0 l0 -44 l-766 0 l0 800 ZM295 557 l40 26 q34 -30 92 -86 q58 -56 124 -122 q100 122 156 236 l40 -23 q-60 -121 -163 -247 q71 -71 131 -133 q59 -62 90 -96 l-29 -40 q-41 44 -99 105 q-59 61 -124 128 q-120 -138 -253 -229 q-16 17 -46 27 q70 46 138 106 q68 60 128 129 q-68 69 -127 128 q-60 58 -98 91 Z" /><glyph glyph-name="" unicode="&#x5347;" d="M46 406 l272 0 l0 270 q-103 -16 -180 -21 q-10 20 -36 44 q64 1 145 11 q81 10 154 25 q73 15 113 32 l36 -41 q-31 -11 -80 -21 q-48 -11 -104 -21 l0 -278 l284 0 l0 390 l48 0 l0 -390 l255 0 l0 -44 l-255 0 l0 -463 l-48 0 l0 463 l-284 0 q-2 -153 -58 -267 q-57 -114 -177 -201 q-18 16 -49 27 q123 84 179 189 q56 104 57 252 l-272 0 l0 44 Z" /><glyph glyph-name="" unicode="&#x534f;" d="M382 598 l168 0 q3 109 3 206 l46 -5 q0 -88 -4 -201 l225 0 l-21 -544 q-7 -132 -134 -129 q-40 1 -81 6 q-2 29 -19 50 q57 -10 99 -10 q85 0 89 87 l20 498 l-179 0 q-1 -41 -3 -80 q-9 -191 -67 -337 q-58 -146 -179 -243 q-22 16 -48 24 q119 84 180 225 q60 140 68 330 q2 38 3 81 l-166 0 l0 42 ZM175 800 l46 0 l0 -251 l125 0 l0 -42 l-125 0 l0 -609 l-46 0 l0 609 l-131 0 l0 42 l131 0 l0 251 ZM404 432 l38 -26 q-41 -130 -126 -236 l-30 35 q83 100 118 227 ZM830 411 l42 12 q68 -102 118 -214 l-34 -31 q-54 122 -126 233 Z" /><glyph glyph-name="" unicode="&#x5355;" d="M710 808 l42 -26 q-62 -77 -134 -144 l203 0 l0 -379 l-298 0 l0 -108 l430 0 l0 -42 l-430 0 l0 -213 l-46 0 l0 213 l-431 0 l0 42 l431 0 l0 108 l-298 0 l0 379 l212 0 q-33 36 -75 75 q-43 38 -78 66 l40 25 q33 -25 75 -63 q43 -39 72 -70 l-25 -33 l159 0 q83 77 151 170 ZM523 301 l254 0 l0 129 l-254 0 l0 -129 ZM223 430 l0 -129 l254 0 l0 129 l-254 0 ZM223 596 l0 -126 l254 0 l0 126 l-254 0 ZM777 596 l-254 0 l0 -126 l254 0 l0 126 Z" /><glyph glyph-name="" unicode="&#x535a;" d="M696 771 l30 27 q59 -31 105 -68 l-18 -36 l116 0 l0 -40 l-286 0 l0 -82 l229 0 l0 -363 l-44 0 l0 68 l-185 0 l0 -66 l-44 0 l0 66 l-185 0 l0 -68 l-44 0 l0 363 l229 0 l0 82 l-280 0 l0 40 l280 0 l0 110 l44 0 l0 -110 l168 0 q-58 45 -115 77 ZM42 492 l124 0 l0 312 l44 0 l0 -312 l116 0 l0 -40 l-116 0 l0 -556 l-44 0 l0 556 l-124 0 l0 40 ZM753 229 l44 0 l0 -63 l162 0 l0 -40 l-162 0 l0 -127 q-1 -94 -90 -94 q-32 0 -67 3 q-2 23 -17 47 q45 -7 83 -7 q47 -2 47 53 l0 125 l-460 0 l0 40 l460 0 l0 63 ZM643 405 l0 -90 l185 0 l0 90 l-185 0 ZM414 405 l0 -90 l185 0 l0 90 l-185 0 ZM414 532 l0 -89 l185 0 l0 89 l-185 0 ZM828 532 l-185 0 l0 -89 l185 0 l0 89 ZM433 88 l39 19 q26 -21 55 -50 q29 -29 50 -55 l-28 -33 q-23 28 -54 60 q-31 33 -62 59 Z" /><glyph glyph-name="" unicode="&#x5361;" d="M435 804 l46 0 l0 -166 l343 0 l0 -42 l-343 0 l0 -171 l456 0 l0 -42 l-874 0 l0 42 l372 0 l0 379 ZM434 349 l48 0 l0 -454 l-48 0 l0 454 ZM535 255 q85 -43 170 -91 q84 -47 136 -80 l-21 -41 q-68 45 -151 92 q-84 47 -164 85 l30 35 Z" /><glyph glyph-name="" unicode="&#x5373;" d="M326 230 l41 17 q43 -53 91 -120 q48 -67 78 -117 l-34 -30 q-28 45 -68 104 l-257 -117 q-27 -12 -47 -30 l-26 40 q20 22 19 61 l0 698 l357 0 l0 -426 l-311 0 l0 -298 l241 106 q-45 62 -84 112 ZM601 730 l301 0 l0 -586 q0 -114 -110 -115 q-17 0 -40 2 q-23 1 -34 3 q-1 22 -12 46 q39 -7 83 -8 q68 0 69 77 l0 539 l-211 0 l0 -792 l-46 0 l0 834 ZM169 694 l0 -151 l267 0 l0 151 l-267 0 ZM169 352 l267 0 l0 151 l-267 0 l0 -151 Z" /><glyph glyph-name="" unicode="&#x538b;" d="M544 623 l46 0 l0 -235 l286 0 l0 -42 l-286 0 l0 -363 l356 0 l0 -42 l-738 0 l0 42 l336 0 l0 363 l-264 0 l0 42 l264 0 l0 235 ZM160 737 l744 0 l0 -42 l-698 0 l0 -354 q-1 -122 -34 -244 q-34 -121 -95 -196 q-24 13 -51 16 q59 60 96 173 q37 115 38 252 l0 395 ZM680 232 l38 22 q79 -81 144 -169 l-30 -35 q-68 96 -152 182 Z" /><glyph glyph-name="" unicode="&#x539a;" d="M310 638 l517 0 l0 -262 l-517 0 l0 262 ZM293 303 l551 0 l0 -36 q-39 -27 -100 -57 q-60 -29 -130 -55 l0 -14 l332 0 l0 -40 l-332 0 l0 -101 q1 -52 -23 -75 q-24 -23 -81 -22 q-31 0 -60 5 q-4 24 -15 46 q36 -7 76 -7 q34 0 47 12 q13 12 12 41 l0 101 l-346 0 l0 40 l346 0 l0 37 q56 21 107 43 q51 22 89 42 l-473 0 l0 40 ZM150 750 l777 0 l0 -40 l-731 0 l0 -328 q1 -166 -27 -280 q-27 -114 -91 -202 q-25 12 -51 16 q69 91 97 195 q27 105 26 265 l0 374 ZM783 598 l-429 0 l0 -72 l429 0 l0 72 ZM354 416 l429 0 l0 72 l-429 0 l0 -72 Z" /><glyph glyph-name="" unicode="&#x539f;" d="M554 696 l43 -21 q-24 -56 -54 -107 l303 0 l0 -356 l-227 0 l0 -216 q-1 -93 -98 -93 q-14 0 -33 1 q-18 1 -31 3 q-3 24 -16 48 q17 -3 39 -6 q22 -2 39 -2 q55 -2 54 54 l0 211 l-243 0 l0 356 l163 0 q37 62 61 128 ZM175 744 l743 0 l0 -42 l-697 0 l0 -325 q0 -137 -37 -256 q-38 -119 -107 -208 q-22 11 -50 14 q71 81 109 197 q39 116 39 256 l0 364 ZM800 528 l-424 0 l0 -118 l424 0 l0 118 ZM376 252 l424 0 l0 118 l-424 0 l0 -118 ZM416 152 l38 -27 q-36 -50 -86 -99 q-50 -48 -103 -86 q-17 15 -43 27 q131 89 194 185 ZM723 132 l38 24 q46 -38 96 -85 q50 -46 91 -87 l-25 -38 q-45 48 -97 96 q-53 49 -103 90 Z" /><glyph glyph-name="" unicode="&#x53bb;" d="M57 365 l419 0 l0 221 l-324 0 l0 42 l324 0 l0 176 l46 0 l0 -176 l326 0 l0 -42 l-326 0 l0 -221 l420 0 l0 -42 l-435 0 q-50 -76 -121 -164 q-71 -88 -136 -154 l497 25 q-77 93 -143 164 l42 20 q47 -49 112 -124 q65 -76 118 -145 l-31 -37 q-31 43 -66 85 l-528 -30 q-17 0 -39 -3 q-22 -3 -39 -8 l-22 40 q19 6 34 16 q14 11 36 33 q56 55 118 132 q62 77 112 150 l-394 0 l0 42 Z" /><glyph glyph-name="" unicode="&#x53c2;" d="M441 811 l40 -23 q-90 -96 -193 -178 l416 17 q-34 31 -67 57 q-32 27 -55 43 l35 24 q43 -30 106 -84 q62 -55 102 -94 l-22 -38 q-23 22 -57 54 l-281 -13 l19 -7 q-19 -48 -45 -91 l482 0 l0 -42 l-285 0 q65 -67 146 -112 q81 -45 192 -77 q-33 -22 -43 -42 q-120 45 -204 102 q-84 57 -146 129 l-169 0 q-122 -162 -332 -247 q-16 18 -46 31 q97 33 181 88 q84 54 144 128 l-290 0 l0 42 l321 0 q30 46 48 97 l-141 -6 q-19 -1 -41 -4 q-23 -2 -40 -7 l-27 44 q19 4 34 12 q15 8 36 25 q50 39 100 88 q50 48 82 84 ZM768 174 l41 -27 q-109 -101 -269 -167 q-160 -67 -337 -86 q-11 18 -39 40 q180 14 342 78 q162 65 262 162 ZM644 273 l38 -27 q-74 -64 -181 -115 q-107 -52 -211 -76 q-17 18 -38 33 q113 25 222 77 q109 51 170 108 ZM542 374 l36 -28 q-57 -50 -140 -91 q-82 -40 -180 -67 q-13 18 -36 32 q98 25 183 65 q84 40 137 89 Z" /><glyph glyph-name="" unicode="&#x53c8;" d="M127 708 l673 0 l0 -44 q-29 -125 -93 -241 q-65 -117 -161 -217 q174 -172 416 -243 q-34 -24 -50 -52 q-240 97 -403 257 q-174 -166 -422 -260 q-16 27 -49 45 q260 86 435 253 q-170 185 -261 456 l-85 0 l0 46 ZM746 662 l-479 0 q80 -239 243 -419 q90 95 150 202 q60 106 86 217 Z" /><glyph glyph-name="" unicode="&#x53ca;" d="M158 733 l600 0 l0 -35 l-118 -261 l194 0 l0 -37 q-63 -187 -197 -306 q146 -101 345 -140 q-31 -17 -51 -48 q-186 51 -331 156 q-146 -111 -343 -166 q-15 24 -45 40 q207 45 350 156 q-144 119 -220 278 q-41 -139 -111 -233 q-70 -94 -164 -153 q-18 16 -53 22 q151 87 236 254 q84 168 89 431 l-181 0 l0 42 ZM387 691 q-4 -144 -29 -256 q79 -183 241 -313 q136 123 186 275 l-154 0 q-27 0 -54 -4 l-15 35 q16 5 26 16 q10 11 20 34 l95 213 l-316 0 Z" /><glyph glyph-name="" unicode="&#x53cc;" d="M468 707 l414 0 l0 -37 q-32 -279 -161 -478 q105 -153 265 -240 q-35 -14 -53 -33 q-149 99 -241 231 q-107 -146 -278 -240 q-17 19 -50 30 q177 82 301 253 q-115 191 -149 472 l-48 0 l0 42 ZM834 665 l-275 0 q38 -263 135 -428 q111 174 140 428 ZM92 488 l37 26 q30 -29 75 -78 q44 -49 93 -106 q67 158 78 321 l-287 0 l0 42 l335 0 l0 -38 q-20 -200 -92 -365 q45 -53 81 -98 q37 -45 57 -73 l-33 -36 q-19 26 -52 69 q-33 42 -75 92 q-87 -173 -232 -289 q-20 15 -52 22 q80 56 143 135 q63 79 108 172 q-51 61 -100 116 q-49 55 -84 88 Z" /><glyph glyph-name="" unicode="&#x53d1;" d="M470 805 l47 -13 q-23 -144 -52 -248 l447 0 l0 -42 l-461 0 q-21 -61 -48 -120 l384 0 l0 -37 q-56 -145 -171 -252 q153 -100 344 -141 q-33 -21 -46 -44 q-189 56 -334 154 q-139 -110 -345 -167 q-13 21 -37 35 q202 47 345 160 q-117 90 -190 199 q-96 -162 -272 -281 q-18 18 -49 26 q140 85 230 205 q90 120 140 263 l-287 0 l0 40 q24 32 57 96 q32 64 48 114 l42 -22 q-20 -53 -45 -103 q-25 -50 -47 -83 l246 0 q35 110 54 261 ZM383 342 q-3 -7 -8 -15 q80 -117 204 -208 q114 103 160 223 l-356 0 ZM636 737 l36 27 q37 -26 86 -63 q49 -36 83 -67 l-25 -37 q-39 35 -90 74 q-51 40 -90 66 Z" /><glyph glyph-name="" unicode="&#x53d6;" d="M31 68 l106 26 l0 615 l-77 0 l0 40 l454 0 l0 -40 l-72 0 l0 -539 l83 21 l21 -36 l-104 -28 l0 -199 q149 83 253 240 q-112 193 -150 481 l-41 0 l0 40 l393 0 l0 -35 q-35 -294 -151 -487 q98 -149 239 -229 q-33 -13 -49 -32 q-126 88 -215 221 q-95 -139 -234 -230 q-16 19 -45 29 l0 -28 l-44 0 l0 217 l-338 -89 l-29 42 ZM851 649 l-263 0 q37 -270 133 -439 q101 175 130 439 ZM181 709 l0 -170 l217 0 l0 170 l-217 0 ZM181 300 l0 -195 l217 54 l0 141 l-217 0 ZM181 501 l0 -163 l217 0 l0 163 l-217 0 Z" /><glyph glyph-name="" unicode="&#x53d8;" d="M174 322 l595 0 l0 -35 q-87 -134 -223 -223 q170 -90 392 -119 q-24 -16 -40 -45 q-222 40 -394 138 q-180 -102 -419 -145 q-10 23 -35 40 q230 36 411 132 q-130 87 -215 215 l-72 0 l0 42 ZM389 784 l38 29 q31 -21 67 -52 q36 -31 66 -61 l-19 -30 l378 0 l0 -42 l-277 0 l0 -265 l-46 0 l0 265 l-192 0 l0 -265 l-46 0 l0 265 l-280 0 l0 42 l447 0 q-28 28 -65 59 q-38 32 -71 55 ZM710 280 l-412 0 q82 -114 205 -191 q123 76 207 191 ZM260 558 l29 -34 q-42 -47 -98 -98 q-57 -52 -106 -87 l-25 38 q49 36 104 85 q55 50 96 96 ZM706 533 l37 26 q38 -28 93 -75 q55 -48 99 -90 l-25 -40 q-37 38 -97 91 q-60 52 -107 88 Z" /><glyph glyph-name="" unicode="&#x53e0;" d="M236 239 l528 0 l0 -275 l185 0 l0 -38 l-900 0 l0 38 l187 0 l0 275 ZM276 676 l22 31 q42 -8 99 -19 q57 -11 121 -24 q80 25 147 58 l-432 0 l0 36 l511 0 l0 -33 q-73 -45 -160 -75 q128 -27 221 -49 l-3 -39 q-139 35 -283 67 q-144 -42 -316 -62 q-6 15 -29 34 q155 13 272 43 q-92 18 -170 32 ZM88 336 l825 0 l0 -152 l-44 0 l0 114 l-737 0 l0 -114 l-44 0 l0 152 ZM536 460 l22 28 q60 -15 151 -40 q66 27 116 64 l-290 0 l0 34 l344 0 l0 -31 q-46 -47 -121 -82 q78 -23 134 -41 l-7 -37 q-83 31 -174 58 q-90 -34 -187 -52 q-7 15 -28 30 q89 15 162 38 q-68 19 -122 31 ZM143 462 l21 29 q63 -14 152 -41 q61 27 109 62 l-308 0 l0 34 l361 0 l0 -31 q-45 -45 -115 -79 q59 -17 105 -33 l-6 -36 q-72 26 -146 48 q-96 -39 -199 -58 q-8 15 -27 30 q97 16 175 43 q-65 20 -122 32 ZM280 21 l0 -57 l440 0 l0 57 l-440 0 ZM280 112 l0 -57 l440 0 l0 57 l-440 0 ZM280 203 l0 -57 l440 0 l0 57 l-440 0 Z" /><glyph glyph-name="" unicode="&#x53e3;" d="M154 696 l686 0 l0 -751 l-48 0 l0 97 l-590 0 l0 -97 l-48 0 l0 751 ZM202 652 l0 -566 l590 0 l0 566 l-590 0 Z" /><glyph glyph-name="" unicode="&#x53e4;" d="M200 332 l276 0 l0 212 l-430 0 l0 44 l430 0 l0 217 l48 0 l0 -217 l429 0 l0 -44 l-429 0 l0 -212 l274 0 l0 -436 l-46 0 l0 79 l-506 0 l0 -79 l-46 0 l0 436 ZM246 290 l0 -274 l506 0 l0 274 l-506 0 Z" /><glyph glyph-name="" unicode="&#x53ec;" d="M214 317 l609 0 l0 -418 l-48 0 l0 84 l-513 0 l0 -84 l-48 0 l0 418 ZM262 273 l0 -247 l513 0 l0 247 l-513 0 ZM141 744 l714 0 l-23 -228 q-14 -125 -127 -123 q-21 0 -47 2 q-27 1 -44 4 q0 26 -13 50 q23 -4 53 -7 q30 -3 50 -3 q72 -3 80 83 l18 178 l-333 0 q-22 -151 -115 -240 q-93 -89 -276 -143 q-12 18 -39 39 q182 47 270 127 q89 80 111 217 l-279 0 l0 44 Z" /><glyph glyph-name="" unicode="&#x53ef;" d="M200 524 l356 0 l0 -365 l-356 0 l0 365 ZM52 722 l896 0 l0 -44 l-173 0 l0 -653 q4 -121 -125 -119 q-19 0 -48 2 q-28 3 -48 6 q0 21 -14 50 q23 -4 55 -7 q31 -4 54 -4 q44 -1 61 18 q18 18 17 61 l0 646 l-675 0 l0 44 ZM510 482 l-264 0 l0 -281 l264 0 l0 281 Z" /><glyph glyph-name="" unicode="&#x53f0;" d="M810 301 l0 -405 l-48 0 l0 70 l-525 0 l0 -70 l-48 0 l0 405 l621 0 ZM237 257 l0 -248 l525 0 l0 248 l-525 0 ZM612 635 l39 26 q57 -48 131 -119 q74 -72 136 -141 l-28 -38 q-36 40 -77 81 l-598 -21 q-20 -1 -48 -5 q-29 -5 -48 -11 l-25 46 q49 13 89 46 q45 40 99 95 q53 56 101 113 q49 57 79 102 l45 -25 q-57 -77 -132 -159 q-75 -82 -155 -157 l551 18 q-81 80 -159 149 Z" /><glyph glyph-name="" unicode="&#x53f3;" d="M462 806 l46 -13 q-17 -90 -47 -175 l489 0 l0 -44 l-505 0 q-45 -116 -118 -220 l516 0 l0 -458 l-46 0 l0 77 l-465 0 l0 -77 l-46 0 l0 402 q-88 -110 -212 -203 q-18 17 -45 26 q135 104 224 215 q89 111 141 238 l-315 0 l0 44 l331 0 q33 88 52 188 ZM797 312 l-465 0 l0 -298 l465 0 l0 298 Z" /><glyph glyph-name="" unicode="&#x53f7;" d="M220 752 l559 0 l0 -250 l-559 0 l0 250 ZM53 394 l894 0 l0 -42 l-609 0 l-38 -121 l509 0 l-31 -197 q-11 -71 -46 -100 q-35 -30 -102 -29 q-32 0 -63 4 q-32 4 -54 9 q-1 22 -12 45 q25 -5 61 -10 q36 -4 69 -4 q45 -1 69 20 q24 21 32 69 l24 151 l-518 0 l53 163 l-238 0 l0 42 ZM733 710 l-467 0 l0 -166 l467 0 l0 166 Z" /><glyph glyph-name="" unicode="&#x53f8;" d="M85 557 l651 0 l0 -44 l-651 0 l0 44 ZM131 750 l727 0 l0 -699 q0 -146 -136 -145 q-21 0 -45 2 q-24 3 -41 5 q-1 26 -15 50 q53 -8 98 -9 q92 -4 91 103 l0 649 l-679 0 l0 44 ZM590 334 l-365 0 l0 -210 l365 0 l0 210 ZM179 82 l0 294 l457 0 l0 -294 l-457 0 Z" /><glyph glyph-name="" unicode="&#x5408;" d="M215 274 l578 0 l0 -379 l-46 0 l0 68 l-486 0 l0 -68 l-46 0 l0 379 ZM261 232 l0 -228 l486 0 l0 228 l-486 0 ZM502 814 l38 -27 q-9 -17 -19 -32 q83 -106 200 -191 q118 -85 251 -128 q-30 -23 -44 -43 q-145 61 -255 150 q-110 88 -176 177 q-77 -108 -189 -198 q-112 -91 -240 -144 q-14 20 -44 35 q155 62 284 172 q129 110 194 229 ZM266 453 l482 0 l0 -42 l-482 0 l0 42 Z" /><glyph glyph-name="" unicode="&#x540c;" d="M131 732 l742 0 l0 -710 q0 -119 -118 -119 q-19 0 -42 2 q-23 3 -39 5 q-3 23 -14 47 q46 -8 88 -9 q82 -2 79 75 l0 667 l-650 0 l0 -794 l-46 0 l0 836 ZM267 558 l470 0 l0 -40 l-470 0 l0 40 ZM328 384 l347 0 l0 -292 l-347 0 l0 292 ZM631 344 l-259 0 l0 -212 l259 0 l0 212 Z" /><glyph glyph-name="" unicode="&#x540e;" d="M316 307 l526 0 l0 -411 l-46 0 l0 77 l-434 0 l0 -77 l-46 0 l0 411 ZM362 265 l0 -251 l434 0 l0 251 l-434 0 ZM807 770 l34 -39 q-107 -24 -268 -41 q-161 -16 -343 -21 l0 -155 l712 0 l0 -42 l-712 0 l0 -88 q1 -145 -35 -254 q-35 -109 -113 -206 q-21 15 -51 19 q81 87 117 192 q37 104 36 248 l0 326 q206 4 376 20 q170 17 247 41 Z" /><glyph glyph-name="" unicode="&#x5427;" d="M448 733 l447 0 l0 -405 l-401 0 l0 -292 q-1 -70 72 -65 l242 -1 q39 1 59 14 q20 13 30 44 q13 41 21 83 q17 -24 37 -34 q-8 -37 -19 -72 q-14 -43 -43 -61 q-29 -18 -82 -17 l-247 -1 q-116 -3 -116 110 l0 697 ZM338 707 l0 -645 l-44 0 l0 71 l-151 0 l0 -85 l-44 0 l0 659 l239 0 ZM143 665 l0 -490 l151 0 l0 490 l-151 0 ZM849 691 l-156 0 l0 -321 l156 0 l0 321 ZM494 691 l0 -321 l155 0 l0 321 l-155 0 Z" /><glyph glyph-name="" unicode="&#x542c;" d="M344 707 l0 -633 l-44 0 l0 45 l-157 0 l0 -67 l-44 0 l0 655 l245 0 ZM864 758 l31 -40 q-62 -14 -161 -26 q-99 -12 -218 -18 l0 -224 l446 0 l0 -42 l-179 0 l0 -509 l-46 0 l0 509 l-221 0 l0 -53 q1 -157 -34 -259 q-35 -101 -121 -185 q-21 13 -49 18 q89 80 124 177 q35 96 34 249 l0 360 q119 4 220 16 q101 11 174 27 ZM143 665 l0 -504 l157 0 l0 504 l-157 0 Z" /><glyph glyph-name="" unicode="&#x542f;" d="M387 777 l38 33 q38 -21 85 -50 q47 -29 78 -53 l-20 -37 l286 0 l0 -250 l-643 0 l0 -65 q1 -152 -30 -256 q-31 -103 -99 -194 q-22 14 -50 16 q73 90 104 186 q30 96 29 242 l0 321 l398 0 q-41 29 -89 59 q-49 29 -87 48 ZM309 280 l557 0 l0 -381 l-46 0 l0 84 l-465 0 l0 -84 l-46 0 l0 381 ZM355 238 l0 -214 l465 0 l0 214 l-465 0 ZM211 628 l0 -166 l597 0 l0 166 l-597 0 Z" /><glyph glyph-name="" unicode="&#x5438;" d="M381 750 l453 0 l0 -35 l-104 -266 l154 0 l0 -35 q-34 -197 -141 -320 q102 -93 239 -142 q-33 -21 -46 -43 q-127 60 -225 150 q-113 -108 -266 -163 q-16 18 -44 31 q175 66 277 166 q-101 108 -157 260 q-50 -291 -268 -443 q-17 16 -48 24 q136 84 206 224 q71 140 80 349 q2 52 4 105 q1 52 1 96 l-115 0 l0 42 ZM98 718 l241 0 l0 -603 l-44 0 l0 48 l-153 0 l0 -70 l-44 0 l0 625 ZM537 502 q-2 -34 -5 -67 q62 -187 178 -309 q104 121 129 283 l-111 0 q-30 -1 -56 -6 l-19 33 q19 8 28 20 q10 11 18 34 l84 218 l-241 0 q-1 -44 -2 -102 q-1 -58 -3 -104 ZM142 678 l0 -475 l153 0 l0 475 l-153 0 Z" /><glyph glyph-name="" unicode="&#x547c;" d="M330 711 l0 -642 l-44 0 l0 49 l-143 0 l0 -76 l-44 0 l0 669 l231 0 ZM883 769 l32 -41 q-90 -21 -235 -33 l0 -370 l274 0 l0 -42 l-274 0 l0 -278 q-1 -100 -105 -98 q-16 0 -40 2 q-24 2 -43 6 q-4 26 -18 48 q25 -5 52 -8 q27 -3 47 -3 q60 -1 61 56 l0 275 l-266 0 l0 42 l266 0 l0 366 q-106 -9 -222 -12 q-6 23 -23 43 q142 1 275 13 q133 12 219 34 ZM143 669 l0 -509 l143 0 l0 509 l-143 0 ZM872 615 l42 -20 q-63 -117 -139 -199 q-18 14 -42 17 q44 48 80 102 q37 54 59 100 ZM396 578 l42 20 q36 -38 71 -82 q36 -45 65 -88 l-32 -33 q-32 48 -70 96 q-39 47 -76 87 Z" /><glyph glyph-name="" unicode="&#x547d;" d="M426 383 l0 -388 l-44 0 l0 58 l-179 0 l0 -72 l-44 0 l0 402 l267 0 ZM545 389 l299 0 l0 -254 q-1 -117 -103 -116 q-39 0 -79 5 q-2 24 -14 45 q24 -3 48 -5 q25 -2 42 -2 q62 -3 62 70 l0 217 l-211 0 l0 -453 l-44 0 l0 493 ZM502 818 l39 -27 q-8 -12 -16 -24 q75 -83 197 -154 q122 -72 262 -101 q-25 -18 -37 -43 q-282 82 -448 266 q-83 -99 -199 -173 q-117 -74 -248 -117 q-14 20 -41 33 q155 48 291 140 q135 93 200 200 ZM203 343 l0 -250 l179 0 l0 250 l-179 0 ZM294 544 l420 0 l0 -42 l-420 0 l0 42 Z" /><glyph glyph-name="" unicode="&#x548c;" d="M568 704 l340 0 l0 -757 l-46 0 l0 68 l-248 0 l0 -68 l-46 0 l0 757 ZM614 662 l0 -605 l248 0 l0 605 l-248 0 ZM59 509 l233 0 l0 184 q-88 -14 -160 -19 q-8 23 -26 39 q89 4 189 21 q101 17 165 39 l31 -34 q-59 -22 -153 -39 l0 -191 l185 0 l0 -42 l-185 0 l0 -96 l24 12 q39 -35 77 -75 q38 -39 66 -74 l-27 -35 q-60 74 -140 154 l0 -457 l-46 0 l0 492 q-36 -81 -96 -162 q-59 -81 -115 -130 q-22 14 -51 15 q80 70 148 164 q67 94 104 192 l-223 0 l0 42 Z" /><glyph glyph-name="" unicode="&#x54c1;" d="M248 744 l508 0 l0 -304 l-508 0 l0 304 ZM550 326 l338 0 l0 -420 l-44 0 l0 72 l-250 0 l0 -72 l-44 0 l0 420 ZM446 326 l0 -420 l-44 0 l0 72 l-241 0 l0 -72 l-44 0 l0 420 l329 0 ZM710 702 l-416 0 l0 -220 l416 0 l0 220 ZM594 286 l0 -269 l250 0 l0 269 l-250 0 ZM161 286 l0 -269 l241 0 l0 269 l-241 0 Z" /><glyph glyph-name="" unicode="&#x54cd;" d="M96 698 l220 0 l0 -662 l-44 0 l0 64 l-132 0 l0 -101 l-44 0 l0 699 ZM636 806 l42 -20 q-30 -78 -65 -145 l294 0 l0 -633 q1 -103 -102 -101 q-16 0 -35 1 q-20 1 -35 3 q-2 23 -14 45 q20 -3 42 -5 q23 -2 39 -2 q61 -4 61 62 l0 590 l-403 0 l0 -706 l-44 0 l0 746 l146 0 q46 80 74 165 ZM553 470 l217 0 l0 -368 l-217 0 l0 368 ZM140 658 l0 -518 l132 0 l0 518 l-132 0 ZM728 432 l-133 0 l0 -292 l133 0 l0 292 Z" /><glyph glyph-name="" unicode="&#x5524;" d="M431 502 l209 0 l118 153 l-237 0 q-64 -90 -132 -149 q-17 16 -42 21 q145 120 211 281 l36 -28 q-20 -42 -47 -85 l268 0 l0 -34 l-123 -159 l176 0 l0 -277 l84 0 l0 -40 l-276 0 q43 -87 113 -150 q70 -62 179 -107 q-20 -7 -30 -15 q-10 -8 -18 -16 q-99 50 -165 112 q-65 64 -111 158 q-28 -88 -99 -158 q-71 -69 -191 -115 q-16 16 -48 28 q126 43 199 109 q74 68 100 154 l-252 0 l0 40 l78 0 l0 277 ZM93 692 l224 0 l0 -618 l-44 0 l0 56 l-136 0 l0 -77 l-44 0 l0 639 ZM137 652 l0 -482 l136 0 l0 482 l-136 0 ZM823 462 l-154 0 q1 -55 -2 -121 q-3 -65 -8 -116 l164 0 l0 237 ZM475 462 l0 -237 l140 0 q3 17 4 33 q9 105 7 204 l-151 0 Z" /><glyph glyph-name="" unicode="&#x5546;" d="M682 633 l41 -21 q-24 -29 -53 -61 q-30 -33 -60 -61 l235 0 l0 -473 q-1 -113 -104 -112 q-16 0 -37 1 q-22 1 -38 3 q-4 23 -19 47 q20 -3 46 -6 q26 -2 43 -2 q66 -2 65 70 l0 432 l-602 0 l0 -554 l-44 0 l0 594 l397 0 q36 33 71 71 q34 38 59 72 ZM337 25 l0 231 l325 0 l0 -231 l-325 0 ZM408 793 l37 27 q27 -19 62 -46 q34 -28 64 -56 l-24 -27 l381 0 l0 -42 l-856 0 l0 42 l462 0 q-65 62 -126 102 ZM620 63 l0 155 l-241 0 l0 -155 l241 0 ZM406 413 l35 -24 q-77 -94 -182 -164 q-13 17 -37 26 q115 74 184 162 ZM560 389 l35 24 q44 -34 91 -75 q46 -40 78 -72 l-23 -36 q-96 95 -181 159 ZM269 600 l35 24 q65 -44 123 -98 l-25 -34 q-68 64 -133 108 Z" /><glyph glyph-name="" unicode="&#x5668;" d="M545 194 l315 0 l0 -298 l-42 0 l0 57 l-231 0 l0 -57 l-42 0 l0 298 ZM144 194 l313 0 l0 -298 l-42 0 l0 57 l-229 0 l0 -57 l-42 0 l0 298 ZM80 417 l378 0 q20 40 29 97 l42 -12 q-9 -45 -25 -85 l230 0 q-43 30 -96 56 l29 25 q60 -28 111 -67 l-9 -14 l150 0 l0 -40 l-350 0 q156 -122 405 -120 q-21 -27 -27 -48 q-290 19 -433 168 l-30 0 q-56 -80 -172 -122 q-116 -43 -245 -48 q-12 22 -32 40 q150 7 247 42 q98 35 147 88 l-349 0 l0 40 ZM550 750 l309 0 l0 -241 l-309 0 l0 241 ZM145 750 l308 0 l0 -241 l-308 0 l0 241 ZM587 156 l0 -165 l231 0 l0 165 l-231 0 ZM186 156 l0 -165 l229 0 l0 165 l-229 0 ZM817 712 l-225 0 l0 -165 l225 0 l0 165 ZM411 712 l-224 0 l0 -165 l224 0 l0 165 Z" /><glyph glyph-name="" unicode="&#x56db;" d="M124 708 l750 0 l0 -782 l-46 0 l0 95 l-658 0 l0 -95 l-46 0 l0 782 ZM170 666 l0 -603 l658 0 l0 603 l-208 0 l0 -345 q2 -49 45 -52 q51 -3 127 3 q-10 -23 -12 -45 q-65 -4 -116 -2 q-90 3 -88 97 l0 344 l-155 0 l0 -174 q0 -114 -41 -191 q-42 -77 -128 -129 q-19 16 -45 28 q92 50 132 121 q39 71 38 170 l0 175 l-207 0 Z" /><glyph glyph-name="" unicode="&#x56de;" d="M118 726 l763 0 l0 -815 l-48 0 l0 83 l-667 0 l0 -82 l-48 0 l0 814 ZM166 682 l0 -645 l667 0 l0 645 l-667 0 ZM333 518 l332 0 l0 -316 l-332 0 l0 316 ZM619 476 l-240 0 l0 -232 l240 0 l0 232 Z" /><glyph glyph-name="" unicode="&#x56e0;" d="M119 735 l763 0 l0 -835 l-46 0 l0 59 l-671 0 l0 -59 l-46 0 l0 835 ZM165 693 l0 -693 l671 0 l0 693 l-671 0 ZM536 361 q62 -65 119 -128 q56 -64 98 -117 l-32 -33 q-85 109 -220 254 q-48 -153 -218 -253 q-19 17 -44 24 q227 132 237 338 l-236 0 l0 40 l237 0 l0 153 l44 0 l0 -153 l239 0 l0 -40 l-240 0 q-2 -53 -16 -101 l32 16 Z" /><glyph glyph-name="" unicode="&#x56f4;" d="M115 750 l767 0 l0 -854 l-46 0 l0 58 l-675 0 l0 -58 l-46 0 l0 854 ZM161 708 l0 -712 l675 0 l0 712 l-675 0 ZM288 453 l169 0 l0 99 l-207 0 l0 40 l207 0 l0 83 l44 0 l0 -83 l244 0 l0 -40 l-244 0 l0 -99 l206 0 l0 -40 l-206 0 l0 -103 l257 0 l-4 -127 q-2 -96 -88 -94 q-13 0 -32 2 q-18 1 -32 3 q-1 25 -14 46 q41 -7 72 -8 q50 -2 50 54 l3 84 l-212 0 l0 -242 l-44 0 l0 242 l-225 0 l0 40 l225 0 l0 103 l-169 0 l0 40 Z" /><glyph glyph-name="" unicode="&#x56fd;" d="M115 750 l767 0 l0 -854 l-46 0 l0 58 l-675 0 l0 -58 l-46 0 l0 854 ZM161 708 l0 -712 l675 0 l0 712 l-675 0 ZM240 595 l515 0 l0 -40 l-237 0 l0 -158 l215 0 l0 -40 l-215 0 l0 -206 l256 0 l0 -40 l-556 0 l0 40 l256 0 l0 206 l-209 0 l0 40 l209 0 l0 158 l-234 0 l0 40 ZM580 299 l35 23 q32 -22 66 -51 q34 -28 59 -54 l-24 -34 q-27 26 -66 61 q-40 34 -70 55 Z" /><glyph glyph-name="" unicode="&#x56fe;" d="M112 750 l776 0 l0 -854 l-44 0 l0 54 l-688 0 l0 -54 l-44 0 l0 854 ZM156 710 l0 -720 l688 0 l0 720 l-688 0 ZM415 697 l37 -28 q-13 -30 -33 -60 l271 0 l0 -32 q-52 -94 -146 -165 q118 -69 276 -95 q-25 -19 -36 -42 q-164 41 -276 112 q-121 -78 -290 -123 q-12 22 -39 35 q167 36 291 113 q-66 48 -115 109 q-42 -49 -89 -84 q-17 14 -41 22 q63 46 115 110 q51 63 75 128 ZM634 569 l-242 0 q-5 -7 -11 -15 q50 -66 126 -118 q87 63 127 133 ZM337 131 l29 35 q71 -23 134 -48 q63 -25 129 -58 l-12 -43 q-135 71 -280 114 ZM410 262 l29 31 q41 -16 88 -39 q47 -24 88 -49 l-12 -41 q-94 58 -193 98 Z" /><glyph glyph-name="" unicode="&#x5728;" d="M93 658 l301 0 q38 79 61 158 l46 -21 q-20 -67 -52 -137 l492 0 l0 -44 l-514 0 q-61 -119 -149 -224 l0 -494 l-46 0 l0 442 q-75 -79 -158 -132 q-16 19 -48 34 q111 64 198 162 q88 97 148 212 l-279 0 l0 44 ZM612 539 l46 0 l0 -208 l242 0 l0 -42 l-242 0 l0 -294 l286 0 l0 -42 l-618 0 l0 42 l286 0 l0 294 l-242 0 l0 42 l242 0 l0 208 Z" /><glyph glyph-name="" unicode="&#x5730;" d="M652 804 l44 0 l0 -259 l206 59 l-7 -347 q0 -92 -85 -92 q-30 1 -61 4 q-3 23 -17 43 q40 -5 75 -6 q44 -1 46 53 l7 291 l-164 -47 l0 -407 l-44 0 l0 395 l-163 -47 l0 -411 q0 -27 18 -45 q18 -18 49 -19 l259 -1 q72 -1 89 54 q11 32 21 81 q15 -22 38 -33 q-8 -34 -20 -70 q-27 -77 -124 -73 l-265 -1 q-55 2 -82 32 q-27 31 -27 80 l0 394 l-88 -25 l-18 36 l106 30 l0 267 l44 0 l0 -254 l163 46 l0 272 ZM55 547 l144 0 l0 251 l44 0 l0 -251 l135 0 l0 -40 l-135 0 l0 -396 l125 52 l23 -32 l-325 -141 l-33 34 l166 69 l0 414 l-144 0 l0 40 Z" /><glyph glyph-name="" unicode="&#x573a;" d="M429 741 l445 0 l0 -35 q-69 -61 -171 -133 q-103 -71 -189 -122 l414 0 l-26 -412 q-7 -133 -128 -130 q-39 0 -74 5 q-2 25 -16 48 q49 -8 89 -9 q43 -1 63 20 q20 22 22 71 l23 367 l-98 0 q-34 -177 -114 -298 q-80 -121 -222 -207 q-15 16 -47 27 q141 72 225 194 q83 121 114 284 l-110 0 q-40 -117 -98 -191 q-59 -74 -158 -135 q-16 17 -44 27 q101 54 162 128 q62 74 93 171 l-62 0 q-48 0 -91 -7 l-23 44 q18 3 31 9 q14 6 35 19 q77 46 166 107 q89 61 163 118 l-374 0 l0 40 ZM207 803 l46 0 l0 -238 l134 0 l0 -42 l-134 0 l0 -317 l128 73 l30 -28 l-341 -205 l-38 34 l175 100 l0 343 l-141 0 l0 42 l141 0 l0 238 Z" /><glyph glyph-name="" unicode="&#x5747;" d="M558 806 l45 -22 q-21 -77 -58 -158 l353 0 l-15 -575 q-3 -149 -140 -145 q-21 0 -46 2 q-24 2 -39 4 q-2 25 -16 51 q18 -4 47 -7 q28 -3 54 -3 q50 0 71 23 q22 24 23 77 l14 531 l-326 0 q-55 -110 -128 -193 q-20 11 -45 15 q78 89 131 196 q53 106 75 204 ZM212 804 l46 0 l0 -251 l130 0 l0 -42 l-130 0 l0 -344 l142 63 l23 -30 l-346 -166 l-33 39 l168 74 l0 364 l-148 0 l0 42 l148 0 l0 251 ZM374 48 q97 55 196 121 q98 65 173 123 l34 -28 q-88 -67 -184 -133 q-96 -67 -182 -118 l-37 35 ZM481 435 l36 25 q35 -28 70 -62 q36 -34 63 -64 l-27 -36 q-25 29 -65 68 q-40 38 -77 69 Z" /><glyph glyph-name="" unicode="&#x578b;" d="M71 532 l176 0 l0 4 l0 174 l-134 0 l0 40 l482 0 l0 -40 l-112 0 l0 -178 l126 0 l0 -40 l-126 0 l0 -201 l-44 0 l0 201 l-150 0 q-7 -77 -44 -139 q-38 -61 -114 -115 q-15 18 -38 26 q75 53 111 107 q35 54 41 121 l-174 0 l0 40 ZM178 159 l301 0 l0 111 l46 0 l0 -111 l295 0 l0 -42 l-295 0 l0 -149 l413 0 l0 -42 l-877 0 l0 42 l418 0 l0 149 l-301 0 l0 42 ZM833 803 l46 0 l0 -458 q0 -96 -96 -96 q-16 0 -36 1 q-20 1 -35 3 q-2 27 -17 47 q51 -6 87 -7 q53 -2 51 55 l0 455 ZM291 536 l0 -4 l148 0 l0 178 l-148 0 l0 -174 ZM667 737 l44 0 l0 -354 l-44 0 l0 354 Z" /><glyph glyph-name="" unicode="&#x57ce;" d="M873 464 l39 -26 q-41 -183 -137 -322 q52 -161 106 -157 q19 -4 37 43 q12 32 20 69 q13 -22 36 -32 q-9 -34 -18 -57 q-28 -71 -74 -69 q-85 0 -139 159 q-73 -90 -179 -164 q-22 18 -48 24 q130 85 211 194 q-41 153 -53 447 l-253 0 l0 -158 l181 0 l-11 -267 q-4 -102 -106 -103 q-32 1 -52 5 q-2 20 -11 43 q32 -6 62 -7 q64 -2 65 65 l9 226 l-137 0 q1 -169 -29 -281 q-29 -111 -96 -198 q-23 15 -50 15 q71 83 101 190 q31 107 30 274 l0 236 l296 0 q-2 87 -2 188 l46 5 q-2 -99 1 -193 l222 0 l0 -40 l-220 0 q5 -123 15 -226 q11 -103 25 -172 q78 127 113 289 ZM181 802 l44 0 l0 -253 l114 0 l0 -40 l-114 0 l0 -316 l102 43 l26 -33 l-291 -130 l-32 38 l151 63 l0 335 l-130 0 l0 40 l130 0 l0 253 ZM778 761 l37 21 q23 -21 47 -49 q24 -27 43 -53 l-31 -33 q-48 67 -96 114 Z" /><glyph glyph-name="" unicode="&#x57df;" d="M867 445 l40 -21 q-33 -172 -122 -317 q6 -27 13 -53 q30 -103 65 -102 q26 -3 48 71 q10 34 19 77 q18 -22 37 -29 q-8 -41 -19 -72 q-17 -52 -39 -73 q-21 -21 -46 -20 q-66 -2 -106 131 q-3 9 -5 20 q-68 -92 -159 -157 q-17 15 -44 22 q113 80 189 196 q-34 174 -46 438 l-316 0 l0 42 l314 0 q-4 96 -4 203 l46 5 q0 -112 3 -208 l202 0 l0 -42 l-201 0 q10 -226 37 -381 q70 128 94 270 ZM406 455 l216 0 l0 -271 l-216 0 l0 271 ZM52 530 l134 0 l0 274 l46 0 l0 -274 l117 0 l0 -42 l-117 0 l0 -343 l108 44 l26 -32 l-309 -136 l-32 40 l161 65 l0 362 l-134 0 l0 42 ZM578 415 l-128 0 l0 -191 l128 0 l0 191 ZM329 29 l318 98 l24 -31 l-312 -104 l-30 37 ZM778 748 l38 22 q52 -47 97 -104 l-27 -35 q-25 33 -55 63 q-29 31 -53 54 Z" /><glyph glyph-name="" unicode="&#x5883;" d="M403 423 l462 0 l0 -281 l-132 0 l0 -126 q0 -50 50 -49 l68 -1 q47 -3 64 58 q7 26 13 60 q14 -21 36 -30 q-5 -31 -11 -54 q-22 -79 -99 -75 l-72 -1 q-94 1 -93 91 l0 127 l-114 0 q-11 -95 -80 -153 q-68 -59 -185 -93 q-11 25 -36 38 q116 30 181 78 q65 49 76 130 l-128 0 l0 281 ZM48 570 l125 0 l0 234 l44 0 l0 -234 l103 0 l0 -40 l-103 0 l0 -356 l117 45 l19 -34 l-295 -119 l-26 38 l141 53 l0 373 l-125 0 l0 40 ZM342 538 l200 0 q-40 51 -88 94 l39 19 q47 -41 87 -92 l-19 -21 l124 0 q58 60 97 122 l38 -23 q-34 -52 -78 -99 l206 0 l0 -40 l-606 0 l0 40 ZM447 180 l374 0 l0 85 l-374 0 l0 -85 ZM821 385 l-374 0 l0 -84 l374 0 l0 84 ZM375 705 l261 0 q-24 21 -51 42 q-28 21 -51 37 l36 26 q23 -15 55 -40 q31 -25 55 -47 l-13 -18 l242 0 l0 -40 l-534 0 l0 40 Z" /><glyph glyph-name="" unicode="&#x589e;" d="M802 806 l40 -19 q-55 -65 -117 -124 l184 0 l0 -302 l-540 0 l0 302 l300 0 q71 66 133 143 ZM861 -104 l-44 0 l0 51 l-348 0 l0 -51 l-44 0 l0 383 l436 0 l0 -383 ZM51 544 l128 0 l0 258 l44 0 l0 -258 l114 0 l0 -40 l-114 0 l0 -377 l127 43 l22 -33 l-314 -115 l-26 40 l147 50 l0 392 l-128 0 l0 40 ZM867 625 l-206 0 l0 -226 l206 0 l0 226 ZM413 625 l0 -226 l206 0 l0 226 l-206 0 ZM469 94 l0 -109 l348 0 l0 109 l-348 0 ZM817 241 l-348 0 l0 -109 l348 0 l0 109 ZM428 779 l36 22 q63 -45 118 -100 l-26 -33 q-60 59 -128 111 ZM789 577 l35 -22 q-37 -57 -84 -106 q-15 15 -37 18 q48 49 86 110 ZM455 557 l38 17 q43 -43 76 -93 l-29 -32 q-36 58 -85 108 Z" /><glyph glyph-name="" unicode="&#x58a8;" d="M138 434 l338 0 l0 68 l-315 0 l0 248 l676 0 l0 -248 l-315 0 l0 -68 l339 0 l0 -40 l-339 0 l0 -72 l417 0 l0 -40 l-879 0 l0 40 l416 0 l0 72 l-338 0 l0 40 ZM476 185 l46 0 l0 -90 l283 0 l0 -40 l-283 0 l0 -89 l402 0 l0 -40 l-849 0 l0 40 l401 0 l0 89 l-282 0 l0 40 l282 0 l0 90 ZM793 710 l-271 0 l0 -168 l271 0 l0 168 ZM205 710 l0 -168 l271 0 l0 168 l-271 0 ZM208 261 l35 -20 q-47 -68 -122 -125 l-36 24 q30 22 66 56 q35 34 57 65 ZM766 242 l38 19 q60 -47 113 -107 l-26 -32 q-24 28 -59 62 q-35 33 -66 58 ZM709 678 l31 -25 q-24 -18 -64 -43 q-41 -24 -73 -40 l-28 24 q34 18 72 42 q39 24 62 42 ZM267 651 l29 26 q28 -14 64 -34 q35 -21 60 -38 l-16 -34 q-30 20 -68 42 q-38 22 -69 38 ZM335 248 l41 10 q34 -44 64 -105 l-37 -17 q-26 52 -68 112 ZM558 245 l39 11 q18 -20 37 -47 q19 -27 35 -55 l-34 -21 q-29 53 -77 112 Z" /><glyph glyph-name="" unicode="&#x58c1;" d="M127 743 l329 0 l0 -215 l-288 0 q-13 -136 -92 -246 q-22 12 -49 13 q101 120 100 295 l0 153 ZM148 126 l329 0 l0 80 l46 0 l0 -80 l329 0 l0 -42 l-329 0 l0 -116 l420 0 l0 -42 l-887 0 l0 42 l421 0 l0 116 l-329 0 l0 42 ZM172 440 l282 0 l0 -208 l-282 0 l0 208 ZM499 356 l183 0 l0 106 l-207 0 l0 40 l236 0 q59 65 105 143 l39 -21 q-43 -65 -94 -122 l180 0 l0 -40 l-215 0 l0 -106 l185 0 l0 -40 l-185 0 l0 -114 l-44 0 l0 114 l-183 0 l0 40 ZM171 592 q0 -12 -1 -24 l242 0 l0 135 l-241 0 l0 -111 ZM410 400 l-194 0 l0 -128 l194 0 l0 128 ZM624 790 l38 21 q45 -37 89 -82 l-24 -25 l184 0 l0 -40 l-411 0 l0 40 l217 0 q-42 45 -93 86 ZM553 621 l37 19 q18 -18 39 -43 q21 -26 38 -50 l-30 -28 q-16 24 -40 52 q-23 28 -44 50 Z" /><glyph glyph-name="" unicode="&#x58f0;" d="M162 415 l687 0 l0 -303 l-44 0 l0 62 l-603 0 q-7 -89 -38 -154 q-31 -63 -92 -126 q-18 12 -48 20 q79 73 109 147 q30 75 29 199 l0 155 ZM150 549 l333 0 l0 108 l-414 0 l0 42 l414 0 l0 107 l46 0 l0 -107 l414 0 l0 -42 l-414 0 l0 -108 l334 0 l0 -40 l-713 0 l0 40 ZM206 258 q0 -23 -1 -44 l279 0 l0 161 l-278 0 l0 -117 ZM805 375 l-277 0 l0 -161 l277 0 l0 161 Z" /><glyph glyph-name="" unicode="&#x5904;" d="M244 800 l45 -17 q-17 -89 -47 -180 l235 0 l0 -38 q-16 -243 -132 -431 q106 -114 298 -138 q147 -22 320 -22 q-15 -24 -22 -51 q-143 5 -275 22 q-117 16 -202 52 q-86 36 -146 98 q-86 -115 -233 -200 q-15 19 -43 31 q157 86 244 206 q-78 103 -124 276 q-39 -76 -85 -139 q-20 12 -45 17 q83 117 135 244 q51 127 77 270 ZM228 561 q-17 -47 -38 -93 q45 -191 123 -297 q106 172 118 390 l-203 0 ZM621 803 l46 0 l0 -748 l-46 0 l0 748 ZM689 550 l42 21 q111 -119 206 -247 l-31 -38 q-46 65 -102 134 q-57 69 -115 130 Z" /><glyph glyph-name="" unicode="&#x5907;" d="M805 -103 l-44 0 l0 62 l-521 0 l0 -62 l-44 0 l0 418 l609 0 l0 -418 ZM367 821 l41 -27 q-22 -40 -49 -78 l426 0 l0 -37 q-89 -117 -229 -200 q160 -79 407 -117 q-26 -22 -32 -46 q-131 25 -234 58 q-103 34 -188 79 q-178 -92 -445 -146 q-10 22 -33 40 q256 49 431 133 q-97 58 -183 139 q-63 -66 -139 -120 q-19 17 -45 25 q96 66 161 137 q65 71 111 160 ZM327 674 q-9 -12 -20 -24 q93 -85 202 -146 q135 74 217 170 l-399 0 ZM521 118 l0 -119 l240 0 l0 119 l-240 0 ZM240 118 l0 -119 l239 0 l0 119 l-239 0 ZM761 275 l-240 0 l0 -119 l240 0 l0 119 ZM240 275 l0 -119 l239 0 l0 119 l-239 0 Z" /><glyph glyph-name="" unicode="&#x590d;" d="M232 584 l572 0 l0 -298 l-396 0 q-29 -41 -65 -77 l465 0 l0 -38 q-93 -96 -226 -158 q167 -57 376 -65 q-26 -19 -38 -49 q-230 23 -396 92 q-179 -69 -440 -95 q-15 26 -38 42 q237 17 420 76 q-109 54 -196 131 q-63 -49 -139 -86 q-13 18 -44 29 q166 71 267 198 l-122 0 l0 298 ZM276 326 l484 0 l0 90 l-484 0 l0 -90 ZM760 544 l-484 0 l0 -90 l484 0 l0 90 ZM307 813 l40 -28 q-19 -45 -45 -87 l594 0 l0 -40 l-619 0 q-74 -106 -169 -180 q-18 18 -46 24 q80 57 145 136 q64 80 100 175 ZM746 169 l-436 0 q91 -80 214 -133 q131 53 222 133 Z" /><glyph glyph-name="" unicode="&#x5916;" d="M157 346 l36 31 q37 -23 81 -54 q44 -31 78 -58 q74 130 97 299 l-217 0 q-36 -69 -76 -128 q-41 -59 -81 -98 q-22 12 -49 17 q84 83 152 205 q68 122 92 236 l46 -17 q-22 -84 -63 -173 l243 0 l0 -38 q-26 -211 -128 -368 q-102 -158 -296 -279 q-19 20 -48 32 q205 125 304 274 q-39 31 -87 64 q-48 34 -84 55 ZM628 798 l46 0 l0 -305 l23 14 q33 -29 83 -76 q49 -46 99 -95 q49 -48 81 -82 l-27 -39 q-51 54 -126 127 q-75 73 -133 126 l0 -577 l-46 0 l0 907 Z" /><glyph glyph-name="" unicode="&#x591a;" d="M442 160 l37 25 q30 -20 71 -54 q42 -34 74 -63 q138 81 222 208 l-328 0 q-124 -90 -289 -139 q-13 20 -37 35 q134 36 243 103 q109 67 181 150 l42 -21 q-38 -46 -86 -86 l329 0 l0 -39 q-111 -185 -298 -274 q-188 -88 -431 -111 q-8 20 -35 41 q278 27 448 112 q-34 31 -74 62 q-39 30 -69 51 ZM367 555 l36 26 q29 -19 68 -47 q38 -28 70 -53 q156 82 240 184 l-371 0 q-96 -101 -217 -165 q-18 17 -41 29 q102 50 184 126 q82 76 128 157 l44 -17 q-29 -46 -62 -88 l395 0 l0 -37 q-97 -136 -285 -233 q-187 -96 -411 -131 q-11 22 -34 40 q217 33 387 113 q-65 54 -131 96 Z" /><glyph glyph-name="" unicode="&#x591c;" d="M569 602 l41 -28 q-18 -43 -38 -83 l279 0 l0 -37 q-55 -207 -194 -354 q124 -101 309 -151 q-33 -19 -43 -41 q-171 55 -298 160 q-108 -100 -253 -167 q-17 16 -47 28 q145 59 267 169 q-91 86 -154 196 q-37 -41 -78 -77 q-20 13 -43 18 q74 59 147 162 q72 102 105 205 ZM552 353 l29 28 q42 -22 86 -50 q45 -28 70 -48 q45 78 68 168 l-255 0 q-37 -66 -84 -123 q64 -113 157 -199 q53 55 93 119 q-35 27 -81 56 q-46 29 -83 49 ZM83 670 l450 0 q-26 29 -60 62 q-33 32 -63 56 l39 22 q28 -21 64 -54 q36 -34 62 -64 l-20 -22 l369 0 l0 -42 l-841 0 l0 42 ZM338 608 l37 -30 q-47 -95 -109 -177 l0 -504 l-44 0 l0 449 q-76 -89 -135 -131 q-20 18 -44 26 q78 55 162 155 q84 100 133 212 Z" /><glyph glyph-name="" unicode="&#x5927;" d="M94 511 l375 0 q3 64 4 141 q1 78 0 150 l49 -5 q0 -65 -2 -140 q-2 -75 -6 -146 l388 0 l0 -44 l-384 0 q46 -182 166 -318 q119 -136 282 -197 q-33 -18 -52 -41 q-144 68 -257 195 q-112 128 -158 289 q-34 -159 -144 -287 q-111 -128 -274 -203 q-17 19 -47 34 q181 74 298 216 q117 142 134 312 l-372 0 l0 44 Z" /><glyph glyph-name="" unicode="&#x5934;" d="M592 798 l50 -7 q-4 -88 -10 -185 q-6 -97 -14 -176 q-6 -68 -21 -125 l352 0 l0 -44 l-365 0 q-51 -147 -163 -232 q-111 -84 -277 -124 q-15 24 -42 38 q172 41 278 118 q106 78 153 200 l-480 0 l0 44 l495 0 q17 58 23 127 q17 179 21 366 ZM600 125 l36 33 q64 -42 142 -99 q78 -57 138 -106 l-26 -45 q-70 60 -148 118 q-78 59 -142 99 ZM175 524 l32 35 q53 -27 116 -63 q62 -36 105 -65 l-20 -42 q-52 35 -115 72 q-64 37 -118 63 ZM244 715 l32 32 q42 -24 99 -61 q57 -37 95 -69 l-21 -39 q-44 33 -103 72 q-59 39 -102 65 Z" /><glyph glyph-name="" unicode="&#x597d;" d="M211 803 l46 -10 q-11 -90 -31 -202 l186 0 l0 -38 q-8 -122 -33 -219 q-25 -97 -71 -177 q85 -69 142 -121 l-28 -44 q-65 63 -138 126 q-69 -102 -190 -196 q-19 13 -50 21 q134 104 204 206 q-65 55 -143 112 q16 51 34 127 q17 75 33 161 l-120 0 l0 42 l128 0 q20 112 31 212 ZM489 725 l440 0 l0 -37 q-42 -54 -95 -109 q-52 -56 -101 -98 l0 -106 l230 0 l0 -42 l-230 0 l0 -322 q1 -55 -25 -80 q-25 -24 -84 -24 q-34 0 -69 6 q-1 21 -14 48 q40 -9 83 -9 q65 -3 63 67 l0 314 l-256 0 l0 42 l256 0 l0 127 q51 41 102 93 q51 51 78 88 l-378 0 l0 42 ZM365 549 l-147 0 q-15 -82 -31 -153 q-17 -72 -31 -118 q55 -42 116 -91 q42 73 63 160 q22 88 30 202 Z" /><glyph glyph-name="" unicode="&#x5982;" d="M570 670 l340 0 l0 -738 l-46 0 l0 68 l-248 0 l0 -68 l-46 0 l0 738 ZM56 623 l159 0 q21 106 31 192 l46 -13 q-10 -79 -30 -179 l207 0 l0 -40 q-7 -265 -120 -453 q48 -39 93 -78 q45 -39 80 -70 l-24 -44 q-75 70 -175 152 q-80 -112 -214 -194 q-17 18 -48 27 q145 87 225 198 q-96 79 -165 130 q23 69 46 155 q22 85 40 175 l-151 0 l0 42 ZM616 628 l0 -586 l248 0 l0 586 l-248 0 ZM174 267 q56 -41 138 -107 q51 84 78 187 q27 104 35 234 l-171 0 q-18 -89 -40 -172 q-21 -83 -40 -142 Z" /><glyph glyph-name="" unicode="&#x59cb;" d="M472 299 l408 0 l0 -401 l-46 0 l0 70 l-316 0 l0 -70 l-46 0 l0 401 ZM205 803 l46 -12 q-8 -79 -25 -191 l154 0 l0 -37 q-6 -252 -87 -421 q39 -36 74 -70 q35 -34 60 -59 l-29 -42 q-56 61 -128 129 q-62 -105 -169 -193 q-23 17 -53 22 q121 93 186 204 q-77 71 -131 114 q19 54 37 137 q19 82 34 176 l-118 0 l0 40 l124 0 q17 111 25 203 ZM518 257 l0 -248 l316 0 l0 248 l-316 0 ZM721 631 l39 21 q43 -48 100 -119 q56 -71 100 -133 l-33 -34 q-20 28 -44 61 l-381 -20 q-51 -3 -80 -14 l-21 41 q15 6 26 14 q11 8 23 24 q47 61 104 151 q57 90 98 174 l42 -23 q-45 -86 -105 -180 q-59 -93 -99 -145 l364 17 q-36 47 -71 90 q-35 44 -62 75 ZM336 560 l-117 0 q-15 -88 -31 -167 q-17 -80 -32 -129 q39 -33 101 -89 q73 154 79 385 Z" /><glyph glyph-name="" unicode="&#x5b50;" d="M164 734 l653 0 l0 -39 q-32 -31 -81 -71 q-48 -40 -98 -78 q-50 -38 -85 -61 l0 -115 l407 0 l0 -44 l-407 0 l0 -309 q0 -111 -110 -111 q-23 0 -51 2 q-28 3 -51 6 q-5 30 -18 51 q26 -4 59 -8 q33 -4 55 -4 q70 -3 68 71 l0 302 l-465 0 l0 44 l465 0 l0 139 q32 20 78 54 q46 34 90 68 q44 35 71 59 l-580 0 l0 44 Z" /><glyph glyph-name="" unicode="&#x5b57;" d="M50 239 l451 0 l0 96 q48 24 100 56 q51 32 84 57 l-445 0 l0 42 l522 0 l0 -35 q-47 -41 -107 -80 q-59 -39 -108 -65 l0 -71 l400 0 l0 -42 l-400 0 l0 -186 q2 -104 -110 -103 q-22 0 -46 2 q-24 2 -40 5 q0 24 -14 48 q22 -4 49 -7 q26 -3 51 -3 q65 0 64 60 l0 184 l-451 0 l0 42 ZM95 664 l420 0 q-29 31 -62 64 q-34 33 -62 57 l39 24 q28 -22 65 -58 q37 -36 64 -68 l-19 -19 l362 0 l0 -216 l-46 0 l0 174 l-715 0 l0 -174 l-46 0 l0 216 Z" /><glyph glyph-name="" unicode="&#x5b58;" d="M93 658 l301 0 q38 79 61 158 l45 -20 q-20 -67 -53 -138 l486 0 l0 -44 l-507 0 q-61 -118 -148 -222 l0 -496 l-46 0 l0 444 q-76 -79 -159 -133 q-16 18 -47 33 q111 64 198 162 q88 97 148 212 l-279 0 l0 44 ZM430 468 l435 0 l0 -37 q-75 -75 -169 -142 l0 -55 l248 0 l0 -44 l-248 0 l0 -190 q4 -94 -104 -93 q-35 1 -71 6 q1 21 -12 47 q49 -8 81 -9 q63 -1 60 52 l0 187 l-275 0 l0 44 l275 0 l0 78 q40 24 80 57 q40 32 63 57 l-363 0 l0 42 Z" /><glyph glyph-name="" unicode="&#x5b66;" d="M47 185 l464 0 l0 90 q46 24 99 58 q53 33 83 56 l-448 0 l0 40 l523 0 l0 -34 q-38 -33 -99 -75 q-62 -42 -112 -69 l0 -66 l396 0 l0 -42 l-396 0 l0 -147 q1 -95 -97 -94 q-22 0 -49 2 q-27 3 -47 5 q-3 24 -16 49 q24 -4 55 -8 q30 -4 54 -4 q53 0 54 54 l0 143 l-464 0 l0 42 ZM85 589 l539 0 q46 41 98 101 q52 60 79 103 l42 -22 q-25 -39 -71 -91 q-46 -51 -89 -91 l229 0 l0 -213 l-46 0 l0 171 l-735 0 l0 -171 l-46 0 l0 213 ZM154 766 l42 23 q29 -29 68 -73 q40 -44 68 -80 l-31 -32 q-32 39 -72 84 q-39 44 -75 78 ZM403 791 l39 18 q25 -27 57 -69 q31 -41 55 -79 l-36 -28 q-20 33 -53 78 q-34 46 -62 80 Z" /><glyph glyph-name="" unicode="&#x5b83;" d="M777 417 l39 -34 q-62 -33 -153 -70 q-90 -37 -182 -69 q-92 -32 -157 -49 l0 -151 q-1 -72 75 -73 l318 -1 q75 1 95 60 q5 18 11 44 q5 26 10 52 q19 -22 40 -31 q-9 -46 -22 -87 q-28 -84 -130 -81 l-321 -1 q-125 1 -122 118 l0 464 l46 0 l0 -269 q74 20 161 51 q88 31 166 65 q79 34 126 62 ZM94 641 l815 0 l0 -196 l-46 0 l0 154 l-723 0 l0 -154 l-46 0 l0 196 ZM401 789 l43 22 q28 -23 66 -60 q38 -37 67 -68 l-30 -37 q-32 35 -73 76 q-41 40 -73 67 Z" /><glyph glyph-name="" unicode="&#x5b88;" d="M66 402 l595 0 l0 158 l46 0 l0 -158 l226 0 l0 -42 l-226 0 l0 -345 q1 -113 -116 -113 q-41 0 -87 7 q-1 28 -16 50 q26 -5 54 -8 q28 -3 49 -3 q71 -3 70 72 l0 340 l-595 0 l0 42 ZM96 673 l437 0 q-67 64 -141 118 l38 26 q75 -50 141 -116 l-18 -28 l350 0 l0 -196 l-46 0 l0 154 l-715 0 l0 -154 l-46 0 l0 196 ZM250 259 l42 24 q88 -76 160 -163 l-30 -40 q-78 96 -172 179 Z" /><glyph glyph-name="" unicode="&#x5b89;" d="M441 561 l40 -25 q-36 -87 -74 -161 l539 0 l0 -42 l-201 0 q-46 -163 -165 -264 q171 -66 314 -128 l-17 -49 q-172 81 -339 146 q-143 -95 -422 -141 q-12 22 -39 42 q266 35 410 120 q-134 54 -265 100 q62 84 111 174 l-283 0 l0 42 l306 0 q47 90 85 186 ZM531 88 q120 90 166 245 l-312 0 q-47 -87 -95 -157 q109 -36 241 -88 ZM125 653 l402 0 q-76 78 -147 128 l38 28 q36 -26 76 -61 q41 -35 67 -63 l-27 -32 l340 0 l0 -182 l-46 0 l0 140 l-657 0 l0 -140 l-46 0 l0 182 Z" /><glyph glyph-name="" unicode="&#x5b98;" d="M236 512 l522 0 l0 -214 l-476 0 l0 -99 l532 0 l0 -301 l-46 0 l0 69 l-486 0 l0 -70 l-46 0 l0 615 ZM768 157 l-486 0 l0 -149 l486 0 l0 149 ZM282 470 l0 -130 l430 0 l0 130 l-430 0 ZM102 667 l452 0 q-34 30 -75 61 q-40 31 -79 57 l33 30 q35 -24 75 -55 q40 -30 72 -59 l-23 -34 l342 0 l0 -166 l-44 0 l0 126 l-709 0 l0 -126 l-44 0 l0 166 Z" /><glyph glyph-name="" unicode="&#x5b9a;" d="M224 460 l565 0 l0 -42 l-252 0 l0 -182 l310 0 l0 -42 l-310 0 l0 -206 q25 -3 52 -6 q86 -8 185 -9 q100 0 186 5 q-17 -23 -25 -54 q-172 1 -306 10 q-140 8 -229 53 q-89 45 -139 133 q-68 -135 -179 -218 q-17 17 -46 23 q79 52 146 149 q66 98 91 224 l44 -19 q-15 -61 -36 -113 q73 -131 210 -166 l0 418 l-267 0 l0 42 ZM110 661 l781 0 l0 -214 l-46 0 l0 172 l-689 0 l0 -172 l-46 0 l0 214 ZM412 787 l37 25 q33 -24 68 -54 q36 -31 62 -58 l-30 -35 q-27 28 -67 64 q-40 36 -70 58 Z" /><glyph glyph-name="" unicode="&#x5b9e;" d="M593 580 l46 -6 q-2 -48 -7 -110 q-5 -61 -12 -112 q-12 -87 -42 -157 l362 0 l0 -42 l-382 0 q-104 -187 -396 -257 q-13 22 -39 39 q279 58 380 218 l-437 0 l0 42 l461 0 q35 71 47 162 q15 114 19 223 ZM112 659 l440 0 q-35 30 -79 65 q-44 34 -77 58 l38 28 q30 -21 73 -53 q42 -33 73 -61 l-24 -37 l333 0 l0 -193 l-46 0 l0 151 l-685 0 l0 -147 l-46 0 l0 189 ZM580 78 l34 31 q71 -36 154 -85 q84 -48 134 -83 l-20 -46 q-35 26 -91 61 q-55 34 -112 67 q-57 34 -99 55 ZM225 375 l32 30 q43 -22 98 -54 q55 -31 95 -58 l-19 -39 q-45 31 -101 64 q-56 32 -105 57 ZM298 521 l31 30 q37 -21 86 -53 q50 -32 83 -57 l-18 -39 q-38 29 -92 64 q-54 35 -90 55 Z" /><glyph glyph-name="" unicode="&#x5ba2;" d="M228 203 l541 0 l0 -305 l-46 0 l0 53 l-449 0 l0 -53 l-46 0 l0 305 ZM379 630 l36 -27 q-13 -21 -29 -42 l374 0 l0 -35 q-90 -100 -214 -171 q179 -86 420 -113 q-24 -20 -32 -48 q-247 42 -434 136 q-195 -98 -430 -155 q-12 24 -37 40 q244 51 421 140 q-90 50 -157 109 q-64 -58 -136 -99 q-16 16 -41 25 q82 44 151 109 q69 64 108 131 ZM274 161 l0 -168 l449 0 l0 168 l-449 0 ZM390 787 l37 29 q66 -44 128 -96 l-13 -17 l345 0 l0 -188 l-46 0 l0 146 l-685 0 l0 -145 l-46 0 l0 187 l394 0 q-58 48 -114 84 ZM695 521 l-341 0 q-13 -14 -27 -29 q76 -62 172 -114 q121 66 196 143 Z" /><glyph glyph-name="" unicode="&#x5ba4;" d="M579 411 l36 26 q113 -79 217 -167 l-22 -40 q-38 32 -77 64 l-208 -10 l0 -129 l307 0 l0 -42 l-307 0 l0 -139 l411 0 l0 -42 l-872 0 l0 42 l415 0 l0 139 l-305 0 l0 42 l305 0 l0 127 l-211 -10 q-42 -1 -73 -12 l-24 47 q47 11 81 35 q36 24 82 61 q47 37 90 77 l-237 0 l0 42 l621 0 l0 -42 l-321 0 q-45 -44 -101 -89 q-55 -45 -105 -78 l404 19 q-52 40 -106 79 ZM370 783 l36 28 q79 -49 151 -110 l-19 -29 l363 0 l0 -182 l-46 0 l0 140 l-711 0 l0 -140 l-46 0 l0 182 l421 0 q-71 62 -149 111 Z" /><glyph glyph-name="" unicode="&#x5bb3;" d="M199 173 l601 0 l0 -277 l-46 0 l0 55 l-509 0 l0 -55 l-46 0 l0 277 ZM221 436 l257 0 l0 87 l-273 0 l0 40 l273 0 l0 57 l44 0 l0 -57 l273 0 l0 -40 l-273 0 l0 -87 l256 0 l0 -40 l-256 0 l0 -87 l408 0 l0 -40 l-408 0 l0 -64 l-44 0 l0 64 l-409 0 l0 40 l409 0 l0 87 l-257 0 l0 40 ZM245 132 l0 -141 l509 0 l0 141 l-509 0 ZM97 693 l421 0 q-65 56 -128 96 l37 29 q66 -44 128 -96 l-21 -29 l368 0 l0 -168 l-44 0 l0 128 l-717 0 l0 -128 l-44 0 l0 168 Z" /><glyph glyph-name="" unicode="&#x5bb6;" d="M811 443 l39 -26 q-30 -29 -74 -62 q-44 -32 -93 -63 q49 -105 124 -174 q75 -70 161 -97 q-32 -17 -47 -37 q-71 32 -144 103 q-73 70 -129 184 q-36 -21 -70 -37 q19 -65 19 -140 q1 -99 -37 -144 q-37 -46 -124 -45 q-24 0 -52 3 q-3 28 -19 51 q38 -8 69 -9 q64 -1 91 33 q27 33 26 110 q0 54 -12 104 q-44 -55 -112 -106 q-69 -51 -146 -90 q-76 -38 -144 -58 q-9 18 -38 35 q81 19 165 61 q84 44 154 98 q70 53 108 104 q-13 36 -34 69 q-70 -68 -179 -126 q-110 -57 -216 -87 q-9 17 -38 37 q107 22 223 80 q115 59 187 127 q-24 29 -54 54 q-69 -45 -147 -77 q-79 -33 -150 -51 q-7 18 -37 38 q103 17 211 68 q108 51 180 119 l-248 0 l0 42 l553 0 l0 -42 l-247 0 q-32 -39 -80 -73 q81 -63 115 -149 q65 35 134 82 q68 46 112 91 ZM103 687 l434 0 q-29 27 -67 57 q-38 31 -67 51 l40 27 q32 -21 67 -50 q35 -29 61 -55 l-25 -30 l350 0 l0 -186 l-46 0 l0 144 l-701 0 l0 -165 l-46 0 l0 207 Z" /><glyph glyph-name="" unicode="&#x5bb9;" d="M239 223 l521 0 l0 -326 l-46 0 l0 64 l-429 0 l0 -64 l-46 0 l0 326 ZM285 181 l0 -179 l429 0 l0 179 l-429 0 ZM109 687 l422 0 q-36 28 -75 56 q-39 27 -70 46 l35 30 q79 -49 144 -103 l-18 -29 l343 0 l0 -166 l-46 0 l0 124 l-689 0 l0 -135 l-46 0 l0 177 ZM506 490 l37 -27 q-7 -11 -16 -20 q94 -91 205 -145 q112 -55 244 -84 q-30 -17 -44 -43 q-264 76 -430 244 q-78 -83 -189 -147 q-110 -64 -238 -108 q-14 20 -44 35 q145 42 275 118 q130 76 200 177 ZM375 583 l39 -30 q-58 -51 -132 -97 q-73 -47 -144 -77 q-17 21 -41 34 q81 30 154 74 q72 44 124 96 ZM595 545 l30 32 q28 -12 82 -39 q53 -27 109 -56 q55 -30 88 -50 l-14 -44 q-31 19 -88 50 q-56 31 -114 60 q-58 30 -93 47 Z" /><glyph glyph-name="" unicode="&#x5bbd;" d="M95 691 l431 0 q-28 24 -62 50 q-34 26 -61 45 l38 26 q62 -42 125 -96 l-19 -25 l357 0 l0 -150 l-44 0 l0 110 l-721 0 l0 -116 l-44 0 l0 156 ZM221 379 l565 0 l0 -304 l-46 0 l0 264 l-473 0 l0 -266 l-46 0 l0 306 ZM607 619 l44 0 l0 -83 l175 0 l0 -40 l-175 0 l0 -83 l-44 0 l0 83 l-215 0 l0 -83 l-44 0 l0 83 l-175 0 l0 40 l175 0 l0 83 l44 0 l0 -83 l215 0 l0 83 ZM475 296 l46 -5 q-7 -67 -23 -121 q-38 -126 -136 -189 q-98 -64 -267 -85 q-12 25 -34 42 q164 16 261 74 q96 58 132 170 q17 51 21 114 ZM530 184 l44 0 l0 -178 q-3 -43 51 -42 l182 -1 q35 0 53 13 q17 12 26 47 q9 38 12 62 q15 -21 39 -32 q-5 -26 -10 -43 q-14 -50 -41 -69 q-28 -20 -76 -19 l-184 -1 q-100 0 -96 84 l0 179 Z" /><glyph glyph-name="" unicode="&#x5bc6;" d="M323 531 l44 0 l0 -211 l0 -15 q104 50 186 114 q82 63 132 134 l43 -19 q-56 -79 -143 -145 q-88 -67 -195 -118 q11 -4 27 -4 l209 0 q67 -2 86 64 q7 20 13 48 q14 -26 36 -37 q-7 -23 -15 -44 q-16 -40 -43 -56 q-27 -16 -70 -15 l-216 0 q-51 0 -73 23 q-136 -59 -285 -90 q-13 20 -36 36 q157 25 303 89 q-3 15 -3 33 l0 213 ZM790 170 l44 0 l0 -274 l-44 0 l0 41 l-601 0 l0 220 l44 0 l0 -180 l256 0 l0 207 l44 0 l0 -207 l257 0 l0 193 ZM399 784 l35 29 q69 -46 134 -99 l-21 -29 l349 0 l0 -176 l-44 0 l0 136 l-704 0 l0 -148 l-44 0 l0 188 l429 0 q-69 59 -134 99 ZM227 498 l31 -34 q-32 -47 -78 -92 q-46 -45 -89 -76 l-25 35 q43 31 88 76 q45 46 73 91 ZM744 463 l39 24 q86 -73 163 -154 l-25 -37 q-34 38 -85 87 q-51 48 -92 80 ZM399 584 l32 26 q64 -41 123 -95 l-22 -39 q-31 29 -66 57 q-35 28 -67 51 Z" /><glyph glyph-name="" unicode="&#x5bf9;" d="M79 484 l41 20 q85 -94 168 -199 q75 170 89 346 l-299 0 l0 42 l345 0 l0 -38 q-21 -218 -103 -391 q79 -102 149 -202 l-29 -38 q-64 92 -143 195 q-84 -156 -220 -264 q-22 16 -48 21 q149 109 237 283 q-99 127 -187 225 ZM770 800 l46 0 l0 -220 l144 0 l0 -42 l-144 0 l0 -523 q2 -108 -113 -110 q-38 0 -83 5 q0 27 -15 49 q28 -5 54 -7 q26 -2 41 -2 q72 -2 70 69 l0 519 l-320 0 l0 42 l320 0 l0 220 ZM490 398 l42 18 q26 -33 65 -90 q39 -58 64 -99 l-33 -30 q-25 42 -63 99 q-39 56 -75 102 Z" /><glyph glyph-name="" unicode="&#x5bfc;" d="M48 242 l625 0 l0 109 l-388 0 q-109 -1 -107 102 l0 297 l621 0 l0 -221 l-574 0 l0 -74 q-1 -61 64 -60 l493 0 q69 -3 86 62 q10 32 18 73 q17 -24 38 -35 q-7 -31 -15 -57 q-15 -48 -43 -68 q-29 -20 -77 -19 l-68 0 l0 -109 l232 0 l0 -44 l-232 0 l0 -198 q3 -102 -94 -98 q-41 1 -86 6 q-4 27 -18 49 q24 -4 51 -7 q27 -4 45 -4 q56 -3 54 56 l0 196 l-625 0 l0 44 ZM225 708 l0 -137 l528 0 l0 137 l-528 0 ZM248 126 l34 29 q42 -27 87 -60 q44 -34 75 -63 l-25 -38 q-36 32 -82 68 q-47 36 -89 64 Z" /><glyph glyph-name="" unicode="&#x5c01;" d="M788 800 l46 0 l0 -220 l124 0 l0 -42 l-124 0 l0 -520 q-2 -115 -116 -113 q-39 0 -85 8 q-2 25 -13 48 q16 -3 47 -7 q31 -3 48 -3 q74 -5 73 72 l0 515 l-256 0 l0 42 l256 0 l0 220 ZM281 377 l46 0 l0 -131 l180 0 l0 -40 l-180 0 l0 -171 l206 33 l21 -38 l-492 -85 l-24 44 l243 38 l0 179 l-182 0 l0 40 l182 0 l0 131 ZM101 662 l180 0 l0 138 l46 0 l0 -138 l178 0 l0 -40 l-178 0 l0 -165 l215 0 l0 -40 l-489 0 l0 40 l228 0 l0 165 l-180 0 l0 40 ZM557 398 l43 12 q59 -86 105 -177 l-36 -29 q-23 46 -51 96 q-29 51 -61 98 Z" /><glyph glyph-name="" unicode="&#x5c06;" d="M522 552 l30 28 q25 -15 58 -37 q33 -23 58 -43 q93 70 152 154 l-278 0 q-65 -71 -146 -125 q-14 14 -39 24 q76 49 142 118 q66 69 99 135 l36 -27 q-25 -45 -58 -85 l300 0 l0 -34 q-73 -113 -187 -196 q-113 -84 -254 -130 q-14 18 -44 32 q133 37 242 109 q-56 45 -111 77 ZM33 131 l213 225 l16 -12 l0 458 l46 0 l0 -906 l-46 0 l0 415 l-182 -206 l-47 26 ZM769 427 l46 0 l0 -118 l145 0 l0 -42 l-145 0 l0 -272 q0 -87 -93 -88 q-42 1 -86 8 q-4 24 -18 47 q55 -10 101 -11 q51 -3 50 56 l0 260 l-416 0 l0 42 l416 0 l0 118 ZM57 596 l40 22 q31 -36 64 -79 q32 -44 57 -83 l-33 -30 q-25 39 -59 85 q-34 46 -69 85 ZM443 181 l34 27 q29 -23 71 -61 q42 -39 71 -70 l-31 -34 q-24 27 -68 69 q-44 42 -77 69 Z" /><glyph glyph-name="" unicode="&#x5c0f;" d="M223 576 l48 -25 q-25 -117 -73 -250 q-48 -132 -107 -226 q-24 10 -55 11 q42 66 81 153 q38 87 66 175 q28 89 40 162 ZM486 796 l48 0 l0 -783 q-1 -109 -115 -108 q-43 0 -88 7 q-2 22 -17 49 q24 -4 51 -7 q26 -3 47 -3 q78 -2 74 66 l0 779 ZM711 555 l49 12 q27 -53 66 -139 q38 -86 76 -176 q37 -90 61 -155 l-44 -29 q-24 68 -61 159 q-36 91 -76 179 q-39 89 -71 149 Z" /><glyph glyph-name="" unicode="&#x5c11;" d="M776 377 l38 -37 q-97 -183 -270 -295 q-174 -111 -439 -147 q-12 26 -38 48 q262 22 446 137 q184 116 263 294 ZM473 795 l48 0 l0 -610 l-48 0 l0 610 ZM670 624 l44 20 q31 -33 77 -87 q46 -55 89 -109 q43 -54 64 -85 l-32 -31 q-29 40 -73 95 q-43 54 -89 108 q-46 53 -80 89 ZM284 646 l45 -15 q-34 -96 -96 -194 q-61 -97 -123 -155 q-19 15 -45 18 q44 41 88 102 q44 61 80 125 q35 65 51 119 Z" /><glyph glyph-name="" unicode="&#x5c31;" d="M121 488 l344 0 l0 -228 l-141 0 l0 -260 q3 -91 -82 -87 q-23 0 -56 4 q-4 24 -17 46 q44 -7 72 -8 q40 -3 39 49 l0 256 l-159 0 l0 228 ZM510 514 l120 0 l0 290 l44 0 l0 -290 l267 0 l0 -40 l-267 0 q0 -64 -4 -119 q-1 -16 -3 -31 q-13 -148 -59 -250 q-47 -101 -133 -177 q-25 19 -54 23 q80 62 126 134 q45 73 64 174 q19 100 19 246 l-120 0 l0 40 ZM421 448 l-256 0 l0 -148 l256 0 l0 148 ZM711 414 l44 0 l0 -405 q0 -46 49 -46 l51 -1 q46 -2 58 59 q7 32 10 70 q19 -24 39 -33 q-3 -23 -8 -47 q-18 -93 -97 -90 l-57 -1 q-89 2 -89 87 l0 407 ZM43 621 l499 0 l0 -40 l-499 0 l0 40 ZM157 195 l40 -20 q-22 -60 -56 -116 q-35 -57 -67 -89 q-13 7 -23 9 q-10 3 -25 4 q39 35 77 97 q39 63 54 115 ZM736 715 l36 21 q34 -29 65 -64 q31 -35 53 -65 l-28 -33 q-54 72 -126 141 ZM226 778 l41 21 q25 -25 52 -58 q27 -32 51 -65 l-32 -31 q-24 34 -55 71 q-31 36 -57 62 ZM385 179 l38 16 q55 -68 82 -129 l-35 -28 q-32 67 -85 141 Z" /><glyph glyph-name="" unicode="&#x5c40;" d="M180 750 l664 0 l0 -218 l-618 0 l0 -122 l664 0 l-9 -393 q-5 -110 -119 -112 q-17 0 -38 1 q-22 1 -38 3 q-2 23 -17 47 q24 -3 49 -5 q25 -2 42 -2 q74 1 75 71 l8 348 l-617 0 q-2 -129 -30 -237 q-29 -108 -97 -208 q-20 13 -50 16 q71 92 102 201 q30 110 29 268 l0 342 ZM328 264 l357 0 l0 -224 l-357 0 l0 224 ZM226 708 l0 -134 l574 0 l0 134 l-574 0 ZM641 224 l-269 0 l0 -144 l269 0 l0 144 Z" /><glyph glyph-name="" unicode="&#x5c42;" d="M164 750 l704 0 l0 -226 l-658 0 l0 -139 q1 -124 -28 -248 q-30 -125 -107 -231 q-20 13 -50 16 q74 92 107 207 q33 114 32 261 l0 360 ZM210 708 l0 -142 l614 0 l0 142 l-614 0 ZM662 129 l38 22 q44 -39 107 -103 q63 -63 107 -116 l-29 -36 q-25 31 -54 62 l-477 -24 q-34 -1 -70 -9 l-19 41 q41 13 79 47 q31 30 75 81 q45 51 85 103 l-268 0 l0 42 l710 0 l0 -42 l-385 0 q-41 -55 -92 -113 q-51 -59 -100 -105 l425 18 q-70 71 -132 132 ZM320 409 l528 0 l0 -42 l-528 0 l0 42 Z" /><glyph glyph-name="" unicode="&#x5c45;" d="M290 220 l255 0 l0 129 l-318 0 q-2 -134 -34 -236 q-32 -102 -105 -198 q-21 14 -52 14 q79 92 113 200 q34 108 33 261 l0 360 l676 0 l0 -226 l-267 0 l0 -133 l339 0 l0 -42 l-339 0 l0 -129 l261 0 l0 -325 l-46 0 l0 67 l-470 0 l0 -67 l-46 0 l0 325 ZM228 708 l0 -142 l586 0 l0 142 l-586 0 ZM336 178 l0 -175 l470 0 l0 175 l-470 0 ZM228 524 l0 -133 l317 0 l0 133 l-317 0 Z" /><glyph glyph-name="" unicode="&#x5c4f;" d="M159 751 l715 0 l0 -194 l-669 0 l0 -174 q-1 -310 -129 -473 q-23 15 -50 16 q67 76 100 187 q33 110 33 270 l0 368 ZM222 189 l210 0 q1 15 1 33 l0 123 l-169 0 l0 40 l345 0 q82 74 145 150 l40 -24 q-59 -67 -126 -126 l232 0 l0 -40 l-164 0 l0 -156 l210 0 l0 -40 l-210 0 l0 -255 l-44 0 l0 255 l-220 0 q-13 -88 -58 -146 q-46 -58 -124 -107 q-15 16 -47 27 q86 48 130 101 q43 54 54 125 l-205 0 l0 40 ZM205 711 l0 -114 l625 0 l0 114 l-625 0 ZM477 225 q0 -19 -1 -36 l216 0 l0 156 l-215 0 l0 -120 ZM358 510 l37 23 q66 -47 125 -107 l-25 -36 q-38 39 -71 67 q-33 29 -66 53 Z" /><glyph glyph-name="" unicode="&#x5c55;" d="M824 197 l38 -26 q-29 -28 -65 -56 q-37 -29 -70 -48 q116 -81 249 -110 q-25 -17 -42 -42 q-136 44 -246 127 q-111 84 -172 190 l-141 0 l0 -257 l175 85 l27 -30 l-202 -105 q-20 -11 -44 -33 l-23 38 q14 15 19 29 q4 15 4 41 l0 232 l-142 0 q-26 -207 -120 -329 q-23 15 -50 16 q67 78 100 190 q33 113 33 274 l0 367 l698 0 l0 -194 l-652 0 l0 -173 q0 -58 -5 -111 l201 0 l0 123 l-138 0 l0 40 l138 0 l0 87 l44 0 l0 -87 l225 0 l0 87 l44 0 l0 -87 l155 0 l0 -40 l-155 0 l0 -123 l213 0 l0 -40 l-359 0 q51 -75 133 -141 q82 52 130 106 ZM198 710 l0 -114 l608 0 l0 114 l-608 0 ZM438 395 l0 -123 l225 0 l0 123 l-225 0 Z" /><glyph glyph-name="" unicode="&#x5cf0;" d="M80 629 l42 0 l0 -543 l80 9 l0 703 l44 0 l0 -697 l81 9 l0 519 l42 0 l0 -618 l-42 0 l0 58 l-247 -29 l0 589 ZM589 807 l38 -26 q-12 -30 -29 -61 l269 0 l0 -35 q-59 -97 -156 -168 q112 -66 265 -87 q-22 -16 -34 -42 q-161 35 -271 103 q-110 -69 -254 -112 q-15 22 -40 34 q150 42 254 104 q-59 43 -107 94 q-33 -40 -67 -68 q-15 15 -42 23 q62 50 106 113 q44 63 68 128 ZM480 224 l172 0 l0 90 l-200 0 l0 40 l200 0 l0 73 l44 0 l0 -73 l201 0 l0 -40 l-201 0 l0 -90 l173 0 l0 -40 l-173 0 l0 -98 l242 0 l0 -40 l-242 0 l0 -150 l-44 0 l0 150 l-239 0 l0 40 l239 0 l0 98 l-172 0 l0 40 ZM575 680 q-12 -19 -25 -37 q53 -56 120 -101 q91 62 143 138 l-238 0 Z" /><glyph glyph-name="" unicode="&#x5de5;" d="M134 708 l732 0 l0 -44 l-342 0 l0 -663 l415 0 l0 -43 l-878 0 l0 43 l415 0 l0 663 l-342 0 l0 44 Z" /><glyph glyph-name="" unicode="&#x5de6;" d="M191 -17 l366 0 l0 325 l-231 0 q-94 -158 -251 -281 q-19 16 -49 26 q141 107 231 235 q89 128 135 293 l-290 0 l0 44 l301 0 q21 82 32 178 l48 -11 q-10 -87 -30 -167 l482 0 l0 -44 l-493 0 q-34 -123 -92 -231 l502 0 l0 -42 l-249 0 l0 -325 l328 0 l0 -44 l-740 0 l0 44 Z" /><glyph glyph-name="" unicode="&#x5dee;" d="M196 509 l248 0 q13 48 22 105 l-321 0 l0 42 l425 0 q32 30 71 74 q38 45 62 81 l42 -24 q-26 -35 -58 -70 q-32 -34 -60 -61 l255 0 l0 -42 l-370 0 q-9 -55 -21 -105 l326 0 l0 -42 l-337 0 q-17 -57 -41 -107 l503 0 l0 -42 l-525 0 q-38 -67 -92 -122 l515 0 l0 -42 l-246 0 l0 -182 l333 0 l0 -42 l-750 0 l0 42 l371 0 l0 182 l-237 0 l0 28 q-93 -88 -235 -156 q-13 18 -41 34 q117 56 197 118 q81 62 131 140 l-281 0 l0 42 l306 0 q25 49 44 107 l-236 0 l0 42 ZM269 780 l38 25 q33 -24 68 -53 q35 -29 64 -57 l-24 -37 q-34 31 -74 64 q-39 34 -72 58 Z" /><glyph glyph-name="" unicode="&#x5df2;" d="M231 60 q1 -77 79 -76 l467 -1 q40 0 62 16 q22 16 34 59 q9 31 18 76 q19 -23 40 -33 q-9 -35 -16 -60 q-17 -55 -48 -80 q-31 -24 -83 -23 l-477 -1 q-123 3 -124 116 l0 465 l48 0 l0 -121 l537 0 l0 290 l-632 0 l0 44 l680 0 l0 -378 l-585 0 l0 -293 Z" /><glyph glyph-name="" unicode="&#x5e08;" d="M433 510 l207 0 l0 179 l-255 0 l0 42 l559 0 l0 -42 l-258 0 l0 -179 l212 0 l0 -370 q2 -104 -95 -101 q-32 0 -59 5 q-2 23 -13 46 q15 -2 35 -5 q19 -2 35 -2 q53 -4 53 65 l0 322 l-168 0 l0 -574 l-46 0 l0 574 l-163 0 l0 -436 l-44 0 l0 476 ZM283 805 l46 0 l0 -378 q1 -143 -18 -238 q-19 -96 -64 -165 q-45 -68 -121 -131 q-19 16 -46 27 q81 66 126 131 q44 66 61 156 q17 90 16 229 l0 369 ZM117 700 l44 0 l0 -532 l-44 0 l0 532 Z" /><glyph glyph-name="" unicode="&#x5e10;" d="M220 805 l44 0 l0 -166 l138 0 l0 -450 q2 -87 -69 -85 q-14 0 -33 3 q-2 23 -11 45 q8 -2 21 -3 q13 -2 22 -2 q29 -3 28 44 l0 406 l-96 0 l0 -701 l-44 0 l0 701 l-92 0 l0 -501 l-42 0 l0 543 l134 0 l0 166 ZM536 804 l45 0 l0 -383 l364 0 l0 -42 l-239 0 q77 -276 269 -385 q-29 -13 -47 -34 q-105 80 -167 183 q-61 104 -95 236 l-85 0 l0 -390 l135 88 l25 -30 l-170 -117 q-19 -12 -36 -32 l-25 40 q15 15 21 32 q5 16 5 42 l0 367 l-102 0 l0 42 l102 0 l0 383 ZM842 766 l38 -23 q-50 -76 -115 -145 q-65 -68 -124 -111 q-17 12 -38 21 q59 41 127 113 q68 71 112 145 Z" /><glyph glyph-name="" unicode="&#x5e26;" d="M707 805 l44 0 l0 -138 l191 0 l0 -42 l-191 0 l0 -132 l-44 0 l0 132 l-186 0 l0 -125 l-44 0 l0 125 l-186 0 l0 -133 l-44 0 l0 133 l-191 0 l0 42 l191 0 l0 138 l44 0 l0 -138 l186 0 l0 138 l44 0 l0 -138 l186 0 l0 138 ZM476 368 l46 0 l0 -93 l271 0 l0 -218 q1 -92 -89 -90 q-26 -1 -55 2 q-4 23 -18 43 q37 -3 71 -4 q47 -3 45 53 l0 172 l-225 0 l0 -337 l-46 0 l0 337 l-220 0 l0 -260 l-46 0 l0 302 l266 0 l0 93 ZM82 454 l835 0 l0 -177 l-46 0 l0 135 l-743 0 l0 -135 l-46 0 l0 177 Z" /><glyph glyph-name="" unicode="&#x5e27;" d="M86 642 l125 0 l0 162 l42 0 l0 -162 l127 0 l0 -480 q1 -82 -71 -79 q-16 0 -30 2 q1 23 -13 42 q21 -3 38 -4 q35 -2 34 40 l0 439 l-85 0 l0 -706 l-42 0 l0 706 l-83 0 l0 -526 l-42 0 l0 566 ZM642 804 l44 0 l0 -112 l266 0 l0 -40 l-266 0 l0 -124 l194 0 l0 -422 l-44 0 l0 382 l-326 0 l0 -382 l-44 0 l0 422 l176 0 l0 276 ZM647 419 l44 -5 q0 -111 -1 -161 q-1 -51 -5 -73 q-16 -113 -86 -180 q-71 -67 -209 -104 q-10 23 -34 34 q138 36 205 94 q67 59 80 162 q3 22 5 75 q1 52 1 158 ZM672 57 l32 29 q56 -28 124 -69 q69 -40 124 -77 l-16 -43 q-54 39 -130 84 q-76 44 -134 76 Z" /><glyph glyph-name="" unicode="&#x5e38;" d="M251 493 l497 0 l0 -199 l-225 0 l0 -97 l309 0 l0 -130 q-2 -100 -99 -100 q-29 0 -63 7 q-3 22 -15 44 q45 -10 74 -10 q60 -2 59 58 l0 91 l-265 0 l0 -262 l-46 0 l0 262 l-259 0 l0 -194 l-44 0 l0 234 l303 0 l0 97 l-226 0 l0 199 ZM477 807 l44 0 l0 -182 l393 0 l0 -178 l-44 0 l0 138 l-741 0 l0 -138 l-44 0 l0 178 l392 0 l0 182 ZM702 453 l-405 0 l0 -119 l405 0 l0 119 ZM180 767 l40 25 q74 -49 137 -111 l-25 -39 q-35 35 -75 69 q-41 33 -77 56 ZM769 794 l38 -24 q-63 -76 -134 -129 q-16 14 -39 22 q67 50 135 131 Z" /><glyph glyph-name="" unicode="&#x5e45;" d="M453 339 l463 0 l0 -443 l-44 0 l0 69 l-375 0 l0 -69 l-44 0 l0 443 ZM86 642 l125 0 l0 162 l42 0 l0 -162 l127 0 l0 -480 q1 -82 -71 -79 q-16 0 -30 2 q-1 23 -13 42 q21 -3 38 -4 q35 -2 34 40 l0 439 l-85 0 l0 -706 l-42 0 l0 706 l-83 0 l0 -526 l-42 0 l0 566 ZM500 625 l368 0 l0 -202 l-368 0 l0 202 ZM824 585 l-280 0 l0 -121 l280 0 l0 121 ZM705 133 l0 -129 l167 0 l0 129 l-167 0 ZM497 133 l0 -129 l166 0 l0 129 l-166 0 ZM872 299 l-167 0 l0 -128 l167 0 l0 128 ZM497 299 l0 -128 l166 0 l0 128 l-166 0 ZM431 750 l507 0 l0 -40 l-507 0 l0 40 Z" /><glyph glyph-name="" unicode="&#x5e55;" d="M198 619 l125 0 l0 71 l-254 0 l0 40 l254 0 l0 75 l44 0 l0 -75 l261 0 l0 75 l44 0 l0 -75 l257 0 l0 -40 l-257 0 l0 -71 l125 0 l0 -251 l-326 0 q-23 -39 -56 -74 l518 0 l0 -40 l-244 0 q110 -85 297 -118 q-27 -25 -35 -46 q-77 19 -158 56 l0 -115 q-1 -91 -75 -87 q-46 0 -77 5 q0 22 -12 47 q48 -8 81 -9 q39 -1 39 46 l0 83 l-226 0 l0 -220 l-44 0 l0 220 l-213 0 l0 -172 l-44 0 l0 201 q-81 -45 -154 -71 q-16 24 -42 38 q71 23 144 58 q73 36 137 84 l-240 0 l0 40 l287 0 q38 34 65 74 l-221 0 l0 251 ZM242 408 l511 0 l0 67 l-511 0 l0 -67 ZM479 226 l44 0 l0 -70 l250 0 q-80 39 -149 98 l-249 0 q-62 -56 -134 -98 l238 0 l0 70 ZM753 579 l-511 0 l0 -66 l511 0 l0 66 ZM367 690 l0 -71 l261 0 l0 71 l-261 0 Z" /><glyph glyph-name="" unicode="&#x5e73;" d="M44 287 l432 0 l0 406 l-337 0 l0 44 l722 0 l0 -44 l-337 0 l0 -406 l432 0 l0 -44 l-432 0 l0 -347 l-48 0 l0 347 l-432 0 l0 44 ZM136 583 l39 23 q28 -24 66 -61 q38 -38 74 -75 q35 -37 56 -62 l-29 -38 q-43 51 -100 109 q-57 59 -106 104 ZM811 609 l39 -25 q-40 -55 -93 -113 q-52 -58 -101 -101 q-16 14 -42 22 q52 46 106 105 q54 59 91 112 Z" /><glyph glyph-name="" unicode="&#x5e7b;" d="M365 259 l44 11 q15 -28 39 -79 q24 -51 46 -104 q23 -53 35 -87 l-38 -26 q-13 35 -37 90 l-309 -45 q-38 -5 -66 -19 l-27 44 q27 9 50 37 q37 49 89 127 q52 79 105 166 l-186 -17 q-25 -2 -48 -12 l-23 38 q28 13 52 46 q32 45 71 114 q40 69 74 138 q35 69 51 112 l46 -17 q-35 -80 -93 -186 q-57 -106 -114 -189 l196 16 q50 87 82 156 l45 -18 q-35 -71 -92 -167 q-57 -97 -116 -186 q-59 -90 -100 -141 l296 41 q-21 48 -40 90 q-20 42 -32 67 ZM486 679 l414 0 l-16 -630 q-5 -132 -134 -129 q-40 1 -81 6 q-2 29 -19 50 q57 -10 99 -10 q86 0 89 87 l15 584 l-367 0 l0 42 Z" /><glyph glyph-name="" unicode="&#x5e7f;" d="M170 651 l422 0 q-33 31 -80 67 q-47 35 -87 60 l37 28 q37 -22 80 -55 q43 -32 76 -62 l-24 -38 l322 0 l0 -44 l-698 0 l0 -261 q0 -132 -35 -252 q-34 -120 -97 -195 q-22 13 -52 18 q63 64 99 176 q36 113 37 255 l0 303 Z" /><glyph glyph-name="" unicode="&#x5e93;" d="M583 417 l46 0 l0 -131 l229 0 l0 -40 l-229 0 l0 -124 l326 0 l0 -42 l-326 0 l0 -184 l-46 0 l0 184 l-356 0 l0 42 l356 0 l0 124 l-271 0 l0 38 q57 80 109 180 l-152 0 l0 40 l172 0 q25 53 46 109 l45 -14 q-19 -48 -41 -95 l416 0 l0 -40 l-436 0 q-51 -102 -103 -178 l215 0 l0 131 ZM146 670 l438 0 q-31 29 -68 60 q-38 30 -73 55 l37 26 q35 -23 70 -52 q36 -29 66 -59 l-23 -30 l349 0 l0 -42 l-750 0 l0 -286 q0 -144 -32 -250 q-32 -106 -97 -184 q-25 12 -51 16 q65 70 100 171 q34 103 34 248 l0 327 Z" /><glyph glyph-name="" unicode="&#x5e94;" d="M160 660 l407 0 q-62 70 -134 128 l39 22 q32 -24 66 -55 q33 -31 62 -63 l-24 -32 l347 0 l0 -42 l-717 0 l0 -277 q-1 -122 -34 -244 q-34 -121 -95 -196 q-24 13 -51 16 q59 60 96 173 q37 115 38 252 l0 318 ZM848 497 l40 -26 q-36 -115 -90 -244 q-55 -129 -118 -243 l269 -1 l0 -42 l-723 0 l0 42 l403 0 q74 135 131 272 q57 138 88 242 ZM262 421 l46 6 q82 -152 147 -312 l-38 -29 q-68 171 -155 335 ZM468 499 l44 6 q36 -65 70 -139 q34 -75 59 -144 l-38 -29 q-26 73 -62 154 q-36 81 -73 152 Z" /><glyph glyph-name="" unicode="&#x5e95;" d="M846 556 l34 -40 q-94 -21 -235 -34 q8 -113 26 -204 l257 0 l0 -42 l-248 0 q35 -150 118 -248 q34 -41 55 -39 q19 -3 36 49 q5 14 9 34 q5 21 8 38 q18 -22 38 -32 q-7 -31 -15 -59 q-28 -82 -74 -79 q-43 -3 -95 60 q-87 103 -127 276 l-254 0 l0 -231 l163 107 l31 -27 l-187 -129 q-23 -15 -48 -45 l-26 34 q12 16 17 30 q4 14 4 39 l0 493 q85 1 184 7 q99 7 187 18 q88 10 142 24 ZM162 681 l407 0 q-32 28 -71 55 q-38 27 -73 48 l36 28 q72 -42 138 -97 l-23 -34 l354 0 l0 -41 l-722 0 l0 -300 q0 -144 -30 -250 q-30 -105 -94 -189 q-24 15 -52 17 q63 68 97 168 q33 102 33 255 l0 340 ZM379 467 l0 -189 l245 0 q-17 90 -25 200 q-112 -9 -220 -11 ZM515 -8 l33 24 q28 -16 54 -37 q25 -21 59 -52 l-21 -39 q-34 33 -63 58 q-30 24 -62 46 Z" /><glyph glyph-name="" unicode="&#x5e97;" d="M544 572 l46 0 l0 -135 l329 0 l0 -42 l-329 0 l0 -146 l260 0 l0 -354 l-46 0 l0 67 l-443 0 l0 -67 l-46 0 l0 354 l229 0 l0 323 ZM361 207 l0 -204 l443 0 l0 204 l-443 0 ZM166 659 l417 0 q-75 70 -148 118 l38 27 q76 -51 141 -112 l-24 -33 l332 0 l0 -42 l-710 0 l0 -270 q0 -137 -29 -243 q-29 -106 -91 -189 q-25 12 -51 16 q64 75 94 174 q31 98 31 243 l0 311 Z" /><glyph glyph-name="" unicode="&#x5ea6;" d="M285 239 l523 0 l0 -37 q-79 -104 -192 -173 q128 -54 333 -81 q-23 -20 -31 -45 q-209 30 -350 99 q-141 -70 -348 -107 q-7 22 -32 41 q192 30 332 93 q-104 65 -177 170 l-58 0 l0 40 ZM391 618 l44 0 l0 -102 l265 0 l0 102 l44 0 l0 -102 l156 0 l0 -40 l-156 0 l0 -155 l-353 0 l0 155 l-157 0 l0 40 l157 0 l0 102 ZM143 691 l410 0 q-27 24 -60 49 q-32 26 -61 46 l37 27 q33 -22 69 -50 q36 -28 62 -53 l-16 -19 l327 0 l0 -42 l-722 0 l0 -294 q2 -122 -25 -239 q-26 -116 -92 -214 q-19 12 -49 19 q68 92 95 198 q26 107 25 240 l0 332 ZM435 361 l265 0 l0 115 l-265 0 l0 -115 ZM749 199 l-352 0 q69 -90 170 -146 q116 64 182 146 Z" /><glyph glyph-name="" unicode="&#x5ef6;" d="M109 248 l30 32 q55 -87 103 -141 q42 90 51 227 l-114 0 q-29 0 -52 -5 l-18 36 q17 6 29 17 q12 10 25 32 l131 217 l-208 0 l0 42 l264 0 l0 -35 l-157 -262 l145 0 l0 -42 q-10 -157 -62 -262 q47 -44 96 -67 q48 -23 107 -32 q62 -8 153 -13 q92 -4 182 -5 q90 0 149 4 q-19 -24 -24 -53 q-66 0 -145 2 q-80 2 -154 6 q-74 4 -124 9 q-83 9 -146 35 q-64 25 -117 73 q-61 -92 -167 -160 q-19 15 -48 24 q115 65 182 169 q-54 60 -111 152 ZM443 508 l46 0 l0 -340 l152 0 l0 497 q-58 -8 -114 -13 q-55 -5 -99 -7 q-9 23 -29 43 q125 5 238 21 q114 15 198 41 l35 -42 q-70 -20 -183 -37 l0 -216 l194 0 l0 -42 l-194 0 l0 -245 l204 0 l0 -42 l-448 0 l0 382 Z" /><glyph glyph-name="" unicode="&#x5f00;" d="M44 400 l278 0 l0 289 l-193 0 l0 44 l744 0 l0 -44 l-181 0 l0 -289 l266 0 l0 -44 l-266 0 l0 -457 l-48 0 l0 457 l-274 0 q-2 -151 -59 -264 q-57 -111 -176 -198 q-18 16 -49 27 q123 83 178 187 q56 103 58 248 l-278 0 l0 44 ZM370 689 l0 -289 l274 0 l0 289 l-274 0 Z" /><glyph glyph-name="" unicode="&#x5f02;" d="M178 750 l621 0 l0 -221 l-574 0 l0 -86 q-4 -49 55 -48 l508 0 q33 0 52 14 q18 15 28 48 q10 32 18 73 q17 -24 38 -35 q-7 -31 -15 -57 q-14 -48 -41 -68 q-27 -20 -73 -19 l-516 0 q-55 0 -78 22 q-24 22 -23 71 l0 306 ZM675 315 l46 0 l0 -111 l238 0 l0 -42 l-238 0 l0 -260 l-46 0 l0 260 l-307 0 q-11 -92 -70 -162 q-59 -72 -164 -115 q-16 20 -45 34 q216 87 233 243 l-279 0 l0 42 l282 0 l0 111 l46 0 l0 -111 l304 0 l0 111 ZM225 708 l0 -137 l528 0 l0 137 l-528 0 Z" /><glyph glyph-name="" unicode="&#x5f0f;" d="M574 800 l48 5 q-2 -100 3 -198 l294 0 l0 -42 l-292 0 q8 -120 25 -224 q17 -103 43 -176 q48 -132 110 -190 q19 -19 39 -19 q12 -1 22 9 q10 10 21 37 q13 34 25 88 q17 -26 38 -35 q-13 -49 -25 -77 q-33 -73 -78 -70 q-37 -1 -81 40 q-30 30 -57 74 q-27 45 -46 95 q-69 181 -83 448 l-503 0 l0 42 l500 0 q-3 90 -3 193 ZM58 0 l235 48 l0 290 l-179 0 l0 42 l396 0 l0 -42 l-171 0 l0 -281 l211 45 l24 -34 l-482 -108 l-34 40 ZM678 751 l40 22 q66 -57 110 -109 l-28 -37 q-27 31 -58 64 q-32 32 -64 60 Z" /><glyph glyph-name="" unicode="&#x5f15;" d="M125 751 l362 0 l0 -273 l-289 0 l-19 -189 l309 0 l-17 -253 q-5 -124 -131 -122 q-51 0 -115 10 q-2 22 -20 48 q35 -5 71 -9 q36 -4 64 -4 q80 -2 85 87 l14 201 l-310 0 l27 273 l285 0 l0 189 l-316 0 l0 42 ZM789 805 l48 0 l0 -909 l-48 0 l0 909 Z" /><glyph glyph-name="" unicode="&#x5f20;" d="M504 803 l46 0 l0 -383 l382 0 l0 -42 l-266 0 q45 -124 131 -224 q87 -99 194 -146 q-27 -14 -46 -37 q-117 66 -198 173 q-81 106 -124 234 l-73 0 l0 -389 l143 88 l26 -30 l-178 -117 q-20 -13 -38 -32 l-25 40 q15 15 21 32 q5 16 5 42 l0 366 l-126 0 l0 42 l126 0 l0 383 ZM86 750 l281 0 l0 -279 l-213 0 l-12 -181 l224 0 l-13 -268 q-4 -103 -111 -105 q-42 0 -91 5 q-3 24 -19 49 q64 -10 104 -10 q70 1 73 67 l11 222 l-225 0 l17 261 l211 0 l0 199 l-237 0 l0 40 ZM830 770 l40 -23 q-53 -76 -121 -145 q-68 -68 -130 -111 q-16 12 -40 21 q62 41 133 113 q72 71 118 145 Z" /><glyph glyph-name="" unicode="&#x5f39;" d="M809 803 l41 -20 q-44 -72 -109 -145 l141 0 l0 -390 l-204 0 l0 -115 l274 0 l0 -42 l-274 0 l0 -195 l-44 0 l0 195 l-265 0 l0 42 l265 0 l0 115 l-202 0 l0 390 l149 0 q-26 37 -58 73 q-32 37 -63 66 l40 19 q28 -25 61 -61 q32 -36 54 -67 l-28 -30 l101 0 q39 45 70 88 q32 43 51 77 ZM75 741 l252 0 l0 -274 l-184 0 l-12 -185 l196 0 l-13 -265 q-4 -103 -111 -105 q-38 0 -82 5 q-3 24 -19 49 q60 -10 95 -10 q70 1 73 67 l11 219 l-197 0 l17 265 l182 0 l0 194 l-208 0 l0 40 ZM678 288 l160 0 l0 137 l-160 0 l0 -137 ZM476 425 l0 -137 l158 0 l0 137 l-158 0 ZM838 598 l-160 0 l0 -133 l160 0 l0 133 ZM476 598 l0 -133 l158 0 l0 133 l-158 0 Z" /><glyph glyph-name="" unicode="&#x5f3a;" d="M424 398 l205 0 l0 118 l-176 0 l0 229 l399 0 l0 -229 l-177 0 l0 -118 l206 0 l0 -236 l-206 0 l0 -165 q100 12 173 23 q-34 53 -56 82 l44 16 q30 -42 65 -97 q34 -53 55 -91 l-35 -32 q-20 38 -50 88 q-69 -12 -156 -25 q-88 -13 -175 -24 q-86 -12 -152 -19 l-24 44 q50 5 120 13 q70 8 145 17 l0 170 l-205 0 l0 236 ZM75 741 l261 0 l0 -274 l-193 0 l-12 -185 l201 0 l-13 -265 q-4 -103 -111 -105 q-38 -1 -82 5 q-3 24 -19 49 q60 -10 95 -10 q70 1 73 67 l11 219 l-202 0 l17 265 l191 0 l0 194 l-217 0 l0 40 ZM808 705 l-311 0 l0 -149 l311 0 l0 149 ZM837 358 l-162 0 l0 -156 l162 0 l0 156 ZM468 358 l0 -156 l161 0 l0 156 l-161 0 Z" /><glyph glyph-name="" unicode="&#x5f53;" d="M165 223 l650 0 l0 173 l-697 0 l0 42 l358 0 l0 365 l46 0 l0 -365 l339 0 l0 -542 l-46 0 l0 65 l-707 0 l0 41 l707 0 l0 179 l-650 0 l0 42 ZM808 748 l42 -24 q-39 -58 -95 -125 q-57 -68 -101 -107 q-16 14 -42 21 q57 52 111 117 q53 65 85 118 ZM134 717 l39 24 q49 -42 107 -99 q57 -57 100 -105 l-31 -35 q-50 56 -111 116 q-60 61 -104 99 Z" /><glyph glyph-name="" unicode="&#x5f55;" d="M209 590 l513 0 l0 118 l-541 0 l0 42 l587 0 l0 -321 l168 0 l0 -42 l-402 0 l0 -37 q38 -85 94 -154 q53 34 106 76 q53 42 97 85 l36 -26 q-44 -42 -102 -87 q-57 -45 -111 -78 q118 -130 295 -188 q-27 -18 -40 -39 q-262 108 -375 330 l0 -273 q1 -90 -98 -91 q-33 0 -69 5 q-1 22 -15 46 q45 -7 81 -7 q58 -3 55 52 l0 386 l-424 0 l0 42 l658 0 l0 119 l-513 0 l0 42 ZM59 -22 q92 47 187 109 q95 63 175 128 l29 -27 q-71 -62 -166 -129 q-96 -65 -185 -114 l-40 33 ZM148 330 l36 26 q33 -19 78 -52 q46 -32 80 -63 l-19 -40 q-37 32 -87 69 q-50 37 -88 60 Z" /><glyph glyph-name="" unicode="&#x5f69;" d="M323 441 l46 0 l0 -74 l216 0 l0 -42 l-216 0 l0 -92 l23 19 q44 -33 100 -81 q56 -48 88 -80 l-22 -39 q-40 38 -91 84 q-52 45 -98 83 l0 -323 l-46 0 l0 370 q-43 -78 -110 -151 q-67 -72 -125 -112 q-18 16 -44 23 q83 59 153 137 q71 78 114 162 l-237 0 l0 42 l249 0 l0 74 ZM923 236 l38 -24 q-70 -100 -178 -183 q-108 -82 -228 -132 q-17 20 -44 34 q130 50 236 128 q105 79 176 177 ZM528 773 l37 -40 q-87 -21 -212 -37 q-125 -16 -230 -20 q-9 22 -29 43 q71 1 153 8 q82 7 156 19 q75 11 125 27 ZM852 772 l38 -30 q-60 -74 -138 -138 q-78 -65 -151 -109 q-14 17 -37 27 q85 52 163 121 q79 68 125 129 ZM877 490 l35 -26 q-28 -38 -80 -84 q-51 -45 -108 -85 q-57 -40 -102 -64 q-15 18 -40 32 q78 39 160 102 q82 62 135 125 ZM530 653 l41 -17 q-16 -35 -47 -90 q-32 -55 -61 -93 q-16 9 -39 14 q27 36 58 90 q30 53 48 96 ZM88 601 l45 14 q21 -32 47 -75 q26 -44 46 -82 l-34 -28 q-19 37 -47 83 q-28 46 -57 88 ZM266 637 l42 11 q16 -29 34 -72 q18 -42 29 -73 l-39 -24 q-27 80 -66 158 Z" /><glyph glyph-name="" unicode="&#x5f71;" d="M42 425 l292 0 q-30 34 -61 63 l28 14 l-177 0 l0 251 l410 0 l0 -251 l-215 0 q31 -30 60 -64 l-16 -13 l252 0 l0 -40 l-573 0 l0 40 ZM130 324 l398 0 l0 -177 l-169 0 l0 -157 q1 -48 -20 -68 q-20 -20 -70 -20 q-11 0 -26 1 q-16 1 -26 2 q-1 23 -15 47 q13 -3 33 -5 q19 -2 32 -2 q26 -1 37 11 q11 12 11 43 l0 148 l-185 0 l0 177 ZM486 286 l-314 0 l0 -101 l314 0 l0 101 ZM920 228 l44 -24 q-135 -190 -394 -304 q-15 21 -42 36 q121 44 227 122 q105 78 165 170 ZM166 540 l326 0 l0 70 l-326 0 l0 -70 ZM492 715 l-326 0 l0 -69 l326 0 l0 69 ZM862 778 l43 -26 q-58 -70 -138 -138 q-81 -69 -151 -109 q-16 19 -43 31 q85 45 163 111 q78 65 126 131 ZM875 490 l42 -27 q-48 -60 -129 -124 q-81 -63 -170 -107 q-15 19 -39 31 q86 39 165 100 q78 60 131 127 ZM202 117 l39 -22 q-37 -52 -80 -93 q-42 -39 -77 -62 q-18 17 -41 26 q46 29 89 69 q43 41 70 82 ZM423 91 l36 24 q26 -21 60 -54 q33 -32 56 -57 l-28 -34 q-28 31 -60 62 q-33 32 -64 59 Z" /><glyph glyph-name="" unicode="&#x5f80;" d="M401 307 l222 0 l0 256 l-252 0 l0 42 l557 0 l0 -42 l-259 0 l0 -256 l224 0 l0 -42 l-224 0 l0 -275 l291 0 l0 -42 l-628 0 l0 42 l291 0 l0 275 l-222 0 l0 42 ZM303 560 l35 -32 q-44 -77 -95 -143 l0 -489 l-46 0 l0 434 q-62 -69 -124 -119 q-17 16 -47 26 q78 56 154 143 q75 87 123 180 ZM283 798 l34 -33 q-43 -76 -102 -145 q-59 -69 -115 -115 q-19 15 -46 22 q67 51 131 126 q63 75 98 145 ZM536 783 l43 22 q34 -30 72 -70 q37 -41 63 -77 l-30 -36 q-33 43 -73 87 q-40 44 -75 74 Z" /><glyph glyph-name="" unicode="&#x5f85;" d="M356 465 l267 0 l0 158 l-224 0 l0 42 l224 0 l0 139 l46 0 l0 -139 l226 0 l0 -42 l-226 0 l0 -158 l282 0 l0 -42 l-595 0 l0 42 ZM757 394 l46 0 l0 -122 l136 0 l0 -42 l-136 0 l0 -233 q-4 -96 -102 -96 q-18 0 -39 2 q-21 2 -36 6 q-3 26 -16 48 q41 -11 87 -11 q59 1 60 60 l0 224 l-388 0 l0 42 l388 0 l0 122 ZM305 559 l37 -31 q-43 -77 -93 -142 l0 -490 l-46 0 l0 433 q-62 -71 -127 -118 q-17 16 -47 26 q78 53 153 139 q75 85 123 183 ZM285 794 l35 -33 q-45 -76 -105 -144 q-61 -68 -118 -111 q-19 15 -46 23 q69 48 133 121 q65 73 101 144 ZM425 151 l37 28 q36 -27 74 -60 q37 -33 62 -60 l-27 -38 q-29 32 -68 67 q-39 34 -78 63 Z" /><glyph glyph-name="" unicode="&#x5f8b;" d="M332 555 l255 0 l0 108 l-211 0 l0 40 l211 0 l0 102 l44 0 l0 -102 l226 0 l0 -148 l102 0 l0 -40 l-102 0 l0 -149 l-226 0 l0 -107 l252 0 l0 -40 l-252 0 l0 -108 l300 0 l0 -40 l-300 0 l0 -175 l-44 0 l0 175 l-282 0 l0 40 l282 0 l0 108 l-246 0 l0 40 l246 0 l0 107 l-211 0 l0 40 l211 0 l0 109 l-255 0 l0 40 ZM284 578 l34 -31 q-39 -70 -100 -146 l0 -505 l-44 0 l0 453 q-54 -59 -106 -101 q-19 18 -44 23 q46 33 98 88 q51 55 95 114 q44 59 67 105 ZM631 406 l184 0 l0 109 l-184 0 l0 -109 ZM815 663 l-184 0 l0 -108 l184 0 l0 108 ZM271 807 l36 -32 q-45 -76 -109 -146 q-64 -70 -117 -109 q-18 17 -44 24 q66 47 132 120 q66 72 102 143 Z" /><glyph glyph-name="" unicode="&#x5f97;" d="M398 752 l462 0 l0 -311 l-462 0 l0 311 ZM346 352 l580 0 l0 -42 l-129 0 l0 -97 l163 0 l0 -42 l-163 0 l0 -176 q-1 -95 -99 -91 q-31 0 -63 3 q-2 27 -14 49 q17 -2 39 -5 q21 -2 38 -2 q54 -3 53 60 l0 162 l-453 0 l0 42 l453 0 l0 97 l-405 0 l0 42 ZM291 578 l34 -33 q-35 -62 -89 -131 l0 -518 l-46 0 l0 463 q-58 -66 -114 -111 q-19 19 -45 25 q46 33 98 88 q51 54 95 113 q44 58 67 104 ZM442 481 l374 0 l0 97 l-374 0 l0 -97 ZM816 712 l-374 0 l0 -96 l374 0 l0 96 ZM277 807 l37 -34 q-45 -74 -109 -144 q-64 -70 -117 -109 q-19 17 -45 26 q66 47 132 119 q66 72 102 142 ZM419 115 l37 26 q31 -25 65 -55 q34 -30 64 -59 l-26 -36 q-29 29 -69 65 q-39 35 -71 59 Z" /><glyph glyph-name="" unicode="&#x5fae;" d="M731 803 l44 -14 q-9 -87 -30 -187 l208 0 l0 -40 l-70 0 q1 -253 -77 -426 q60 -122 177 -205 q-33 -15 -46 -32 q-98 86 -155 192 q-63 -112 -181 -193 q-18 13 -46 24 q141 90 205 215 q-56 125 -76 249 q-20 -53 -42 -92 q-19 12 -42 13 q36 62 63 149 q27 87 44 179 q17 91 24 168 ZM354 309 l208 0 l0 -237 l84 65 l32 -27 l-105 -87 q-18 -16 -40 -43 l-31 33 q10 14 13 29 q3 15 3 40 l0 187 l-119 0 q0 -48 -1 -100 q-2 -81 -25 -136 q-24 -54 -76 -105 q-18 13 -45 21 q54 49 77 97 q22 49 25 126 q2 28 2 67 q0 39 -2 70 ZM253 557 l34 -31 q-26 -54 -66 -109 l0 -521 l-44 0 l0 463 q-53 -64 -104 -106 q-19 17 -44 25 q65 51 125 127 q60 76 99 152 ZM312 731 l42 0 l0 -169 l91 0 l0 242 l44 0 l0 -242 l91 0 l0 169 l42 0 l0 -209 l-310 0 l0 209 ZM736 562 q-12 -53 -28 -104 q22 -140 74 -272 q63 163 61 376 l-107 0 ZM234 802 l38 -32 q-41 -72 -91 -135 q-50 -63 -97 -102 q-18 17 -43 25 q58 46 108 110 q51 64 85 134 ZM298 437 l323 0 l0 -40 l-323 0 l0 40 Z" /><glyph glyph-name="" unicode="&#x5fc3;" d="M323 537 l48 0 l0 -495 q-2 -68 82 -69 l177 -1 q75 -1 102 72 q11 32 21 84 q20 -24 41 -33 q-10 -41 -21 -74 q-35 -98 -138 -94 l-189 -1 q-122 4 -123 113 l0 498 ZM402 750 l48 20 q41 -49 91 -116 q49 -67 87 -128 l-36 -40 q-37 62 -92 138 q-54 76 -98 126 ZM767 490 l54 7 q37 -66 78 -150 q40 -84 65 -149 l-42 -34 q-33 84 -78 177 q-44 93 -77 149 ZM154 485 l46 -25 q-16 -79 -49 -181 q-33 -101 -73 -176 l-43 35 q38 69 70 161 q31 93 49 186 Z" /><glyph glyph-name="" unicode="&#x5fe7;" d="M400 526 l179 0 l0 278 l46 0 l0 -278 l306 0 l0 -42 l-228 0 l0 -461 q-2 -52 52 -50 l88 -1 q50 -3 63 57 q3 14 7 36 q4 22 6 40 q15 -22 39 -33 q-4 -33 -9 -54 q-20 -93 -103 -89 l-92 -1 q-95 4 -97 94 l0 462 l-33 0 q-9 -189 -81 -342 q-73 -152 -187 -246 q-19 16 -48 21 q116 92 189 238 q72 146 81 329 l-178 0 l0 42 ZM187 804 l44 0 l0 -908 l-44 0 l0 908 ZM91 595 l42 -14 q-6 -65 -23 -141 q-17 -77 -36 -120 l-42 23 q22 45 39 122 q16 77 20 130 ZM712 728 l37 21 q33 -27 67 -61 q33 -34 63 -70 l-25 -37 q-63 78 -142 147 ZM267 600 l40 9 q38 -80 65 -163 l-37 -23 q-29 90 -68 177 Z" /><glyph glyph-name="" unicode="&#x5feb;" d="M592 805 l47 -6 q0 -99 -1 -173 l212 0 l0 -304 l93 0 l0 -42 l-305 0 q41 -122 125 -207 q84 -84 194 -126 q-34 -19 -48 -40 q-105 53 -180 133 q-76 81 -114 191 q-35 -204 -269 -335 q-17 20 -46 33 q241 105 280 351 l-230 0 l0 42 l235 0 q0 8 1 15 q5 82 6 247 l-191 0 l0 42 l191 0 l0 179 ZM638 584 q-1 -91 -2 -154 q-2 -62 -4 -108 l172 0 l0 262 l-166 0 ZM202 804 l46 0 l0 -907 l-46 0 l0 907 ZM96 587 l44 -11 q-9 -82 -24 -152 q-16 -69 -34 -109 l-43 19 q50 127 57 253 ZM285 584 l41 13 q19 -35 42 -87 q23 -53 34 -87 l-37 -26 q-12 38 -36 93 q-23 55 -44 94 Z" /><glyph glyph-name="" unicode="&#x6000;" d="M378 735 l557 0 l0 -42 l-229 0 q-25 -90 -56 -167 l24 0 l0 -629 l-46 0 l0 576 q-47 -104 -114 -194 q-67 -91 -160 -179 q-19 17 -47 25 q143 130 224 263 q81 132 126 305 l-279 0 l0 42 ZM203 804 l46 0 l0 -907 l-46 0 l0 907 ZM717 366 l43 21 q57 -58 107 -115 q49 -57 97 -118 l-33 -37 q-91 124 -214 249 ZM96 587 l44 -11 q-9 -82 -24 -152 q-16 -69 -34 -109 l-43 19 q50 127 57 253 ZM287 584 l41 13 q19 -35 42 -87 q23 -53 34 -87 l-37 -26 q-12 38 -36 93 q-23 55 -44 94 Z" /><glyph glyph-name="" unicode="&#x6001;" d="M462 811 l46 -8 q-9 -95 -23 -149 l419 0 l0 -42 l-330 0 q105 -193 383 -271 q-27 -17 -43 -40 q-143 49 -238 126 q-96 77 -151 185 l-53 0 q-46 -114 -146 -194 q-101 -81 -240 -129 q-16 22 -42 37 q138 43 236 113 q97 71 143 173 l-327 0 l0 42 l343 0 q18 61 23 157 ZM318 225 l46 0 l0 -201 q-2 -55 58 -53 l205 -1 q62 -2 82 58 q5 16 11 36 q5 20 7 31 q19 -26 38 -35 q-3 -15 -9 -34 q-6 -18 -11 -30 q-16 -39 -44 -54 q-29 -16 -71 -15 l-209 -1 q-104 1 -103 97 l0 202 ZM187 213 l36 -32 q-51 -118 -125 -209 l-38 34 q39 45 71 99 q33 55 56 108 ZM735 197 l40 23 q38 -33 86 -84 q48 -51 78 -90 l-30 -37 q-38 48 -87 100 q-49 53 -87 88 ZM421 250 l38 22 q73 -56 136 -126 l-28 -37 q-35 40 -76 78 q-40 39 -70 63 ZM425 442 l38 22 q34 -27 62 -53 q29 -26 58 -58 l-28 -37 q-70 78 -130 126 Z" /><glyph glyph-name="" unicode="&#x6025;" d="M209 404 l576 0 l0 112 l-598 0 l0 23 q-45 -30 -85 -50 q-15 19 -40 26 q92 43 183 123 q92 79 147 181 l36 -28 q-24 -44 -56 -83 l368 0 l0 -33 l-110 -121 l201 0 l0 -340 l-653 0 l0 38 l607 0 l0 113 l-576 0 l0 39 ZM339 669 q-62 -66 -130 -115 l364 0 l102 114 l-336 0 l0 1 ZM292 165 l46 0 l0 -152 q-2 -43 46 -42 l260 -1 q29 0 45 13 q17 13 27 44 q8 26 13 49 q16 -21 37 -31 q-6 -24 -13 -45 q-15 -40 -41 -57 q-26 -17 -67 -16 l-257 -1 q-99 0 -96 87 l0 152 ZM755 152 l40 18 q37 -35 78 -81 q41 -46 78 -93 l-28 -37 q-79 103 -168 193 ZM208 139 q-50 -109 -127 -200 l-30 34 q76 87 122 194 l35 -28 ZM438 164 l39 22 q28 -24 62 -56 q34 -32 60 -60 l-27 -36 q-62 70 -134 130 Z" /><glyph glyph-name="" unicode="&#x6027;" d="M477 732 l44 -16 q-15 -80 -37 -156 l167 0 l0 243 l46 0 l0 -243 l226 0 l0 -42 l-226 0 l0 -233 l194 0 l0 -42 l-194 0 l0 -264 l260 0 l0 -42 l-600 0 l0 42 l294 0 l0 264 l-206 0 l0 42 l206 0 l0 233 l-180 0 q-37 -112 -80 -186 q-22 10 -46 11 q46 73 80 175 q35 101 52 214 ZM194 803 l46 0 l0 -907 l-46 0 l0 907 ZM96 580 l41 -13 q-4 -65 -19 -141 q-16 -77 -34 -121 l-42 23 q21 45 36 122 q15 78 18 130 ZM269 596 l39 9 q18 -35 34 -73 q17 -38 29 -70 l-37 -22 q-12 35 -29 77 q-16 41 -36 79 Z" /><glyph glyph-name="" unicode="&#x603b;" d="M701 811 l42 -24 q-27 -40 -63 -82 q-35 -41 -72 -78 l204 0 l0 -314 l-628 0 l0 314 l364 0 q46 45 87 94 q42 50 66 90 ZM766 585 l-536 0 l0 -230 l536 0 l0 230 ZM300 205 l46 0 l0 -181 q-2 -55 58 -53 l223 -1 q62 -3 82 57 q5 16 11 36 q5 20 7 32 q15 -22 38 -35 q-3 -15 -9 -34 q-6 -19 -11 -31 q-16 -39 -44 -54 q-29 -15 -71 -14 l-228 -1 q-103 2 -102 96 l0 183 ZM177 209 l36 -32 q-50 -114 -129 -209 l-34 34 q79 93 127 207 ZM735 188 l40 22 q90 -80 164 -173 l-30 -37 q-80 99 -174 188 ZM242 784 l39 23 q33 -26 74 -63 q40 -37 71 -70 l-27 -38 q-73 80 -157 148 ZM423 247 l38 22 q34 -28 70 -61 q37 -34 66 -65 l-28 -37 q-32 35 -70 72 q-39 38 -76 69 Z" /><glyph glyph-name="" unicode="&#x606f;" d="M478 809 l46 -14 q-22 -44 -55 -90 l328 0 l0 -465 l-588 0 l0 465 l203 0 q20 27 38 55 q17 27 28 49 ZM255 282 l496 0 l0 101 l-496 0 l0 -101 ZM751 663 l-496 0 l0 -100 l496 0 l0 100 ZM255 523 l0 -100 l496 0 l0 100 l-496 0 ZM296 181 l46 0 l0 -169 q-2 -43 46 -41 l260 -1 q29 0 45 13 q17 13 27 44 q8 26 13 49 q16 -21 37 -31 q-6 -24 -13 -45 q-15 -40 -41 -57 q-26 -17 -67 -16 l-256 -1 q-99 0 -97 89 l0 166 ZM755 166 l41 19 q36 -34 77 -81 q41 -46 78 -96 l-29 -36 q-33 43 -81 99 q-48 56 -86 95 ZM176 186 l35 -28 q-23 -55 -60 -113 q-37 -57 -68 -93 l-32 35 q33 36 70 94 q37 58 55 105 ZM448 178 l39 22 q28 -24 62 -56 q34 -32 60 -60 l-27 -36 q-62 70 -134 130 Z" /><glyph glyph-name="" unicode="&#x60a8;" d="M486 809 l41 -21 q-17 -52 -43 -105 l402 0 l0 -35 l-61 -138 q-18 9 -43 6 l56 127 l-375 0 q-47 -87 -110 -151 q-17 14 -44 20 q59 56 108 138 q49 82 69 159 ZM255 807 l38 -26 q-25 -63 -66 -133 l0 -406 l-44 0 l0 337 q-47 -68 -96 -113 q-20 14 -46 20 q75 70 130 155 q55 85 84 166 ZM308 183 l46 0 l0 -165 q2 -45 50 -47 l237 -1 q29 0 46 14 q17 13 29 47 q8 23 14 48 q14 -23 36 -34 q-6 -24 -13 -42 q-15 -41 -41 -59 q-26 -17 -68 -17 l-236 -1 q-101 1 -100 90 l0 167 ZM593 571 l44 0 l0 -221 q-2 -96 -89 -97 q-37 1 -69 6 q3 24 -12 44 q40 -8 76 -8 q50 -2 50 60 l0 216 ZM179 190 l36 -26 q-17 -50 -51 -110 q-34 -60 -66 -102 l-37 35 q34 41 65 94 q31 53 53 109 ZM732 192 l40 23 q36 -34 83 -84 q46 -50 74 -90 l-29 -35 q-34 45 -81 96 q-46 51 -87 90 ZM461 509 l36 -22 q-27 -54 -68 -108 q-40 -54 -83 -93 q-18 16 -42 18 q43 37 85 92 q43 55 72 113 ZM715 482 l37 17 q77 -82 140 -177 l-29 -32 q-66 102 -148 192 ZM445 206 l40 19 q69 -61 126 -132 l-30 -33 q-30 36 -66 76 q-36 39 -70 70 Z" /><glyph glyph-name="" unicode="&#x60c5;" d="M426 335 l445 0 l0 -335 q-4 -98 -99 -96 q-14 0 -32 1 q-19 1 -33 3 q-1 22 -13 46 q19 -3 39 -5 q21 -2 33 -2 q60 -2 61 55 l0 50 l-357 0 l0 -156 l-44 0 l0 439 ZM626 805 l44 0 l0 -110 l242 0 l0 -40 l-242 0 l0 -83 l201 0 l0 -40 l-201 0 l0 -86 l290 0 l0 -40 l-618 0 l0 40 l284 0 l0 86 l-197 0 l0 40 l197 0 l0 83 l-240 0 l0 40 l240 0 l0 110 ZM188 805 l44 0 l0 -909 l-44 0 l0 909 ZM470 174 l0 -84 l357 0 l0 84 l-357 0 ZM470 295 l0 -83 l357 0 l0 83 l-357 0 ZM88 587 l41 -15 q-5 -64 -17 -134 q-13 -71 -30 -125 l-42 25 q19 53 31 121 q12 68 17 128 ZM264 616 l39 12 q38 -63 65 -135 l-38 -22 q-26 72 -66 145 Z" /><glyph glyph-name="" unicode="&#x60e7;" d="M436 751 l420 0 l0 -603 l104 0 l0 -42 l-628 0 l0 42 l104 0 l0 603 ZM201 802 l46 0 l0 -906 l-46 0 l0 906 ZM482 259 l0 -111 l328 0 l0 111 l-328 0 ZM482 409 l0 -110 l328 0 l0 110 l-328 0 ZM482 559 l0 -110 l328 0 l0 110 l-328 0 ZM482 709 l0 -110 l328 0 l0 110 l-328 0 ZM96 573 l42 -13 q-4 -65 -20 -142 q-15 -77 -33 -120 l-42 22 q20 46 35 120 q15 74 18 133 ZM544 66 l36 -26 q-44 -43 -98 -82 q-55 -39 -102 -62 q-15 17 -43 29 q51 22 108 60 q57 38 99 81 ZM710 43 l37 25 q48 -30 101 -67 q54 -36 90 -66 l-22 -41 q-43 37 -98 77 q-56 39 -108 72 ZM286 579 l41 10 q17 -40 34 -86 q17 -45 29 -83 l-39 -24 q-13 42 -30 90 q-17 48 -35 93 Z" /><glyph glyph-name="" unicode="&#x60ef;" d="M354 610 l74 0 l9 141 l441 0 l-8 -141 l88 0 l0 -40 l-90 0 l-8 -143 l-443 0 l9 143 l-72 0 l0 40 ZM412 338 l460 0 l0 -294 l-44 0 l0 254 l-372 0 l0 -254 l-44 0 l0 294 ZM184 804 l44 0 l0 -908 l-44 0 l0 908 ZM618 248 l44 -6 q0 -75 -18 -136 q-31 -97 -108 -144 q-77 -49 -192 -66 q-9 26 -34 40 q117 14 190 55 q73 41 102 129 q16 53 16 128 ZM659 467 l161 0 l6 103 l-160 0 l-7 -103 ZM468 570 l-7 -103 l156 0 l7 103 l-156 0 ZM834 711 l-159 0 l-6 -101 l159 0 l6 101 ZM477 711 l-7 -101 l157 0 l6 101 l-156 0 ZM656 44 l29 32 q140 -60 268 -138 l-18 -45 q-134 86 -279 151 ZM91 597 l41 -18 q-11 -134 -57 -260 l-40 23 q49 123 56 255 ZM252 604 l39 6 q39 -86 68 -176 l-36 -22 q-31 98 -71 192 Z" /><glyph glyph-name="" unicode="&#x60f3;" d="M494 750 l378 0 l0 -495 l-378 0 l0 495 ZM90 656 l170 0 l0 148 l44 0 l0 -148 l141 0 l0 -40 l-141 0 l0 -376 l-44 0 l0 302 q-50 -124 -152 -226 q-22 19 -48 22 q128 105 191 278 l-161 0 l0 40 ZM828 710 l-290 0 l0 -113 l290 0 l0 113 ZM538 559 l0 -113 l290 0 l0 113 l-290 0 ZM538 295 l290 0 l0 113 l-290 0 l0 -113 ZM303 182 l46 0 l0 -169 q1 -43 48 -43 l244 -1 q29 0 46 14 q17 13 29 47 q8 23 14 48 q14 -23 36 -34 q-6 -24 -13 -42 q-15 -41 -41 -59 q-26 -17 -68 -17 l-247 -1 q-97 -1 -94 86 l0 171 ZM178 190 l36 -26 q-17 -50 -51 -110 q-34 -60 -66 -102 l-37 35 q34 41 65 94 q31 53 53 109 ZM745 176 l40 23 q36 -34 83 -84 q46 -50 74 -90 l-29 -34 q-34 44 -81 95 q-46 51 -87 90 ZM452 209 l40 19 q69 -61 126 -132 l-30 -33 q-30 36 -66 76 q-36 39 -70 70 ZM306 532 l38 15 q59 -63 98 -123 l-31 -31 q-43 72 -105 139 Z" /><glyph glyph-name="" unicode="&#x610f;" d="M185 444 l626 0 l0 -277 l-626 0 l0 277 ZM105 714 l399 0 q-44 40 -92 73 l40 24 q23 -16 50 -38 q27 -23 48 -45 l-15 -14 l356 0 l0 -40 l-192 0 l27 -19 q-16 -23 -40 -50 q-24 -26 -46 -48 l314 0 l0 -40 l-910 0 l0 40 l311 0 q-38 47 -85 90 l40 20 q51 -44 92 -100 l-14 -10 l190 0 q24 21 54 54 q31 34 51 63 l-578 0 l0 40 ZM229 207 l538 0 l0 80 l-538 0 l0 -80 ZM767 404 l-538 0 l0 -79 l538 0 l0 79 ZM285 131 l44 0 l0 -124 q0 -43 45 -41 l249 -1 q53 0 72 52 q9 24 17 54 q14 -23 35 -37 q-6 -21 -13 -36 q-25 -75 -104 -74 l-248 -1 q-53 0 -75 19 q-23 19 -22 69 l0 120 ZM164 124 l39 -27 q-21 -48 -51 -94 q-31 -44 -61 -76 l-36 36 q32 30 64 76 q31 47 45 85 ZM759 96 l36 25 q82 -70 143 -142 l-32 -36 q-30 39 -69 79 q-39 41 -78 74 ZM442 117 l34 23 q58 -40 103 -94 l-33 -32 q-25 30 -48 52 q-23 22 -56 51 Z" /><glyph glyph-name="" unicode="&#x611f;" d="M826 555 l38 -16 q-50 -117 -119 -203 q20 -39 43 -65 q34 -41 62 -42 q26 -1 45 38 q6 13 13 34 q7 20 11 39 q12 -23 33 -36 q-10 -35 -24 -62 q-32 -59 -77 -59 q-42 1 -93 56 q-23 26 -43 62 q-58 -63 -134 -117 q-18 17 -43 23 q93 61 157 133 q-27 59 -48 132 q-21 72 -35 151 l-401 0 l0 -158 q1 -100 -21 -176 q-21 -77 -73 -140 q-20 13 -48 19 q55 56 77 128 q22 73 21 166 l0 201 l439 0 q-9 73 -11 142 l42 5 q4 -75 13 -147 l273 0 l0 -40 l-266 0 q24 -143 68 -247 q64 83 101 179 ZM285 424 l252 0 l0 -184 l-252 0 l0 184 ZM319 154 l44 0 l0 -140 q-3 -50 52 -47 l212 -1 q55 -2 73 58 q8 25 15 51 q18 -25 36 -34 q-4 -11 -9 -25 q-5 -14 -8 -23 q-16 -41 -43 -55 q-27 -14 -66 -13 l-205 -1 q-50 0 -76 20 q-25 21 -25 70 l0 140 ZM497 389 l-172 0 l0 -113 l172 0 l0 113 ZM257 541 l304 0 l0 -38 l-304 0 l0 38 ZM197 156 l35 -27 q-21 -52 -54 -106 q-32 -53 -69 -98 l-33 34 q32 39 66 91 q34 54 55 106 ZM742 150 l42 17 q32 -32 73 -80 q41 -49 73 -91 l-30 -34 q-34 44 -76 95 q-41 51 -82 93 ZM447 151 l37 23 q57 -48 110 -106 l-26 -36 q-60 69 -121 119 ZM709 769 l32 28 q25 -14 59 -37 q34 -23 59 -43 l-21 -34 q-25 20 -60 43 q-34 24 -69 43 Z" /><glyph glyph-name="" unicode="&#x620f;" d="M443 479 l155 21 q-16 140 -18 302 l47 5 q1 -164 16 -301 l286 38 l9 -42 l-290 -38 q19 -143 48 -251 q94 85 154 180 l36 -30 q-76 -107 -177 -197 q30 -97 65 -149 q41 -61 76 -57 q27 -4 47 42 q13 30 28 95 q16 -27 37 -35 q-5 -22 -13 -44 q-7 -21 -13 -35 q-33 -73 -81 -71 q-65 -3 -118 80 q-36 54 -66 143 q-115 -94 -252 -154 q-19 19 -42 29 q159 69 280 170 q-34 119 -54 278 l-151 -20 l-9 41 ZM71 485 l38 23 q33 -33 79 -84 q45 -52 93 -109 q67 145 82 309 l-289 0 l0 42 l336 0 l0 -38 q-21 -196 -97 -352 q40 -49 72 -92 q32 -42 50 -69 l-34 -33 q-36 54 -111 149 q-83 -149 -217 -259 q-19 15 -50 21 q147 111 236 277 q-51 64 -101 121 q-50 58 -87 94 ZM703 727 l38 25 q36 -32 70 -67 q34 -35 61 -67 l-30 -31 q-67 78 -139 140 Z" /><glyph glyph-name="" unicode="&#x6210;" d="M821 477 l40 -24 q-61 -193 -168 -330 q32 -77 75 -118 q43 -41 80 -41 q28 1 44 36 q19 39 34 102 q15 -24 36 -37 q-14 -53 -27 -81 q-30 -72 -86 -68 q-47 0 -99 42 q-52 42 -91 125 q-92 -101 -222 -172 q-11 10 -20 16 q-10 5 -26 11 q148 75 250 194 q-62 184 -84 435 l-365 0 l0 -151 l0 -10 l252 0 l-11 -267 q-4 -105 -109 -103 q-35 0 -71 5 q-2 21 -11 44 q45 -6 82 -7 q63 1 65 64 l9 224 l-207 0 q-1 -173 -27 -273 q-25 -99 -84 -185 q-20 13 -50 18 q46 62 71 121 q26 60 36 147 q9 87 9 232 l0 183 l408 0 q-7 90 -8 191 l48 5 q0 -102 6 -196 l322 0 l0 -42 l-319 0 q18 -217 72 -392 q96 131 146 302 ZM660 755 l36 25 q33 -22 69 -51 q35 -29 65 -59 l-24 -39 q-32 32 -71 65 q-39 34 -75 59 Z" /><glyph glyph-name="" unicode="&#x6211;" d="M831 406 l32 -35 q-68 -123 -179 -223 q28 -89 66 -139 q38 -50 71 -51 q28 -1 43 33 q18 37 32 98 q16 -24 37 -37 q-13 -50 -25 -77 q-30 -72 -86 -68 q-47 0 -93 52 q-46 52 -82 157 q-96 -79 -198 -123 q-18 18 -40 28 q112 46 224 140 q-33 123 -49 311 l-248 0 l0 -191 l139 43 l23 -34 l-162 -53 l0 -235 q-1 -91 -92 -92 q-36 1 -78 7 q-3 23 -20 47 q53 -8 93 -9 q53 -1 51 49 l0 218 l-211 -68 l-35 38 l246 75 l0 205 l-222 0 l0 42 l222 0 l0 153 q-85 -16 -156 -21 q-10 20 -30 39 q92 7 193 26 q102 19 162 43 l30 -38 q-58 -21 -153 -40 l0 -162 l244 0 q-9 134 -8 286 l49 4 q-5 -145 6 -290 l298 0 l0 -42 l-294 0 q14 -162 40 -277 q106 98 160 211 ZM691 733 l39 22 q36 -33 75 -76 q38 -43 65 -80 l-28 -31 q-32 41 -74 87 q-42 46 -77 78 Z" /><glyph glyph-name="" unicode="&#x6216;" d="M806 458 l42 -29 q-41 -151 -141 -297 q36 -90 73 -133 q37 -43 63 -43 q27 -3 44 46 q13 34 25 88 q16 -23 38 -35 q-12 -46 -25 -77 q-27 -71 -82 -69 q-43 1 -87 48 q-44 46 -81 132 q-87 -110 -209 -187 q-19 19 -46 27 q146 92 235 211 q-30 86 -48 190 q-18 104 -25 235 l-505 0 l0 42 l503 0 q-4 88 -4 193 l46 5 q-1 -103 3 -198 l294 0 l0 -42 l-291 0 q14 -236 60 -380 q85 131 118 273 ZM159 459 l323 0 l0 -271 l-323 0 l0 271 ZM438 419 l-235 0 l0 -191 l235 0 l0 191 ZM63 3 l464 126 l18 -37 l-452 -131 l-30 42 ZM679 750 l39 23 q65 -58 109 -110 l-27 -36 q-55 65 -121 123 Z" /><glyph glyph-name="" unicode="&#x6218;" d="M228 801 l46 0 l0 -192 l210 0 l0 -42 l-210 0 l0 -212 l156 0 l0 -429 l-46 0 l0 78 l-243 0 l0 -93 l-46 0 l0 444 l133 0 l0 446 ZM453 488 l160 21 q-11 135 -11 291 l47 5 q-3 -156 8 -290 l272 37 l9 -42 l-277 -37 q15 -157 44 -270 q99 85 160 187 l31 -36 q-73 -109 -179 -197 q27 -90 60 -142 q41 -61 75 -57 q26 -4 46 42 q13 30 28 95 q14 -27 36 -35 q-5 -22 -13 -43 q-7 -21 -13 -36 q-32 -73 -80 -71 q-63 -3 -116 80 q-34 52 -61 137 q-85 -65 -192 -110 q-12 18 -38 33 q120 46 217 121 q-33 126 -49 296 l-155 -20 l-9 41 ZM141 313 l0 -267 l243 0 l0 267 l-243 0 ZM721 722 l38 25 q71 -64 124 -128 l-30 -31 q-64 75 -132 134 Z" /><glyph glyph-name="" unicode="&#x6237;" d="M185 629 l681 0 l0 -388 l-46 0 l0 71 l-587 0 q-1 -145 -35 -242 q-34 -97 -104 -173 q-18 11 -50 18 q73 76 107 170 q34 95 34 234 l0 310 ZM233 585 l0 -229 l587 0 l0 229 l-587 0 ZM396 777 l37 29 q39 -23 84 -55 q46 -32 83 -64 l-27 -38 q-34 30 -84 66 q-51 36 -93 62 Z" /><glyph glyph-name="" unicode="&#x6240;" d="M441 763 l33 -38 q-45 -16 -124 -30 q-79 -14 -177 -23 l0 -165 l270 0 l0 -317 l-44 0 l0 60 l-229 0 q-7 -108 -31 -187 q-24 -78 -68 -139 q-20 12 -50 14 q57 69 83 166 q25 98 25 239 l0 367 q197 13 312 53 ZM881 763 l31 -39 q-60 -17 -137 -29 q-77 -12 -185 -19 l0 -229 l373 0 l0 -40 l-143 0 l0 -508 l-44 0 l0 508 l-186 0 l0 -84 q0 -144 -27 -238 q-27 -92 -92 -174 q-21 13 -50 19 q67 72 96 161 q30 90 29 223 l0 401 q121 7 200 19 q79 12 135 29 ZM173 342 q0 -27 -1 -52 l227 0 l0 177 l-226 0 l0 -125 Z" /><glyph glyph-name="" unicode="&#x624b;" d="M144 486 l351 0 l0 187 q-99 -8 -189 -12 q-91 -4 -153 -2 q-9 21 -27 44 q121 -1 252 6 q131 7 247 21 q115 14 190 33 l32 -44 q-52 -12 -132 -23 q-80 -11 -172 -19 l0 -191 l315 0 l0 -44 l-315 0 l0 -179 l411 0 l0 -44 l-411 0 l0 -208 q-1 -109 -117 -107 q-43 1 -95 9 q-4 29 -16 50 q59 -11 109 -12 q72 -1 71 69 l0 199 l-452 0 l0 44 l452 0 l0 179 l-351 0 l0 44 Z" /><glyph glyph-name="" unicode="&#x626b;" d="M448 371 l392 0 l0 285 l-415 0 l0 42 l461 0 l0 -791 l-46 0 l0 78 l-433 0 l0 41 l433 0 l0 303 l-392 0 l0 42 ZM37 230 l191 97 l0 222 l-160 0 l0 42 l160 0 l0 213 l46 0 l0 -213 l133 0 l0 -42 l-133 0 l0 -198 l117 60 l23 -32 l-140 -75 l0 -306 q1 -94 -86 -92 q-35 1 -72 8 q-2 24 -15 47 q25 -4 49 -7 q24 -3 35 -3 q44 -3 43 51 l0 278 l-157 -84 l-34 34 Z" /><glyph glyph-name="" unicode="&#x626c;" d="M416 741 l445 0 l0 -35 q-69 -61 -171 -133 q-103 -71 -189 -122 l424 0 l-25 -412 q-7 -133 -129 -130 q-39 0 -74 5 q-2 25 -16 48 q49 -8 89 -9 q43 -1 63 20 q20 22 23 71 l22 367 l-98 0 q-40 -191 -137 -317 q-96 -125 -212 -183 q-15 17 -46 28 q137 63 229 191 q91 127 120 281 l-108 0 q-40 -107 -102 -182 q-61 -75 -151 -127 q-16 17 -44 27 q178 92 252 282 l-72 0 q-48 0 -91 -7 l-23 44 q18 3 31 9 q14 6 35 19 q77 46 166 107 q89 61 163 118 l-374 0 l0 40 ZM217 803 l46 0 l0 -210 l135 0 l0 -42 l-135 0 l0 -213 l116 51 l22 -31 l-138 -64 l0 -293 q2 -96 -92 -93 q-11 0 -30 2 q-19 2 -33 5 q-2 25 -15 47 q40 -9 74 -9 q50 -2 50 50 l0 270 l-154 -70 l-31 34 l185 81 l0 233 l-151 0 l0 42 l151 0 l0 210 Z" /><glyph glyph-name="" unicode="&#x6279;" d="M39 245 l158 73 l0 217 l-137 0 l0 40 l137 0 l0 225 l44 0 l0 -225 l126 0 l0 -40 l-126 0 l0 -196 l110 51 l22 -29 l-132 -66 l0 -298 q1 -89 -94 -90 q-32 0 -64 6 q-1 22 -13 47 q42 -8 76 -8 q54 -3 51 49 l0 273 l-127 -63 l-31 34 ZM904 584 l40 -27 q-46 -37 -103 -73 q-57 -37 -114 -68 l0 -402 q-3 -48 49 -44 l67 -1 q48 0 59 47 q10 42 14 80 q21 -22 41 -31 q-5 -35 -14 -66 q-16 -75 -95 -73 l-76 -1 q-92 -3 -91 90 l0 784 l46 0 l0 -336 q104 59 177 121 ZM428 798 l46 0 l0 -305 l155 0 l0 -42 l-155 0 l0 -448 l139 92 l29 -29 l-172 -116 q-16 -10 -36 -34 l-28 34 q13 15 18 30 q4 16 4 44 l0 774 Z" /><glyph glyph-name="" unicode="&#x627e;" d="M859 398 l32 -34 q-78 -107 -194 -191 q29 -103 65 -158 q43 -62 79 -59 q30 -3 50 44 q13 30 28 95 q16 -27 37 -35 q-5 -22 -13 -43 q-7 -21 -13 -36 q-32 -74 -86 -71 q-65 -3 -119 80 q-39 58 -67 156 q-116 -76 -252 -126 q-17 22 -39 34 q154 54 278 137 q-30 121 -46 281 l-181 -24 l-9 42 l187 24 q-11 133 -11 286 l48 5 q-2 -153 9 -285 l279 37 l9 -41 l-285 -38 q14 -148 40 -258 q109 80 174 178 ZM43 215 l188 88 l0 243 l-163 0 l0 42 l163 0 l0 216 l46 0 l0 -216 l138 0 l0 -42 l-138 0 l0 -222 l132 62 l22 -33 l-154 -75 l0 -280 q1 -94 -86 -92 q-35 1 -72 8 q-2 24 -15 47 q25 -4 49 -7 q24 -3 35 -3 q44 -3 43 51 l0 253 l-155 -75 l-33 35 ZM697 744 l39 23 q70 -63 127 -133 l-29 -36 q-31 39 -67 77 q-36 38 -70 69 Z" /><glyph glyph-name="" unicode="&#x6280;" d="M644 805 l44 0 l0 -175 l250 0 l0 -42 l-250 0 l0 -160 l179 0 l0 -38 q-57 -173 -169 -289 q112 -105 272 -164 q-28 -17 -42 -40 q-155 70 -262 173 q-113 -101 -293 -175 q-15 21 -41 37 q191 68 303 171 q-104 116 -167 283 l-43 0 l0 42 l219 0 l0 160 l-247 0 l0 42 l247 0 l0 175 ZM217 804 l44 0 l0 -225 l115 0 l0 -42 l-115 0 l0 -218 l104 50 l24 -28 l-128 -66 l0 -275 q0 -90 -84 -90 q-14 0 -36 3 q-22 3 -38 5 q-3 24 -17 45 q24 -4 48 -7 q23 -3 38 -3 q47 -3 45 53 l0 246 l-143 -74 l-33 34 l176 85 l0 240 l-156 0 l0 42 l156 0 l0 225 ZM820 386 l-308 0 q57 -147 155 -253 q104 112 153 253 Z" /><glyph glyph-name="" unicode="&#x628a;" d="M449 716 l447 0 l0 -400 l-401 0 l0 -280 q-1 -70 72 -65 l242 -1 q39 1 59 14 q20 13 30 44 q13 41 21 83 q17 -24 37 -34 q-8 -37 -19 -72 q-14 -43 -43 -61 q-29 -18 -82 -17 l-247 -1 q-116 -3 -116 110 l0 680 ZM33 229 l189 94 l0 242 l-161 0 l0 42 l161 0 l0 198 l46 0 l0 -198 l132 0 l0 -42 l-132 0 l0 -219 l113 57 l23 -30 l-136 -72 l0 -301 q2 -97 -102 -96 q-36 1 -69 6 q-2 23 -14 47 q45 -8 83 -9 q57 -1 56 56 l0 273 l-156 -82 l-33 34 ZM850 674 l-156 0 l0 -316 l156 0 l0 316 ZM495 674 l0 -316 l155 0 l0 316 l-155 0 Z" /><glyph glyph-name="" unicode="&#x6293;" d="M865 764 l32 -37 q-47 -12 -98 -22 q1 -227 20 -373 q19 -147 58 -238 q39 -91 102 -153 q-31 -4 -52 -23 q-59 74 -96 168 q-38 95 -56 240 q-18 145 -21 371 q-57 -9 -116 -16 l0 -758 l-44 0 l0 754 q-63 -6 -126 -8 l0 -267 q0 -165 -35 -291 q-35 -125 -101 -205 q-21 15 -51 19 q141 152 143 478 l0 305 q128 3 248 18 q119 16 193 38 ZM23 229 l177 98 l0 235 l-151 0 l0 40 l151 0 l0 203 l44 0 l0 -203 l133 0 l0 -40 l-133 0 l0 -211 l117 65 l25 -29 l-142 -83 l0 -308 q-2 -93 -91 -90 q-35 1 -65 6 q-2 25 -14 46 q40 -7 78 -8 q49 -2 48 50 l0 278 l-140 -82 l-37 33 Z" /><glyph glyph-name="" unicode="&#x6295;" d="M416 347 l440 0 l0 -36 q-63 -147 -165 -242 q107 -85 268 -131 q-29 -16 -44 -42 q-152 51 -259 141 q-113 -87 -283 -140 q-16 21 -42 36 q170 45 289 137 q-98 97 -152 235 l-52 0 l0 42 ZM210 805 l46 0 l0 -214 l132 0 l0 -42 l-132 0 l0 -194 l109 58 l25 -30 l-134 -74 l0 -308 q1 -93 -86 -91 q-35 1 -72 8 q-2 24 -15 47 q25 -4 49 -7 q24 -3 35 -3 q44 -3 43 51 l0 277 l-140 -77 l-35 33 l175 92 l0 218 l-154 0 l0 42 l154 0 l0 214 ZM511 750 l281 0 l-7 -208 q-2 -43 13 -59 q15 -17 53 -17 q20 0 53 3 q33 2 53 6 q-11 -28 -8 -50 q-22 -2 -49 -4 q-27 -1 -50 -1 q-58 -1 -85 27 q-27 27 -25 92 l5 169 l-188 0 q1 -27 0 -63 q0 -37 -2 -61 q-5 -70 -36 -117 q-31 -48 -84 -80 q-17 19 -44 27 q61 34 89 74 q27 40 31 104 q2 27 2 75 q0 49 -2 83 ZM801 305 l-287 0 q57 -123 142 -205 q95 88 145 205 Z" /><glyph glyph-name="" unicode="&#x6296;" d="M37 230 l181 92 l0 224 l-154 0 l0 42 l154 0 l0 216 l46 0 l0 -216 l139 0 l0 -42 l-139 0 l0 -201 l129 66 l23 -32 l-152 -81 l0 -300 q1 -94 -86 -92 q-35 1 -72 8 q-2 24 -15 47 q25 -4 49 -7 q24 -3 35 -3 q44 -3 43 51 l0 272 l-147 -78 l-34 34 ZM759 801 l46 0 l0 -582 l153 23 l7 -42 l-160 -24 l0 -288 l-46 0 l0 281 l-365 -55 l-10 41 l375 57 l0 589 ZM479 678 l35 24 q40 -32 83 -73 q43 -41 69 -72 l-24 -36 q-36 39 -80 82 q-44 42 -83 75 ZM447 445 l34 26 q41 -31 83 -70 q42 -39 69 -70 l-27 -35 q-33 36 -76 77 q-43 40 -83 72 Z" /><glyph glyph-name="" unicode="&#x62cd;" d="M650 807 l45 -14 q-25 -77 -57 -137 l258 0 l0 -758 l-46 0 l0 98 l-359 0 l0 -98 l-46 0 l0 758 l144 0 q18 32 34 72 q17 39 27 79 ZM491 307 l0 -270 l359 0 l0 270 l-359 0 ZM491 614 l0 -265 l359 0 l0 265 l-359 0 ZM33 241 l185 69 l0 239 l-156 0 l0 42 l156 0 l0 209 l46 0 l0 -209 l126 0 l0 -42 l-126 0 l0 -221 l112 42 l21 -31 l-133 -53 l0 -294 q-1 -47 -26 -69 q-25 -21 -68 -21 q-34 1 -67 6 q-1 22 -12 48 q18 -3 40 -6 q22 -3 37 -3 q51 -2 50 52 l0 268 l-159 -63 l-26 37 Z" /><glyph glyph-name="" unicode="&#x62d2;" d="M448 736 l478 0 l0 -42 l-432 0 l0 -208 l387 0 l0 -290 l-387 0 l0 -217 l459 0 l0 -42 l-505 0 l0 799 ZM837 446 l-343 0 l0 -210 l343 0 l0 210 ZM32 247 l181 71 l0 234 l-154 0 l0 42 l154 0 l0 206 l46 0 l0 -206 l134 0 l0 -42 l-134 0 l0 -216 l111 44 l22 -33 l-133 -56 l0 -284 q-2 -93 -96 -95 q-37 0 -65 5 q-1 22 -16 49 q44 -8 80 -9 q51 -1 51 55 l0 260 l-152 -63 l-29 38 Z" /><glyph glyph-name="" unicode="&#x62d3;" d="M401 726 l527 0 l0 -42 l-291 0 q-30 -152 -97 -283 l333 0 l0 -504 l-46 0 l0 85 l-287 0 l0 -85 l-46 0 l0 422 q-61 -95 -140 -169 q-16 12 -45 20 q224 210 280 514 l-188 0 l0 42 ZM540 359 l0 -336 l287 0 l0 336 l-287 0 ZM35 239 l173 95 l0 213 l-146 0 l0 42 l146 0 l0 212 l46 0 l0 -212 l128 0 l0 -42 l-128 0 l0 -188 l109 60 l25 -30 l-134 -78 l0 -307 q-2 -93 -96 -95 q-37 0 -65 5 q-1 22 -16 49 q44 -8 80 -9 q51 -1 51 55 l0 276 l-139 -80 l-34 34 Z" /><glyph glyph-name="" unicode="&#x62d6;" d="M636 571 l44 0 l0 -153 l202 66 l-7 -257 q-1 -90 -81 -88 q-24 0 -52 3 q-3 23 -16 43 q32 -3 63 -4 q44 -3 44 53 l6 194 l-159 -52 l0 -309 l-44 0 l0 295 l-149 -48 l0 -287 q-1 -57 60 -56 l287 -1 q31 1 49 14 q17 14 27 46 q7 23 14 56 q16 -24 37 -33 q-5 -23 -11 -45 q-13 -43 -39 -61 q-27 -18 -74 -17 l-287 -1 q-57 0 -82 22 q-26 22 -25 74 l0 274 l-85 -27 l-17 36 l102 33 l0 144 l44 0 l0 -130 l149 49 l0 167 ZM208 805 l46 0 l0 -200 l116 0 l0 -42 l-116 0 l0 -198 l105 54 l24 -30 l-129 -70 l0 -324 q1 -94 -86 -92 q-35 1 -72 8 q-2 24 -15 47 q25 -4 49 -7 q24 -3 35 -3 q44 -4 43 52 l0 294 l-138 -75 l-35 33 l173 89 l0 222 l-142 0 l0 42 l142 0 l0 200 ZM525 812 l40 -22 q-19 -64 -46 -123 l421 0 l0 -40 l-441 0 q-50 -94 -116 -164 q-19 10 -44 16 q63 65 112 152 q49 88 74 181 Z" /><glyph glyph-name="" unicode="&#x62db;" d="M887 315 l0 -419 l-46 0 l0 80 l-358 0 l0 -80 l-46 0 l0 419 l450 0 ZM483 273 l0 -256 l358 0 l0 256 l-358 0 ZM23 229 l178 101 l0 232 l-152 0 l0 40 l152 0 l0 203 l44 0 l0 -203 l132 0 l0 -40 l-132 0 l0 -207 l109 63 l25 -29 l-134 -81 l0 -312 q-2 -93 -91 -90 q-35 1 -65 6 q-2 25 -14 46 q40 -7 78 -8 q49 -2 48 50 l0 281 l-141 -85 l-37 33 ZM422 744 l478 0 l-18 -238 q-11 -125 -125 -123 q-42 0 -77 5 q0 25 -13 48 q48 -8 89 -9 q73 -2 80 85 l15 190 l-238 0 q-5 -139 -50 -221 q-45 -83 -143 -146 q-19 17 -48 24 q102 62 147 140 q45 77 48 203 l-145 0 l0 42 Z" /><glyph glyph-name="" unicode="&#x62df;" d="M199 802 l44 0 l0 -212 l129 0 l0 -40 l-129 0 l0 -183 l109 55 l26 -30 l-135 -70 l0 -328 q-4 -93 -92 -90 q-34 1 -67 6 q-1 22 -12 48 q18 -3 40 -6 q22 -3 37 -3 q51 -2 50 51 l0 299 l-138 -72 l-28 35 l166 83 l0 205 l-145 0 l0 40 l145 0 l0 212 ZM814 784 l43 -4 q1 -100 -2 -208 q-4 -108 -9 -177 q-10 -121 -45 -211 q40 -50 84 -111 q43 -61 80 -117 l-34 -37 q-31 52 -73 112 q-41 60 -77 107 q-75 -146 -238 -240 q-14 17 -40 30 q141 76 213 187 q72 110 86 286 q5 54 9 157 q3 102 3 226 ZM412 704 l44 0 l0 -609 l162 142 l34 -27 l-184 -163 q-23 -20 -48 -49 l-29 35 q23 23 21 75 l0 596 ZM542 758 l44 8 q30 -54 65 -130 q36 -77 62 -145 l-36 -27 q-26 66 -63 147 q-37 82 -72 147 Z" /><glyph glyph-name="" unicode="&#x62e5;" d="M429 750 l474 0 l0 -742 q3 -108 -97 -105 q-12 0 -28 1 q-17 1 -30 3 q-2 27 -17 48 q42 -7 73 -8 q56 -2 55 62 l0 203 l-175 0 l0 -278 l-44 0 l0 278 l-169 0 q-6 -105 -33 -179 q-27 -74 -78 -132 q-24 12 -52 15 q61 60 91 145 q30 86 30 225 l0 464 ZM204 803 l44 0 l0 -212 l131 0 l0 -40 l-131 0 l0 -207 l116 60 l24 -30 l-140 -75 l0 -298 q2 -96 -84 -93 q-11 0 -31 2 q-20 3 -38 5 q-2 25 -15 47 q49 -8 84 -9 q41 -4 40 50 l0 273 l-144 -77 l-32 32 l176 90 l0 230 l-143 0 l0 40 l143 0 l0 212 ZM684 462 l0 -210 l175 0 l0 210 l-175 0 ZM859 710 l-175 0 l0 -208 l175 0 l0 208 ZM473 290 q0 -20 -1 -38 l168 0 l0 210 l-167 0 l0 -172 ZM473 710 l0 -208 l167 0 l0 208 l-167 0 Z" /><glyph glyph-name="" unicode="&#x62e9;" d="M384 747 l481 0 l0 -38 q-77 -120 -179 -194 q118 -71 283 -101 q-23 -20 -37 -43 q-166 42 -284 117 q-107 -67 -247 -115 q-13 19 -39 36 q142 43 247 106 q-105 78 -171 190 l-54 0 l0 42 ZM30 259 l171 61 l0 236 l-139 0 l0 40 l139 0 l0 209 l44 0 l0 -209 l121 0 l0 -40 l-121 0 l0 -220 l107 39 l21 -34 l-128 -49 l0 -293 q-2 -89 -88 -90 q-34 0 -69 5 q-3 24 -13 45 q48 -8 77 -8 q49 -1 49 49 l0 275 l-142 -54 l-29 38 ZM360 116 l265 0 l0 132 l-211 0 l0 42 l211 0 l0 116 l46 0 l0 -116 l213 0 l0 -42 l-213 0 l0 -132 l268 0 l0 -42 l-268 0 l0 -178 l-46 0 l0 178 l-265 0 l0 42 ZM807 705 l-317 0 q64 -99 157 -165 q99 68 160 165 Z" /><glyph glyph-name="" unicode="&#x62fd;" d="M588 800 l44 5 l0 -155 l232 0 l0 -393 l-215 0 q8 -52 22 -94 q8 -24 18 -46 q101 47 186 114 l36 -29 q-87 -71 -201 -125 q36 -59 78 -93 q42 -35 75 -36 q32 -2 45 54 q5 18 10 43 q5 25 8 47 q20 -24 40 -30 q-3 -20 -7 -41 q-4 -21 -7 -32 q-20 -86 -88 -87 q-46 1 -99 44 q-53 44 -96 113 q-146 -60 -329 -92 q-11 26 -36 38 q186 28 345 94 q-11 24 -20 50 q-16 47 -25 108 l-217 0 l0 393 l201 0 l0 150 ZM37 243 l160 78 l0 224 l-142 0 l0 40 l142 0 l0 219 l44 0 l0 -219 l102 0 l0 -40 l-102 0 l0 -203 l90 44 l27 -31 l-117 -60 l0 -295 q1 -94 -88 -93 q-33 1 -66 6 q0 25 -15 46 q50 -8 80 -9 q47 -3 45 52 l0 270 l-122 -62 l-38 33 ZM822 610 l-190 0 q0 -75 2 -136 l188 0 l0 136 ZM644 297 l178 0 l0 137 l-187 0 q2 -79 9 -137 ZM600 297 q-6 58 -9 137 l-162 0 l0 -137 l171 0 ZM429 610 l0 -136 l161 0 q-1 61 -2 136 l-159 0 Z" /><glyph glyph-name="" unicode="&#x6301;" d="M39 224 l170 85 l0 233 l-149 0 l0 42 l149 0 l0 217 l46 0 l0 -217 l116 0 l0 -42 l-116 0 l0 -210 l102 51 l28 -30 l-130 -68 l0 -292 q-1 -47 -26 -69 q-25 -21 -68 -21 q-34 1 -67 6 q-1 22 -12 48 q18 -3 40 -6 q22 -3 37 -3 q51 -2 50 52 l0 261 l-139 -73 l-31 36 ZM367 465 l259 0 l0 158 l-219 0 l0 42 l219 0 l0 139 l46 0 l0 -139 l225 0 l0 -42 l-225 0 l0 -158 l279 0 l0 -42 l-584 0 l0 42 ZM758 394 l46 0 l0 -123 l135 0 l0 -42 l-135 0 l0 -232 q-4 -96 -102 -96 q-14 0 -35 2 q-20 1 -35 3 q-3 26 -16 48 q42 -7 82 -8 q58 2 60 60 l0 223 l-372 0 l0 42 l372 0 l0 123 ZM434 151 l37 28 q36 -27 74 -60 q37 -33 62 -60 l-27 -38 q-29 32 -68 67 q-39 34 -78 63 Z" /><glyph glyph-name="" unicode="&#x6302;" d="M203 804 l46 0 l0 -225 l123 0 l0 -42 l-123 0 l0 -205 l115 41 l19 -33 l-134 -52 l0 -288 q1 -91 -100 -92 q-22 0 -55 5 q-2 24 -15 47 q45 -9 68 -9 q58 1 56 50 l0 270 l-140 -54 l-28 38 l168 60 l0 222 l-147 0 l0 42 l147 0 l0 225 ZM350 -24 l287 0 l0 183 l-218 0 l0 42 l218 0 l0 136 l46 0 l0 -136 l223 0 l0 -42 l-223 0 l0 -183 l277 0 l0 -42 l-610 0 l0 42 ZM386 426 l251 0 l0 168 l-209 0 l0 42 l209 0 l0 168 l46 0 l0 -168 l214 0 l0 -42 l-214 0 l0 -168 l259 0 l0 -42 l-556 0 l0 42 Z" /><glyph glyph-name="" unicode="&#x6307;" d="M442 342 l435 0 l0 -446 l-46 0 l0 70 l-343 0 l0 -70 l-46 0 l0 446 ZM206 804 l46 0 l0 -211 l117 0 l0 -42 l-117 0 l0 -206 l114 59 l23 -29 l-137 -75 l0 -302 q0 -92 -86 -91 q-33 0 -69 5 q-1 26 -15 49 q44 -8 81 -9 q44 -3 43 50 l0 273 l-141 -77 l-35 32 l176 91 l0 230 l-146 0 l0 42 l146 0 l0 211 ZM857 759 l31 -33 q-194 -91 -402 -139 l0 -32 q-1 -72 75 -71 l222 0 q66 -3 84 55 q9 28 17 71 q15 -20 39 -29 q-6 -31 -17 -63 q-26 -76 -120 -75 l-224 0 q-124 -3 -120 113 l0 248 l44 0 l0 -174 q191 47 371 129 ZM488 134 l0 -129 l343 0 l0 129 l-343 0 ZM488 302 l0 -128 l343 0 l0 128 l-343 0 Z" /><glyph glyph-name="" unicode="&#x6311;" d="M199 804 l46 0 l0 -213 l122 0 l0 -42 l-122 0 l0 -211 l120 59 l23 -31 l-143 -72 l0 -293 q1 -97 -89 -95 q-11 0 -30 2 q-19 2 -36 7 q-2 24 -14 45 q46 -10 78 -10 q44 -2 45 53 l0 268 l-131 -66 l-31 32 l162 79 l0 233 l-141 0 l0 42 l141 0 l0 213 ZM711 802 l46 0 l0 -438 q42 -28 98 -70 q55 -42 92 -73 l-23 -38 q-80 66 -167 131 l0 -299 q-1 -50 57 -50 l42 -1 q49 -3 64 48 q8 27 15 55 q16 -24 35 -34 q-5 -21 -11 -37 q-14 -43 -36 -60 q-23 -16 -61 -15 l-51 -1 q-101 0 -100 90 l0 792 ZM331 198 l216 176 l0 45 l0 382 l46 0 l0 -387 q0 -163 -22 -265 q-23 -102 -72 -160 q-49 -60 -127 -94 q-16 19 -48 29 q80 37 127 83 q47 48 68 123 q22 74 26 193 l-177 -153 l-37 28 ZM897 645 l39 -24 q-30 -54 -63 -103 q-33 -48 -66 -85 l-35 19 q35 41 70 97 q36 55 55 96 ZM374 623 l40 17 q24 -38 52 -90 q28 -51 46 -93 l-38 -23 q-18 42 -45 94 q-27 52 -55 95 Z" /><glyph glyph-name="" unicode="&#x632f;" d="M973 -49 q-33 -14 -49 -36 q-112 85 -169 187 q-57 101 -84 237 l-91 0 l0 -374 l129 66 l26 -31 l-149 -81 q-25 -13 -46 -32 l-23 35 q10 16 14 31 q3 15 3 37 l0 349 l-77 0 q0 -132 -33 -237 q-32 -105 -102 -195 q-19 14 -50 15 q72 85 106 186 q33 101 33 244 l0 385 l510 0 l0 -42 l-464 0 l0 -314 l490 0 l0 -42 l-235 0 q20 -91 56 -168 q74 58 118 109 l38 -27 q-60 -63 -136 -118 q66 -119 185 -184 ZM195 805 l44 0 l0 -221 l121 0 l0 -40 l-121 0 l0 -213 l103 50 l24 -29 l-127 -66 l0 -288 q-5 -89 -100 -89 q-27 0 -58 4 q-4 25 -17 49 q47 -9 74 -9 q56 -2 57 50 l0 261 l-127 -65 l-33 34 l160 77 l0 234 l-138 0 l0 40 l138 0 l0 221 ZM518 559 l350 0 l0 -42 l-350 0 l0 42 Z" /><glyph glyph-name="" unicode="&#x6355;" d="M639 803 l46 0 l0 -157 l272 0 l0 -42 l-272 0 l0 -110 l224 0 l0 -489 q0 -98 -94 -98 q-25 0 -52 4 q-3 24 -16 46 q35 -7 62 -7 q57 -1 56 60 l0 106 l-180 0 l0 -187 l-46 0 l0 187 l-180 0 l0 -222 l-44 0 l0 600 l224 0 l0 110 l-253 0 l0 42 l253 0 l0 157 ZM205 805 l46 0 l0 -200 l117 0 l0 -42 l-117 0 l0 -200 l108 56 l24 -30 l-132 -72 l0 -322 q1 -94 -86 -92 q-35 1 -72 8 q-2 24 -15 47 q25 -4 49 -7 q24 -3 35 -3 q44 -4 43 52 l0 292 l-135 -73 l-35 33 l170 87 l0 224 l-139 0 l0 42 l139 0 l0 200 ZM459 454 l0 -129 l180 0 l0 129 l-180 0 ZM685 285 l0 -129 l180 0 l0 129 l-180 0 ZM865 454 l-180 0 l0 -129 l180 0 l0 129 ZM459 285 l0 -129 l180 0 l0 129 l-180 0 ZM727 751 l35 29 q33 -18 65 -39 q32 -21 54 -39 l-23 -40 q-57 48 -131 89 Z" /><glyph glyph-name="" unicode="&#x635f;" d="M449 746 l409 0 l0 -228 l-409 0 l0 228 ZM42 215 l164 94 l0 233 l-144 0 l0 42 l144 0 l0 217 l46 0 l0 -217 l121 0 l0 -42 l-121 0 l0 -206 l89 51 l28 -28 l-117 -71 l0 -295 q-1 -47 -26 -69 q-25 -21 -68 -21 q-34 1 -67 6 q-1 22 -12 48 q18 -3 40 -6 q22 -3 37 -3 q51 -2 50 52 l0 261 l-132 -79 l-32 33 ZM814 706 l-321 0 l0 -148 l321 0 l0 148 ZM419 432 l470 0 l0 -337 l-44 0 l0 297 l-382 0 l0 -298 l-44 0 l0 338 ZM634 327 l45 -5 q0 -28 -1 -49 q-2 -21 -4 -44 q-12 -140 -87 -218 q-76 -76 -218 -115 q-18 21 -47 33 q150 39 226 109 q75 70 82 195 q2 23 3 44 q1 22 1 50 ZM685 65 l31 31 q34 -19 82 -50 q48 -30 92 -58 q44 -30 66 -47 l-20 -43 q-23 20 -72 53 q-48 33 -99 65 q-51 32 -80 49 Z" /><glyph glyph-name="" unicode="&#x6362;" d="M419 502 l221 0 l118 153 l-239 0 q-29 -49 -61 -92 q-33 -43 -63 -71 q-19 15 -44 18 q63 62 113 139 q50 76 78 156 l38 -26 q-15 -41 -38 -84 l273 0 l0 -34 l-123 -159 l186 0 l0 -277 l91 0 l0 -40 l-293 0 q42 -86 112 -149 q69 -61 177 -107 q-37 -15 -52 -32 q-98 49 -163 111 q-64 63 -106 155 q-28 -84 -98 -152 q-71 -67 -192 -117 q-16 16 -48 28 q126 45 200 111 q73 68 99 152 l-275 0 l0 40 l89 0 l0 277 ZM37 242 l155 89 l0 223 l-129 0 l0 42 l129 0 l0 207 l45 0 l0 -207 l108 0 l0 -42 l-108 0 l0 -197 l95 55 l26 -29 l-121 -74 l0 -313 q-2 -90 -86 -90 q-35 0 -71 5 q-2 24 -13 49 q41 -8 77 -8 q47 -4 48 49 l0 280 l-119 -72 l-36 33 ZM834 462 l-164 0 q1 -50 -1 -105 q-2 -54 -6 -103 q-1 -15 -4 -29 l175 0 l0 237 ZM463 462 l0 -237 l152 0 q3 17 4 33 q9 105 7 204 l-163 0 Z" /><glyph glyph-name="" unicode="&#x636e;" d="M479 220 l184 0 l0 131 l-219 0 q-2 -135 -30 -239 q-29 -104 -91 -197 q-20 11 -50 12 q67 90 97 198 q31 108 30 265 l0 360 l496 0 l0 -226 l-189 0 l0 -133 l251 0 l0 -40 l-251 0 l0 -131 l186 0 l0 -324 l-44 0 l0 68 l-326 0 l0 -68 l-44 0 l0 324 ZM29 244 l156 78 l0 223 l-131 0 l0 40 l131 0 l0 218 l44 0 l0 -218 l122 0 l0 -40 l-122 0 l0 -201 l111 56 l23 -30 l-134 -73 l0 -303 q3 -86 -96 -85 q-13 0 -32 1 q-18 1 -32 3 q-1 21 -14 46 q39 -5 75 -6 q57 0 55 48 l0 273 l-121 -65 l-35 35 ZM444 710 l0 -145 l408 0 l0 145 l-408 0 ZM523 180 l0 -177 l326 0 l0 177 l-326 0 ZM444 524 l0 -133 l219 0 l0 133 l-219 0 Z" /><glyph glyph-name="" unicode="&#x638c;" d="M68 82 l416 0 l0 72 l-299 0 l0 38 l299 0 l0 68 q-175 -5 -336 -4 q-1 24 -18 40 q183 -1 370 4 q188 5 324 17 l27 -39 q-138 -11 -323 -17 l0 -69 l287 0 l0 -38 l-287 0 l0 -72 l402 0 l0 -38 l-402 0 l0 -49 q4 -98 -106 -96 q-38 0 -68 4 q2 25 -14 46 q51 -8 79 -8 q37 0 51 13 q15 13 14 45 l0 45 l-416 0 l0 38 ZM252 532 l494 0 l0 -165 l-494 0 l0 165 ZM767 779 l36 -27 q-62 -64 -130 -109 l237 0 l0 -178 l-44 0 l0 138 l-734 0 l0 -138 l-44 0 l0 178 l254 0 q-73 61 -157 106 l37 29 q78 -41 147 -98 l-19 -37 l127 0 l0 162 l44 0 l0 -162 l129 0 q-13 10 -28 16 q35 23 73 54 q39 31 72 66 ZM702 494 l-406 0 l0 -89 l406 0 l0 89 Z" /><glyph glyph-name="" unicode="&#x63a2;" d="M624 473 l46 0 l0 -132 l263 0 l0 -42 l-243 0 q49 -100 129 -173 q80 -73 157 -104 q-32 -17 -46 -34 q-73 40 -145 110 q-71 70 -115 169 l0 -370 l-46 0 l0 372 q-50 -95 -125 -169 q-75 -74 -147 -116 q-17 16 -44 26 q88 50 168 128 q80 79 125 161 l-236 0 l0 42 l259 0 l0 132 ZM193 805 l44 0 l0 -213 l115 0 l0 -40 l-115 0 l0 -203 l97 49 l26 -29 l-123 -65 l0 -306 q-5 -89 -100 -89 q-27 0 -58 4 q-4 25 -17 49 q47 -9 74 -9 q56 -2 57 50 l0 277 l-125 -66 l-33 34 l158 79 l0 225 l-134 0 l0 40 l134 0 l0 213 ZM386 749 l522 0 l0 -172 l-44 0 l0 130 l-434 0 l0 -134 l-44 0 l0 176 ZM559 634 l42 -20 q-32 -54 -75 -106 q-43 -52 -89 -93 q-16 12 -42 20 q49 41 94 95 q44 54 70 104 ZM694 613 l37 21 q35 -33 82 -86 q48 -53 79 -92 l-29 -34 q-36 47 -82 99 q-45 51 -87 92 Z" /><glyph glyph-name="" unicode="&#x63a5;" d="M349 268 l180 0 q43 72 66 126 l40 -22 q-23 -52 -54 -104 l375 0 l0 -40 l-134 0 q-35 -114 -113 -187 q111 -48 197 -93 l-13 -47 q-98 54 -221 108 q-114 -81 -301 -112 q-6 12 -14 21 q-8 9 -24 20 q169 21 288 94 q-112 50 -196 81 q37 46 79 115 l-155 0 l0 40 ZM30 228 l159 89 l0 231 l-136 0 l0 40 l136 0 l0 215 l44 0 l0 -215 l115 0 l0 -40 l-115 0 l0 -207 l101 57 l26 -29 l-127 -76 l0 -297 q3 -86 -96 -85 q-13 0 -32 1 q-18 1 -32 3 q-1 21 -14 46 q39 -5 75 -6 q57 0 55 48 l0 264 l-124 -73 l-35 34 ZM799 626 l40 -20 q-22 -36 -48 -72 q-26 -35 -64 -78 l211 0 l0 -40 l-575 0 l0 40 l310 0 q86 101 126 170 ZM492 130 q69 -25 170 -68 q76 63 113 166 l-217 0 q-37 -59 -66 -98 ZM543 779 l37 28 q68 -44 128 -98 l-18 -26 l226 0 l0 -40 l-531 0 l0 40 l288 0 q-68 55 -130 96 ZM463 591 l41 21 q22 -20 51 -54 q29 -33 50 -64 l-30 -32 q-47 65 -112 129 Z" /><glyph glyph-name="" unicode="&#x63a7;" d="M189 804 l46 0 l0 -217 l119 0 l0 -42 l-119 0 l0 -205 l115 57 l23 -31 l-138 -71 l0 -295 q-3 -91 -100 -91 q-22 0 -56 5 q-2 24 -14 47 q41 -9 70 -9 q53 -2 54 50 l0 269 l-123 -63 l-31 33 l154 76 l0 228 l-132 0 l0 42 l132 0 l0 217 ZM371 -23 l272 0 l0 260 l-195 0 l0 42 l439 0 l0 -42 l-198 0 l0 -260 l271 0 l0 -42 l-589 0 l0 42 ZM570 781 l36 24 q64 -54 116 -110 l-23 -29 l229 0 l0 -163 l-44 0 l0 121 l-433 0 l0 -121 l-44 0 l0 163 l283 0 q-61 67 -120 115 ZM563 525 l38 -19 q-78 -115 -187 -206 q-18 16 -46 23 q116 83 195 202 ZM720 505 l33 23 q44 -41 95 -93 q51 -52 89 -98 l-25 -33 q-50 57 -100 110 q-51 53 -92 91 Z" /><glyph glyph-name="" unicode="&#x63cf;" d="M403 434 l497 0 l0 -537 l-44 0 l0 69 l-409 0 l0 -69 l-44 0 l0 537 ZM38 223 l175 89 l0 229 l-157 0 l0 40 l157 0 l0 222 l44 0 l0 -222 l118 0 l0 -40 l-118 0 l0 -207 l95 49 l22 -27 l-117 -64 l0 -296 q1 -90 -89 -90 q-16 0 -35 2 q-19 1 -33 3 q-1 25 -13 45 q20 -3 42 -6 q21 -2 37 -2 q49 -3 47 50 l0 270 l-144 -79 l-31 34 ZM740 803 l44 0 l0 -156 l171 0 l0 -40 l-171 0 l0 -117 l-44 0 l0 117 l-177 0 l0 -117 l-44 0 l0 117 l-159 0 l0 40 l159 0 l0 156 l44 0 l0 -156 l177 0 l0 156 ZM672 181 l0 -176 l184 0 l0 176 l-184 0 ZM447 181 l0 -176 l183 0 l0 176 l-183 0 ZM856 394 l-184 0 l0 -175 l184 0 l0 175 ZM447 394 l0 -175 l183 0 l0 175 l-183 0 Z" /><glyph glyph-name="" unicode="&#x63d0;" d="M444 751 l425 0 l0 -326 l-425 0 l0 326 ZM452 240 l42 -11 q-6 -33 -13 -63 q52 -143 150 -172 l0 301 l-266 0 l0 40 l571 0 l0 -40 l-261 0 l0 -129 l221 0 l0 -38 l-221 0 l0 -148 q11 -1 23 -3 q54 -7 134 -8 q80 -2 132 0 q-11 -21 -15 -44 q-30 0 -80 1 q-51 1 -101 3 q-51 3 -81 7 q-158 21 -222 171 q-22 -69 -57 -118 q-35 -50 -87 -89 q-13 12 -41 22 q78 54 117 129 q40 76 55 189 ZM36 251 l162 84 l0 219 l-143 0 l0 40 l143 0 l0 210 l44 0 l0 -210 l126 0 l0 -40 l-126 0 l0 -196 l110 58 l28 -28 l-138 -76 l0 -313 q1 -96 -88 -92 q-31 1 -66 6 q-2 26 -15 47 q47 -8 80 -9 q47 -4 45 51 l0 286 l-123 -68 l-39 31 ZM488 465 l337 0 l0 104 l-337 0 l0 -104 ZM825 711 l-337 0 l0 -104 l337 0 l0 104 Z" /><glyph glyph-name="" unicode="&#x63e1;" d="M383 750 l507 0 l0 -201 l-463 0 l0 -164 q0 -314 -127 -477 q-22 14 -48 14 q67 78 99 191 q32 113 32 275 l0 362 ZM457 123 l196 0 l0 105 l-101 -5 q-24 -1 -41 -4 q-16 -3 -33 -7 l-19 47 q17 5 32 13 q15 8 34 24 q22 19 54 53 q32 33 58 65 l-180 0 l0 40 l453 0 l0 -40 l-219 0 q-33 -39 -70 -78 q-37 -39 -72 -72 l248 12 q-43 39 -89 74 l34 23 q86 -64 166 -141 l-22 -37 q-23 23 -47 44 l-144 -8 l0 -108 l195 0 l0 -40 l-195 0 l0 -117 l254 0 l0 -40 l-541 0 l0 40 l245 0 l0 117 l-196 0 l0 40 ZM33 237 l154 85 l0 231 l-126 0 l0 40 l126 0 l0 211 l44 0 l0 -211 l102 0 l0 -40 l-102 0 l0 -206 l80 44 l25 -29 l-105 -64 l0 -304 q1 -89 -93 -87 q-32 1 -62 6 q-1 25 -15 45 q40 -8 77 -8 q50 -2 49 50 l0 272 l-116 -70 l-38 35 ZM427 710 l0 -121 l421 0 l0 121 l-421 0 Z" /><glyph glyph-name="" unicode="&#x641c;" d="M717 555 l131 0 l0 113 l-138 0 l0 42 l182 0 l0 -351 l-234 0 l0 -96 l217 0 l0 -37 q-83 -114 -196 -191 q121 -68 292 -88 q-25 -21 -36 -47 q-176 35 -298 108 q-138 -80 -311 -112 q-11 22 -35 39 q179 33 306 99 q-106 77 -177 187 l-63 0 l0 42 l257 0 l0 96 l-233 0 l0 337 q99 12 167 45 l32 -35 q-65 -29 -155 -44 l0 -107 l131 0 l0 -40 l-131 0 l0 -114 l189 0 l0 401 l44 0 l0 -401 l190 0 l0 114 l-131 0 l0 40 ZM29 253 l155 70 l0 224 l-131 0 l0 40 l131 0 l0 216 l44 0 l0 -216 l109 0 l0 -40 l-109 0 l0 -204 l91 42 l24 -28 l-115 -58 l0 -298 q-5 -93 -86 -93 q-36 0 -70 7 q-2 22 -13 48 q40 -8 78 -9 q48 -1 47 50 l0 273 l-119 -60 l-36 36 ZM817 221 l-346 0 q70 -96 169 -162 q103 66 177 162 Z" /><glyph glyph-name="" unicode="&#x642d;" d="M434 215 l418 0 l0 -319 l-44 0 l0 62 l-330 0 l0 -62 l-44 0 l0 319 ZM36 237 l160 93 l0 219 l-142 0 l0 42 l142 0 l0 209 l46 0 l0 -209 l118 0 l0 -42 l-118 0 l0 -193 l99 58 l25 -30 l-124 -75 l0 -313 q0 -89 -96 -90 q-32 0 -64 6 q-1 22 -13 47 q42 -8 76 -8 q54 -3 51 49 l0 282 l-129 -77 l-31 32 ZM478 175 l0 -177 l330 0 l0 177 l-330 0 ZM357 696 l151 0 l0 109 l44 0 l0 -109 l184 0 l0 109 l44 0 l0 -109 l158 0 l0 -40 l-158 0 l0 -97 l-44 0 l0 97 l-184 0 l0 -97 l-44 0 l0 97 l-151 0 l0 40 ZM633 607 l41 -22 q-7 -12 -13 -24 q59 -80 135 -136 q75 -57 176 -96 q-29 -13 -45 -39 q-190 97 -288 236 q-50 -76 -116 -135 q-66 -59 -156 -113 q-19 20 -47 29 q104 53 187 131 q84 79 126 169 ZM495 352 l297 0 l0 -40 l-297 0 l0 40 Z" /><glyph glyph-name="" unicode="&#x6444;" d="M351 389 l105 2 l0 323 l-99 0 l0 40 l571 0 l0 -40 l-100 0 l0 -315 l118 3 l4 -41 l-122 -3 l0 -66 l-44 0 l0 65 l-429 -8 l-4 40 ZM33 224 l154 66 l0 249 l-132 0 l0 40 l132 0 l0 223 l44 0 l0 -223 l117 0 l0 -40 l-117 0 l0 -230 l91 40 l23 -28 l-114 -54 l0 -272 q1 -90 -89 -89 q-14 0 -34 2 q-20 1 -33 3 q-1 22 -12 46 q55 -8 77 -8 q49 -3 47 51 l0 247 l-122 -57 l-32 34 ZM632 261 l265 0 l0 -35 q-24 -125 -92 -203 q66 -59 172 -93 q-25 -11 -45 -33 q-95 41 -156 99 q-64 -59 -167 -99 q-12 15 -36 28 q111 41 176 98 q-67 79 -95 200 l-22 0 l0 38 ZM355 148 l30 26 q48 -32 111 -80 q41 55 60 129 l-204 0 l0 38 l249 0 l0 -37 q-23 -88 -73 -155 q57 -44 86 -69 l-22 -37 q-38 35 -90 75 q-75 -79 -191 -141 q-13 14 -40 24 q130 68 199 142 q-67 52 -115 85 ZM500 483 l0 -91 l284 6 l0 85 l-284 0 ZM500 714 l0 -78 l284 0 l0 78 l-284 0 ZM500 598 l0 -77 l284 0 l0 77 l-284 0 ZM854 223 l-162 0 q27 -104 85 -171 q57 66 77 171 Z" /><glyph glyph-name="" unicode="&#x649e;" d="M380 85 l238 0 l0 78 l-217 0 l0 277 l478 0 l0 -277 l-217 0 l0 -78 l238 0 l0 -38 l-238 0 l0 -83 l295 0 l0 -38 l-635 0 l0 38 l296 0 l0 83 l-238 0 l0 38 ZM39 239 l149 91 l0 220 l-125 0 l0 40 l125 0 l0 213 l44 0 l0 -213 l93 0 l0 -40 l-93 0 l0 -193 l94 58 l27 -28 l-121 -79 l0 -311 q-2 -89 -88 -90 q-34 0 -69 5 q-3 24 -13 45 q48 -8 77 -8 q49 -1 49 51 l0 280 l-112 -73 l-37 32 ZM384 704 l275 0 q-24 22 -51 45 q-28 23 -54 41 l40 24 q23 -16 52 -41 q30 -26 51 -48 l-22 -21 l227 0 l0 -38 l-112 0 l31 -20 q-15 -22 -35 -47 q-21 -25 -42 -47 l216 0 l0 -38 l-616 0 l0 38 l192 0 q-37 51 -79 92 l38 20 q53 -52 84 -99 l-19 -13 l132 0 q22 24 47 55 q25 32 40 59 l-395 0 l0 38 ZM443 284 l0 -83 l175 0 l0 83 l-175 0 ZM662 201 l175 0 l0 83 l-175 0 l0 -83 ZM443 402 l0 -82 l175 0 l0 82 l-175 0 ZM837 402 l-175 0 l0 -82 l175 0 l0 82 Z" /><glyph glyph-name="" unicode="&#x64ad;" d="M400 292 l473 0 l0 -396 l-44 0 l0 60 l-385 0 l0 -60 l-44 0 l0 396 ZM354 527 l258 0 l0 178 q-104 -9 -216 -10 q-6 26 -27 42 q128 -2 254 9 q125 11 220 31 l29 -39 q-98 -19 -216 -30 l0 -181 l272 0 l0 -40 l-229 0 q47 -56 123 -102 q77 -46 156 -65 q-26 -13 -40 -39 q-86 30 -161 83 q-76 52 -121 121 l0 -165 l-44 0 l0 164 q-49 -64 -117 -117 q-68 -54 -150 -90 q-15 23 -40 30 q71 26 140 75 q69 48 121 105 l-212 0 l0 40 ZM32 249 l166 86 l0 218 l-134 0 l0 40 l134 0 l0 211 l44 0 l0 -211 l105 0 l0 -40 l-105 0 l0 -196 l86 45 l26 -29 l-112 -61 l0 -313 q1 -94 -87 -92 q-38 1 -70 6 q0 25 -15 45 q47 -8 82 -8 q49 -4 46 51 l0 287 l-129 -70 l-37 31 ZM657 105 l0 -109 l172 0 l0 109 l-172 0 ZM444 105 l0 -109 l171 0 l0 109 l-171 0 ZM829 252 l-172 0 l0 -109 l172 0 l0 109 ZM444 252 l0 -109 l171 0 l0 109 l-171 0 ZM818 684 l33 -25 q-52 -62 -117 -110 q-14 17 -35 22 q71 53 119 113 ZM420 648 l34 20 q55 -39 101 -87 l-24 -33 q-52 55 -111 100 Z" /><glyph glyph-name="" unicode="&#x64cd;" d="M621 302 l44 0 l0 -66 l270 0 l0 -40 l-237 0 q40 -64 108 -124 q69 -59 159 -95 q-29 -18 -40 -38 q-79 37 -150 102 q-71 65 -110 148 l0 -293 l-44 0 l0 294 q-40 -79 -114 -145 q-74 -65 -156 -109 q-16 20 -45 32 q91 39 161 99 q71 59 116 129 l-233 0 l0 40 l271 0 l0 66 ZM457 755 l370 0 l0 -184 l-370 0 l0 184 ZM30 251 l155 84 l0 221 l-128 0 l0 40 l128 0 l0 207 l44 0 l0 -207 l121 0 l0 -40 l-121 0 l0 -197 l102 55 l25 -30 l-127 -73 l0 -314 q-2 -89 -88 -90 q-34 0 -69 5 q-3 24 -13 45 q48 -8 77 -8 q49 -1 49 51 l0 286 l-120 -68 l-35 33 ZM677 508 l237 0 l0 -185 l-237 0 l0 185 ZM380 508 l228 0 l0 -185 l-228 0 l0 185 ZM785 717 l-286 0 l0 -108 l286 0 l0 108 ZM872 470 l-153 0 l0 -109 l153 0 l0 109 ZM566 470 l-144 0 l0 -109 l144 0 l0 109 Z" /><glyph glyph-name="" unicode="&#x64ce;" d="M42 80 l447 0 l0 69 l-327 0 l0 38 l327 0 l0 69 q-96 -3 -190 -4 q-94 -1 -178 0 q-4 21 -18 40 q120 -2 255 -1 q134 2 258 8 q124 5 213 14 l27 -39 q-65 -5 -148 -10 q-83 -4 -175 -7 l0 -70 l306 0 l0 -38 l-306 0 l0 -69 l423 0 l0 -38 l-423 0 l0 -45 q1 -52 -23 -75 q-25 -22 -83 -21 q-14 0 -34 1 q-20 1 -34 3 q0 23 -13 46 q17 -3 39 -6 q22 -2 39 -2 q36 -1 51 12 q15 12 14 45 l0 42 l-447 0 l0 38 ZM649 808 l39 -20 q-16 -55 -35 -101 l271 0 l0 -36 l-82 0 q-28 -119 -93 -198 q84 -62 206 -96 q-25 -15 -36 -37 q-115 39 -198 103 q-66 -64 -175 -102 q-13 19 -38 33 q116 33 181 97 q-47 43 -89 103 l28 29 q35 -56 88 -103 q62 78 81 171 l-161 0 q-31 -59 -83 -116 q-19 13 -41 18 q53 52 86 113 q33 60 51 142 ZM174 659 l34 -24 q-12 -22 -27 -45 l320 0 l0 -186 q1 -88 -73 -84 q-16 0 -30 2 q-3 22 -17 43 q19 -3 38 -4 q40 -1 40 44 l0 151 l-303 0 q-43 -56 -81 -87 q-16 16 -39 21 q34 23 75 72 q41 49 63 97 ZM137 496 l226 0 l0 -135 l-226 0 l0 135 ZM389 798 l42 0 l0 -69 l115 0 l0 -34 l-115 0 l0 -64 l-42 0 l0 64 l-128 0 l0 -64 l-42 0 l0 64 l-152 0 l0 34 l152 0 l0 69 l42 0 l0 -69 l128 0 l0 69 ZM323 462 l-146 0 l0 -67 l146 0 l0 67 Z" /><glyph glyph-name="" unicode="&#x652f;" d="M182 434 l294 0 l0 175 l-408 0 l0 42 l408 0 l0 151 l46 0 l0 -151 l404 0 l0 -42 l-404 0 l0 -175 l252 0 l0 -38 q-80 -165 -230 -283 q172 -114 411 -159 q-33 -20 -44 -48 q-244 62 -407 177 q-184 -128 -413 -187 q-13 23 -39 38 q109 24 214 69 q106 45 199 109 q-138 111 -229 282 l-54 0 l0 40 ZM721 394 l-435 0 q84 -149 218 -252 q145 110 217 252 Z" /><glyph glyph-name="" unicode="&#x653e;" d="M655 803 l42 -21 q-20 -85 -55 -177 l306 0 l0 -41 l-83 0 q-18 -271 -125 -436 q91 -120 237 -195 q-32 -11 -53 -36 q-128 84 -211 191 q-88 -116 -228 -192 q-22 18 -54 29 q163 75 255 202 q-85 130 -119 314 q-27 -47 -52 -74 q-21 12 -46 13 q41 45 78 118 q38 74 67 155 q28 82 41 150 ZM56 611 l466 0 l0 -40 l-280 0 q-1 -73 -5 -158 l216 0 l-13 -358 q-2 -106 -105 -104 q-9 0 -27 1 q-18 0 -32 1 q-2 22 -14 45 q18 -2 39 -4 q21 -1 30 -1 q65 -2 65 62 l12 318 l-173 0 q-7 -154 -45 -264 q-38 -109 -119 -194 q-18 14 -46 19 q85 85 121 184 q37 98 46 259 q2 38 3 93 q2 55 3 101 l-142 0 l0 40 ZM626 564 q-14 -33 -28 -63 q33 -203 115 -333 q92 153 108 396 l-195 0 ZM215 778 l42 20 q23 -23 54 -61 q31 -38 54 -73 l-34 -32 q-22 34 -55 76 q-34 43 -61 70 Z" /><glyph glyph-name="" unicode="&#x653f;" d="M649 805 l43 -18 q-23 -87 -65 -181 l317 0 l0 -42 l-93 0 q-14 -131 -43 -232 q-29 -101 -79 -180 q91 -134 244 -213 q-28 -12 -46 -35 q-136 89 -223 211 q-94 -124 -270 -217 q-18 21 -45 31 q194 94 287 228 q-83 136 -116 322 q-23 -37 -46 -66 q-17 11 -44 14 q62 78 109 178 q47 100 70 200 ZM72 698 l441 0 l0 -40 l-182 0 l0 -263 l148 0 l0 -40 l-148 0 l0 -281 l164 37 l20 -34 l-456 -111 l-26 42 l87 19 l0 447 l44 0 l0 -437 l123 28 l0 593 l-215 0 l0 40 ZM607 564 q-7 -14 -14 -29 q31 -203 109 -339 q90 156 104 368 l-199 0 Z" /><glyph glyph-name="" unicode="&#x6548;" d="M640 808 l45 -15 q-16 -99 -41 -187 l290 0 l0 -42 l-91 0 q-2 -253 -111 -431 q92 -122 236 -190 q-20 -10 -31 -18 q-11 -9 -20 -21 q-125 76 -212 188 q-83 -113 -228 -197 q-17 19 -49 30 q161 88 248 208 q-78 119 -110 263 q-22 -44 -47 -86 q-21 11 -46 16 q64 100 107 225 q43 125 60 257 ZM632 564 q-17 -54 -37 -103 q27 -160 108 -286 q94 159 96 389 l-167 0 ZM135 295 l39 25 q60 -53 134 -122 q51 81 75 174 l43 -25 q-33 -101 -83 -182 q74 -72 132 -134 l-30 -39 q-59 62 -128 133 q-85 -119 -219 -197 q-15 17 -45 32 q142 77 229 199 q-84 82 -147 136 ZM57 645 l254 0 q-25 34 -58 76 q-34 41 -60 69 l45 18 q23 -24 56 -64 q32 -40 55 -72 l-28 -27 l190 0 l0 -42 l-454 0 l0 42 ZM201 549 l41 -22 q-28 -55 -73 -117 q-45 -61 -91 -102 q-18 14 -47 21 q50 44 97 104 q47 60 73 116 ZM339 530 l40 21 q27 -26 59 -62 q32 -36 57 -69 l-30 -35 q-27 36 -61 75 q-35 40 -65 70 Z" /><glyph glyph-name="" unicode="&#x654c;" d="M108 316 l147 0 l0 173 l-209 0 l0 40 l209 0 l0 161 q-80 -10 -162 -14 q-6 21 -24 39 q103 4 199 17 q97 14 165 35 l29 -38 q-72 -21 -163 -33 l0 -167 l202 0 l0 -40 l-202 0 l0 -173 l146 0 l0 -359 l-44 0 l0 49 l-249 0 l0 -73 l-44 0 l0 383 ZM646 806 l45 -16 q-18 -97 -45 -184 l294 0 l0 -42 l-93 0 q-4 -251 -111 -431 q93 -129 239 -195 q-30 -11 -48 -33 q-126 74 -216 190 q-84 -119 -228 -200 q-10 10 -20 15 q-11 5 -28 11 q161 81 249 212 q-84 127 -115 281 q-27 -54 -58 -104 q-19 12 -42 17 q66 99 112 223 q46 124 65 256 ZM152 276 l0 -230 l249 0 l0 230 l-249 0 ZM632 564 q-16 -45 -34 -87 q26 -168 111 -304 q90 164 95 391 l-172 0 Z" /><glyph glyph-name="" unicode="&#x6563;" d="M669 808 l44 -15 q-16 -96 -45 -191 l279 0 l0 -42 l-86 0 q-7 -122 -31 -229 q-25 -107 -77 -199 q78 -116 216 -191 q-29 -16 -47 -38 q-121 80 -195 187 q-72 -107 -203 -191 q-15 18 -46 29 q147 84 222 203 q-73 123 -108 280 q-21 -42 -46 -82 q-21 11 -49 11 q68 100 113 226 q45 125 59 242 ZM119 375 l350 0 l0 -376 q0 -89 -90 -87 q-23 0 -54 4 q-1 25 -13 47 q43 -7 65 -7 q47 -2 48 48 l0 69 l-262 0 l0 -175 l-44 0 l0 477 ZM46 495 l129 0 l0 132 l-98 0 l0 40 l98 0 l0 131 l44 0 l0 -131 l151 0 l0 131 l44 0 l0 -131 l105 0 l0 -40 l-105 0 l0 -132 l128 0 l0 -40 l-496 0 l0 40 ZM654 560 q-15 -45 -34 -88 q33 -167 106 -297 q81 160 91 385 l-163 0 ZM163 204 l0 -93 l262 0 l0 93 l-262 0 ZM163 335 l0 -93 l262 0 l0 93 l-262 0 ZM219 627 l0 -132 l151 0 l0 132 l-151 0 Z" /></font>
</defs>
</svg>
