<?xml version="1.0" encoding="utf-8"?>
<!-- Generator: Adobe Illustrator 21.1.0, SVG Export Plug-In . SVG Version: 6.00 Build 0)  -->
<svg version="1.1" id="图层_1" xmlns="http://www.w3.org/2000/svg" xmlns:xlink="http://www.w3.org/1999/xlink" x="0px" y="0px"
	 viewBox="0 0 218.3 60.6" style="enable-background:new 0 0 218.3 60.6;" xml:space="preserve">
<g>
	<path d="M196.5,15.5h-23c-12.1,0-21.8,9.8-21.8,21.9v1.1c0,12.1,9.7,21.9,21.8,21.9h23c12.1,0,21.8-9.8,21.8-21.9v-1.1
		C218.3,25.3,208.5,15.5,196.5,15.5z M209.7,38.5c0,7.3-5.9,13.3-13.2,13.3h-23c-7.3-0.1-13.2-6-13.2-13.3v-1.1
		c0-7.3,5.9-13.3,13.2-13.4h23c7.3,0.1,13.2,6,13.2,13.4L209.7,38.5z"/>
	<path d="M33,60.6h0.1c4.5,0,8.1-2,11.4-6.7l20.8-30.5c1.4-2.1,0.9-4.9-1.2-6.4c-2.1-1.4-4.9-0.9-6.3,1.1c0,0,0,0,0,0L37,48.7
		c-1.3,1.9-2.7,2.7-4,2.7l0,0c-1.6,0-2.7-0.9-4-2.7L8.3,18.2C6.9,16.1,4.1,15.6,2,17c0,0,0,0,0,0c-2.1,1.4-2.6,4.3-1.2,6.4
		l20.8,30.5C24.4,58.1,28.6,60.6,33,60.6L33,60.6z"/>
	<path d="M151.9,20.8c0-1.5-0.7-2.9-1.9-3.8c-2.1-1.4-4.9-0.9-6.3,1.1c0,0,0,0,0,0l-20.8,30.5c-1.3,1.9-2.7,2.7-4,2.7l0,0
		c-1.6,0-2.7-0.9-4-2.7L94.1,18.2c-1.4-2.1-4.2-2.6-6.3-1.2c0,0,0,0,0,0c-2.1,1.4-2.6,4.3-1.2,6.4l20.7,30.5
		c2.9,4.2,7.1,6.7,11.5,6.7h0.1c4.5,0,8.1-2,11.4-6.7l20.8-30.5C151.7,22.6,151.9,21.7,151.9,20.8z"/>
	<path d="M74.7,12.8c0.3,0.3,0.8,0.5,1.3,0.5c0.5,0,1-0.2,1.3-0.5l4.8-4.8c0.7-0.7,0.7-1.9,0-2.6l-4.8-4.8C76.9,0.2,76.5,0,76,0
		h-0.1c-0.5,0-0.9,0.2-1.3,0.5l-4.8,4.8c-0.7,0.7-0.7,1.9,0,2.6L74.7,12.8z"/>
	<path d="M80.5,56.1V20.7c0-2.5-2-4.5-4.5-4.5l0,0c-2.5,0-4.6,2-4.6,4.5c0,0,0,0,0,0v35.4c0.1,2.5,2.3,4.5,4.8,4.4
		C78.6,60.3,80.5,58.5,80.5,56.1L80.5,56.1z"/>
</g>
</svg>
