<svg xmlns="http://www.w3.org/2000/svg" viewBox="0 0 187.66 99.57"><defs><style>.cls-1{fill:#fff;}</style></defs><g id="图层_2" data-name="图层 2"><g id="图层_1-2" data-name="图层 1"><path class="cls-1" d="M167.82,4.79a1.64,1.64,0,0,1,1.65,1.64V34.29a1.64,1.64,0,0,0,1.61,1.64l10,.18a1.81,1.81,0,0,1,1.77,1.8V62.62a1.81,1.81,0,0,1-1.77,1.8l-10,.18a1.64,1.64,0,0,0-1.61,1.64v26.9a1.65,1.65,0,0,1-1.65,1.65H6.43a1.64,1.64,0,0,1-1.64-1.65V6.43A1.63,1.63,0,0,1,6.43,4.79H167.82m0-4.79H6.43A6.44,6.44,0,0,0,0,6.43V93.14a6.44,6.44,0,0,0,6.43,6.43H167.82a6.43,6.43,0,0,0,6.43-6.43V69.33l6.94-.12a6.62,6.62,0,0,0,6.47-6.59V37.91a6.62,6.62,0,0,0-6.47-6.58l-6.94-.13V6.43A6.44,6.44,0,0,0,167.82,0Z"/></g></g></svg>