<svg xmlns="http://www.w3.org/2000/svg" xmlns:xlink="http://www.w3.org/1999/xlink" viewBox="0 0 1528.73 861.17"><defs><style>.cls-1{fill:url(#linear-gradient);}.cls-2{fill:url(#linear-gradient-2);}.cls-3{fill:none;}.cls-4{mask:url(#mask);}.cls-5{clip-path:url(#clip-path);}.cls-6{opacity:0.77;}.cls-7{fill:#4a3df8;}</style><linearGradient id="linear-gradient" x1="699.87" y1="348.6" x2="699.87" y2="-9.54" gradientUnits="userSpaceOnUse"><stop offset="0" stop-color="#fff"/><stop offset="0.08" stop-color="#dbdbdb"/><stop offset="0.22" stop-color="#a2a2a2"/><stop offset="0.36" stop-color="#707070"/><stop offset="0.5" stop-color="#484848"/><stop offset="0.63" stop-color="#282828"/><stop offset="0.77" stop-color="#121212"/><stop offset="0.89" stop-color="#050505"/><stop offset="1"/></linearGradient><linearGradient id="linear-gradient-2" x1="7518.21" y1="369.08" x2="7518.21" y2="78.44" gradientTransform="translate(-6818.33 270.16)" gradientUnits="userSpaceOnUse"><stop offset="0" stop-color="#fff"/><stop offset="0.33" stop-color="#a1a1a1"/><stop offset="0.66" stop-color="#4b4b4b"/><stop offset="0.89" stop-color="#151515"/><stop offset="1"/></linearGradient><mask id="mask" x="0" y="-4.01" width="1528.73" height="865.19" maskUnits="userSpaceOnUse"><g transform="translate(10.77 5.53)"><rect class="cls-1" x="-6.34" y="-9.54" width="1412.44" height="358.14"/><rect class="cls-2" x="-6.34" y="348.6" width="1412.44" height="290.65" transform="translate(1399.75 987.84) rotate(180)"/></g></mask><clipPath id="clip-path" transform="translate(10.77 5.53)"><rect class="cls-3" width="1507.92" height="678.5"/></clipPath></defs><g id="图层_2" data-name="图层 2"><g id="Layer_1" data-name="Layer 1"><g class="cls-4"><g class="cls-5"><g class="cls-6"><path class="cls-7" d="M872.44,171.28A22.94,22.94,0,0,1,861,168.23l-68.89-39.67a7.81,7.81,0,0,1,0-13.53l38.74-22.36a7,7,0,0,0-.06-12.17L792.18,58.65a22.23,22.23,0,0,0-21.95.08L650.12,127.88a23,23,0,0,1-23-.07l-38.35-22.38a7.8,7.8,0,0,1,0-13.5l60.08-34.6a7,7,0,0,0-.06-12.18L562.25-3.64l.39-.7,86.58,48.79A7.81,7.81,0,0,1,649.29,58L589.2,92.62a7,7,0,0,0,0,12.12l38.35,22.39a22.2,22.2,0,0,0,22.21.06L769.84,58A23,23,0,0,1,792.57,58l38.62,21.85a7.8,7.8,0,0,1,.06,13.55L792.5,115.72a7,7,0,0,0,0,12.15l68.88,39.67a22.25,22.25,0,0,0,22.12,0l99.11-57.21a7,7,0,0,0,0-12.14L944.06,75.92a7.81,7.81,0,0,1,0-13.52l8.17-4.72a7,7,0,0,0,0-12.14L867-3.65l.4-.68,85.19,49.18a7.81,7.81,0,0,1,0,13.52l-8.17,4.72a7,7,0,0,0,0,12.14L983,97.49A7.81,7.81,0,0,1,983,111l-99.11,57.21A23,23,0,0,1,872.44,171.28Z" transform="translate(10.77 5.53)"/><path class="cls-7" d="M1207.27,258.32a25.68,25.68,0,0,1-12.69-3.35l-68-38.7a7.8,7.8,0,0,1,0-13.54l159.28-92.18a25.72,25.72,0,0,1,25.93.12L1376.53,149a24.92,24.92,0,0,0,25.11.14l37.67-21.76a7,7,0,0,0,0-12.16l-99.91-56.86a7.8,7.8,0,0,1,0-13.56l88.51-50.36.39.69-88.5,50.36a7,7,0,0,0,0,12.18l99.9,56.86a7.81,7.81,0,0,1,0,13.54L1402,149.86a25.72,25.72,0,0,1-25.9-.14l-64.84-38.36a24.91,24.91,0,0,0-25.13-.12l-159.28,92.18a7,7,0,0,0,0,12.16l68,38.7a25,25,0,0,0,24.74-.08l95.71-55.26a25.75,25.75,0,0,1,25.67,0l35.47,20.48a24.92,24.92,0,0,0,24.94,0l116.06-67.5.4.68L1401.9,220.07a25.73,25.73,0,0,1-25.74,0l-35.46-20.48a25,25,0,0,0-24.88,0l-95.71,55.26A25.74,25.74,0,0,1,1207.27,258.32Z" transform="translate(10.77 5.53)"/><path class="cls-7" d="M1517.38,674.24l-155.25-89.66a7.81,7.81,0,0,1,0-13.54l39.16-22.28a7,7,0,0,0,0-12.17l-160.8-92a7.82,7.82,0,0,1-.07-13.51l39.47-23.15a7,7,0,0,0-.06-12.12l-160.23-91.87a7.81,7.81,0,0,1,0-13.54l20.86-12a7,7,0,0,0,0-12.12l-98.88-57.81a7.81,7.81,0,0,1,0-13.5l146.59-84.63a7,7,0,0,0,0-12.14L1012.62-3.25l.4-.69L1188.71,97.5a7.8,7.8,0,0,1,0,13.51l-146.59,84.63a7,7,0,0,0,0,12.12L1141,265.57a7.81,7.81,0,0,1,0,13.5l-20.87,12a7,7,0,0,0,0,12.16l160.23,91.87a7.8,7.8,0,0,1,.06,13.5l-39.47,23.15a7,7,0,0,0,.07,12.13l160.8,92a7.8,7.8,0,0,1,0,13.55l-39.16,22.29a7,7,0,0,0,0,12.16l155.25,89.65Z" transform="translate(10.77 5.53)"/><path class="cls-7" d="M1095.6,512.17a23,23,0,0,1-11.53-3.09L894.74,399a22.25,22.25,0,0,0-21.79-.27,16,16,0,0,1-15.63-.17L481.14,181.1a22.2,22.2,0,0,0-22.16,0L356.52,240.39a16,16,0,0,1-15.88,0l-42-24a7.8,7.8,0,0,1,0-13.53l39.12-22.56a7,7,0,0,0,0-12.14L207.88,93.27a7.8,7.8,0,0,1,0-13.52L352.72-3.86l.39.69L208.27,80.44a7,7,0,0,0,0,12.14l129.87,74.89a7.81,7.81,0,0,1,0,13.52L299,203.54a7,7,0,0,0,0,12.16l42,24a15.15,15.15,0,0,0,15.08,0l102.46-59.28a23,23,0,0,1,23,0L857.72,397.86a15.21,15.21,0,0,0,14.85.16,23.05,23.05,0,0,1,22.57.28l189.33,110.09a22.18,22.18,0,0,0,22.2,0l28.89-16.69a7,7,0,0,0,0-12.15L822.45,299.91a7.81,7.81,0,0,1-.06-13.51l1.15-.67a7,7,0,0,0,0-12.12L481.25,76a22.21,22.21,0,0,0-22.14,0l-38.5,22.23a23,23,0,0,1-23,0L358.81,75.57a7.81,7.81,0,0,1,.05-13.51L474-3.94l.39.69-115.1,66a7,7,0,0,0-.05,12.14L398,97.5a22.19,22.19,0,0,0,22.22,0l38.5-22.23a23,23,0,0,1,22.94,0L823.9,272.92a7.79,7.79,0,0,1,0,13.49l-1.15.68a7,7,0,0,0,.05,12.13l313.1,179.67a7.81,7.81,0,0,1,0,13.53l-28.89,16.69A23,23,0,0,1,1095.6,512.17Z" transform="translate(10.77 5.53)"/><path class="cls-7" d="M1406.73,855.64l-44.17-25.15a7.8,7.8,0,0,1,0-13.55l38.65-22.18a7,7,0,0,0,0-12.13l-8.36-4.87a7.8,7.8,0,0,1,0-13.51l8.11-4.66a23,23,0,0,1,22.93,0l93.84,54.47-.4.69-93.84-54.47a22.17,22.17,0,0,0-22.13-.05l-8.11,4.66a7,7,0,0,0,0,12.13l8.36,4.87a7.8,7.8,0,0,1,0,13.51l-38.65,22.18a7,7,0,0,0,0,12.17L1407.12,855Z" transform="translate(10.77 5.53)"/><path class="cls-7" d="M1284.54,855.64l-13.3-7.69a7.81,7.81,0,0,1,0-13.52l8.16-4.69a7,7,0,0,0,0-12.15l-68.88-39.76a22.22,22.22,0,0,0-22.17,0l-38.09,22.06a23,23,0,0,1-23,0l-98.93-57.35a22.2,22.2,0,0,0-22.12,0l-8,4.59a23,23,0,0,1-22.86,0l-68.63-39.53a7.81,7.81,0,0,1,0-13.52l8.26-4.77a7,7,0,0,0,0-12.14L784.85,602.18a7.81,7.81,0,0,1,0-13.54l38.9-22.23a7,7,0,0,0,.05-12.14l-37.87-22a22.21,22.21,0,0,0-22.11-.09L633.56,606.58a23,23,0,0,1-22.79,0L359.87,462.69a7.81,7.81,0,0,1-.11-13.48L398.71,426a7,7,0,0,0-.1-12.1l-130-74.66a7.8,7.8,0,0,1,0-13.51l68.82-40a7,7,0,0,0,0-12.13L112.28,143.48a7.8,7.8,0,0,1,0-13.52L151,107.65a7,7,0,0,0,0-12.14L-10.24,2.8l.4-.69L151.41,94.82a7.8,7.8,0,0,1,0,13.52l-38.73,22.31a7,7,0,0,0,0,12.14L337.81,273a7.8,7.8,0,0,1,0,13.5l-68.82,40a7,7,0,0,0,0,12.13l130,74.66a7.81,7.81,0,0,1,.1,13.48l-38.94,23.18a7,7,0,0,0,.1,12.11l250.9,143.87a22.23,22.23,0,0,0,22,0l130.29-74.42a23,23,0,0,1,22.9.09l37.87,22a7.8,7.8,0,0,1-.05,13.52l-38.9,22.23a7,7,0,0,0,0,12.16l130.17,74.93a7.8,7.8,0,0,1,0,13.52l-8.25,4.76a7,7,0,0,0,0,12.15l68.63,39.53a22.23,22.23,0,0,0,22.07,0l8-4.59a23,23,0,0,1,22.92.05l98.93,57.35a22.16,22.16,0,0,0,22.19,0L1188,777.15a23,23,0,0,1,23,0l68.89,39.76a7.81,7.81,0,0,1,0,13.53l-8.17,4.69a7,7,0,0,0,0,12.14l13.3,7.69Z" transform="translate(10.77 5.53)"/><path class="cls-7" d="M1517.38,752,1240.92,591.38a22.17,22.17,0,0,0-22.21,0L1028.58,701.53a23,23,0,0,1-23,0l-99-57.17a7.79,7.79,0,0,1,0-13.51l8.11-4.69a23,23,0,0,1,22.79-.08L1003,663.32a22.21,22.21,0,0,0,22-.07l129.71-74.9a7,7,0,0,0,0-12.15L907,434a22.22,22.22,0,0,0-22,0L755.16,508.66a23,23,0,0,1-22.88,0L724.22,504a7.81,7.81,0,0,1,0-13.52l99.42-57.4a7,7,0,0,0,0-12.13l-288-167.75.4-.69,288,167.75a7.81,7.81,0,0,1,0,13.51l-99.42,57.4a7,7,0,0,0,0,12.14l8.06,4.64a22.19,22.19,0,0,0,22.09,0l129.8-74.64a23,23,0,0,1,22.85,0l247.72,142.19a7.81,7.81,0,0,1,0,13.53l-129.71,74.9a23,23,0,0,1-22.8.08l-65.54-37.23a22.2,22.2,0,0,0-22,.07L907,631.55a7,7,0,0,0,0,12.14l99,57.17a22.22,22.22,0,0,0,22.17,0l190.13-110.16a23,23,0,0,1,23,0l276.46,160.57Z" transform="translate(10.77 5.53)"/><path class="cls-7" d="M1407.92,438.43a25.67,25.67,0,0,1-12.69-3.34l-43.16-24.54a8.7,8.7,0,0,1-.09-15.08l43-25.11a7.9,7.9,0,0,0,0-13.67l-9.24-5.34a8.7,8.7,0,0,1,0-15.07l131.88-76.14.4.69L1386.08,337a7.9,7.9,0,0,0,0,13.69l9.24,5.34a8.7,8.7,0,0,1,0,15.05l-43,25.1a7.9,7.9,0,0,0,.08,13.7l43.17,24.55a24.94,24.94,0,0,0,24.73-.08l96.75-55.86.4.69L1420.76,435A25.73,25.73,0,0,1,1407.92,438.43Z" transform="translate(10.77 5.53)"/><path class="cls-7" d="M1009.32,855.64,665.71,656.26a24.93,24.93,0,0,0-24.92,0l-35.48,20.49a25.75,25.75,0,0,1-25.67,0l-95.71-55.27a25,25,0,0,0-24.74-.07l-68.05,38.7a7,7,0,0,0-.05,12.16l159.29,92.18a24.92,24.92,0,0,0,25.12-.12l64.85-38.36a25.69,25.69,0,0,1,25.9-.14l37.68,21.75a7.81,7.81,0,0,1,0,13.55L604,818a7,7,0,0,0,0,12.18l43.68,24.78-.4.7-43.68-24.79a7.8,7.8,0,0,1,0-13.57l99.88-56.85a7,7,0,0,0,0-12.16l-37.68-21.75a24.93,24.93,0,0,0-25.1.13L575.91,765a25.7,25.7,0,0,1-25.93.13L390.7,672.93a7.8,7.8,0,0,1,.05-13.54l68.05-38.71a25.76,25.76,0,0,1,25.52.09L580,676a24.93,24.93,0,0,0,24.87,0l35.48-20.49a25.74,25.74,0,0,1,25.72,0L1009.72,855Z" transform="translate(10.77 5.53)"/><path class="cls-7" d="M-10.37,438.88l-.4-.68L69.3,392A25.75,25.75,0,0,1,95,392l35.52,20.51a24.93,24.93,0,0,0,24.87,0L193,390.75a7,7,0,0,0,0-12.16L93,321.68a7.8,7.8,0,0,1,0-13.54l38.88-22.44a7,7,0,0,0,0-12.14l-142-81.94.4-.69,142,81.94a7.81,7.81,0,0,1,0,13.52L93.31,308.83a7,7,0,0,0,0,12.16l100,56.91a7.81,7.81,0,0,1,0,13.54l-37.62,21.72a25.75,25.75,0,0,1-25.67,0L94.58,392.65a25,25,0,0,0-24.88,0Z" transform="translate(10.77 5.53)"/><path class="cls-7" d="M332.22,855.42l-71.13-41.07a7.81,7.81,0,0,1,0-13.54l39.16-22.28a7,7,0,0,0,0-12.18L139.45,674.29a7.81,7.81,0,0,1-.11-13.49L257.16,591a7,7,0,0,0-.08-12.11l-85.69-49.12a25,25,0,0,0-24.84,0l-156.92,90.9-.4-.69,156.93-90.9a25.74,25.74,0,0,1,25.63-.05l85.68,49.12a7.8,7.8,0,0,1,.1,13.49L139.75,661.49a7,7,0,0,0,.09,12.11L300.7,765.66a7.81,7.81,0,0,1,0,13.56L261.52,801.5a7,7,0,0,0,0,12.16l71.13,41.08Z" transform="translate(10.77 5.53)"/></g></g></g></g></g></svg>