<svg xmlns="http://www.w3.org/2000/svg" xmlns:xlink="http://www.w3.org/1999/xlink" viewBox="0 0 1565.52 934.94"><defs><style>.cls-1{isolation:isolate;}.cls-2{opacity:0.32;mix-blend-mode:soft-light;fill:url(#linear-gradient);}</style><linearGradient id="linear-gradient" x1="1512.37" y1="381.8" x2="372.6" y2="-498.93" gradientTransform="matrix(0.99, -0.16, 0.16, 0.99, -218.41, 698.39)" gradientUnits="userSpaceOnUse"><stop offset="0" stop-color="#d4a6ff"/><stop offset="0.99" stop-color="#9d40f4"/></linearGradient></defs><g class="cls-1"><g id="图层_2" data-name="图层 2"><g id="Layer_1" data-name="Layer 1"><path class="cls-2" d="M517.16,67.72c-1.92-1.07,1.16-3-.91-3.69s-3.28-2-3.44-3.49a8.57,8.57,0,0,0,4.74.73c.7-.07,1.42-.22,2.11-.22a18.81,18.81,0,0,1,3.6.69c1.23.21,3.09-.08,3.48-.89a23.17,23.17,0,0,0-7.4-1.32,14.4,14.4,0,0,1-3.22-.26c-1-.3-1.69-.93-2.7-1.26a28.75,28.75,0,0,0-4.22-.54,15.35,15.35,0,0,1-3.14-.92l-4.84-1.83c-.82-.31-1.69-.91-1-1.45a2.76,2.76,0,0,1,1.24-.42c3.78-.55,6.84.91,9.65,2.09a59.41,59.41,0,0,0,15.51,4,42.31,42.31,0,0,1,5.49.84c1.7.44,3.19,1.21,3.63,2.31l-3.43.35a2.21,2.21,0,0,0-.64.13c-.76.3-.24.92.27,1.26a4.47,4.47,0,0,1,2.19,3.35,1.12,1.12,0,0,0,.23.82,2.36,2.36,0,0,0,1,.49c1.34.39,2.73.73,4.15,1a5.15,5.15,0,0,0,1.77.13c.47-.06.91-.24,1.38-.32,1.33-.24,2.43.31,3.7.43a32.13,32.13,0,0,0,3.23-.12c2,0,3.73.63,4.44,1.65,0,.22-.54.34-.9.32a1.88,1.88,0,0,0-1.09.1.38.38,0,0,0-.09.56,3.27,3.27,0,0,0,1.66,1.27,11.24,11.24,0,0,1,1.61.62c.44.28.65.74.22,1.12a2.89,2.89,0,0,1-2.12.39c-.71-.1-1.31-.35-2.05-.4-1-.08-2.12.22-3.18.25a9.15,9.15,0,0,1-3.54-.74,85.75,85.75,0,0,1-7.94-3.4A16.32,16.32,0,0,0,531,69.4c-2.08-.23-4.39.12-6.55.06A18.78,18.78,0,0,1,517.16,67.72Zm30.91-3.65c-1.6,0-2,.81-1.24,1.47l1.25,1.17A3.93,3.93,0,0,0,550.57,68c.39,0,.81,0,1.21,0,2.16.06,3.59,1.33,5.81,1.18a17.16,17.16,0,0,0,2.1-.38,13.49,13.49,0,0,1,4.09-.18c.85.1,1.66.29,2.55.32a4.28,4.28,0,0,0,2.54-.63c.23-.17.38-.39.32-.58s-.5-.38-.89-.48l-3.84-1a7.69,7.69,0,0,0-1.64-.31,20.4,20.4,0,0,0-3.08.25,10.66,10.66,0,0,1-3.47-.23c-1.3-.32-2.32-.9-3.56-1.28A16.31,16.31,0,0,0,548.07,64.07Zm-7.23,17.16a4.69,4.69,0,0,0-2.43-.11,3.52,3.52,0,0,0-2.08,1.53c-.4.79.31,1.34.8,1.94a2.8,2.8,0,0,1,.68,2c0,.57-.22,1.2.26,1.63a2.88,2.88,0,0,0,1,.49,14.82,14.82,0,0,0,5.31.93c1.31,0,2.66-.3,4-.24a17.7,17.7,0,0,1,3.36.64,22.26,22.26,0,0,0,3.36.51,5,5,0,0,0,1,0,2.75,2.75,0,0,0,2.1-1.51A1.56,1.56,0,0,1,559.35,88a3.7,3.7,0,0,1,.47,0l3.77.09a2.44,2.44,0,0,0,.6,0,2.18,2.18,0,0,0,.45-.16,1.93,1.93,0,0,0,1-2.86,1.27,1.27,0,0,0-1-.67,3.54,3.54,0,0,0-1.58.36l-3,1.2c-.71.28-1.7.57-2.19.25a.66.66,0,0,1-.22-.68c.06-.59.12-1.18.17-1.77-.34,0-.64.22-1,.36a2.6,2.6,0,0,1-1.74,0,8.69,8.69,0,0,1-3-1.51,3.17,3.17,0,0,0-.77-.53,4.61,4.61,0,0,0-1.12-.24l-1.42-.2a1.28,1.28,0,0,0-.55,0c-.41.13-.3.47-.17.7a1.3,1.3,0,0,1,.07,1.28,2.41,2.41,0,0,1-1.47,1.06,4,4,0,0,1-3.28-.59,2,2,0,0,1-.88-1.16C542.29,82,542.14,81.58,540.84,81.23Zm28-2.53a3.34,3.34,0,0,1-.32-1.16c-.3-1.09-1.84-1.89-3.72-2a4.91,4.91,0,0,0-2.71.63,1.21,1.21,0,0,0-.45,1.73,4.92,4.92,0,0,0,1.71,1.28l3,1.63a5.67,5.67,0,0,1,1.26.85,7.76,7.76,0,0,1,.9,1.61c1,1.71,4.32,2.62,7.56,2.1.7-.12,1.39-.29,2.09-.37,1.88-.22,3.62.23,5.49.14a2.72,2.72,0,0,0,.75-.11,1.2,1.2,0,0,0,.84-.8c.17-.69-.48-1.26-1.13-1.76A11.54,11.54,0,0,0,581.76,81a17.57,17.57,0,0,0-1.89-.7l-2-.68a6.86,6.86,0,0,0-4.32-.38C571.82,79.64,569.58,79.7,568.88,78.7Zm17.66-1.59a9.56,9.56,0,0,1,1.65-.18,3,3,0,0,1,.82.16,5.21,5.21,0,0,1,2.26,1.35.73.73,0,0,1,.23.47,1.46,1.46,0,0,1-.25.54,1.37,1.37,0,0,0,.59,1.88,4.67,4.67,0,0,0,3.09.4,9.51,9.51,0,0,0,2-.63,4.56,4.56,0,0,0,2.21-1.39c.41-.75-.33-1.42-1.22-1.84a8.81,8.81,0,0,1-2.54-1.34,9.59,9.59,0,0,1-.81-1.42,4.29,4.29,0,0,0-3.16-1.43,5.71,5.71,0,0,0-1.48.06c-.56.11-1.08.32-1.63.45a8.6,8.6,0,0,1-4.09-.23,2.81,2.81,0,0,0-2.06.06c-.52.33-.27.8,0,1.15C583.08,76.25,583.93,77.43,586.54,77.11ZM566.73,94c.89-.12,1.77-.34,2.66-.39,3.1-.17,4.92,1.73,7.91,1.91,1,.06,2-.08,3-.06,2,0,3.65.61,5.58.74.74,0,1.78-.09,2-.55-2.31-1.42-6.66-1.42-8.43-3.11-.87-.85-1-2-2.45-2.56a7.16,7.16,0,0,0-4.15.18c-.55.17-1.09.38-1.67.5-2.29.45-4.21-.65-6.51-.52-1.66.1-4.62,1.39-4,2.49S564.62,94.3,566.73,94Zm17.88-3.17c.32,0,.64-.11,1-.14.53-.07,1.06,0,1.58-.08a5.2,5.2,0,0,0,1.78-.4c.53-.24.93-.61.94-1,0-.56-.8-.88-1.44-1.22-.48-.25-.89-.56-1.42-.78a3.53,3.53,0,0,0-1.9-.28c-.29,0-.56.11-.85.15-1.35.2-2.47-.57-3.76-.31s-1.18,1-.55,1.31c.89.5,1.71.66,2,1.46S583,91,584.61,90.86Zm-64.49,26.58c-.08.91,1,1.63.86,2.57-.07.63-.86,1.53,0,2s2.19-.07,3.36-.19c1.85-.2,3.45.52,5.3.29.76-.09,1.48-.34,2.24-.46a5.67,5.67,0,0,1,4.33,1,4.82,4.82,0,0,1,1.51,2.78,1.6,1.6,0,0,0,.7,1.17,4.33,4.33,0,0,0,1.37.4l2.26.41a4.92,4.92,0,0,0,1.4.11,2.79,2.79,0,0,0,2.1-1.22,2.52,2.52,0,0,0,.16-1.7,7.27,7.27,0,0,0-1.47-4c-.38-.44-.87-.83-1.23-1.27-1.12-1.36-1.19-3.27-3.48-3.92a11.81,11.81,0,0,0-5.76.47A23.36,23.36,0,0,1,528,117C526.26,117.06,520.3,115.35,520.12,117.44Zm5.13,9.48a9.1,9.1,0,0,1,1.68-.29c.57,0,1,.23,1.58.25a3.65,3.65,0,0,0,1-.13,4.69,4.69,0,0,0,1.74-.83c.09-.07.19-.16.18-.25s-.09-.14-.17-.19a7.38,7.38,0,0,0-5.05-1c-.45.06-.88.17-1.33.24a6,6,0,0,1-1.52,0c-1.27-.16-4.61-.28-3.05,1A7.63,7.63,0,0,0,525.25,126.92Zm62.23-.89a8.18,8.18,0,0,0,3.5.1,4.46,4.46,0,0,1,.89-.14,2.86,2.86,0,0,1,.74.13,10,10,0,0,0,3.07.49,5.39,5.39,0,0,0,3.11-.91.63.63,0,0,0,.24-.31c0-.18-.17-.31-.37-.42a21.38,21.38,0,0,0-2.37-1,4,4,0,0,0-1.56-.35,11,11,0,0,0-2.29.48,8.37,8.37,0,0,1-3.39-.07c-1-.22-2-.56-3-.81a2.29,2.29,0,0,0-1.05-.07,1.63,1.63,0,0,0-.62.3C582.84,124.68,586.18,125.71,587.48,126ZM518.1,199.39c-2,.79-.26,1.9.77,2.32l7.3,2.92a4.5,4.5,0,0,1,1.69,1c.88,1-.21,2.67,1.22,3.4a6.22,6.22,0,0,0,3.24.2,12.49,12.49,0,0,1,3.42-.16c1,.19,1.72,1,1,1.57-.21.17-.49.31-.73.47-.89.58-1,1.49-.29,2a3.81,3.81,0,0,0,3.27,0,9.3,9.3,0,0,0,1.15-.71,10.64,10.64,0,0,1,5-1.56,4.13,4.13,0,0,0,.85-.11,1.11,1.11,0,0,0,.77-.68c.11-.45-.33-.85-1-.94a12.47,12.47,0,0,0-2.16.15c-.72,0-1.56-.18-1.41-.61.62-.6,2-.62,3.06-.64s2.59-.42,2.55-1.06c0-.18-.17-.34-.17-.53,0-.45.86-.84,1.63-1s1.56-.06,2.32-.22,1.54-.68,1.28-1.08-1.18-.44-1.16-.85c0-.15.15-.31.14-.46s-.15-.23-.28-.31a6.46,6.46,0,0,0-3.56-.78c-1.09,0-2.54.18-2.83-.41s1.57-1.41,1.82-2.22c.17-.54-.49-1-.48-1.52,0-.84,1.68-1.53,3.11-1.7s2.84,0,4.26-.27c.86-.15,1.82-.54,1.9-1,.09-.66-1.24-.86-2.32-.87-2.95,0-5.94.06-8.94.29a17.75,17.75,0,0,0-4.13.69c-.91.3-1.7.72-2.56,1.07a18.11,18.11,0,0,1-7.77,1.32,4.89,4.89,0,0,0-1,0,4.09,4.09,0,0,0-1.72,1,8.35,8.35,0,0,1-4.29,1.29C521.65,199.46,519.39,198.86,518.1,199.39Zm86.75-101.2a33.23,33.23,0,0,1,5.58,1.9l11.49,4.73c4.05,1.67,9,3.4,14.29,2.22,1.23-.28,2.42-.7,3.67-.89a18.9,18.9,0,0,1,3.6-.07,205.89,205.89,0,0,1,24.15,2.06,21.73,21.73,0,0,0,6.14.48c2.17-.23,4.52-1.34,4.68-2.63,8.28,1.2,12.48,6.62,20.87,7.66a72.05,72.05,0,0,0,9,.14c10.77-.07,20.85,2.1,28.18,6.07a10,10,0,0,0,3.51,1.38c1.43.21,3.37-.14,4.14-1L734.33,116c-2.78-1.21-5.57-2.42-8.09-3.8-1.75-1-3.37-2-5.21-2.94a65.67,65.67,0,0,0-9-3.37l-13.63-4.4a71.81,71.81,0,0,0-11.41-3c-3.37-.51-7-.66-10.09-1.53-2.67-.76-4.73-2-7.2-3-5.78-2.17-14.13-2.69-17.09-6.41-1,.17-1.65.94-1.52,1.52s.78,1,1.41,1.43l7,4.54c.81.52,1.65,1.29.89,2-.92.88-3,.66-4.37.35s-3.67-.27-4.18.68a2.16,2.16,0,0,1-2.2-2.79c.29-1.22,1-2.58,0-3.53-.78-.78-2.42-1.06-3.52-1.67-1.88-1-2-2.94-3.81-4-2.58-1.51-7.4-.8-10.84-1.64-2.3-.56-3.87-1.8-6.17-2.36s-6.1,0-6.77,1.64c-.36.89.34,1.86-.67,2.61-1.45,1.09-3.92.2-5.08-.74q-2.06-1.68-4.13-3.34c-1.14-.93-3.28-1.88-5-1s-.83,3.1-3,3.79c-2,.64-3.6-1-5.71-.67-1.78.24-2.65,1.72-2,2.63s2.11,1.43,3.38,2,2.44,1.45,2.09,2.52c-2.12.76-5.1-.38-7,.7-1.39.8-.23,1.79.54,2.37C595.08,97.07,600.21,97.18,604.85,98.19Zm127.91,22.2c-2.22-.67-8.15-3.44-10.7-2.44-1,.41-1.4,1.69-2.42,2.23A9.16,9.16,0,0,1,715,121c-3.24-.13-5.86-1.5-8.13-2.59-7.25-3.5-16.3-5.74-26.11-6.48.73,2.15-4.59,4.29-4.6,6.56a2.79,2.79,0,0,0,1.36,2c3.27,2.54,8.54,3.81,13.56,5.1s10.15,2.79,12.84,5.59,1.94,7.29-3.13,9.63c-2.59,1.19-5.86,1.67-8.26,3s-2.64,4.18.34,4.11a15.28,15.28,0,0,0,2.47-.45c5.55-1.16,10.32,2.76,7.07,5.82q-7.71-2.09-15.52-4.07a6.69,6.69,0,0,0-2.49-.3c-2.43.25-3.43,2.47-2,3.49s4,1.13,6.37,1.2,5,.21,6.32,1.24c-1,1.4-4,2-6.29,1.73s-4-1.08-6.06-1.59c-5.91-1.48-14.3.09-19.05,3.58a24.22,24.22,0,0,0-4.5,4.57l-4,4.92c-2.79,3.43-5.6,6.89-7.18,10.46-.44,1-.77,2.09-.08,2.92,1,1.16,3.49,1.39,5.58,1.81s4.15,1.56,3.17,2.93c-.46.64-1.48,1.13-2,1.76-1,1.28.65,2.56,2.74,2.75a20.23,20.23,0,0,0,6.55-.9l13.8-3.48c3.9-1,7.8-2,11.63-3.08a75,75,0,0,1,8.18-2.14c15.13-2.64,26.73,6,41.92,4.85,3.93-.31,8-1.28,11.72-1a30.77,30.77,0,0,1,6.24,1.36c9.16,2.61,19.41,4,29.58,5.42a8,8,0,0,0,3.12,0c1.83-.5,2.39-2.05,1.54-2.95s-2.59-1.32-4.24-1.69a15.25,15.25,0,0,1,4.77-2.08c1.82-.37,4,0,4.23,1.06.16.69-.51,1.43-.87,2.15-1.22,2.46,2.05,4.84,6.18,4.51s7.85-3.28,7-5.57c-.47-1.32-2.11-2.27-3.11-3.43a2.38,2.38,0,0,1,.84-3.92c4,.39,5.67,2.95,8.14,4.72s8.43,2.42,10.55,0c1.35,1.67,5.39,2.17,8.5,1.05a3.73,3.73,0,0,1-2.54-2.93,16.63,16.63,0,0,0,5.27,0c1.78-.37,3.48-1.51,3.17-2.53-.25-.8-1.57-1.2-2.45-1.77s-1.06-1.76.29-2.19c3.25,1.66,8.26,2.08,12.9,1.08l-7.39-3.15c1.38-1,3.64-1,5.52-.94A286.65,286.65,0,0,1,880.18,176c2.29.34,5.09.63,7.13-.45A188.75,188.75,0,0,1,855.74,164l5.48-1.25a404,404,0,0,0-53.78-20.91,79.12,79.12,0,0,0-7.86-2.12c-1.51-.3-3.08-.54-4.58-.86-1.9-.41-3.69-1-5.47-1.48l-22.23-6.67-13.2-4-8.5-2.55Zm42.83,84.87c-1.74,2-5.64-.07-7.34-.58a4,4,0,0,0-1.23-.22,1.54,1.54,0,0,0-1.16.45c-.14.22,0,.44.15.62a5.59,5.59,0,0,0,2.79,1.57c.74.19,1.7.53,1.27,1s-1.38.41-2.15.55-1.68.74-1.74,1.29c3.69.68,6.37,2.58,7,4.92a1.38,1.38,0,0,0,.27.68,2.67,2.67,0,0,0,.9.52,20.92,20.92,0,0,0,4.07,1.38,11.15,11.15,0,0,0,5-.08,12.36,12.36,0,0,1,1.91-.46,5.35,5.35,0,0,1,1,0q3.56.18,7,.56c3.77.41,7.59,1,11.59.42a4.18,4.18,0,0,0,1.76-.53c1-.67.19-1.55.35-2.37s1.19-1.51,1-2.24-1.56-1.11-2.57-1.56c-1.39-.61-2.24-1.65-3.91-2-2-.42-4.49.24-6.67.1a8.81,8.81,0,0,1-4.46-1.56c-1.16-.77-2.11-1.66-3.4-2.36a1.3,1.3,0,0,0-.87-.18,1.39,1.39,0,0,0-.55.3,5.28,5.28,0,0,1-2.74,1.54,4.17,4.17,0,0,1-2.07-.4c-.65-.27-1.36-.65-1.1-1.16a2.66,2.66,0,0,1,.68-.65c1.06-.86,1.21-2,.35-2.76a2.34,2.34,0,0,0-2.05-.43c-.36.09-.66.27-1,.39a5.62,5.62,0,0,1-2.2.12c-1.87-.16-3.72-.35-5.57-.56-.77-.08-1.9-.06-2.2.43a.55.55,0,0,0,0,.54,1.5,1.5,0,0,0,.7.81,1.91,1.91,0,0,0,1.52,0,4.48,4.48,0,0,0,.56-.36C772.6,201.65,777,203.7,775.59,205.26ZM253.51,239a5.88,5.88,0,0,1,5,2.78c.25.33.51.7.3,1.09-.29.57-1.45,1-1.49,1.56,0,.35.4.6.81.8a24.47,24.47,0,0,0,4.35,1.57c1.46.39,3.16.77,3.54,1.71s-.65,2-.7,3c-.06,1.2,1.35,2.09,2.85,2.74a5.18,5.18,0,0,1,1.93,1.1c.4.5.23,1.25-.65,1.62-1.49.63-3.86-.19-4.76.75-.6.62.41,1.17,1.32,1.46,4.93,1.55,10.08,2.9,15.4,4a2.59,2.59,0,0,0,.93.07,2.28,2.28,0,0,0,.93-.43,8.42,8.42,0,0,0,1.85-1.75c-3-1.68-4.44-4.16-5.8-6.57q-1.4-2.5-2.81-5a4.86,4.86,0,0,0-1.59-1.91c-.73-.48-1.75-.76-2.55-1.19-2-1.05-2.48-2.82-2.7-4.51a2.06,2.06,0,0,0-.43-1.25,4.38,4.38,0,0,0-1.56-.86,25.88,25.88,0,0,0-7.19-2c-1.69-.16-3.52-.08-5.1-.4s-2.65-.93-4.14-1.23c-2.61-.52-14.45.45-10.54,3.23a9.4,9.4,0,0,0,5.76,1.22C248.89,240.39,251,239.07,253.51,239Zm6.31,24.24a15.59,15.59,0,0,0-4.15-1,3.73,3.73,0,0,0-2.57.34c-.6.51,0,.78.24,1.19.35.59-.44,1.34-.27,2s1.05.89,2,1,1.91.17,2.75.4c1.2.31,2.19,1,3.61.81C266,267.29,261.27,263.91,259.82,263.28Zm25.86,4.51a6.85,6.85,0,0,0,.41,2,1.4,1.4,0,0,1-.31,1.28,4.15,4.15,0,0,1-2.58,1,12.74,12.74,0,0,1-2.85-.18,5,5,0,0,1-1.74-.45c-.71-.42-.7-1.12-.85-1.75a1.69,1.69,0,0,0-1.79-1.26,1.39,1.39,0,0,0-.4.06,1.28,1.28,0,0,0-.44.26l-1,.79c-.43.34-.88.71-.93,1.1a1.1,1.1,0,0,0,.39.81,7.62,7.62,0,0,0,3,2.16,10.4,10.4,0,0,0,3.2.61,8.1,8.1,0,0,1,1.66.13,2.3,2.3,0,0,1,1.49,1.44,2.1,2.1,0,0,0,1.77,1.28c1.17.1,2.39-.55,3.63-.69a5.61,5.61,0,0,1,3.66,1.05l2,1.26a6.21,6.21,0,0,0,1.57.77c1.5.44,3.55.15,5.07.58a6.94,6.94,0,0,0,1.34.37,3.06,3.06,0,0,0,2.94-1.53,2.55,2.55,0,0,0-.67-2.25l-1.24-1.8a3.1,3.1,0,0,1-.6-1.24c-.07-.62.3-1.29.22-1.91-.1-.95-1.2-1.66-2.49-2.09s-2.81-.67-4.19-1a17.08,17.08,0,0,1-3.39-1.16c-.62-.31-1.08-.71-1.75-1C288.9,265.64,285.9,265.85,285.68,267.79Zm26.95,15.09a3.57,3.57,0,0,0-1.63-.31c-.67,0-1.39.18-2.07.25-.93.1-1.93.25-1.39.87.26.3.16.71.16,1.07a2.27,2.27,0,0,0,1.59,1.94,1.32,1.32,0,0,0,.51.14,3.27,3.27,0,0,0,.61,0,18.92,18.92,0,0,1,3.54.11,3,3,0,0,0,1.69-.28.67.67,0,0,0,.17-1,2.48,2.48,0,0,0-1.17-.81c-.47-.18-1.06-.3-1.23-.62C313.11,283.64,313.48,283.25,312.63,282.88Zm12.16,13.35a4.2,4.2,0,0,1-1.5,2,4.08,4.08,0,0,0-1.18,1.16,2.32,2.32,0,0,0-.11.86c-.09,1.25-1.34,2.49-2.15,3.73a2,2,0,0,0-.31.63c-.05.26,0,.5,0,.76-.15.93-1.69,1.72-2.21,2.65a3.27,3.27,0,0,1-.38.68,3.72,3.72,0,0,1-1.42.8,42.71,42.71,0,0,1-4.91,1.6,9.56,9.56,0,0,0-3.19,1.21,1.19,1.19,0,0,0-.44.53c-.14.47.51.83,1.26.89a8.21,8.21,0,0,0,2.33-.31,14,14,0,0,0,3.5-1.18,12.58,12.58,0,0,0,1.81-1.32,28.75,28.75,0,0,1,4.38-2.85,7.66,7.66,0,0,0,1.13-.67,4.24,4.24,0,0,0,.92-1.11,25.9,25.9,0,0,1,4.51-5.13,4.26,4.26,0,0,0,.95-1c.32-.57.14-1.14.29-1.72s.88-1.44.79-2.14-.8-1.1-1.49-1.53L325,293.27C322.91,294.3,325.09,295.07,324.79,296.23Zm22,141.28c2.43-2.36,4.94-5.27,3-7.33-.6-.63-1.56-1.1-2.18-1.72a5.15,5.15,0,0,1-1.06-1.83c-1.67-4.19-3.54-7.82-4.77-12.11-.49-1.69-1.11-3.5-3.35-4.42s-5.33-.75-7.38-1.69c-2.37-1.09-2.73-3.42-5.51-4.18a29.12,29.12,0,0,0-3.49-.46c-1.16-.17-2.3-.57-2.47-1.29-.24-1,1.32-2,1.34-3s-1.57-1.64-2.12-2.56.15-2.47-.83-3.39a13,13,0,0,0-2.62-1.29,14.52,14.52,0,0,1-2.31-2,4.54,4.54,0,0,0-3.58-.95c-2,.32-3.93,1.94-5.56,1.43-1.13-.36-.7-1.51.32-2.17s2.43-1.07,3.54-1.69,1.88-1.68,1-2.23c-.38-.24-1-.32-1.38-.55-.86-.49-.46-1.44-.85-2.13-.56-1-2.7-1.59-2.07-2.68,1-1.75,6.8-.91,7.66-2.68.31-.64-.38-1.18-.8-1.72-1.37-1.75.07-4.09,1.84-6.08.95-1.07,2.06-2.29,1.54-3.32-.24-.48-.83-.85-1.13-1.32-.76-1.21.49-2.73.57-4.11.14-2.52-2.65-4.25-3.3-6.66-.39-1.46-2.89-2.12-5.12-2.65a28.4,28.4,0,0,1-7.11-2.39c-2-1.11-3.3-2.71-2.94-4.5.32-1.62,2-3.32,1.42-4.82-.31-.85-1.29-1.5-1.65-2.33-.61-1.43.67-3.2-.21-4.55-.7-1.08-2.59-1.6-4-2.37-.22-.13-.44-.29-.41-.49s.32-.4.6-.57c1.28-.77,2.7-1.8,2.23-2.68-.26-.49-1.07-.86-.81-1.4s1.65-.82,2.6-.71a9.33,9.33,0,0,0,2.85.21,4.07,4.07,0,0,0,2.33-1.39c.38-.45.69-1,.33-1.36-.51-.54-2-.36-3,.05a19.39,19.39,0,0,1-3,1.26,6.5,6.5,0,0,1-4.87-1.06c.05-.37.91-.55,1.53-.56s1.43-.06,1.72-.42-.34-.7-.92-.86l-4.36-1.19c1.36-.78.92-2.24-.72-2.39-.77-.07-1.57.18-2-.19a3.42,3.42,0,0,0-3-.33c-.76.24-1.35.66-2.1.9a4.21,4.21,0,0,1-4.79-1.57c-.66-1.18-.72-2.6-2.15-3.45a3,3,0,0,0-1.2-.4,8.44,8.44,0,0,0-2.05.13,13.39,13.39,0,0,1-4.51,0c-1.35-.31-2.33-1.12-2-2.05.41-1.24,2.86-2.26,3-3.49.09-.91-1.12-1.51-2.12-2.09s-1.9-1.44-1.15-2.31c.46-.54,1.53-1.11,1.12-1.57a1.67,1.67,0,0,0-1.12-.27c-3.27,0-6.25,2-9.57,2.42a24,24,0,0,0-3.07.35,7.68,7.68,0,0,0-3.95,2.9,6.24,6.24,0,0,1-4.64,2.24c-1.7-.09-2.35-1.5-1.08-2.36,1.8-1.23,5.75-.95,6.65-2.43.42-.69-.21-1.36,0-2.07.36-1,2.17-1.59,3.77-1.87a17.47,17.47,0,0,0,4.66-1.1c1.33-.67,1.66-2.14.16-2.31a4.28,4.28,0,0,0-1.72.25,24.33,24.33,0,0,1-3.84,1.27c-1.84.27-3.41-.37-5.17-.5a34.83,34.83,0,0,0-4.17.2,19.88,19.88,0,0,1-5.36-.39c-1.8-.4-3.76-1.07-5.71-.44a17.12,17.12,0,0,0-2.23,1.1,15.41,15.41,0,0,1-2.19.81q-4.56,1.44-9.22,2.68a19.58,19.58,0,0,1-4.08.77c-1.37.06-2.76-.23-3.31-.91s0-1.91.08-2.89a2.9,2.9,0,0,0-4.44-2,2.39,2.39,0,0,0-1.22,1.79,3.7,3.7,0,0,1-.55,1.88c-.87,1.17-3.21,1.91-4,3.1-1,1.52,1.19,2.89.51,4.44a4.08,4.08,0,0,1-1.25,1.37c-2.3,1.81-5.71,3.12-7.66,5-1.41,1.39-2,3-3.61,4.31a14.07,14.07,0,0,1-8.37,2.39c-.8,0-1.59-.08-2.4,0-3.69.35-5.06,2.88-8.91,3.12-2,.12-4.21,0-6,.78-2.08.86-2.94,2.56-5.07,3.36-1.83.69-4,.5-6,.76a14.7,14.7,0,0,0-9.59,5.84c-.4.52-.77,1.08-.64,1.59s.9,1,1.12,1.51c.49,1.24-1.88,2.59-4.1,3.06s-4.58.48-6.71,1.15a15,15,0,0,0-5.58,3.58c-1.46,1.32-3,2.76-3,4.2a5.52,5.52,0,0,0,.6,1.95c2.15,5.48-2.83,11.76-3.94,17.69-.45,2.38-.28,4.75-1.3,7.14-.9,2.12-4,4.12-3.45,6.13a6.94,6.94,0,0,1-.89,5.31,23.24,23.24,0,0,0-1.62,2.7c-1.09,2.68.88,5.08,2.28,7.43,2.84,4.73,3.5,10.06,6.47,14.76,1.08,1.7,2.48,3.41,2.09,5.36-.46,2.29-3.27,4.41-6.13,6.23-1.33.84-2.77,1.74-3.23,2.81a4.86,4.86,0,0,0-.25,1.4,7.38,7.38,0,0,1-2.89,4.52c-1.94,1.58-4.64,2.8-6.92,4.23-3.08,1.93-3.66,3.76-4.57,6.08a3.74,3.74,0,0,1-2.24,2.19c-1.48.54-3.28.29-4.77.82a3.56,3.56,0,0,0-2.33,2.56,5.09,5.09,0,0,1-1.16,2.82,13.29,13.29,0,0,1-2.61,1.67,13.47,13.47,0,0,0-4.7,4.17,16.43,16.43,0,0,1-2.2,3.36,22.74,22.74,0,0,1-4,2.68c-4.43,2.68-7.63,6.08-9,9.54a8.09,8.09,0,0,1-1.38,2.75c-.93,1.05-2.51,1.89-3.49,2.92S59,480,57.94,481c-2.23,2.13-8.23,2.82-8.86,5.16-.42,1.58-3,2.92-5.65,3.39-1.65.29-3.5.37-4.76,1.14a3.17,3.17,0,0,0-1.42,1.85,6.48,6.48,0,0,0,.12,4.79,2.67,2.67,0,0,1,.4,1.81,4.66,4.66,0,0,1-1.6,1.84A21,21,0,0,1,32,503.86c-1,.5-2.17.89-3.14,1.43s-1.76,1.28-1.66,2c.06.45.48.8.67,1.22.62,1.34-1.06,2.89-2.64,4.18s-3.26,2.85-2.63,4.19c.3.63,1.1,1.1,1.49,1.71s.21,1.53-.89,1.9a4.56,4.56,0,0,1-2.62-.13,2.77,2.77,0,0,0-1.76,2.42,4.51,4.51,0,0,1-.51,2.58c-.86,1.2-3,2-5.11,2.3-1.52.23-3.28.33-4.3,1.1a1.27,1.27,0,0,0,0,2.15,7,7,0,0,0,2.64,1.31c1.44-.25,2.89.27,3.05,1.1s-1,1.8-2.43,2.06c-1.65.29-3.3-.28-4.87.19a4.45,4.45,0,0,0-1.48.8c-2.38,1.89-2.11,4.26-2.93,6.44-1,2.79-4.06,5.83-2.36,8.2.5.7,1.38,1.26,1.76,2,.73,1.44-.62,3.17-.7,4.76-.1,1.87,1.55,3.45,1.57,5.31,0,1.45-1,3-.41,4.37s2.8,2.35,4.89,3.11l6,2.2-1.85,1.6c1.5,1.62,3,3.25,4.51,4.87A8.41,8.41,0,0,0,18.37,581c1.84,1,4.63,1.3,7.29,1.53l10.54.9c-1-2.55-6-3.66-6.89-6.23-.24-.7-.15-1.46-.38-2.17-.58-1.83-3.25-3.23-2.68-5.19.27-.93,1.24-1.81,1.6-2.73.57-1.45-.43-2.75-1-4.07A3,3,0,0,1,28.32,559c1.61-.85,3.84-.89,5.64-1.56a11.92,11.92,0,0,0,2.74-1.58c2.73-1.91,5.78-3.92,9.61-4.64a10,10,0,0,0,3.67-1c1.23-.85.63-2.06-.5-2.7s-2.7-1-3.64-1.78c-1.14-.93-1.14-2.26-1-3.52a4.51,4.51,0,0,1,2.95-4.06c2.42-1,5.19-.25,7.86-.41,1.47-.08,3.35-.75,3.25-1.61-.06-.55-1-.91-.89-1.48.13-1,2.54-1.23,4.08-1.78.92-.33,1.64-.87,2.58-1.17a13.36,13.36,0,0,1,4.42-.21c1.46,0,3.34-.26,4-1.13s.22-1.06-.43-1.65c-.91-.8-2.66-1.12-3.68-1.87s-.56-2.4,1.22-2.57a4.3,4.3,0,0,1,1.63.22L77.46,526a11,11,0,0,0,4.87.53c4-.69,5.08-4.28,8.81-5.62a11.31,11.31,0,0,1,6.23-.15c1.87.46,3.42,1.21,5.22,1.74a27.11,27.11,0,0,0,13.41.05,9.35,9.35,0,0,0,1.83-.6,5.22,5.22,0,0,0,1.58-1.24,8.1,8.1,0,0,0,2-5.12c.13-1.89,0-3.94,2-5.61a8.58,8.58,0,0,1-3.51-2.15c-.68-.95-.37-2.33,1.2-3.09,4,2,3.77,6.2,8.22,7.82s10.71-.08,15.69-2,10.17-4.37,15.62-4.42a17.75,17.75,0,0,0,4.31-.22c2.61-.67,3.71-2.7,6.14-3.65a26.82,26.82,0,0,1,4.75-1,33.58,33.58,0,0,0,5.54-1.69l9-3.32a11.33,11.33,0,0,0,3-1.44c1.48-1.2.84-2.91,1.5-4.24a9.61,9.61,0,0,1,4.67-4.14c4.72-2.18,10.61-2.62,16.1-3s11.26-.67,15.9.58c2.43.66,4.48,1.74,7.16,2.09,4,.53,8.66-.7,12.57-2.24s7.54-3.46,11.7-4.66a37.16,37.16,0,0,0,6.67-2.11c4.36-2.25,4.73-6.49,9.55-8.33,1.37-.52,2.93-.76,4.34-1.24,7.33-2.47,6.83-9.48,13.91-12.26,3.36-1.32,7.54-1.26,10.84-2.64,1.35-.56,2.45-1.33,3.74-1.95a34.88,34.88,0,0,1,7.11-2.18l12.3-2.85a42,42,0,0,0,6.69-1.92C341.8,442.25,344.35,439.83,346.75,437.51ZM95.23,306.19c-.19.31-.26.62-.48.93-.59.81-2.09,1.3-3,2a.71.71,0,0,0-.25.28.39.39,0,0,0,.11.31,5.32,5.32,0,0,0,4,1.56,6.21,6.21,0,0,0,2.5-.37c.77-.3,1.36-.84,1.29-1.34a2.05,2.05,0,0,0-.42-.72c-.85-1.23.47-2.45.17-3.69C98.7,303.57,95.87,305.21,95.23,306.19ZM62.32,580.05a20.89,20.89,0,0,0,2.67-.78c.91-.23,2.16-.08,2.08.47,0,.19-.2.37-.29.56-.32.68.57,1.2,1.38,1.58a3.58,3.58,0,0,0,.92.34,5.72,5.72,0,0,0,3-.49,14.4,14.4,0,0,1,2.86-1c.81-.14,1.9-.22,2.13-.7a.49.49,0,0,0-.09-.49A4.16,4.16,0,0,0,74.45,578c-1.47-.37-3.33-.32-4.58-.89a9.53,9.53,0,0,1-1.67-1.21,3.5,3.5,0,0,0-2.31-.68c-1.15.08-2.16.72-3.31.86-.41.06-.82,0-1.23.11C57.44,576.9,59.05,580.42,62.32,580.05Zm237-343.88-.33.74a2.52,2.52,0,0,0-.31,1.16,1,1,0,0,0,.81.91,4.19,4.19,0,0,0,3-.65c1.18-.72,1.92-1.67,3.2-2.31a6.12,6.12,0,0,0,1-.55,1,1,0,0,0,.35-1.16,3,3,0,0,0-2-1.61,4.64,4.64,0,0,0-1.63-.31c-.64,0-1.28.14-1.93.2a5.85,5.85,0,0,1-2.25-.23,3.61,3.61,0,0,0-1.6-.34,2.69,2.69,0,0,0-.9.27c-1.52.69-2.42,2.07-1.1,2.79C296.79,235.66,299.91,234.86,299.34,236.17Zm-9.69,3.12c-.28.18-.48.4-.75.59-1,.73-2.88,1-3.65,1.76-.95,1,.55,2.06,0,3.13a1.87,1.87,0,0,0-.2.4c-.06.35.45.6,1,.6,2.77,0,4.26-2.84,5.26-4.05.5-.61,2.2-1.82,1.88-2.37S290.52,238.75,289.65,239.29Zm563.8,287.35a4.27,4.27,0,0,0,.49-2.4.8.8,0,0,0-.33-.74,2.34,2.34,0,0,0-.81-.21,19.21,19.21,0,0,0-3.58-.13c-1.41.07-2.85.28-4.22.23-3.59-.14-5.77-2-9-2.75s-7.41-.08-10.92-.52a22.69,22.69,0,0,1-4.26-1,11.15,11.15,0,0,1-3.38-1.59c-1.94-1.55-1.6-3.89-.68-6a1.71,1.71,0,0,1,.47-.68,6.21,6.21,0,0,1,1.54-.65,4.29,4.29,0,0,0,2-1.44c2.05-3-.88-5.73-.74-8.76.11-2.27.17-4.65-1.62-6.44-1.12-1.13-3-2-3.09-3.45-.1-1.25,1.21-2.51,2.22-3.73,5.76-7,2.35-14.82,8.34-21.74a27.71,27.71,0,0,0,3.43-4c.83-1.52.74-3.06.88-4.59a33.55,33.55,0,0,1,2.37-8.37l4.35-11.53c2-5.34,4.08-10.76,8.48-15.82,1.43-1.64,3.12-3.26,3.88-5a3.17,3.17,0,0,0-1.8-4.54c-3.4-1.35-8.77.4-13,0-3.63-.33-5.9-2.14-7.89-3.84L808,391c-1.79-1.53-4.3-3.22-7.73-2.67-4.2.68-5.83,4-9.22,5.81-4.78,2.61-12.89.86-12.44-2.68.13-.95.74-1.95.46-2.85-.63-2-5.12-2.35-6.59-4.1-1.12-1.33-.23-3.11-.22-4.71,0-3.72-4.66-6.14-9.74-8l-5-6c-.28-.33-.56-.69-.39-1.09.34-.79,2.13-1.1,3.39-1a11.12,11.12,0,0,0,3.82.13c3.72-.89,1.3-4.52,4.22-6.28,1.17-.71,2.93-.91,4.09-1.61,2-1.21.95-3.11-1.15-3.78s-4.79-.55-7.23-.78-5-1-5-2.55a8,8,0,0,0,.07-1.29c-.44-2-5.35-1.27-8.72-1.3-5.89,0-9.09-3.4-13.89-5-8.24-2.74-20.25-.07-29.43-1.83-6.86-1.32-11.21-4.91-15.07-8.4a1.83,1.83,0,0,0-1.1-.58,4.47,4.47,0,0,0-2.28.64c-6.36,3.1-14.53,3.42-22.08,4.09s-16.3,2.39-20.21,6.61c-1.56,1.69-2.65,3.92-5.64,4.53a12.47,12.47,0,0,1-3.28.09,111.77,111.77,0,0,0-23.89,1.34c-5.81.95-11.69,2.4-16.52,4.85a36.85,36.85,0,0,1-4.33,2.09c-4.73,1.7-11.32,1.19-14.48,3.92-.62.53-1,1.14-1.71,1.65-1.55,1.15-4.1,1.47-6.35,1.91s-4.86,1.39-5.14,2.75c-.25,1.2,1.52,2.12,1.1,3.32-.78,2.22-8,3.3-7,5.3,1.34,2.83-3.4,5.76-7.75,7.95-3.31,1.67-7.26,2.7-10.91,4.05s-7.24,3.26-8.37,5.63a7.63,7.63,0,0,1-.83,1.7c-1.2,1.5-4.31,2.25-5.82,3.68-1.85,1.75-.63,3.71.24,5.44,2.68,5.31,1.24,11.72-3.88,17.26-1.77,1.92-4,3.91-3.87,5.9.14,1.76,2.17,3,3.83,4.34a16,16,0,0,1,5.7,8c1,3.64,1.09,8.2,6.63,9.55,4.62,1.13,11-.69,15.57.47,3.21.82,4.71,2.88,7,4.38,5.49,3.56,15.12,3.74,23.94,3.7,4.43,0,9,0,12.77,1S600,460,599,462.72c-.41,1.09-1.41,2.17-1.58,3.26-.3,1.92,2,3.35,4.67,4.16s5.69,1.24,8,2.29c8.26,3.75,3.1,11.84-5.92,15.24-4.14,1.56-8.7,2.9-11.8,5.2-5.53,4.09-4.3,9.39-4,14.13.7,11.49-6.67,24-20.06,34a25.58,25.58,0,0,1-6.63,3.78c-2,.74-4.29,1.16-6.42,1.75-5.11,1.44-9.42,3.89-13.59,6.29l-9.9,5.68c-2.92,1.68-6,3.45-7.48,5.62a11.33,11.33,0,0,0-1.6,4.66c-1.92,9.52-7.61,19.17-16.47,27.94-3.88,3.85-8.46,7.66-10,11.84-2.21,5.87-1.7,11.5-6.46,17.08-1.18,1.38-2.56,2.81-2.65,4.25-.05.71.22,1.41-.14,2.12s-1.66,1.53-2.5,2.31c-2.21,2-1.51,4.48.06,6.32,4.25,5,13.45,7.37,22.16,9.51a63.45,63.45,0,0,0,14.72,2.36,81.63,81.63,0,0,0,9-.59l9.68-1a146.67,146.67,0,0,0,17-2.41,82.48,82.48,0,0,0,25.4-10.61c2.94-1.83,5.92-3.86,9.76-4.72,4.34-1,8.79-.2,13.17-1,6.5-1.22,10.65-5.39,13.84-9.1a28.93,28.93,0,0,1,6.57-6.17c7.34-4.67,18.54-5.28,28.25-5.34s20.64-.25,28.61-4.53a33.9,33.9,0,0,0,8.64-7.13l9.24-9.68A4.69,4.69,0,0,0,702,588a4.5,4.5,0,0,0-.63-2c-.84-2.23,1-5,4.44-6.63,2.68-1.28,3.59-1.88,5-3.7s2.32-3.75,4.23-5.44c2.89-2.58,7.56-4.27,12-5.84l24.55-8.67a29,29,0,0,1,3.12-1,32.25,32.25,0,0,1,4.17-.62c5.88-.61,11.76-1.27,17.63-1.93,17.24-1.93,35.59-4.18,49.94-11.37,3.49-1.74,6.65-3.74,10.32-5.32,3.09-1.34,6.48-2.35,9.58-3.67S852.33,528.73,853.45,526.64Zm-130.54,88.7A16.44,16.44,0,0,0,719.6,617a15.79,15.79,0,0,1-6.8,1.7c-2.25.05-4.52-.39-6.68.26-.74.23-1.41.57-2.18.74-2.11.48-3.89-.45-5.89-.7a20.41,20.41,0,0,0-5.4.36c-2.85.44-6.08,1-7.73,2.6-.8.76-1.14,1.68-2.25,2.3-.65.37-1.47.58-2.19.9-4,1.77-2.85,6-7.13,7.36-1.47.48-3.12.44-4.65.8-3.24.77-5,3-7.77,4.37-1,.47-2,.83-3,1.26a12.78,12.78,0,0,0-5.51,4.18c-.95,1.41-1.28,2.93-2.75,4.23-.82.73-2,1.37-2.43,2.18a2.32,2.32,0,0,0,.46,2.32l1.84,3a2.33,2.33,0,0,0,.87.93,5.54,5.54,0,0,0,2.34.41,33.24,33.24,0,0,0,16.48-4c1.82-1,3.38-2.24,5.19-3.29,5.46-3.17,12.75-4.77,18.69-7.6,5.61-2.67,9.95-6.4,16.12-8.48a38.3,38.3,0,0,0,4.53-1.58c2.3-1.12,4-3,6.68-3.38.83-.12,1.66-.08,2.49-.2a7.26,7.26,0,0,0,4.78-2.85c.91-1.26,1.3-2.6,2.33-3.84,1.49-1.82,7.48-6.56,3.22-8.1-2.05-.74-1.93.75-3.69,1.54C727.49,615.33,725.07,614.74,722.91,615.34Zm46.72-345.76a8,8,0,0,0,4.32-1.16c.95-.62,1.52-1.4,2.43-2a20,20,0,0,1,5.54-2.11,10.82,10.82,0,0,0,3-1.26c.82-.57,1.27-1.36.82-1.93a3.38,3.38,0,0,0-1.58-.82l-6.17-2a9.11,9.11,0,0,0-3-.6,3.68,3.68,0,0,0-2.85,1.07c-.22.35-.3.82-.88.95a1.71,1.71,0,0,1-1-.16,26.32,26.32,0,0,0-4.16-1.33,2.74,2.74,0,0,0-1.18-.07c-.87.18-1.07.89-1.72,1.31a6.56,6.56,0,0,1-2.36.63c-.83.14-1.79.46-2,1s.7.87,1.29,1.22a1.71,1.71,0,0,1,1,1.87.63.63,0,0,1-.25.4,2,2,0,0,1-1,.23c-2,.08-11.3-1-9,1.95,1.41,1.8,6.69,3.57,10.35,3.05a22.9,22.9,0,0,1,4.19-.69C766.92,269.05,768.14,269.55,769.63,269.58Zm35.85,10.3c-.07-.4-1.1-.22-1.8-.08a3.68,3.68,0,0,1-3.07-.6c2.56-.71,4.38-2.5,4.12-4-.15-.91-.93-1.76-.35-2.69.28-.44.87-.89.77-1.32-.07-.26-.38-.44-.64-.63a2.63,2.63,0,0,1-.84-3.61,4.42,4.42,0,0,0,.66-1.27c.11-.72-.58-1.29-1.11-1.86s-.9-1.34-.22-2a4.88,4.88,0,0,1,3.25-.86c1.15,0,2.23.27,3.4.25a7.28,7.28,0,0,0,5.1-2l-5.63-1.72c-.94-.29-2-.72-1.8-1.41.14-.51,1-.95,1.83-1.13a15.84,15.84,0,0,1,2.57-.23,24.71,24.71,0,0,0,5.66-.94c1.25-.36,2.45-.81,3.73-1.12s2.79-.46,4.17-.76a7.26,7.26,0,0,0,3.54-1.59c-4.65-.31-9.65,1.72-14.45,1.82a43.77,43.77,0,0,1-6-.5,4.69,4.69,0,0,0-1.79,0,8,8,0,0,0-1.11.5,10.86,10.86,0,0,1-5.88.53c-2.74-.36-4,1.2-6.61,1.4-1,.08-2,0-3,0-.65,0-3.78.35-2,1a5.72,5.72,0,0,0,1.74.12c1.85,0,3.37.81,3.65,1.87a10,10,0,0,0-5.14,2.22c-.64.6-.87,1.53.16,1.65a4.16,4.16,0,0,0,1.56-.28,5.61,5.61,0,0,1,3-.15c.83.27,1.07,1.08.25,1.55a4.33,4.33,0,0,1-2.17.35,6.19,6.19,0,0,0-2.23.16c-.7.23-1.12.9-.53,1.11a5.91,5.91,0,0,0,2-.17,2.65,2.65,0,0,1,2,.76,5.38,5.38,0,0,1,2,5,3.11,3.11,0,0,1-2.33,2.47,6.45,6.45,0,0,1-4.09-.52l-2.81-1.1a2.57,2.57,0,0,0-1.13-.23,3.31,3.31,0,0,0-.77.17l-9.58,2.85a4.79,4.79,0,0,0-1.78.8c-.58.54-.28,1.21.38,1.58a9.33,9.33,0,0,0,2.49.7,22.25,22.25,0,0,1,5.17,1.7c.3.15.62.37.46.63-.3.47-1.4.26-2,0a17.17,17.17,0,0,0-6.12-.5c-3.36.11-7,.29-9.93,1.61,1.86,1.34,6,.36,8.84,1,1.76.4,2.94,1.44,4.89,1.55,1,.06,2.14-.15,3.14-.05a5.61,5.61,0,0,1,2,.66c1.67.87,2.94,2,4.49,2.95a11.63,11.63,0,0,0,5.88,1.84c2.4.08,5.28-.8,6.28-2.23.38-.55.51-1.18,1.23-1.61,1-.63,2.58-.49,3.91-.77C804.69,282.36,806.06,280.91,805.48,279.88ZM1561,503.47c-3.61,2.58-9.5.44-12.37-1.78l-18.71-14.55c-7.4,6.19,9.61,13.37,1.75,19.38-7.2-2.42-16.25-4.82-24.64-1.92-3.44,1.19-7.29,3.27-10.36,2.39a5.13,5.13,0,0,1-2.82-2.42,13.51,13.51,0,0,0-10.57-5.18c-5-.21-11.34,2.48-11.53,5.57-.22,3.66,7.14,5.09,8.85,8.4,1.6,3.09-2.09,6.76-5.57,9.84l-16.78,14.87c-8.67-4.41-2.41-13.89-4.47-21-.65-2.24-2.18-4.28-2.68-6.55-1.16-5.22,3.87-11.39,12-14.76,3.34-1.39,7.2-2.36,9.91-4.19s3.43-5,.17-5.73c-3.62-.82-7.82,1.88-12,2.46-3.28.46-6.5-.63-7.2-2.44s1.22-4.12,4.28-5.17c-3.2-1.87-9-2-13.51-.33s-7.39,5.06-6.71,7.86a11.17,11.17,0,0,1-10.82-3.9c-1.9-2.5-2.85-5.45-6.28-7.19-4.06-2.06-10.5-1.86-15.44-3.19-3.56-1-6.3-2.69-10.08-3.4-8.28-1.56-19.4,3-22.26,8.48s1.69,11,9.41,13.18c5.46,1.55,13.37,2.62,12.83,6.52-.21,1.53-1.26,3.76,1.2,3.91,2.89-.62,5-2.74,4.3-4.35a17,17,0,0,1,3.58,9.93,35.37,35.37,0,0,1-.9,7.3q-2.07,10.65-4.13,21.3c-3,1.29-6.88.17-7.9-1.64s-.11-4,.7-6a56.61,56.61,0,0,0,4-19.07,1.68,1.68,0,0,0-.47-1.5c-1.68-1.42-5.89.68-7.13,2.55-4.6,6.92-2,15.8-12.45,20.19-4,1.66-8.86,2.1-12.61,3.93-4.32,2.11-7.57,6.07-12.58,6-3.66-.08-5.41-2.5-8.87-3-3.25-.43-6.88,1-10,2.25l-15.87,6.65a5,5,0,0,0-2.21,1.39,1.54,1.54,0,0,0,0,1.43q2.31,6.06,4.61,12.14a10.53,10.53,0,0,1-6.75,5.37c-3.44,1-7.85.26-8.32-1.79-.4-1.74,1.9-3.58,2.55-5.41,1.61-4.52-6.88-7.91-4.08-12.34.85-1.35,2.68-2.55,3.19-3.92.8-2.16-1.91-3.84-4.87-4.74s-6.44-1.43-8.5-3-1.65-4.55,1.8-5.55c.74-2.46-4.8-3.25-8.79-2.24s-7.61,3-11.71,3.36c-3.39.32-8.34.22-8.91,2.25-.32,1.1,1.3,1.81,2.76,2.31l19.89,6.82a6.3,6.3,0,0,1,2.82,1.5c1.31,1.65-1.67,4-5,4.7a25.59,25.59,0,0,1-9.51-.34c.9,11.32-2.79,23.66-14.34,34.13s-32,18.51-50.92,17.85c-8.24-3.65-19.77-4.76-31.07-3.4,1.48-2.43.43-5.08-2.56-6.43-7-3.17-19.53,1.94-23.07,7.64s-1.6,11.45-1.75,17.17-3.84,12.73-13.09,15.49c-5.45,1.63-11.33,1.3-17,1.6s-12.49,1.74-15.12,5c-3.5,1-5.2-2.12-3.55-4.21s4.83-4.07,4.67-6.18c-.12-1.47-1.85-2.53-2.5-3.88-1.13-2.37,1.14-5.15,1.79-7.77s-2.05-5.7-6.34-4.72c-14.88,4.73-25.36,15.11-24.52,24.28.44,4.76,3.58,9,4.07,13.77s-2.82,10.67-10.59,13c-3.22-1.81-3-5.05-2.56-8l3.75-25.6a14.73,14.73,0,0,1,2.3-6.9c1.44-2,3.82-3.86,6-5.71,9.92-8.4,16.33-18,18.32-27.54-5.41,2.31-13.16.36-13-3.27s6.68-7,7.69-10.77-4-7.09-2.1-10.92c.78-1.54,2.64-2.95,3.19-4.51,1.42-4-6.07-6-12.63-5.93-8.64.14-17.44,2-26,3.94L1028.88,563a74.18,74.18,0,0,0-9.85,2.64,60,60,0,0,0-8.09,3.93L977.3,588.08c-6.28,1.73-10.84-3-8.84-6.84s7.38-7.09,10.46-10.81c5.78-6.95,2.77-14.35,4.16-21.63,1-5.36,4.58-10.82,10.15-15.58,2.38-2,5.07-5.05,2.13-6.19-1.52-.59-3.79-.21-5.66-.4-3.82-.39-5.23-3.18-4-5.6s4.27-4.49,7.22-6.45c-5-2.56-7.4-6.83-6.22-11.19.39-1.46,1.15-3,.55-4.32-.52-1.15-2-2-3.53-2.66-7.27-3.28-16.64-4.8-24.41-7.69s-14.14-8-11.84-14c-11.65-2.66-19.76-9.12-21.12-16.83-.44-2.44-.28-5.08-2.24-7.08s-7.15-2.92-10.55-1.05c-4.68,2.58-1,6.39.48,9.56,1.86,4-1.26,9.21-7.43,12.33a7.77,7.77,0,0,1,8.54,4c1.16,2.34,1.89,5.13,5.53,6.13,4.82,1.32,11.1-1.36,15.81-3.82q2.35,9,4.72,17.95c1.06,4,.33,9.86-6.73,11.34-3.85.81-7.49-.32-11.37-.17-6.72.26-12.75,4.23-19.52,5-6.34.71-11.69-1.57-17.93-1.56-4.83,0-9.75,1.37-14.65,2.16-17,2.75-32.56-1.52-46.57-5.7.48-4.11,4.82-8.07,7.81-12.07,5.12-6.83,6.45-14,7.7-21.09,2-11.18,5.84-26.54,7.83-37.72,1.36-.85.86-2.15-.26-2.86s-2.74-1.13-3.69-1.93c-1.59-1.35-.93-3.37-.21-5.18l1.83-4.66a6.12,6.12,0,0,1,2.23-3.15c2.11-1.45,5.54-1.69,8.43-1.62s6,.3,8.73-.63a15.54,15.54,0,0,0,4.6-2.69l5.51-4.18a35.53,35.53,0,0,1,3.7-2.57c1.23-.71,2.59-1.33,3.79-2.06a10.91,10.91,0,0,0,4.3-4.37,1.18,1.18,0,0,0-1.36-1.75,6.31,6.31,0,0,0-1.64.71,7.12,7.12,0,0,1-4,.23c-4.25-.77-7.32-3-7.93-5.66-.3-1.35-.51-3.14-2.81-3.23-2.53-.11-4.42,2.05-7,2.55a6.83,6.83,0,0,1-3.82-.46c-3.19-1.35-4-4-4-6.56s.62-5.2-.52-7.52c-.87-1.78-2.71-3.63-1-5.49a9.32,9.32,0,0,1,2.24-1.6,15.66,15.66,0,0,0,4.26-3.06c1-1.18.87-2.44-.64-3.1-.18-.93-2-1.3-3.59-1.17s-3.22.6-4.84.77-3.47-.05-3.9-.93c-.23-.47-.51-1.23-1.34-1a1.83,1.83,0,0,0-1.59,2.08c.12.76.42,1.62-.47,2.3-.43.33-1.08.56-1.45.91a1.26,1.26,0,0,0-.15,1.5l1.16,3.06a1.3,1.3,0,0,1,.05,1.14c-.54,1-2.66,1.24-4.21,1.16s-3.34-.24-4.65.45c-1.7.91-1.43,2.73-3.4,3.36a3.46,3.46,0,0,1-4.05-1.75c-1-1.79-2-3.71-1.06-5.73.41-.86,1.16-1.68,1.68-2.53,1.53-2.51,1-5.05.79-7.53s.11-5.25,2.88-7.45a29.35,29.35,0,0,0,2.76-2.1,3.52,3.52,0,0,0,.24-4.66c-.91-1.42-2.32-2.67-2.93-4.17s-.35-3.54-1.38-5.1c-.7-1-2-1.88-2.64-2.94-.84-1.33-.64-2.91-.7-4.42a4.2,4.2,0,0,0-2.29-4c-1.79-.89-5.32-.67-6.72.75a2.83,2.83,0,0,0-.69,2.35c.11,3.26.12,6.54,0,9.82a8.7,8.7,0,0,0,.36,3.56c.59,1.46,2,2.66,3.19,3.93a18.53,18.53,0,0,1,4,6.28,2.75,2.75,0,0,1-1.86,3.87c-2.22-.13-1.13-2.38-2.54-3.3-1.2-.78-4.21.06-4.41,1.23-.09.53.3,1,0,1.56a2.83,2.83,0,0,1-1,.82,20.86,20.86,0,0,1-10.21,2.49,10.55,10.55,0,0,0-4,.3,4.24,4.24,0,0,0-2.37,2.61,3.87,3.87,0,0,1-3,2.27,5.17,5.17,0,0,1-4.52-2.7c-.72-1.31-1-2.78-2.42-3.82a19.36,19.36,0,0,1-2.47-1.67,1.35,1.35,0,0,1,.63-2.24,4.24,4.24,0,0,1,3.82.39,9.65,9.65,0,0,0,2.7,1.77c1.75.54,4.21,0,6.18.3s3.58,1.4,5.64.87a5.59,5.59,0,0,0,1.83-.9c4-2.82,5.15-6.88,2.61-9.62-1.66-1.78-4.69-3.07-5.21-5.17-.27-1.07.16-2.23.17-3.34,0-2.51-2.06-4.64-2.29-7.11-.11-1.24.26-2.54.18-3.78a3.4,3.4,0,0,0-2.34-3.13c-1.73-.66-4.15-.46-6.38-.39-4.5.14-9.07.06-12.66-1.17-1-.34-2-.78-1.95-1.5,0-.3.27-.6.34-.91.16-.67-.55-1.23-1.49-1.5a13.17,13.17,0,0,0-3.16-.32,12,12,0,0,0-3.16.22c-1,.25-2,.87-2,1.49,0,.32.23.6.16.92-.12.53-1,.94-1.85,1.21a34.89,34.89,0,0,1-11.55,1.25,80.52,80.52,0,0,0-11.51.09c-3.91.47-8.07,1.88-9.92,4.11a9,9,0,0,1-1.94,2.19,9.17,9.17,0,0,1-3,1.09,39.85,39.85,0,0,1-8.52,1,12.43,12.43,0,0,0-2.85.19c-1.41.32-2.51,1.13-3.91,1.48a7.1,7.1,0,0,1-5.67-1.16c-1.33-.94-2.38-2.11-4.32-2.59s-4.25-.19-6.43-.17-4.59-.4-5-1.63c-.55-1.49,2.08-3.38,1-4.73-.57-.74-2.1-1-3.55-1a27.57,27.57,0,0,1-4.31-.18c-1.32-.26-2.37-1.07-1.84-1.94a4,4,0,0,1,1.32-1.09l3.42-2.16a5,5,0,0,0,1.48-1.21,3.2,3.2,0,0,0,.29-1.47c.33-2.23,3.74-4.16,7.09-5.52s7.11-2.54,9.4-4.54c1.6-1.39,2.3-3,3.85-4.43s4.1-2.46,6.19-1.77a8.65,8.65,0,0,1,7.1.81c1.71,1.06,2.84,2.47,4.9,3.29s4.74,1,6.74,1.77,3,2,4.79,2.8a20.39,20.39,0,0,0,4.57,1.1c2.59.41,5.68.71,8.17-.37a10.31,10.31,0,0,0,2.87-2l3.5-3.22c1.84-1.69,3.76-3.56,3.53-5.37a4.93,4.93,0,0,0-1-2l-4.54-6.73c-.33-.49-.66-1.07-.2-1.62a3.45,3.45,0,0,1,1.82-.87,8.67,8.67,0,0,1,5.81.91c1.47.82,2.5,1.89,4,2.69a12.06,12.06,0,0,0,3.2,1.14,3.17,3.17,0,0,0,1.16.09A1.71,1.71,0,0,0,774,289a1.75,1.75,0,0,1,1.83-1.92c1.29,0,1,1.2.43,2,1.71,1.3,4.85,1.85,7.9,1.36a7.49,7.49,0,0,1,1.4-.15,3.05,3.05,0,0,1,1,.21c1.21.41,2.27,1.08,3.79,1,2.43-.08,4.15-1.89,6.52-2.5a14.17,14.17,0,0,1,5.07,0,32.54,32.54,0,0,0,9.87-.31c2.43-.5,4.7-1.36,7.08-2a15.77,15.77,0,0,1,7.18-.51,15.48,15.48,0,0,0,3.07.74,24.38,24.38,0,0,0,2.92-.27c2.43-.2.54,1.7,2.44,2.34a12.21,12.21,0,0,0,4.12.28c2.13-.08,4.69-.32,6-1.48a3.35,3.35,0,0,0,.86-1.47c.73-2,1.46-4.07,2.18-6.1a2.1,2.1,0,0,1,.91-1.24,5.75,5.75,0,0,1,2.21-.53l12.91-1.26c1.4-.14,3.26-.07,3.28.75,0,.33-.31.66-.63,1a51,51,0,0,1-12.83,8.65c-1.44.7-3.06,1.47-3.45,2.49-.48,1.24,1.08,2.18,2.52,2.9a5.84,5.84,0,0,0,3.49.78c.61-.09,1.17-.31,1.76-.45,2.73-.65,5.18.39,7.09,1.38.9.47,1.88,1.11,1.44,1.9-.14.23-.4.47-.41.71s.38.5.76.66a21.8,21.8,0,0,0,9,1.34c2.34-.11,4.95-.5,6.72.2,2.23.89,2.51,3.29,5.39,3.34,8.57.18,18.06-2.24,18.25-7.42l12.68,2.9c4.19-1.34,3.49-5.7-.9-5.63,5.14-2.91,12.1-.52,16.83,1.6s13.75,3,16.56-.74c-3.26-3.57-11.38-4.06-17.6-5.78s-10.5-7.14-4.39-10.3c3.75-2,8.82-1.57,13.37-1.8s10.56-2.36,9.88-4.95c-12.68-3.75-31.54-.64-42.35,7-2.89,2-5.26,4.35-8.65,6.08a52.54,52.54,0,0,1-10.66,3.57c-13.17,3.4-29.63,6.57-38.12,1.27,7.89-.13,16.22-4.53,17.62-9.31s-4.37-9.11-12.21-9.16c-2.69,0-5.59.39-8-.07-4.18-.79-5.49-4-4.17-6.75s4.62-5.27,7.83-7.62c18.45.85,38.8,1.4,56-5.38,4.86-1.92,9.47-4.42,14.85-5.22,5.06-.75,9.84.17,14.32,1.07,9.24,1.86,18.51,3.73,26.9,6.46,18.46,6,31.85,15.85,44.9,25.53,4.32,3.2,8.56,8,3.44,11.83q-12-3-23.19-6.74l-5.95,5.4,33.64,4.42c2.94.39,6.24.74,9.22-.24,2.33-.76,4-2.22,6.37-3a12,12,0,0,1,11.27,2.5c2.3,2.16,3.64,4.85,7.21,6.25s10.6.27,11.39-2.54c5.1,4.6,12.66,8.06,21.59,9.91,0-1.72,0-3.44,0-5.16,13-.58,14.9,10.26,25.08,14a7.85,7.85,0,0,0,3.43.54c5-.46,4.42-4.91,6.22-7.83,2.07-3.37,10.27-5.17,14.14-3.11,2.58,7.13,2,15-1.56,22.62-1.3,2.75-2,6.6,2.4,6.89,4.88.32,7.54-4.08,7.75-7.1q.6-8.55,1.21-17.09c1.56-1.23,4.69-.82,5.92.24s1.39,2.52,2.48,3.64c2.19,2.26,7.35,2.61,12,2.83q18.75.87,37.07,2.68c18.14,1.79,36.34,4.36,50.32,10.61,10.2,4.56,17.7,10.88,27.1,16l-3.76,3.66c18.13.93,17.69,18.57,35.11,20.82,3,.38,6.33.26,9.09.94,3.51.88,5.54,2.92,7.4,4.86l13.07,13.69c2,2.11,4.23,4.33,8.07,5.23s9.79-.18,11.5-2.79c2.26,2.55,4.64,5.18,8.66,6.74s10.18,1.76,14.62-.39l15,9.89c16.66,11,35.07,19.67,53.65,29.49a122.53,122.53,0,0,0,15.81,7.38c13.1,4.74,30.37,6.75,38.29,14.58,1.84,1.82,3.09,3.89,5.3,5.53,4.92,3.62,13.74,4.57,19.77,7.53,10,4.9,11.19,14.65,22,18.93,3.71,1.48,8.43,2.24,11.17,4.32S1565.83,502.41,1561,503.47ZM936,387.65a14.21,14.21,0,0,1-5-8.73c-.22-1.62-.13-3.32-1.11-4.75-1.12-1.66-3.65-3.13-2.6-5,.57-1,2.07-1.86,3.49-2.61,2.66-1.42,5.72-2.94,9-3a6,6,0,0,0,2.2-.23c.83-.35.94-1.09.46-1.52a5,5,0,0,0-2.16-.82l-12.69-2.81A7.71,7.71,0,0,0,926,358a6.1,6.1,0,0,0-5,2.88c-.83,1.38-1.3,2.92-3.16,4-2.24,1.26-5.42,1.2-8.14,1a6,6,0,0,1-3.19-.74c-.7-.6-.38-1.51.12-2.31a15.62,15.62,0,0,1,6.34-5.28l-7.41-4c-1.58-.85-3.76-1.74-6-1.05a12.08,12.08,0,0,0-2.72,1.51c-4.22,2.59-10.89,2.8-15.45,5.17a37.42,37.42,0,0,0-3.92,2.58,35.27,35.27,0,0,1-7.79,3.92l6.83,3.9a9.16,9.16,0,0,1,2.45,1.78c.36.44.57.94,1,1.36,1.31,1.39,4.4,1.76,7.3,1.65s5.88-.58,8.71-.45c3.76.18,3.76,1.54,6.08,2.67s4.94,1.14,6.78,2.65c1.56,1.28,2.51,2.83,3.86,4.21,2.88,3,7.67,5.1,13.37,6C929.34,389.93,934.06,389.7,936,387.65Zm41.88,36.57,4.43-9.75c.75-1.66,1.51-3.41.85-4.93-.34-.79-1.07-1.56-.64-2.42s1.75-1.47,2.26-2.28a1.88,1.88,0,0,0,.1-1.69c-.57-1.73-2-3.24-2.6-5s-.18-3.87,2.25-5.27c4.83-2.77,13.94,1.11,16.72-2.47a2.59,2.59,0,0,0-.17-3.31c-1.89-2.57-6.18-4-10.28-5.34a3.61,3.61,0,0,0-1.43-.25,6.18,6.18,0,0,0-1.9.59c-3.3,1.34-7.21,1-10.87,1.15s-8.36,1.4-8.88,3.61c-.23.93.41,1.75.84,2.59,1.46,2.84.39,6.35-2.79,9.2a6.68,6.68,0,0,0-1.72,1.84c-.49,1.14.54,2.11,1.12,3.11,1.53,2.64-.43,6.19-4.59,8.29-2.73,1.39-6.61,2.48-7.32,4.45-.86,2.39,3.74,3.59,4.76,5.74.61,1.29-.12,2.86.69,4.09,1.27,1.93,5.53,2.18,9.19,2.2,2.66,0,5.76-.07,7.78-1.36A5.75,5.75,0,0,0,977.91,424.22Zm139.36,6.27c.43-.44-.29-.83-.93-1l-5.58-1.83a12,12,0,0,1-2.28-.91c-.45-.26-.81-.57-1.23-.85-2.58-1.74-6.89-2.24-11.08-2.35-1.69-.05-4.05,0-5.26,1.05-1,.89-.56,2.06.67,2.54,3.21,1.24,6.76-2.05,10.17-1.86a7.12,7.12,0,0,1,2.32.61l5.25,2a2.86,2.86,0,0,1,1,.56,2.47,2.47,0,0,1,.4.77c.61,1.29,3,2,5.35,1.7A2.15,2.15,0,0,0,1117.27,430.49Zm144.58,9.73c-.47-1.11-.45-1.74-2.43-1.06-1.16.4-2.59,2.41-3.49,3.08a43.2,43.2,0,0,1-4.94,3,19.42,19.42,0,0,1-3.28,1.55,19.8,19.8,0,0,1-8.41.45,9.64,9.64,0,0,0-2.16-.1,2.67,2.67,0,0,0-1.84.82c-.56.88,1.14,1.37,2.54,1.53l4.75.53a7.24,7.24,0,0,0,2.23,0,15.67,15.67,0,0,0,1.79-.6c2.06-.67,4.36-.39,6.55-.73C1258.64,447.84,1263.1,443.19,1261.85,440.22Zm163.64,112.27c2.11-.34,9.49-1.18,10.77-2.49,2.08-2.16-5.76-.7-7.5-.47-3.69.49-7.36,1.14-11,1.42a103.67,103.67,0,0,1-13.79-.17,20.38,20.38,0,0,1-6.22-1,4.45,4.45,0,0,1-3-4.08c0-1.07.31-2.2-.16-3.19a3.55,3.55,0,0,0-3.91-1.37,3.3,3.3,0,0,0-2.75,3c-.06,1.12.29,2.27-.58,3.36-1.55,1.95-5.78,2.47-9.17,2.65a6.86,6.86,0,0,1-1.14,4.23,7.15,7.15,0,0,0-1,1.39c-.7,1.79,2.38,2.8,5,3.33a13.58,13.58,0,0,1,4.31-3.88,2.77,2.77,0,0,1,3.15,2.43,2.84,2.84,0,0,0,3.61,2,10.6,10.6,0,0,0,1.49-.68c3.23-1.48,8-.16,10.94-1.83,1.14-.64,1.68-1.56,2.8-2.21,1.64-1,4-1.06,6.09-1.16A108,108,0,0,0,1425.49,552.49Zm-48.57,12.45c-1,1.42-4,2.29-4.65,3.75-.23.53-.08,1.08-.45,1.6a4.86,4.86,0,0,1-1.91,1.26,30.52,30.52,0,0,1-7,2.61c-1.87.39-4.06.54-5.36,1.5l-1.79-.67,1-.93a5.59,5.59,0,0,0-3.62,1,9.28,9.28,0,0,1-3.35,1.54,8.33,8.33,0,0,1-2.56-.13l-6.73-1.12a36.8,36.8,0,0,0-5.25-.6,40.64,40.64,0,0,0-6.9.64,54.18,54.18,0,0,0-8.41,1.82,20.65,20.65,0,0,0-9.19,5.67,4.37,4.37,0,0,0-.93,1.53c-.38,1.38.82,2.57.82,3.92a10.79,10.79,0,0,0-.18,2,1.77,1.77,0,0,0,2,1.22,5.77,5.77,0,0,0,1.47-.32c2.33-.73,4.8-1.54,6.28-2.86,1.32-1.18,1.61-2.57,2.42-3.87a10,10,0,0,1,2.78-2.82,4,4,0,0,1,1.48-.7,4.64,4.64,0,0,1,1.39,0l3,.2a5,5,0,0,1,1.66.3c.58.26.75.75,1.26,1.07,1.25.76,3.77.19,5.45.63,2.38.63,1.92,2.86,3.6,4,1.28.88,3.65,1,5.79.61a37.55,37.55,0,0,0,6.11-1.84,6,6,0,0,1,1.56-.4,4.61,4.61,0,0,1,1.42.18c2.29.59,4.11,1.65,6.56,2.06s6-.21,7-1.8c.69-1.08,0-2.28,1.06-3.28s3-1.22,3.92-2.1.33-2.12.75-3.2c.87-2.25,6.08-3.38,7.58-5.57s-1.45-4.13-1.38-6.37c0-1.15.89-2.38.48-3.46s-3.36-2.76-5.8-1.67S1377.93,563.49,1376.92,564.94ZM1111.61,676.38c-4.37,0-7.57-2.12-11.37-2.86-10.81-2.1-14.81,9-14.81,13.34a5.79,5.79,0,0,0,1.14,4c2.1,2.49,7.53,3.34,9.63,5.83,1.14,1.35,1.17,3,1.75,4.53a5.12,5.12,0,0,0,4.69,3.2c3,.2,6.15-1.45,8.12-3.13s3.51-3.6,6.22-4.87c2.48-1.16,5.52-1.57,8.35-2.25,8.34-2,15.32-6.87,17.23-12a10,10,0,0,1,1.31-3c1.42-1.87,4.53-3.16,7.45-4.3s6.06-2.35,7.67-4.18.63-4.34-2.54-4.38c-2.41,0-4.6,1.29-6.85,2.12-3.79,1.4-8.15,1.49-12.24,1.52l-9.88.09C1125.36,673.18,1116.76,676.39,1111.61,676.38ZM1043.5,630.9c-4.79,2.17-2.25,6.77-2,9.25.3,3-1,6.07-.7,9,.39,3.7,3.32,7.06,2.26,10.88-.71,2.58-3.17,5-4.77,7.56-4.19,6.68-2.19,13.56-5.22,20.33-1,2.21-2.51,4.46-2.2,6.59.46,3.11,4.71,5.15,9.16,6.47s9.45,2.21,12.88,4.28c4.42,2.66,5.56,6.84,9.07,10,2.94,2.63,7.44,4.43,11.85,6.19L1112,736.61l3.85-3.6c-4.81-2.33-12.68-2.29-16.51-5.2-1.39-1.06-2.1-2.41-3.3-3.55-4.91-4.68-17.39-5.44-20.1-10.88-.62-1.24-.66-2.65-1.68-3.75-2.23-2.39-8-2.49-11.58-4.18-4.44-2.12-4.7-6.45-9.11-8.6-1.58-.76-3.59-1.2-5.09-2s-2.4-2.23-1.21-3.48a12,12,0,0,1,3.07-1.79c4.25-2.13,6.56-5.26,8.67-8.22a3.66,3.66,0,0,0,1-2.31c-.13-.9-1.18-1.55-1.82-2.32-3.14-3.76,3.73-8.87,4.19-13.41.53-5.14-7.14-8.54-7.89-13.52-.55-3.66,2.67-7.94.17-11.09-.72-.92-1.91-1.69-2.18-2.72-.18-.71.08-1.49,0-2.21C1052.05,631.56,1047.56,629.06,1043.5,630.9Zm77.14,81.87-5.88,3.43a4.4,4.4,0,0,0-1,.74c-.73.83.26,1.75,1.67,1.87a8.4,8.4,0,0,0,4.18-1,7,7,0,0,0,2.3-1.69,8.37,8.37,0,0,1,.62-.77,5.94,5.94,0,0,1,1-.69l5.29-3.18a7.08,7.08,0,0,1,2.14-1c.82-.19,1.81-.08,2,.36a48.6,48.6,0,0,1-5.21,4.52c1.6.71,2,2.21.93,3.46a8.8,8.8,0,0,0-1.38,1.53c-.47,1,.67,1.9,2.21,2.11a11.5,11.5,0,0,0,4.88-.62c2.1-.66,4.19-1.81,4.39-3.13a3.54,3.54,0,0,0-.18-1.25c-.49-2.13.47-4.53,2.64-6.57a6.65,6.65,0,0,1,1.52-1.12c1.62-.86,3.78-1,5.77-1.3a43.81,43.81,0,0,0,8.6-2c.11-1.21-2.44-1.65-4.48-1.28s-3.9,1.23-6,1.55c-3,.48-6.12-.47-6.87-2.13-.57-1.26.07-2.71.85-4.07a4,4,0,0,1,1.14-1.39,6.77,6.77,0,0,1,3.68-1,12.54,12.54,0,0,1,3.58.59,12.36,12.36,0,0,1,4,1.73c.85.63,1.41,1.4,2.27,2,2.54,1.83,7.21,2.07,11.54,2A22.15,22.15,0,0,0,1172,704c1.7-.42,3.31-1.28,3.79-2.32-1.44-1-4.34-.74-6.67-.12a14.9,14.9,0,0,1-2.93.64,7.85,7.85,0,0,1-2.09-.21c-5.26-1.18-7.56-4.61-11.51-6.86a5.34,5.34,0,0,0-2.45-.8,10,10,0,0,0-3.8.83,36.45,36.45,0,0,0-6.64,2.89c-.85.52-1.6,1.1-2.45,1.62-2.57,1.58-5.88,2.61-8.87,3.89-2.5,1.07-5.88,2.85-6.17,4.72S1123.66,711,1120.64,712.77Zm97.66-81.95c-1.28,1.86-4.19,3.24-6.94,4.5a6.27,6.27,0,0,1-1.93.64c-.63.07-1.24,0-1.87,0-1.68.15-2.79,1.43-2.62,2.4s1.14,1.72,1.82,2.55a1.89,1.89,0,0,1,0,2.82,11.29,11.29,0,0,1-3.3,1.48c-1.17.43-2.39,1.12-2.35,1.87s1.19,1.1,2.26,1.33c2.31.5,4.93.83,6.4,2s.83,3.42-1.77,4a13.28,13.28,0,0,1-3.45,0,5.14,5.14,0,0,0-3.29.73c-1,.86.07,1.83-.16,2.79-.34,1.44-3.47,2.61-3.4,4,0,1.05,1.94,1.77,1.36,2.83s-3.55,1.59-4,2.73c-.18.47.16.91.16,1.38,0,1.16-2.08,2.22-4,2.59s-4,.31-6,.63-4.15,1.24-4.4,2.43c-.21,1,.92,1.7,2,2.29a6,6,0,0,0,2.38.81,8.91,8.91,0,0,0,4.79-1.36,16,16,0,0,1,4.4-2.05c1.7-.39,3.84.09,3.63,1.12a2.84,2.84,0,0,1-1,1.25l-4.35,3.64c-.4.33-.81.69-.87,1.07a1,1,0,0,0,.48.84c1.71,1.35,6,1.12,8.14-.44l2.45,2.38a22.16,22.16,0,0,0,8.64-5.15c1-1.08,1.83-2.31,1.48-3.39-.18-.52-.6-1-.76-1.49-.33-1.1.7-2.44,2.44-3.17-1-.94-3.44-1-5.4-.43a18.37,18.37,0,0,0-5.07,2.53c-1.73-.8-1.61-2.63,0-3.85a10.37,10.37,0,0,1,6.68-1.59,5.82,5.82,0,0,0,2,0c1.52-.38,1.66-1.78,3.08-2.31a9.92,9.92,0,0,1,2.33-.32c2.92-.33,5-2.43,5-4.14s-1.41-3.15-2.54-4.61-2-3.18-.91-4.89a3.16,3.16,0,0,0,.59-1.11c.1-.89-1.35-1.35-2.48-1.79a7.08,7.08,0,0,1-4.39-3.94,1.41,1.41,0,0,1,0-1.17c.76-1.44,4.54-1.93,5.23-3.37.42-.89-.48-1.92.7-2.6s2.84,0,4.37-.1a4.46,4.46,0,0,0,4.06-3c.33-1.31.06-2.66,1.14-3.9.3-.34.7-.69.7-1s-.34-.58-.67-.81c-1.36-.94-2.95-2.84-5.58-2.55C1219.57,626.29,1219.43,629.18,1218.3,630.82Zm28.49-31.66a2.73,2.73,0,0,0-.89.43,23.44,23.44,0,0,0-4.56,3.47,6.86,6.86,0,0,1-1.15,1.13,15,15,0,0,1-1.74.91c-2.19,1.09-3.62,2.74-3.72,4.29a1.72,1.72,0,0,0,.63,1.53,3.07,3.07,0,0,0,2.39.42,5.57,5.57,0,0,0,1.13-.39,37,37,0,0,0,8.54-5.08,5,5,0,0,0,1.09-1.11c.43-.72.18-1.42.43-2.14.19-.53.85-1.1,1-1.63C1250.09,600.09,1248.62,598.73,1246.79,599.16Zm-50.91,129.75c-1.33,1.24-3.57,2-5.49,3s-3.74,2.33-3.39,3.62c.74,2.64,8.68,1.44,10.64,3.73.69.8.44,1.84.37,2.81-.28,3.82,2.56,7.34,7.48,9.27-3.45,1.77-1.73,5.48-5.5,6.94-3.52,1.37-8.25-.8-11.22,1a1.89,1.89,0,0,0-.43,3.21,7.12,7.12,0,0,0,4.46,1.51c2.26.09,4.93-.47,6.7.23s1.71,2.09,2,3.32c.76,3.5,4.24,6.47,9.32,7.94a4.87,4.87,0,0,0,1.62.25,5.66,5.66,0,0,0,3-1.33c2-1.5,4.73-3.25,7.48-2.93a5.2,5.2,0,0,1,2.78,1.25c2.84,2.32,3.76,5.54,2.47,8.71-.32.79-.77,1.63-.4,2.34a4,4,0,0,0,1.89,1.3l5.19,2.37c.88.4,1.81.86,1.87,1.57,0,.31-.12.64-.11,1,0,1.37,3.1,1.8,5.24,1a7.23,7.23,0,0,0,4.08-3.62c2.14-4.12,1.22-8.26-.65-12-.51-1-.85-2.38.79-3.08a10.29,10.29,0,0,1,3.23,1.42c-1.22-2.93-3.25-5.7-3.33-8.83s1.79-6.72-.41-9.38-7.26-3.45-10.22-5.6c-4-2.88-3.42-7.49-6.51-10.79a6.87,6.87,0,0,0-3.63-2.05c-3.06-.66-6.81.38-10.29.92a33,33,0,0,1-11.8-.23,4.87,4.87,0,0,1-2.19-.87c-1-.88-.18-2.25,1-3.28a36.87,36.87,0,0,0,3.79-3c1.77-2,.93-4.3-1.11-5.79-1.44-1-9.39-4.86-10.72-2.7C1192.35,724.56,1199.21,725.8,1195.88,728.91Zm61.48,42.75c-1.65.22-1.13.26-1.14.91a6.72,6.72,0,0,0,.31,2.79,3.15,3.15,0,0,0,1.48,1.13,22.09,22.09,0,0,0,7.32,1.87,8.8,8.8,0,0,0,1.92,0,12.84,12.84,0,0,0,2-.52,35.3,35.3,0,0,1,12-.91,15.71,15.71,0,0,0,3.14,0,4.36,4.36,0,0,0,2.66-1.17c.53-.68.19-1.39.5-2.09.49-1.1,2.46-1.9,3.15-3s0-2.09-1.22-2.72a15.43,15.43,0,0,0-4.44-1.15,2.26,2.26,0,0,0-1.75.22c-.23.24-.08.5,0,.72a3.74,3.74,0,0,1,0,3.6,1.22,1.22,0,0,1-.61.65,2.88,2.88,0,0,1-1.18.2c-1.71,0-3.72-.05-5,.78-.42.27-.69.61-1.15.86a5.46,5.46,0,0,1-1.62.48,18.93,18.93,0,0,1-9.87-.75,38.09,38.09,0,0,0-3.66-1.6A7.35,7.35,0,0,0,1257.36,771.66ZM1017,765.76c-7.12,0-15.67,2.8-22.61,4.3-4,.87-8.35,1.87-11.09,4-1.65,1.26-2.83,3-5.25,3.5-1.4.32-2.89.14-4.26.53a6.61,6.61,0,0,0-3.19,2.26l-12,13.45c-2.2,2.47-4.57,5.06-8.34,6.8-2.91,1.34-6.39,2.05-9.31,3.37-7.62,3.48-8.07,11.06-.77,13.2,4.56-2.31,10.58-.71,14.31,1.26s8.16,4.36,13.58,3.22c3.52-.74,6.55-2.88,10.07-3,2.43-.06,4.24.89,6.2,1.54,9,3,23.66.06,30.56,4.58,2.82,1.84,3.66,4.61,6.38,6.51,2.46,1.72,6.61,3.05,6,5.55-.79,3.15-9,5.72-7.62,8.56,1.72,1.27,5.29,1.09,8.26.44s5.92-1.65,8.93-1.79c1.5-.07,7.58,1.23,5.26,2.82-1.24.85-6.16-.25-8.16.48-.8.3-1.44.75-2.23,1.07-1.78.72-3.89.64-5.88.76s-4.42.7-5,1.88c-.46.86.47,1.75,1.89,1.79.62,0,1.27-.11,1.9-.09a5.83,5.83,0,0,1,2.26.57,26.11,26.11,0,0,1,6.57,3.95c-1.58.86-3.74,1.07-5.56,1.72a9,9,0,0,0-5.41,5.62c-.65,2.56,1.68,5,5.51,5.69,4.69.88,12.19,0,12.81,3,.12.57-.09,1.2.22,1.73,1.07,1.84,6,.54,9.49.39,5.28-.23,8.33,2.74,12.81,3.94,5.18,1.38,12,.28,17.87-1.38s11.6-3.89,17.73-4.9c3.84-.63,7.72-.76,11.58-1.2,19.6-2.18,36.53-11.61,51.81-20.5,3.71-2.16,7.79-4.83,7.38-7.57-.18-1.21-1.27-2.28-1-3.54.54-2.29,5.27-4,6-6.3.53-1.57-1-2.92-.91-4.47.13-3,5.77-5.69,5.85-8.65.05-1.74-1.89-3.09-2.16-4.8-.79-5,12.44-9.6,11.25-14.54-.28-1.13-1.31-2.06-1.7-3.15-1.47-4.09,5.73-8.18,10.89-11.84,2.47-1.76,4.23-4.84,1-5.38a9.16,9.16,0,0,0-3.41.32c-15.1,3.58-24.65,14.48-39.88,17.67-3.14.34-5.21-1.45-5.58-3.25s.28-3.77-.53-5.47c-1.25-2.63-5.89-4.67-4.18-7.54a9.92,9.92,0,0,1,2.88-2.53,34.69,34.69,0,0,1,7.89-4.37c3-1.09,6.89-1.51,9.39-.5,1.83-.61.9-2.14-.36-2.88a84.31,84.31,0,0,0-20.58-8.42,21.46,21.46,0,0,0-5.54-.93c-6.79,0-13.65,4.58-20.21,4,1,1.77-3.66,3.86-6.58,3.22s-3.81-2.83-3.4-4.83c.26-1.28.84-2.77-.48-3.62a7.71,7.71,0,0,0-3.63-.7,74.06,74.06,0,0,0-29,5.15,1.69,1.69,0,0,1-.4-2.61c-4-.47-8.85-.77-12.13,1.18-1.63,1-2.47,2.29-4,3.3-3.88,2.53-10.07,2-14.87,1.29C1035.73,768.29,1026.28,765.72,1017,765.76ZM1081.14,930a3.51,3.51,0,0,1,.67,1.58c1,2.86,6.82,4.26,11.7,2.79,1.37-.41,2.64-1,4.06-1.31,2.63-.56,5.18,0,7.75.12,4.41.25,9.12-.67,13.65-.78,3.28-.09,6.41.26,9.64.33a64.86,64.86,0,0,0,22-3.38c.72-.25,1.53-.58,1.69-1.05.34-1-2.79-1.25-2.36-2.28.12-.27.46-.5.7-.75,1-1-.19-2.18-1.88-2.38a11.43,11.43,0,0,0-5.27.94c-1.63.64-3.14,1.44-4.85,2a33,33,0,0,1-8.82,1.1c-7.6.24-15.28.48-22.4-.41-4.52-.57-8.84-1.59-13.67-1.46-3.85.1-7.88.94-11.61.68-2.13-.14-7.06-.74-7.22,1.58C1074.77,929.1,1079.93,928.78,1081.14,930Zm-54.77-50.43a12.83,12.83,0,0,0-2.94-1.35,8.12,8.12,0,0,0-7.78,2.19,27.09,27.09,0,0,1-4.25,2.76c-1.49.88-2.93,1.89-3.46,3s.13,2.44,1.91,2.69a20,20,0,0,0,3.81-.22c2-.13,3.89.3,5.9,0a25.41,25.41,0,0,0,3.57-1,51.26,51.26,0,0,1,9.36-1.57l6.83-.72c1.25-.14,2.76-.39,3.31-1.11a39.38,39.38,0,0,1-9.15-1.55c-.28-.08-.58-.19-.66-.37s0-.39.08-.58c.07-.48-.52-.84-1.22-1C1029.74,880.33,1028,880.36,1026.37,879.55Zm127.77,51.23c-1.53,1.54,1.43,1.92,3.21,1.89l10.84-.21a28.34,28.34,0,0,0,3.78-.25c1.08-.17,2.13-.46,3.19-.72,6.76-1.62,13.81-1.72,20.56-1.56,2.06.05,4.91-.2,5.58-1.45-1.22-.74-3.35-.64-5.21-.73s-3.9-.69-3.64-1.83,3.1-2.28,2.83-3.45c-1.83-.1-4.13-.61-3.53-1.74a3.64,3.64,0,0,1,1.36-1.07,25.49,25.49,0,0,0,7-5.84c.27-.35.54-.74.37-1.07a1,1,0,0,0-.5-.4,6.61,6.61,0,0,0-4.69.33,13.44,13.44,0,0,0-3.59,2.42,45.42,45.42,0,0,1-7.07,5.26,24.06,24.06,0,0,1-9.59,3.12c-2,.17-4,0-6,.32s-4.17,1.27-4.36,2.46c-.12.78.6,1.53,0,2.27s-2.24,1-3.55,1.06C1159.48,929.72,1155.28,929.62,1154.14,930.78ZM983.73,589.62a2.16,2.16,0,0,1,0,1,2.19,2.19,0,0,1-.87.87c-2.74,1.88-7.16,2.9-9.07,5.07a2.56,2.56,0,0,0-.58,2.89c.91,1.76,4.37,2.57,7.65,2.09a13.77,13.77,0,0,0,5.33-1.92c1.09-.7,1.94-1.63,1.75-2.46-.09-.39-.4-.73-.5-1.12-.39-1.46,2.07-2.89,3.35-4.35s1.8-4.08-.47-4.88C987.68,585.86,983.58,587.76,983.73,589.62Zm102.44-303c2.9-.59,6-.78,8.57-1.93,1.41-.63,2.68-1.57,4.31-1.74a9.23,9.23,0,0,1,2,.1c6.86.91,13.8,1.82,19.86,3.68,1.52.46,3.66.91,5,0,1.18-.74.73-1.86-.22-2.49-3.43-2.29-10.42-1.09-15.5-2a37.32,37.32,0,0,1-7.23-2.57,16.39,16.39,0,0,0-8.27-1.21c-1.25.18-2.46.54-3.7.77-5.58,1-11-.57-16.61.47-3.91.72-7.19,2.62-10.24,4.43-1,.57-2,1.2-2.26,1.94-.46,1.17,1,2,2.38,2.73,3.08,1.57,5.92,3.27,8.82,4.95a6.78,6.78,0,0,0,6.63.59c3.32-1.44.56-2.13.34-3.67C1079.81,288.71,1083.26,287.21,1086.17,286.62ZM1108,264.23c2.17.83,4.75,1.86,7.46,1.08a11.41,11.41,0,0,0,2.37-1.08c.26-.15.55-.32.59-.52s-.17-.34-.37-.46c-4.18-2.46-12.86-.87-17-3.38-1.6-1-2.2-2.41-3.18-3.67a6.32,6.32,0,0,0-5.13-2.46c-.77,0-1.56.12-2.34.19a36.8,36.8,0,0,1-9.17-.62,13.65,13.65,0,0,1-4.31-1.15c-1.41-.78-1.89-2-3.07-2.93-3.2-2.45-10.41-1.81-14.27-3.88a4.81,4.81,0,0,0-1.89-.76c-.79-.09-1.92.32-1.86.81,2.17,2.66,6,4.69,10.77,5.67,4.21.87,7.89,1.51,11.43,3.08,2.16,1,4.14,2,6.33,3C1091.57,260.2,1100.62,261.39,1108,264.23Zm103,45.33a6.71,6.71,0,0,0,3.09,1.93,96.43,96.43,0,0,0,10.26,3.49c1.71-.81,2.09-2.3,1.38-3.33s-2.25-1.71-3.76-2.33a10.61,10.61,0,0,1-3.92-2.24c-.91-1.06-.86-2.39-1.22-3.61-.87-2.88-4.27-5.19-8.88-6s-12.85,1.23-8.44,4.24c1.71,1.16,4.25,1.85,6.42,2.69C1209.62,305.81,1209.5,307.26,1211,309.56ZM951.32,213.72c-.31,1.13,1.8,1.66,2.68,2.54s.42,2.34.75,3.49c.67,2.32,5.51,3.42,9.36,2.14A14.32,14.32,0,0,1,967,221a7.51,7.51,0,0,1,2,.08,47.69,47.69,0,0,1,7.57,1.68c.56,2.91,3.31,5.42,7.4,6.74a5.67,5.67,0,0,0,3,.28c2.59-.6,3-3.36,5.67-3.6,1.39-.13,2.59.63,3.93.26,1-.27,1.45-1.07,1.18-1.63a3.46,3.46,0,0,0-1.78-1.29,81.18,81.18,0,0,0-11.78-4.3,18.9,18.9,0,0,1-3.7-1.27c-1.23-.66-2-1.58-3.41-2.12a17.74,17.74,0,0,0-3.11-.7,49.7,49.7,0,0,1-18-6.52c-1.59-1-3.59-1.58-3.28.63.12.87,1.32,1.11.86,2.15C953.26,212.25,951.56,212.82,951.32,213.72ZM635.54,148.1c-1.73.28-3-.71-4.8-.57a29.56,29.56,0,0,0-3.49.94,11.57,11.57,0,0,1-4.8-.48c-1.51-.34-3.54-.46-4.86.34a5.6,5.6,0,0,1-1.42.86c-1.27.37-2.11-.64-1.66-1.42s1.55-1.47,1.88-2.26a2.19,2.19,0,0,0-.25-1.74A5.43,5.43,0,0,0,614,141a6.14,6.14,0,0,0-4.94-.38c-2.36.88-2.56,2.89-1.54,4.18.68.84,1.73,1.76.94,2.73a6.32,6.32,0,0,1-2.94,1.41l-6,1.76c-1.57.46-3.41.93-4.75.52a2.67,2.67,0,0,1-1.72-1.82l-1.74-4.26a1.36,1.36,0,0,0-.8-.9,3,3,0,0,0-3.29,1.56,3.94,3.94,0,0,0,.46,3L590,154a1,1,0,0,1,.11.86c-.31.71-2,1.09-3,.85a3.91,3.91,0,0,1-2.16-1.42,28,28,0,0,1-3.94-5.08,17.13,17.13,0,0,0-2-3.49c-1-1.21-2.92-1.34-4.27-2.21-1-.68-.7-2.15-.32-3.08.51-1.28,1.37-2.6,1-3.8-.47-1.58-2.92-2.49-5.42-3s-5.28-.64-7.48-1.43-3.45-2.72-1.31-3.95a7.22,7.22,0,0,1,3.53-.72c3.29,0,5.75,1.32,8.27,2.35a14.42,14.42,0,0,0,9,1,22.63,22.63,0,0,1,2.8-.74c2.34-.29,3.87,1,5.87,1.46,3.61.89,8.21-.78,11.94-2.36,1.14-.48,2.39-1,2.77-1.81a1.73,1.73,0,0,0-.22-1.6c-1.13-2.3-2.25-4.6-3.38-6.89a5,5,0,0,0-1.43-2c-2.36-1.77-7.41-1.22-10.94-2.14-5.17-1.35-6.5-5.68-12-6.7.28,2.31,2,4.39,4.72,5.8-4.22,2.05-8.72,4.19-13.74,4.82-2.08.26-4.15.24-6.23.45-1.42.14-2.83.39-4.24.48-4.31.28-8.3-1-9.84-3.23-.64-.91-.93-2-2.12-2.65-2.61-1.43-7.31,0-11.2.72-5.43,1-10.84.52-16,0-19.67-1.92-40.21-7-59.83-.66-1.28.41-2.69.46-4,.75s-2.76,1-2.7,1.81c.08,1,2.49,1.24,2.95,2.19s-1,1.89-2.53,2.28a22.39,22.39,0,0,1-4.7.41c-.87,0-2,.28-2.17.8-.08.31.29.55.64.74l8.25,4.59a9.49,9.49,0,0,1,2.52,1.77,5.33,5.33,0,0,1,1.08,2.79l.69,3.88a4.87,4.87,0,0,0,1,2.6c1.31,1.42,4.16,2,6.42,2.85,1.53.6,2.87,1.82,1.56,2.86a7.6,7.6,0,0,1-3.26,1,50.88,50.88,0,0,0-8.52,2.17,5.72,5.72,0,0,0-1.75.86c-1.55,1.36,1.18,2.87.05,4.34-.42.53-1.32,1-1.56,1.53s.06.85.31,1.23a5.19,5.19,0,0,0,1.5,1.66c1.86,1.2,5.45,1.06,8.31.17a29.43,29.43,0,0,0,7.41-3.83l4.69-3.05a10.18,10.18,0,0,1,4.62-1.92,11.45,11.45,0,0,1,4,.64,24.08,24.08,0,0,0,9.36.3c2.89-.45,5.41-1.29,8-.84,3.87.65,8.95-.66,11.49-3a1.31,1.31,0,0,0,.47-.64c.09-.57-.94-.83-1.49-1.24-1.4-1,.78-2.95,3.19-3.56s5-.48,7.42-.93c3.43-.62,6.31-2.25,9.25-3.63s6.59-2.62,9.78-2.21a14.72,14.72,0,0,1,2.89.76l14.22,4.85c1.85.63,3.83,1.35,4.39,2.63.91,2.09-2.22,5.09.26,6.54a4.4,4.4,0,0,1,1.15.7c.69.83-1.15,1.95-2.83,2.26s-3.5.27-5,.89c-1.89.78-2.5,2.39-1.66,3.45s2.77,1.62,4.8,1.79a51.26,51.26,0,0,0,6.3-.11,88.9,88.9,0,0,1,9.53.06,10.93,10.93,0,0,1,2.36.32,2.79,2.79,0,0,1,2,4.05c-1.35,3.13-5.8,5.69-9.4,8.35s-6.64,6.25-4.44,8.82c1.19,1.38,3.83,2.62,2.58,4.26-.27.36-.72.67-1,1-1.29,1.5.27,3-.19,4.62-.52,1.75-3.54,3.21-6.47,3.65a28,28,0,0,1-8.46-.33,32.23,32.23,0,0,0-8.28-.49,69.91,69.91,0,0,1-14.79.18c-4.69-.56-9-2-11.25-4.38a21,21,0,0,0-2.32-2.52,16.16,16.16,0,0,0-4.51-2,19.44,19.44,0,0,0-4-1,38.92,38.92,0,0,0-6.44.18c-7.34.41-14.13-1-21.46-.7a5,5,0,0,0-2.66.64c2.26,1.18,5.92,1,9.18,1a38.55,38.55,0,0,1,15.7,3.18,5.27,5.27,0,0,1,2.18,1.52,1.51,1.51,0,0,1-.45,2.13,6.18,6.18,0,0,1-4.82.66,11.2,11.2,0,0,1-3.49-1.9,7.39,7.39,0,0,0-4.09-1.38,1.37,1.37,0,0,0-.57.09.58.58,0,0,0-.28.3c-.3.66.34,1.26,1.14,1.63a22.4,22.4,0,0,1,2.47,1.08c.68.45,1.11,1.23.39,1.81a24.18,24.18,0,0,0-5.49,1.41,5.35,5.35,0,0,0-2.33,1.44,2.14,2.14,0,0,0-.32,1.47c0,.9.07,1.8.11,2.7a1.28,1.28,0,0,0,.26.89,3.37,3.37,0,0,0,1.67.65c3.1.66,6.8,1.27,10,.07.71-.27,1.34-.61,2.06-.85,2.32-.77,5.25-.22,5.9,1.12-1.34-.14-2.73,1.15-1.87,1.71.34.22.89.32,1.14.58.41.43-.25,1.1-1.1,1.38a8.4,8.4,0,0,1-2.69.25l-9.83-.21c-1.44,0-2.88-.06-4.25-.22-3.84-.46-7.1-2-11.2-1.72-2.22.14-4.43.78-6.66,1-3.37.31-6.63-.49-8.3-2a1.81,1.81,0,0,1-.52-.7,1.57,1.57,0,0,1,.52-1.52c1.29-1.4,4.14-2.16,6.6-2.17a24.46,24.46,0,0,1,6.71,1.15l5.55,1.52c.15-1.42-2-2.28-4.06-2.79-8.17-2.07-17.68-2.41-27-2.73a18.29,18.29,0,0,0-3.38.11,19.38,19.38,0,0,0-4.6,1.58,16.41,16.41,0,0,1-6.59,1.62c-1.51,0-2.93-.47-4.46-.15a23.89,23.89,0,0,0-2.92,1.14c-2.25.79-4.77.46-7.07.27a13.32,13.32,0,0,0-7,1.1,4.6,4.6,0,0,1-3.81.17c-.93-.51-.95-1.53,0-2.25.67-.52,1.81-1.18,1.21-1.58a1.6,1.6,0,0,0-.66-.18,11.24,11.24,0,0,0-6.66,1.38c-.7.43-1.27.92-2,1.32a17.43,17.43,0,0,1-6.31,1.43,7.55,7.55,0,0,1-1.64,0,10.36,10.36,0,0,1-1.55-.46,6.46,6.46,0,0,0-5.67,1.4,9.77,9.77,0,0,1-.88,1.09,5.45,5.45,0,0,1-3.13,1.06,12.69,12.69,0,0,1-3.3-.29,5.21,5.21,0,0,0,2.13-2.41c-1-.62-3-.32-4.31.37a8.83,8.83,0,0,0-2.75,2.55,15.81,15.81,0,0,1-7.29,5.38c-4.71,1.59-10,1.3-14.94,1.14-11.3-.38-23.26-1.23-34.25,2.21-10.69,3.34-17.83,10-23.77,16.26a18.67,18.67,0,0,1-6,4.74c-2.66,1.21-6.59,1.57-8.32.25-1.54-1.17-.76-3.07.45-4.65s2.83-3.19,2.87-4.8a3.85,3.85,0,0,1,.07-1.39c.83-2,6-2.34,8.35-4.09a4.66,4.66,0,0,0,1.58-2.55c.51-1.59.91-3.44-.89-4.39-1.18-.63-3-.69-4.49-1.06-4.33-1.11-5.15-4.73-9.31-6-5.7-1.74-14.57,1.69-20.13-.17-3.7-1.25-4.26-4.3-6.82-6.3-3.49-2.71-10.2-3.14-16.45-3a141.11,141.11,0,0,0-22.6,2.46,16.61,16.61,0,0,0-3.12.81c-3.07,1.23-3.89,3.63-5.88,5.5-2.51,2.35-7,2.65-11.17,3.76-2.65.71-5.57,1.57-6.93,3.11-.84,1-.91,2-1.5,3-1.09,1.86-3.82,3.34-5.66,5-3.41,3.15-3.64,6.84-3.74,10.27a2.5,2.5,0,0,0,.6,2.1,5.77,5.77,0,0,0,2.25,1c10,2.85,22.93,3.75,34.16,0a25.91,25.91,0,0,1,4.94-1.42,14.07,14.07,0,0,1,7.18,1.19,38.68,38.68,0,0,1,5.08,2.49c.61.36,1.23.8,1.08,1.36s-.83.93-1.5,1.29a43.68,43.68,0,0,1-12.21,4.28c-2.66.52-5.57.89-7.63,2.13-1.26.76-2,1.77-3.29,2.53a29.66,29.66,0,0,1-5.68,2c-1.94.63-3.93,1.68-4.09,2.91-.19,1.46,2.17,2.23,4.11,2.9,4.53,1.56,7.94,4,11.3,6.32,2,1.4,4.08,3,3.48,5.07s-3.8,3.76-7,4.87-6.67,1.89-9.48,3.36c-4.72,2.47-6.48,6.23-7.74,9.68-1.09,3-1.75,6.47,1.92,8,4.77,2,13.74-.72,17.82,1.78-2.43,2.21-7.85,1.28-11.69,2.55-2.95,1-5.22,3.32-8.29,3.24a6.35,6.35,0,0,1-3.52-1.32c-3.08-2.06-6.24-4.22-7.16-7.07-.65-2-.15-4.23-1.17-6.13-1.16-2.14-4.2-4.09-2.67-6.44,1.25-1.92,5.28-3.4,5.24-5.32,0-1.12-1.53-2-1.19-3.12a7.55,7.55,0,0,1,1.27-1.74c1.82-2.5-1.17-4.81-4.57-6s-7.56-2-9.38-4.08c-1.17-1.36-1.16-3.07-1.13-4.72.06-3.13-1.88-5.8-.59-9,.88-2.16-1.46-4.25-4.95-4.42-1.42-.08-2.94.13-4.35.05a10.78,10.78,0,0,1-6.72-3.12,74.65,74.65,0,0,1-17-20.84c-1.87-3.5-3.11-7.82,1.29-11.17,1.85-1.42,4.44-2.41,6.65-3.64,6.07-3.37,8.88-8.67,6.77-12.74-.89-1.7-2.57-3.34-1.81-5.24s3.33-3.24,4.84-4.91c2.37-2.65,1.74-5.55,2-8.33.39-3.94,2.78-8,6.78-11.57,1.05-.93,2.26-1.9,2.47-2.94s-1.23-2.08-2.94-1.68a6.65,6.65,0,0,0-1.31.53l-4.9,2.41c-2.12,1.05-4.47,2.35-4.55,3.85,0,.63.38,1.2.39,1.83,0,2.23-4.5,3.93-6.23,6.11-2,2.5,0,5.17-1.6,7.73-1.77,2.76-7.59,5.11-6.82,7.76.26.9,1.3,1.59,1.45,2.51.28,1.69-2.44,3.31-4.87,4.55a2.92,2.92,0,0,1-2.09-3.06c0-1.22.51-2.48.33-3.68s-.93-2.2-.65-3.38c.41-1.76,2.92-3.25,4.59-4.86s1.4-3.43-.46-4.57c-1.32-.8-2.7-1.66-3-2.84s1.08-2.75,3.16-3c1.25-.16,2.39.18,3.64.1a5.81,5.81,0,0,0,4.05-2,5,5,0,0,0,.89-3.07,3.32,3.32,0,0,1,.3-1.49c1-1.84,4.81-2.92,6-4.73.88-1.3.17-2.65,1-4s3.35-2.41,5.06-3.63c1.95-1.37,3-3.15,2.77-4.74-.25-1.87-2.07-3.37-2.79-5.14-.86-2.17.83-4.23,1.67-6.58-1.14-.75-.43-2.13.78-3.09,2.38-1.9,6.33-3,8.43-5a22.48,22.48,0,0,0,2.5-3.52c1.86-2.47,5.47-4.46,9.17-6.14a99.23,99.23,0,0,1,14.1-5.12c10.05-2.82,20.65-4.19,30.94-6.44a24.21,24.21,0,0,0,5.06-1.51A18.29,18.29,0,0,0,227.48,97a66.2,66.2,0,0,0,5.87-4.27c1-.93,3.1-1.21,4.67-1A25.24,25.24,0,0,1,242.18,93a8.26,8.26,0,0,0,4.77.2,6.24,6.24,0,0,0,2.31-1.31c2.91-2.49,2.79-5.86-.27-7.63a11.24,11.24,0,0,1-2.41-1.45,1.26,1.26,0,0,1,.52-2.08c.69-.34,1.64-.43,2.25-.82.86-.54.61-1.33,1-2,1.19-1.86,6.57-1.92,7.67-3.79.59-1-.47-2,.45-3,1.28-1.32,4.5-.87,6.69-1.65a4.46,4.46,0,0,0,2.92-3.68c0-.18.06-.37-.13-.48s-1,0-1.39.26c-1.47.84-3.31,2-4.9,1.6-1.25-.33-1.15-1.47-.4-2.3s1.95-1.53,2.63-2.38c1.08-1.37.67-3,2.2-4.21a15.78,15.78,0,0,1,3.47-1.69c4.47-1.92,7.21-5.23,7.2-8.23s-2.57-5.56-6.44-7.08a4,4,0,0,1-3.71-2c-.57-1-.78-2.17-1.85-3-2-1.53-6.13-1.33-9.69-1.21a80.66,80.66,0,0,1-28.18-3.74,22.89,22.89,0,0,1,10.15-2.25c-1.5-1.9-6.23-1.59-10.06-1.22-11,1-22.2.56-31.2-2.22A145.17,145.17,0,0,1,153.26,22a54.79,54.79,0,0,1,23.42-1.32c4.84.87,9.93,2.47,15.06,1l-2.49-1.34,1.68-2A21.16,21.16,0,0,1,182.1,16l10.08-2.24a12.48,12.48,0,0,1-3.7-1.31c-1-.63-1.41-1.62-.71-2.53.89-1.15,3.14-1.71,5.12-2a69.58,69.58,0,0,1,26.92.5c3.74.89,7.15,2.13,11,2.9a28.64,28.64,0,0,0,12.53,0c-2-1.74-5.88-2.32-8.95-3.42S228.86,4.38,231,2.2c1.49-1.55,4.79-2.31,7.5-2.19a23,23,0,0,1,7.14,1.76l17.23,6.38c1.34.5,3.45.89,4.6,0C268.83,7.07,266.55,6,266,4.9c-.77-1.49,1.9-3.37,4.67-3.77A13.32,13.32,0,0,1,278,2.3,46.52,46.52,0,0,0,284,5a12,12,0,0,0,7.82-.3c5.33-2.39,12.41,1.8,18.33,2.13,1.63.09,3.32,0,5,.07a45.39,45.39,0,0,1,11.21,2.24,24.72,24.72,0,0,1,6.33,2.47c.9.58,1.6,1.26,2.54,1.81a37.7,37.7,0,0,0,4.77,2c6.16,2.5,9.11,7.07,15.2,9.63,2,.85,4.35,1.46,6.54,2.17a32.07,32.07,0,0,1,6.23,2.4c2.91,1.8,4.32,4.33,6.7,6.4a21,21,0,0,0,6.92,3.8,27.1,27.1,0,0,1,4.83,1.81,11.29,11.29,0,0,0,1.78,1,10.19,10.19,0,0,0,2.2.45c3,.4,6.07.74,9.15,1a40.64,40.64,0,0,1,7.14,1c3.15.87,5.38,2.56,8.61,3.35,4.45,1.08,10.54.41,13.93,2.35.14.08.29.18.27.31s-.21.27-.39.37l-5.13,3.12a25.3,25.3,0,0,0,8,2.85c1.6.23,3.33.25,5,.43a17.56,17.56,0,0,1,6.42,1.91c.79.44,1.33,1,2.11,1.46.6.32,1.42.39,1.86.85a2.46,2.46,0,0,1,.44,1.43,4.47,4.47,0,0,0,3.11,3.1,41,41,0,0,0,5.16,1.2c1.73.4,3.38,1.07,3.79,2.17-.4.62-1.88.58-2.86.92s-1.42,1.12-1.2,1.72a3.29,3.29,0,0,0,1.62,1.42A30.7,30.7,0,0,0,465,76.9c1.78.41,3.89.88,4.16,2,.2.83-.54,1.94.52,2.41a3.45,3.45,0,0,0,1.25.2,12.53,12.53,0,0,0,8.31-2.83c.29-.28.54-.61.37-.87s-.47-.3-.79-.38a41.11,41.11,0,0,0-7.45-1.21,31.83,31.83,0,0,1-4.58-.47,12.63,12.63,0,0,1-5.17-2.75c-.72-.55-1.46-1.19-1.21-2,.19-.61,1-1.17,1.06-1.77.18-1.16-2.22-2.06-1.06-3.1.85-.76,2.62-.63,3.91-.43s3.23.15,3.76-.69c-.5-.48-1-1-1.49-1.45,1.36-1,3.71-.73,5.6-.59a24.72,24.72,0,0,0,7.47-.63,4.72,4.72,0,0,0,1.69-.68.91.91,0,0,0-.18-1.59,6.35,6.35,0,0,0-2.51-.61c-4.71-.48-9.79-.08-14.68-.18s-9.91-.81-12.58-3c-.89-.74-1.39-1.92-.12-2.7a7.49,7.49,0,0,1,3.94-.61c6,.14,12.28-.52,18.36-.55s12.29.65,16.17,3c2.18,1.35,3.53,3.18,6.13,4.25,2.06.85,5.13,1.51,4.78,3.15-.16.71-1,1.42-.9,2.11.14,1.17,2.58,1.38,4.14,2,2.85,1,3.19,3.7,6.28,4.52,1.21.33,2.71.32,3.86.69s1.78,1.43.66,2.09c-.69.4-1.85.53-2.21,1-.48.68,1.1,1,2.23.75s2.07-.92,3.23-1.12a8.1,8.1,0,0,1,1.77-.07l9,.27c2.95.09,6.39.39,7.22,2-1.07,1.16-3.6,1.4-5.68,1.66A33.57,33.57,0,0,0,520,81.77a4.9,4.9,0,0,0-2.42,1.85c-.73,1.72,2.82,3.26.92,4.74a1.36,1.36,0,0,1-.41.23,2,2,0,0,1-.76,0c-1.84-.19-2.9-1.16-4.11-1.92a6,6,0,0,0-5-.72c-.51.18-.94.45-1.43.66a9,9,0,0,1-6.26,0,7.24,7.24,0,0,1-4-3,12.3,12.3,0,0,0-1.4-2.75,4.35,4.35,0,0,0-4-1.07,2.23,2.23,0,0,0-.89,3.07A9.23,9.23,0,0,0,493,85.29c2.38,1.67,4.46,3.5,7.06,5a20.59,20.59,0,0,0,9.34,3.16,4.55,4.55,0,0,0,3.9,0,16.73,16.73,0,0,1,1.57-.83,8.75,8.75,0,0,1,2.61-.28c2.41-.07,4.9-.71,7.26-.66s4.62,1.32,3.46,2.7c-.83,1-2.83,1.42-4.54,1.8s-3.71,1.09-3.93,2.13a44.74,44.74,0,0,1,9.85.56,16.49,16.49,0,0,0,4,.44c1.44-.09,3.08-.7,3.45-1.56.44-1.05-1.16-1.94-.6-3a4.83,4.83,0,0,1,2.4-1.51c2.44-1,5.36-1.82,7.75-1.35,1.74.35,2.9,1.36,4.82,1.41a24.46,24.46,0,0,0,4.25-.7c1.43-.23,3.21,0,3.27.83-2.52,1-1.33,3.47-3.56,4.73a11,11,0,0,1-2.63.84c-3.53.92-6.59,2.78-8.07,4.9a13.76,13.76,0,0,0,5.52.2,15.46,15.46,0,0,1,5.58.09c1.59.48,2.24,2,.74,2.83a8,8,0,0,1-4,.66l-5.47,0a5.79,5.79,0,0,0-1.95.2c-.62.2-1.08.7-.77,1a1.15,1.15,0,0,0,.31.18c4.08,1.84,10.75.14,16.13.51a55.34,55.34,0,0,0,6.09.54c2.13-.07,4.69-.92,5.16-2.21.69-1.9-3.48-2.8-3.52-4.67a13.39,13.39,0,0,1,2.85.36c1,.09,2.43-.32,2.36-.92,0-.39-.73-.56-1.07-.87-.76-.7.63-1.86,2.15-2.16a14.39,14.39,0,0,1,4.45.11c4,.44,8.29.15,12.45.23s8.41.62,10.89,2.38a16.26,16.26,0,0,1-6.21.49,21.88,21.88,0,0,0-6.2.14c-2.08.47-4,1.84-3.54,3l8.38-.43c8.69-.43,18.41-.66,23.69,2.85a12.56,12.56,0,0,0-3.44,2.24c-.8.88-.91,2,.17,2.55s3.44.07,3.76-.86-1.55-1.68-1.08-2.66c.33-.69,1.76-1.12,2.89-1.07a7.18,7.18,0,0,1,2.83.86l4,1.89c1.56.74,3.26,1.76,2.58,3.07-.55,1-2.48,1.91-2,2.87a5.37,5.37,0,0,1-.11,4.48c.58.7,2.51.31,3.78.55,2,.37,1.79,2,2.24,3.24.7,1.93,3.52,3.14,4.67,4.95a1,1,0,0,1,.18,1,2.71,2.71,0,0,1-.8.83l-1.59,1.25a3.09,3.09,0,0,1-1,.58c-1.52.52-2.59-.69-4.13-.85s-3.39,1-3.57,2,.74,1.9,1.69,2.65c2.74,2.14,6.19,4,7.74,6.61a2.17,2.17,0,0,1,.34,1.92A2.91,2.91,0,0,1,635.54,148.1ZM401.33,65.63c2.65-.18,5.53-.64,7.73,0,.3.09.61.23.58.44s-.25.33-.48.46a10,10,0,0,1-3.38,1.17c1,1.35,4.14,1.45,6.81,1.15,2.43-.26,5.49-.58,6.46.62a8,8,0,0,1,.48.92c.61,1,2.56,1.38,4.41,1.12a9.77,9.77,0,0,0,4.73-2.06l-6.48-2.32c-.45-.16-.94-.47-.57-.77s1-.18,1.54-.1,1.38-.09,1.27-.4c-.44-1-2.17-1.61-4-1.81s-3.71-.12-5.51-.31c-3.85-.4-6.7-2-9.38-3.52-1.19.24-.76,1.28-1.27,2s-2,1-3.16.92c-1.72-.11-6-1.23-6.12.89C395,65.57,399.41,65.76,401.33,65.63Zm21.33,20.24c-.85-1.27-2.79-2.16-5.13-2.36-1.9-.17-4,.1-5.9,0a24.73,24.73,0,0,1-8-1.94,8.57,8.57,0,0,1-2.29-1.12c-.56-.45-.88-1-1.67-1.36-1.9-.76-4.77.48-7.29.88a12.55,12.55,0,0,1-4.73-.21c-1.16-.25-2.75-1.34-3.91-1.38-3.72-.11,1.21,3.2,2.5,3.7a24.54,24.54,0,0,0,6.1,1.08l9,.86a8.7,8.7,0,0,1,2.35.43,7.35,7.35,0,0,1,1.46,1c1.85,1.3,4.94,1.83,8.07,1.77A49.24,49.24,0,0,0,422.66,85.87Zm-29,35.66c.05-.38-.32-.69-.7-1a4.43,4.43,0,0,0-2.89-1,6.66,6.66,0,0,0-4,2c-2.19,2-8.69,5.19-6.68,7.45,2.57,2.88,6.52-1.83,7.8-3.42a6.66,6.66,0,0,1,2.57-2.13c.74-.32,1.59-.5,2.35-.79S393.63,122,393.68,121.53ZM389,163.22c.89-.69.25-1.59-.74-2-2.08-.9-5.18-.69-8-.44l-7.61.67a18.21,18.21,0,0,0-4.51.79,29.24,29.24,0,0,0-3.08,1.49c-3.25,1.6-18.29,3.44-12.19,6.48a13.11,13.11,0,0,0,7.38.93c4.58-.84,5.24-4.29,9.4-5.36,2-.52,4.07-.12,6.14-.23,3.1-.15,6.16-1.45,9.26-1.6C386.45,163.86,388.12,163.94,389,163.22Zm11.36,2c-.88,0-1.78.16-2.64.11a8.36,8.36,0,0,1-3.32-1,2.73,2.73,0,0,0-1.48,1.74A3.92,3.92,0,0,1,390.6,169c-1.36.8-2.09.69-2.56,1.87-.65,1.62-.61,4.83,3,4.26a24.29,24.29,0,0,0,4.62-1.2,35.1,35.1,0,0,0,4.49-2.14,4.69,4.69,0,0,1,1.38-.55,2.38,2.38,0,0,1,2.41,1.08A2.44,2.44,0,0,0,406,173.6a3.92,3.92,0,0,0,1.31-.26c1.79-.63,2.93-2,2.64-3a4,4,0,0,0-1.49-1.76C406.51,166.92,404.07,165.16,400.39,165.26Zm6.27-12.3c.39-1.74-2.51-2.7-5-3.28a8.65,8.65,0,0,0-3.12-.29c-.66.08-1.3.29-1.95.33a6.63,6.63,0,0,1-2-.29,33.9,33.9,0,0,0-11.63-.69,40.2,40.2,0,0,1-4.95.43c-3.51-.08-4.62-1.69-7.36-2.37-2.23-.55-4.54.51-3.53,2.1a4,4,0,0,0,2.27,1.5,20.79,20.79,0,0,0,3.11.52c10.9,1.42,17.89,7.06,28.22,9.24a9.36,9.36,0,0,0,2.88.24,3.19,3.19,0,0,0,2.41-1.16c.47-1-1.15-1.59-1.41-2.5C404.24,155.52,406.36,154.25,406.66,153Z"/></g></g></g></svg>