<svg xmlns="http://www.w3.org/2000/svg" xmlns:xlink="http://www.w3.org/1999/xlink" viewBox="0 0 352.67 94.65"><defs><style>.cls-1{fill:url(#未命名的渐变_63);}.cls-2{fill:url(#未命名的渐变_17);}</style><linearGradient id="未命名的渐变_63" x1="78.2" y1="77.5" x2="345.76" y2="77.5" gradientUnits="userSpaceOnUse"><stop offset="0" stop-color="#ff3cbc"/><stop offset="0.5" stop-color="#7f80ff"/><stop offset="1" stop-color="#00e4ff"/></linearGradient><linearGradient id="未命名的渐变_17" x1="1.44" y1="79.01" x2="100.89" y2="3.75" gradientUnits="userSpaceOnUse"><stop offset="0" stop-color="#0024b2"/><stop offset="1" stop-color="#c6c"/></linearGradient></defs><g id="图层_2" data-name="图层 2"><g id="Layer_1" data-name="Layer 1"><path class="cls-1" d="M87.44,74.68a1.39,1.39,0,0,0,.41,1,1.35,1.35,0,0,0,1,.41h14.08a4.68,4.68,0,0,1,4.68,4.69V81a4.69,4.69,0,0,1-4.68,4.7H85.22a.18.18,0,0,1-.09,0,.21.21,0,0,1,0-.11V83a.15.15,0,0,1,0-.1.14.14,0,0,1,.09-.05h17.7a1.33,1.33,0,0,0,1-.41,1.34,1.34,0,0,0,.41-1V80.31a1.39,1.39,0,0,0-.41-1,1.34,1.34,0,0,0-1-.42H88.84a4.68,4.68,0,0,1-4.68-4.67V74a4.68,4.68,0,0,1,4.68-4.68h17.7a.12.12,0,0,1,.09,0,.18.18,0,0,1,0,.09V72a.14.14,0,0,1-.13.13H88.84a1.35,1.35,0,0,0-1,.41,1.37,1.37,0,0,0-.41,1Z"/><path class="cls-1" d="M115.81,85.58a.12.12,0,0,1,0,.09.18.18,0,0,1-.11,0h-3a.18.18,0,0,1-.09,0,.12.12,0,0,1,0-.09V69.44a.14.14,0,0,1,0-.11.12.12,0,0,1,.09,0h3a.14.14,0,0,1,.15.15Z"/><path class="cls-1" d="M140.9,69.44a.14.14,0,0,1,.15-.15h3a.12.12,0,0,1,.09,0,.14.14,0,0,1,0,.11V85.58a.12.12,0,0,1,0,.09.18.18,0,0,1-.09,0h-6.14a3.57,3.57,0,0,1-3-1.59l-7.63-11.38a1.45,1.45,0,0,0-1.19-.63H124V85.58a.12.12,0,0,1,0,.09.18.18,0,0,1-.11,0h-3a.18.18,0,0,1-.09,0,.12.12,0,0,1,0-.09V69.44a.14.14,0,0,1,0-.11.12.12,0,0,1,.09,0H127a3.58,3.58,0,0,1,3,1.61l7.64,11.36a1.38,1.38,0,0,0,1.18.64h2.1Z"/><path class="cls-1" d="M167.88,82.9a1.43,1.43,0,0,0,1.41-1.41V77.65a.14.14,0,0,1,0-.11.12.12,0,0,1,.09,0h3a.14.14,0,0,1,.15.15v3.84a4.23,4.23,0,0,1-4.23,4.22H153.81a4.68,4.68,0,0,1-4.7-4.7V74a4.68,4.68,0,0,1,4.7-4.7h18.61a.14.14,0,0,1,.15.15V72a.12.12,0,0,1,0,.09.18.18,0,0,1-.11,0H153.81a1.37,1.37,0,0,0-1,.42,1.38,1.38,0,0,0-.41,1v8a1.38,1.38,0,0,0,.41,1,1.37,1.37,0,0,0,1,.42Z"/><path class="cls-1" d="M201,81a4.68,4.68,0,0,1-4.7,4.68H182.19A4.69,4.69,0,0,1,177.5,81V69.44a.14.14,0,0,1,0-.11.12.12,0,0,1,.1,0h3a.12.12,0,0,1,.09,0,.14.14,0,0,1,0,.11v12a1.34,1.34,0,0,0,.42,1,1.38,1.38,0,0,0,1,.41h14.07a1.42,1.42,0,0,0,1.42-1.41v-12a.14.14,0,0,1,0-.11.12.12,0,0,1,.1,0h3a.15.15,0,0,1,.11,0,.18.18,0,0,1,0,.11Z"/><path class="cls-1" d="M229.33,85.58a.12.12,0,0,1,0,.09.18.18,0,0,1-.09,0H210.58a4.69,4.69,0,0,1-4.7-4.7V69.44a.14.14,0,0,1,.05-.11.1.1,0,0,1,.09,0h3a.15.15,0,0,1,.11,0,.14.14,0,0,1,0,.11v12a1.38,1.38,0,0,0,.41,1,1.34,1.34,0,0,0,1,.42H229.2a.14.14,0,0,1,.13.13Z"/><path class="cls-1" d="M249.26,70.54a4.25,4.25,0,0,1,3-1.25h6.55a.14.14,0,0,1,.15.15V85.58a.12.12,0,0,1,0,.09.18.18,0,0,1-.11,0h-3a.18.18,0,0,1-.09,0,.12.12,0,0,1,0-.09V72.11h-2.74a1.38,1.38,0,0,0-1,.41L238.71,85.68l-.1,0h-4.19a.13.13,0,0,1-.13-.08.14.14,0,0,1,0-.15Z"/><path class="cls-1" d="M287.32,75.63a4.58,4.58,0,0,1-.75,2.57,4.68,4.68,0,0,1-2,1.7l.07.13,2.61,5.48a.15.15,0,0,1,0,.13.11.11,0,0,1-.11.07h-3.33a.17.17,0,0,1-.14-.08l-2.52-5.31h-14v5.26a.12.12,0,0,1,0,.09.18.18,0,0,1-.11,0h-3a.13.13,0,0,1-.09,0,.12.12,0,0,1,0-.09V69.44a.14.14,0,0,1,0-.11.1.1,0,0,1,.09,0h18.63a4.68,4.68,0,0,1,4.68,4.7ZM267.16,77.5h15.48a1.4,1.4,0,0,0,1.4-1.41V73.51a1.38,1.38,0,0,0-.41-1,1.37,1.37,0,0,0-1-.41H267.16Z"/><path class="cls-1" d="M295.53,85.58a.12.12,0,0,1,0,.09.18.18,0,0,1-.11,0h-3a.18.18,0,0,1-.09,0,.12.12,0,0,1,0-.09V69.44a.14.14,0,0,1,0-.11.12.12,0,0,1,.09,0h3a.14.14,0,0,1,.15.15Z"/><path class="cls-1" d="M300.46,69.44a.14.14,0,0,1,0-.11.12.12,0,0,1,.09,0h23.18a.12.12,0,0,1,.09,0,.14.14,0,0,1,0,.11V72a.12.12,0,0,1,0,.09.18.18,0,0,1-.09,0h-9.95V85.56a.15.15,0,0,1,0,.11.18.18,0,0,1-.09,0h-3a.18.18,0,0,1-.11,0,.15.15,0,0,1,0-.11V72.1h-10a.18.18,0,0,1-.09,0,.12.12,0,0,1,0-.09Z"/><path class="cls-1" d="M352.67,85.56a.15.15,0,0,1,0,.11.18.18,0,0,1-.11,0h-3a.13.13,0,0,1-.09,0,.16.16,0,0,1-.05-.11V80.08H336.56a4.15,4.15,0,0,1-2.24-.65,4.21,4.21,0,0,1-1.57-1.77l-3.91-8.17a.17.17,0,0,1,0-.14.13.13,0,0,1,.11-.06h3.33a.16.16,0,0,1,.13.08L335.59,76a1.42,1.42,0,0,0,1.27.8h12.52V69.42a.14.14,0,0,1,.05-.09.1.1,0,0,1,.09,0h3a.14.14,0,0,1,.11,0,.12.12,0,0,1,0,.09Z"/><path class="cls-2" d="M76.32.2C21.2,4.68-4.7,51,.7,77.06,5.32,99.64,23.42,94,23.42,94,44.1,88.17,41.16,56.32,69,52.21c8.59-1.35,18.41-2.1,30.37-7.6C125.37,31.2,114-2.89,76.32.2ZM32.27,72c-3.16,9.46-14.44,13.23-21.79,5C-4.83,57,39.63,37.51,56.73,49.56,49,51.29,39.81,53.68,32.27,72Zm38.6-31.15c-15.1,4.7-34.55-10.67-56.74,10.25,1.13-9.59,13-32.44,43.18-41.62C84.79.65,93.1,33.88,70.87,40.83Z"/></g></g></svg>