<svg xmlns="http://www.w3.org/2000/svg" viewBox="0 0 16.6 25.11"><defs><style>.cls-1{fill:#fff;}</style></defs><g id="图层_2" data-name="图层 2"><g id="Layer_1" data-name="Layer 1"><path class="cls-1" d="M8.39,25.11c-.46-1-.88-1.87-1.29-2.76a58.62,58.62,0,0,0-4.45-7.67,26.1,26.1,0,0,1-2-3.46A7.41,7.41,0,0,1,.69,5.14,8.32,8.32,0,0,1,9.44.07a8.29,8.29,0,0,1,5.73,12.86c-1.43,2.24-2.87,4.46-4.19,6.76-.88,1.53-1.55,3.19-2.31,4.79Zm0-20A3.14,3.14,0,0,0,5.16,8.27a3.24,3.24,0,0,0,3.19,3.27,3.31,3.31,0,0,0,3.23-3.12A3.18,3.18,0,0,0,8.42,5.15Z"/></g></g></svg>