<svg xmlns="http://www.w3.org/2000/svg" viewBox="0 0 25.21 15.95"><defs><style>.cls-1{fill:#fff;}</style></defs><g id="图层_2" data-name="图层 2"><g id="Layer_1" data-name="Layer 1"><path class="cls-1" d="M0,1.54,6.65,7.17C8,8.29,9.26,9.42,10.6,10.52a2.93,2.93,0,0,0,4.08-.08L24.9,1.76l.31-.24v1.4q0,5.49,0,11a1.82,1.82,0,0,1-2,2c-1.92,0-3.83,0-5.75,0H2.22A1.92,1.92,0,0,1,.08,14.6,2,2,0,0,1,0,14Q0,8,0,1.93C0,1.83,0,1.73,0,1.54Z"/><path class="cls-1" d="M1.13,0h22.8L24,.11,22.07,1.75l-8.4,7.13c-.94.8-1.24.8-2.18,0L1.61.44C1.49.34,1.37.22,1.13,0Z"/></g></g></svg>