<svg xmlns="http://www.w3.org/2000/svg" viewBox="0 0 20.27 25.11"><defs><style>.cls-1{fill:#fff;}</style></defs><g id="图层_2" data-name="图层 2"><g id="Layer_1" data-name="Layer 1"><path class="cls-1" d="M0,4.79a4.33,4.33,0,0,1,.94-3,6.75,6.75,0,0,1,2-1.3,6.39,6.39,0,0,1,2-.49A1.82,1.82,0,0,1,6.61.88a4.31,4.31,0,0,1,.67,1.27,30.33,30.33,0,0,1,.67,3A1.85,1.85,0,0,1,7.23,6.9a6.91,6.91,0,0,1-.79.66c-.9.58-1,1-.68,2.18a13.89,13.89,0,0,0,2.12,4.12,14.76,14.76,0,0,0,3.42,3.76c.9.66,1.37.72,2.25.07a2.86,2.86,0,0,1,3.92,0c.7.57,1.48,1.06,2.12,1.69a2.23,2.23,0,0,1,.28,2.89,6.88,6.88,0,0,1-2.52,2.42,3.76,3.76,0,0,1-3.1.06A12.52,12.52,0,0,1,9.7,22,32.06,32.06,0,0,1,.57,8.06,11.28,11.28,0,0,1,.2,6.41C.11,5.88.06,5.33,0,4.79Z"/></g></g></svg>