<svg xmlns="http://www.w3.org/2000/svg" xmlns:xlink="http://www.w3.org/1999/xlink" viewBox="0 0 157.49 39.22"><defs><style>.cls-1{fill:url(#未命名的渐变_63);}.cls-2{fill:url(#未命名的渐变_63-12);}</style><linearGradient id="未命名的渐变_63" x1="30.8" y1="31.91" x2="154.3" y2="31.91" gradientUnits="userSpaceOnUse"><stop offset="0" stop-color="#ff3cbc"/><stop offset="0.5" stop-color="#7f80ff"/><stop offset="1" stop-color="#00e4ff"/></linearGradient><linearGradient id="未命名的渐变_63-12" x1="0" y1="19.61" x2="47.02" y2="19.61" xlink:href="#未命名的渐变_63"/></defs><g id="图层_2" data-name="图层 2"><g id="Layer_1" data-name="Layer 1"><path class="cls-1" d="M35.07,30.61a.62.62,0,0,0,.19.46.6.6,0,0,0,.45.19h6.5a2.08,2.08,0,0,1,1.53.63,2.11,2.11,0,0,1,.63,1.54v.1a2.08,2.08,0,0,1-.63,1.53,2.05,2.05,0,0,1-1.53.64H34.05l0,0a.08.08,0,0,1,0,0V34.47a.06.06,0,0,1,0,0,.06.06,0,0,1,0,0h8.16a.66.66,0,0,0,.46-.19.62.62,0,0,0,.19-.46v-.54a.65.65,0,0,0-.65-.65h-6.5a2.09,2.09,0,0,1-1.52-.64,2,2,0,0,1-.64-1.52v-.12a2.17,2.17,0,0,1,2.16-2.16h8.17l0,0a0,0,0,0,1,0,0v1.18a0,0,0,0,1,0,0l0,0H35.71a.6.6,0,0,0-.45.19.6.6,0,0,0-.19.46Z"/><path class="cls-1" d="M48.16,35.64a0,0,0,0,1,0,0l0,0H46.71a.05.05,0,0,1,0,0,0,0,0,0,1,0,0V28.19s0,0,0-.05a.05.05,0,0,1,0,0H48.1l0,0s0,0,0,.05Z"/><path class="cls-1" d="M59.74,28.19a.08.08,0,0,1,0-.05l.05,0H61.2l0,0a.08.08,0,0,1,0,.05v7.45a.08.08,0,0,1,0,0l0,0H58.36A1.65,1.65,0,0,1,57,35l-3.52-5.26a.67.67,0,0,0-.55-.28H52v6.21a0,0,0,0,1,0,0l0,0H50.5a.05.05,0,0,1,0,0,0,0,0,0,1,0,0V28.19s0,0,0-.05a.05.05,0,0,1,0,0h2.83a1.67,1.67,0,0,1,1.37.74l3.53,5.25a.62.62,0,0,0,.54.29h1Z"/><path class="cls-1" d="M72.19,34.4a.62.62,0,0,0,.46-.19.63.63,0,0,0,.2-.46V32s0,0,0-.05a.05.05,0,0,1,0,0h1.38l0,0s0,0,0,.05v1.77a1.95,1.95,0,0,1-2,2H65.7a2.15,2.15,0,0,1-2.17-2.17V30.29a2.15,2.15,0,0,1,2.17-2.17h8.59l0,0s0,0,0,.05v1.17a0,0,0,0,1,0,0l0,0H65.7a.6.6,0,0,0-.46.19.62.62,0,0,0-.19.46v3.68a.62.62,0,0,0,.19.46.6.6,0,0,0,.46.19Z"/><path class="cls-1" d="M87.46,33.54A2.15,2.15,0,0,1,85.3,35.7H78.8a2.12,2.12,0,0,1-1.53-.63,2.08,2.08,0,0,1-.63-1.53V28.19a.07.07,0,0,1,0-.05l0,0h1.39a.05.05,0,0,1,0,0,.08.08,0,0,1,0,.05v5.56a.64.64,0,0,0,.19.46.63.63,0,0,0,.46.19h6.5a.62.62,0,0,0,.46-.19.6.6,0,0,0,.19-.46V28.19a.08.08,0,0,1,0-.05l0,0H87.4l0,0a.07.07,0,0,1,0,.05Z"/><path class="cls-1" d="M100.56,35.64l0,0,0,0H91.91a2.15,2.15,0,0,1-2.17-2.17V28.19s0,0,0-.05a.05.05,0,0,1,0,0h1.39l0,0a.07.07,0,0,1,0,.05v5.56a.66.66,0,0,0,.19.46.63.63,0,0,0,.47.19h8.59l0,0s0,0,0,0Z"/><path class="cls-1" d="M109.76,28.7a1.92,1.92,0,0,1,1.38-.58h3l0,0s0,0,0,.05v7.45a0,0,0,0,1,0,0l0,0h-1.38l0,0a0,0,0,0,1,0,0V29.43h-1.27a.64.64,0,0,0-.45.18l-6.11,6.08h-2a.05.05,0,0,1-.06,0,.06.06,0,0,1,0-.07Z"/><path class="cls-1" d="M127.33,31.05a2.15,2.15,0,0,1-1.28,2l0,.06,1.21,2.53a.13.13,0,0,1,0,.06.05.05,0,0,1,0,0h-1.54a.05.05,0,0,1-.06,0l-1.17-2.45H118v2.43a.08.08,0,0,1,0,0l0,0h-1.38l0,0a.06.06,0,0,1,0,0V28.19a.07.07,0,0,1,0-.05l0,0h8.6a2.17,2.17,0,0,1,2.16,2.17Zm-9.31.86h7.15a.6.6,0,0,0,.45-.19.6.6,0,0,0,.19-.46V30.07a.62.62,0,0,0-.19-.46.63.63,0,0,0-.45-.18H118Z"/><path class="cls-1" d="M131.12,35.64a.08.08,0,0,1,0,0l0,0h-1.39l0,0,0,0V28.19a.08.08,0,0,1,0-.05l0,0h1.39l0,0a.08.08,0,0,1,0,.05Z"/><path class="cls-1" d="M133.39,28.19a.08.08,0,0,1,0-.05l0,0h10.7l0,0s0,0,0,.05v1.17a0,0,0,0,1,0,0l0,0h-4.59v6.21a.08.08,0,0,1,0,0l0,0h-1.39l-.05,0a.08.08,0,0,1,0,0V29.42h-4.59l0,0a.08.08,0,0,1,0,0Z"/><path class="cls-1" d="M157.49,35.63a.08.08,0,0,1,0,0l-.05,0H156l0,0a.08.08,0,0,1,0,0V33.1h-5.92a1.9,1.9,0,0,1-1-.3,1.88,1.88,0,0,1-.72-.81l-1.81-3.78a.13.13,0,0,1,0-.06s0,0,.05,0h1.54a.05.05,0,0,1,.06,0l1.46,3.05a.64.64,0,0,0,.58.38H156V28.18a.08.08,0,0,1,0,0l0,0h1.39l.05,0,0,0Z"/><path class="cls-2" d="M31.63.08C8.79,1.94-1.95,21.13.29,31.94c1.92,9.35,9.41,7,9.41,7,8.57-2.43,7.36-15.63,18.9-17.33,3.55-.56,7.62-.87,12.58-3.15C52,12.93,47.26-1.2,31.63.08ZM13.37,29.83c-1.31,3.92-6,5.48-9,2.06C-2,23.61,16.42,15.54,23.51,20.54,20.3,21.26,16.5,22.24,13.37,29.83Zm16-12.91c-6.26,1.95-14.32-4.42-23.51,4.25.46-4,5.4-13.44,17.89-17.25C35.14.27,38.58,14,29.37,16.92Z"/></g></g></svg>